<svg xmlns="http://www.w3.org/2000/svg" xmlns:xlink="http://www.w3.org/1999/xlink" xmlns:lucid="lucid" width="1209" height="364"><g transform="translate(-595 -387)" lucid:page-tab-id="0_0"><path d="M0 0h2038.67v1575.33H0z" fill="#fff"/><path d="M834 602.33c0 25.6-20.74 46.34-46.33 46.34-25.6 0-46.34-20.75-46.34-46.34 0-25.6 20.75-46.33 46.34-46.33 25.6 0 46.33 20.74 46.33 46.33z" stroke="#666" fill="#fff"/><path d="M712.2 572.03h20.5v2h-22.5v-33.98h2m76.47 14.45h-2v-38H712.2v4.9h-2v-6.9h78.47"/><path d="M788.67 555.55l-1-.05-1 .03v-1.06h2M747.96 573.03l-14.26 4.64v-9.27z"/><path d="M751.2 573.03l-18.5 6v-12m2 9.26l10.03-3.27-10.03-3.26"/><use xlink:href="#a" transform="matrix(1,0,0,1,677.1490066202801,521.3863802888017) translate(0 12.444444444444446)"/><path d="M667.67 580.33c0-4.4 3.58-8 8-8h224c4.4 0 8 3.6 8 8v44c0 4.42-3.6 8-8 8h-224c-4.42 0-8-3.58-8-8z" stroke="#000" stroke-opacity="0" fill="#fff" fill-opacity="0"/><use xlink:href="#b" transform="matrix(1,0,0,1,672.6666666666667,577.3333333333334) translate(87.38888888888889 28.069444444444446)"/><path d="M880.36 603.33H835.5v-2h44.86m119.97 2h-51.87v-2h51.87"/><path d="M835.53 603.33h-1.08l.05-1-.03-1h1.06M1015.6 602.33l-14.27 4.64v-9.27z"/><path d="M1018.83 602.33l-18.5 6.02v-12.03m2 9.27l10.03-3.27-10.03-3.26"/><use xlink:href="#a" transform="matrix(1,0,0,1,880.3603150546851,593.000000102291) translate(0 12.444444444444446)"/><path d="M1112 602.33c0 25.6-20.74 46.34-46.33 46.34-25.6 0-46.34-20.75-46.34-46.34 0-25.6 20.75-46.33 46.34-46.33 25.6 0 46.33 20.74 46.33 46.33z" stroke="#666" fill="#fff"/><path d="M990.2 572.03h20.5v2h-22.5v-33.98h2m76.47 14.45h-2v-38H990.2v4.9h-2v-6.9h78.47"/><path d="M1066.67 555.55l-1-.05-1 .03v-1.06h2M1025.96 573.03l-14.26 4.64v-9.27z"/><path d="M1029.2 573.03l-18.5 6v-12m2 9.26l10.03-3.27-10.03-3.26"/><use xlink:href="#a" transform="matrix(1,0,0,1,955.1490066202803,521.3863802888017) translate(0 12.444444444444446)"/><path d="M788.67 688.17h96.6v2h-98.6v-22.5h2m278 22.5h-98.6v-2h96.6v-38h2"/><path d="M1065.66 649.17l1-.03v1.05h-2v-1.1M792.3 666.67h-9.27l4.64-14.27z"/><path d="M793.68 667.67h-12.03l6.02-18.5m-3.26 16.5h6.53l-3.26-10.03"/><use xlink:href="#c" transform="matrix(1,0,0,1,885.271605040651,679.8335577676379) translate(0 12.444444444444446)"/><use xlink:href="#d" transform="matrix(1,0,0,1,885.271605040651,679.8335577676379) translate(34.48148148148149 12.444444444444446)"/><path d="M945.67 580.33c0-4.4 3.58-8 8-8h224c4.4 0 8 3.6 8 8v44c0 4.42-3.6 8-8 8h-224c-4.42 0-8-3.58-8-8z" stroke="#000" stroke-opacity="0" fill="#fff" fill-opacity="0"/><use xlink:href="#e" transform="matrix(1,0,0,1,950.6666666666667,577.3333333333334) translate(103.78703703703704 28.069444444444446)"/><path d="M666.67 602.33h-39 94.66" stroke="#000" stroke-width="2" fill="none"/><path d="M667.67 603.33h-1.03v-2h1.03"/><path d="M737.6 602.33l-14.27 4.64v-9.27z" stroke="#000" stroke-width="2"/><path d="M779.33 425c0-4.42 3.6-8 8-8h224c4.42 0 8 3.58 8 8v44c0 4.42-3.58 8-8 8h-224c-4.4 0-8-3.58-8-8z" stroke="#000" stroke-opacity="0" fill="#fff" fill-opacity="0"/><use xlink:href="#f" transform="matrix(1,0,0,1,784.3333333333334,422) translate(94.24670781893005 30.056481481481484)"/><path d="M1482.67 602.33c0 25.6-20.75 46.34-46.34 46.34-25.6 0-46.33-20.75-46.33-46.34 0-25.6 20.74-46.33 46.33-46.33 25.6 0 46.34 20.74 46.34 46.33z" stroke="#666" fill="#fff"/><path d="M1315.33 602.33h-39H1371" stroke="#000" stroke-width="2" fill="none"/><path d="M1316.33 603.33h-1.02v-2h1.03"/><path d="M1386.26 602.33l-14.26 4.64v-9.27z" stroke="#000" stroke-width="2"/><path d="M1760.67 602.33c0 25.95-20.75 47-46.34 47-25.6 0-46.33-21.05-46.33-47 0-25.94 20.74-46.98 46.33-46.98 25.6 0 46.34 21.04 46.34 46.98z" stroke="#666" fill="#fff"/><path d="M1756.03 602.33c0 23.4-18.67 42.35-41.7 42.35s-41.7-18.96-41.7-42.35c0-23.4 18.67-42.35 41.7-42.35s41.7 18.96 41.7 42.35z" stroke="#666" fill="#fff"/><path d="M1756.03 602.33c0 23.4-18.67 42.35-41.7 42.35s-41.7-18.96-41.7-42.35c0-23.4 18.67-42.35 41.7-42.35s41.7 18.96 41.7 42.35z" fill="none"/><path d="M1520.46 603.33h-36.3v-2h36.3m128.54 2h-45.96v-2H1649"/><path d="M1484.2 603.33h-1.1l.07-1-.03-1h1.05M1664.26 602.33l-14.26 4.64v-9.27z"/><path d="M1667.5 602.33l-18.5 6.02v-12.03m2 9.27l10.03-3.27-10.03-3.26"/><use xlink:href="#g" transform="matrix(1,0,0,1,1520.4640972705834,593) translate(0 12.444444444444446)"/><use xlink:href="#d" transform="matrix(1,0,0,1,1520.4640972705834,593) translate(34.26543209876544 12.444444444444446)"/><path d="M1316.33 580.33c0-4.4 3.6-8 8-8h224c4.42 0 8 3.6 8 8v44c0 4.42-3.58 8-8 8h-224c-4.4 0-8-3.58-8-8z" stroke="#000" stroke-opacity="0" fill="#fff" fill-opacity="0"/><use xlink:href="#h" transform="matrix(1,0,0,1,1321.333333333334,577.3333333333334) translate(97.73765432098766 28.069444444444446)"/><path d="M1594.33 580.33c0-4.4 3.6-8 8-8h224c4.42 0 8 3.6 8 8v44c0 4.42-3.58 8-8 8h-224c-4.4 0-8-3.58-8-8z" stroke="#000" stroke-opacity="0" fill="#fff" fill-opacity="0"/><use xlink:href="#i" transform="matrix(1,0,0,1,1599.3333333333335,577.3333333333334) translate(109.81481481481481 28.069444444444446)"/><path d="M779.33 425c0-4.42 3.6-8 8-8h224c4.42 0 8 3.58 8 8v44c0 4.42-3.58 8-8 8h-224c-4.4 0-8-3.58-8-8z" stroke="#000" stroke-opacity="0" fill="#fff" fill-opacity="0"/><use xlink:href="#f" transform="matrix(1,0,0,1,784.3333333333334,422) translate(94.24670781893005 30.056481481481484)"/><path d="M1451.7 425c0-4.42 3.6-8 8-8h224c4.43 0 8 3.58 8 8v44c0 4.42-3.57 8-8 8h-224c-4.4 0-8-3.58-8-8z" stroke="#000" stroke-opacity="0" fill="#fff" fill-opacity="0"/><g><use xlink:href="#j" transform="matrix(1,0,0,1,1456.7135416666665,422) translate(84.44454732510287 30.056481481481484)"/></g><defs><path fill="#666" d="M219-77C219 17 104-2 11 0l48-248c73 2 169-15 169 57 0 38-24 54-60 60 29 5 51 21 51 54zm-26-111c0-44-62-31-105-33l-16 79c55 0 121 9 121-46zm-7 110c-1-49-69-36-119-38L50-27c61-1 137 12 136-51" id="k"/><path fill="#666" d="M50-231l6-30h32l-6 30H50zM6 0l37-190h31L37 0H6" id="l"/><path fill="#666" d="M133-28C103 26-5 8 13-77c13-62 24-115 90-117 29-1 46 15 56 35l19-102h32L160 0h-30zM45-64c-2 27 10 43 35 43 54-1 69-50 69-103 0-29-15-46-42-46-53-1-58 58-62 106" id="m"/><path fill="#666" d="M179 0l23-115H67L45 0H11l48-248h34L72-143h135l21-105h32L212 0h-33" id="n"/><path fill="#666" d="M103-194c29 0 47 14 56 36 2-11 5-23 8-32h30L160-5C157 61 82 97 21 62 9 55 4 45 1 30l28-7c7 42 83 31 92-3 4-16 9-38 13-55-13 20-29 36-62 36-40 0-60-25-60-64 0-71 23-131 91-131zm4 24c-53 0-58 54-61 104-2 27 10 44 36 44 49 0 65-50 67-102 1-29-15-46-42-46" id="o"/><path fill="#666" d="M67-158c15-20 31-36 64-36 94 0 33 127 27 194h-32l25-140c3-38-53-32-70-12C52-117 51-51 37 0H6l51-261h31" id="p"/><path fill="#666" d="M111-194c62-3 86 47 72 106H45c-7 38 6 69 45 68 27-1 43-14 53-32l24 11C152-15 129 4 87 4 38 3 12-23 12-71c0-70 32-119 99-123zm44 81c14-66-71-72-95-28-4 8-8 17-11 28h106" id="q"/><path fill="#666" d="M66-151c12-25 30-51 66-40l-6 26C45-176 58-65 38 0H6l36-190h30" id="r"/><g id="a"><use transform="matrix(0.04320987654320988,0,0,0.04320987654320988,0,0)" xlink:href="#k"/><use transform="matrix(0.04320987654320988,0,0,0.04320987654320988,10.370370370370372,0)" xlink:href="#l"/><use transform="matrix(0.04320987654320988,0,0,0.04320987654320988,13.783950617283953,0)" xlink:href="#m"/><use transform="matrix(0.04320987654320988,0,0,0.04320987654320988,22.425925925925934,0)" xlink:href="#n"/><use transform="matrix(0.04320987654320988,0,0,0.04320987654320988,33.61728395061729,0)" xlink:href="#l"/><use transform="matrix(0.04320987654320988,0,0,0.04320987654320988,37.030864197530875,0)" xlink:href="#o"/><use transform="matrix(0.04320987654320988,0,0,0.04320987654320988,45.67283950617284,0)" xlink:href="#p"/><use transform="matrix(0.04320987654320988,0,0,0.04320987654320988,54.314814814814824,0)" xlink:href="#q"/><use transform="matrix(0.04320987654320988,0,0,0.04320987654320988,62.9567901234568,0)" xlink:href="#r"/></g><path fill="#666" d="M194-120c59 52 2 134-86 124-53-6-90-18-98-63l31-7c8 30 29 43 70 43 46 0 84-17 71-62-32-43-135-20-137-98-3-89 178-90 191-16l-30 9c-8-48-127-53-127 5 0 53 81 35 115 65" id="s"/><path fill="#666" d="M51-54c-9 22 5 41 31 30L79-1C43 14 10-4 19-52l22-115H19l5-23h22l19-43h21l-9 43h35l-4 23H73" id="t"/><path fill="#666" d="M165-48c-4 18 1 34 23 27l-3 20c-29 8-62 0-52-35h-2C116-14 99 4 63 4 30 4 8-16 8-49c0-68 71-67 138-67 10-26 0-56-31-54-26 1-42 9-47 31l-32-5c8-67 160-71 144 15-5 28-9 54-15 81zM42-50c3 52 80 24 89-6 7-12 7-24 11-38-47 1-103-4-100 44" id="u"/><g id="b"><use transform="matrix(0.04320987654320988,0,0,0.04320987654320988,0,0)" xlink:href="#s"/><use transform="matrix(0.04320987654320988,0,0,0.04320987654320988,10.370370370370372,0)" xlink:href="#t"/><use transform="matrix(0.04320987654320988,0,0,0.04320987654320988,14.691358024691363,0)" xlink:href="#u"/><use transform="matrix(0.04320987654320988,0,0,0.04320987654320988,23.333333333333336,0)" xlink:href="#r"/><use transform="matrix(0.04320987654320988,0,0,0.04320987654320988,28.47530864197531,0)" xlink:href="#t"/><use transform="matrix(0.04320987654320988,0,0,0.04320987654320988,32.7962962962963,0)" xlink:href="#k"/><use transform="matrix(0.04320987654320988,0,0,0.04320987654320988,43.16666666666667,0)" xlink:href="#l"/><use transform="matrix(0.04320987654320988,0,0,0.04320987654320988,46.580246913580254,0)" xlink:href="#m"/></g><path fill="#666" d="M6 0l50-261h32L37 0H6" id="v"/><path fill="#666" d="M58-38C53-5 46 26 28 46H7C19 32 27 18 32 0H17l7-38h34" id="w"/><g id="c"><use transform="matrix(0.04320987654320988,0,0,0.04320987654320988,0,0)" xlink:href="#s"/><use transform="matrix(0.04320987654320988,0,0,0.04320987654320988,10.370370370370372,0)" xlink:href="#q"/><use transform="matrix(0.04320987654320988,0,0,0.04320987654320988,19.01234567901235,0)" xlink:href="#v"/><use transform="matrix(0.04320987654320988,0,0,0.04320987654320988,22.425925925925934,0)" xlink:href="#v"/><use transform="matrix(0.04320987654320988,0,0,0.04320987654320988,25.839506172839513,0)" xlink:href="#w"/></g><path fill="#666" d="M125-24c46 0 70-25 89-51l25 16C214-24 183 4 123 4 8 4-5-146 60-208c32-50 158-61 191-5 5 7 9 14 11 22l-32 10c-9-28-33-43-69-43-74 0-108 51-108 125 0 46 24 75 72 75" id="x"/><path fill="#666" d="M67-158c22-48 132-52 116 29L158 0h-32l25-140c3-38-53-32-70-12C52-117 51-52 38 0H6l36-190h30" id="y"/><path fill="#666" d="M44-68c0 29 11 47 38 47 30 0 42-19 51-41l28 9C148-21 126 4 82 4 31 4 10-29 12-85c3-77 74-140 146-93 12 8 15 23 18 40l-31 5c-1-22-13-36-36-36-52 0-65 49-65 101" id="z"/><g id="d"><use transform="matrix(0.04320987654320988,0,0,0.04320987654320988,0,0)" xlink:href="#x"/><use transform="matrix(0.04320987654320988,0,0,0.04320987654320988,11.19135802469136,0)" xlink:href="#u"/><use transform="matrix(0.04320987654320988,0,0,0.04320987654320988,19.833333333333336,0)" xlink:href="#y"/><use transform="matrix(0.04320987654320988,0,0,0.04320987654320988,28.47530864197531,0)" xlink:href="#z"/><use transform="matrix(0.04320987654320988,0,0,0.04320987654320988,36.25308641975309,0)" xlink:href="#q"/><use transform="matrix(0.04320987654320988,0,0,0.04320987654320988,44.89506172839506,0)" xlink:href="#v"/></g><g id="e"><use transform="matrix(0.04320987654320988,0,0,0.04320987654320988,0,0)" xlink:href="#k"/><use transform="matrix(0.04320987654320988,0,0,0.04320987654320988,10.370370370370372,0)" xlink:href="#l"/><use transform="matrix(0.04320987654320988,0,0,0.04320987654320988,13.783950617283953,0)" xlink:href="#m"/></g><path fill="#666" d="M240-76C239 26 104-5 6 0l48-248c79 4 193-21 193 58 0 38-25 53-57 60 29 5 49 21 50 54zm-45-106c0-40-58-24-96-27l-12 61c45-3 108 12 108-34zm-7 105c0-44-65-31-109-33L66-38c51-3 122 14 122-39" id="A"/><path fill="#666" d="M50-224l7-37h49l-7 37H50zM6 0l37-190h49L55 0H6" id="B"/><path fill="#666" d="M132-28C118-9 101 4 69 4 30 4 10-23 10-62c0-70 24-129 92-132 31-1 47 14 56 35l19-102h49L179 0h-49zM62-69c0 22 7 39 29 39 45-2 54-45 57-90 2-27-10-40-33-40-44 0-53 48-53 91" id="C"/><g id="f"><use transform="matrix(0.07181069958847737,0,0,0.07181069958847737,0,0)" xlink:href="#A"/><use transform="matrix(0.07181069958847737,0,0,0.07181069958847737,18.59897119341564,0)" xlink:href="#B"/><use transform="matrix(0.07181069958847737,0,0,0.07181069958847737,25.780041152263376,0)" xlink:href="#C"/></g><path fill="#666" d="M67 3c-93-2-31-127-26-193h32L48-50c-3 39 53 32 70 12 30-34 30-101 43-152h32L157 0h-30c1-10 6-24 4-33-14 20-29 37-64 36" id="D"/><path fill="#666" d="M198-190L69 30C53 58 25 83-20 72c4-11-1-27 19-22 33-1 43-29 59-52L20-190h32L79-34l84-156h35" id="E"/><g id="g"><use transform="matrix(0.04320987654320988,0,0,0.04320987654320988,0,0)" xlink:href="#k"/><use transform="matrix(0.04320987654320988,0,0,0.04320987654320988,10.370370370370372,0)" xlink:href="#D"/><use transform="matrix(0.04320987654320988,0,0,0.04320987654320988,19.01234567901235,0)" xlink:href="#E"/><use transform="matrix(0.04320987654320988,0,0,0.04320987654320988,25.62345679012346,0)" xlink:href="#w"/></g><path fill="#666" d="M20-101c0-91 52-143 145-150 126-9 127 168 53 223-23 17-55 32-93 32C57 4 20-33 20-101zm216-33c5-57-18-91-73-90-77 1-110 51-110 125 0 49 23 75 73 75 72-1 104-45 110-110" id="F"/><path fill="#666" d="M76-167L44 0H12l33-167H18l4-23h27c3-47 25-81 82-69l-4 24c-35-8-44 15-46 45h37l-5 23H76" id="G"/><g id="h"><use transform="matrix(0.04320987654320988,0,0,0.04320987654320988,0,0)" xlink:href="#F"/><use transform="matrix(0.04320987654320988,0,0,0.04320987654320988,12.098765432098766,0)" xlink:href="#G"/><use transform="matrix(0.04320987654320988,0,0,0.04320987654320988,16.419753086419753,0)" xlink:href="#G"/><use transform="matrix(0.04320987654320988,0,0,0.04320987654320988,20.74074074074074,0)" xlink:href="#q"/><use transform="matrix(0.04320987654320988,0,0,0.04320987654320988,29.382716049382715,0)" xlink:href="#r"/></g><path fill="#666" d="M11 0l48-248h184l-5 28H87l-15 79h140l-5 27H67L50-27h158l-5 27H11" id="H"/><use transform="matrix(0.04320987654320988,0,0,0.04320987654320988,0,0)" xlink:href="#H" id="i"/><path fill="#666" d="M18-101c0-91 52-150 145-150 68 0 111 34 111 101C274-54 221 4 128 4 59 4 18-33 18-101zm202-32c4-46-15-77-59-77-65 0-88 46-91 108-2 41 22 65 60 65 60 0 84-40 90-96" id="I"/><path fill="#666" d="M93-157L62 0H13l31-157H16l6-33h28c2-54 40-81 100-68l-6 32c-29-8-44 9-45 36h38l-7 33H93" id="J"/><path fill="#666" d="M114-194c63-2 87 48 72 110H63c-3 28 1 55 31 54 21-1 32-13 37-29l44 13C160-14 137 4 91 4 41 4 11-22 11-73c0-71 33-119 103-121zm30 77c14-47-50-61-67-22-3 6-6 13-8 22h75" id="K"/><path fill="#666" d="M84-151c13-25 34-51 72-40l-8 41C67-170 71-64 56 0H6l36-190h47" id="L"/><g id="j"><use transform="matrix(0.07181069958847737,0,0,0.07181069958847737,0,0)" xlink:href="#I"/><use transform="matrix(0.07181069958847737,0,0,0.07181069958847737,20.106995884773664,0)" xlink:href="#J"/><use transform="matrix(0.07181069958847737,0,0,0.07181069958847737,28.14979423868313,0)" xlink:href="#J"/><use transform="matrix(0.07181069958847737,0,0,0.07181069958847737,36.69526748971194,0)" xlink:href="#K"/><use transform="matrix(0.07181069958847737,0,0,0.07181069958847737,51.05740740740741,0)" xlink:href="#L"/></g></defs></g></svg>