<?xml version="1.0" encoding="UTF-8" standalone="no"?>
<svg
   xmlns:dc="http://purl.org/dc/elements/1.1/"
   xmlns:cc="http://creativecommons.org/ns#"
   xmlns:rdf="http://www.w3.org/1999/02/22-rdf-syntax-ns#"
   xmlns:svg="http://www.w3.org/2000/svg"
   xmlns="http://www.w3.org/2000/svg"
   xmlns:xlink="http://www.w3.org/1999/xlink"
   xmlns:sodipodi="http://sodipodi.sourceforge.net/DTD/sodipodi-0.dtd"
   xmlns:inkscape="http://www.inkscape.org/namespaces/inkscape"
   version="1.1"
   id="svg2"
   inkscape:version="1.0.2 (1.0.2+r75+1)"
   sodipodi:docname="avatar.svg"
   x="0px"
   y="0px"
   viewBox="0 0 2285.1999 2285.1999"
   xml:space="preserve"
   inkscape:export-filename="/home/ales-hp/Projects/spacebudz-private/src/images/assets/avatar.png"
   inkscape:export-xdpi="3.1330447"
   inkscape:export-ydpi="3.1330447"
   width="2285.2"
   height="2285.2"><metadata
   id="metadata375"><rdf:RDF><cc:Work
       rdf:about=""><dc:format>image/svg+xml</dc:format><dc:type
         rdf:resource="http://purl.org/dc/dcmitype/StillImage" /><dc:title /></cc:Work></rdf:RDF></metadata><defs
   id="defs373">
	<defs
   id="defs7">
		<path
   id="rect1317"
   d="m 1142.5,0 v 0 c 631,0 1142.6,511.5 1142.6,1142.6 v 0 c 0,631 -511.5,1142.6 -1142.6,1142.6 v 0 C 511.5,2285.2 -0.1,1773.7 -0.1,1142.6 v 0 C -0.1,511.5 511.5,0 1142.5,0 Z" />
	</defs>
	<clipPath
   id="rect1317_1_">
		<use
   xlink:href="#rect1317"
   style="overflow:visible"
   id="use9"
   x="0"
   y="0"
   width="100%"
   height="100%" />
	</clipPath>
	

		
		
		
		
		
		
		
		
		
		
		
		
		
		
		
		
		
		
		
		
		
		
		
		
		
		
		
		
		
		
		
		
		
		
		
		
		
		
		
		
		
		
		
		
		
		
		
		
		
		
		
		
		
		
		
		
		
		
		
		
		
		
		
		
		
		
		
	<clipPath
   clipPathUnits="userSpaceOnUse"
   id="clipPath3912"><g
     id="g4508"><g
       id="g3916"
       transform="translate(2163.1748,2062.0029)"
       style="fill:#ffffe5;fill-opacity:1">
			<path
   id="path3914"
   inkscape:connector-curvature="0"
   class="st2"
   d="m -620.4,199.6 c 0,0 204.8,86.2 228.1,282 23.3,195.8 -127.6,311.8 -127.6,311.8 0,0 95.5,46.9 78.2,109.4 -21.6,78.1 -206.4,45.9 -279.3,19.8 -112.3,-40.3 -30.7,-183.6 -3.6,-239.8 46.7,-97 -66.5,-238.9 -66.5,-238.9 z"
   style="fill:#ffffe5;fill-opacity:1" />
		</g><g
       id="g3920"
       transform="translate(2072.9502,1930.4131)"
       style="fill:#ffffe5;fill-opacity:1">
			<path
   id="path3918"
   inkscape:connector-curvature="0"
   class="st3"
   d="m -697.6,575.4 c 12.7,16.4 110.4,147 65.6,240.1 -2,4.1 -4.3,8.8 -6.8,13.8 -23.3,46.9 -62.2,125.4 -40.9,178.4 8.2,20.3 24.9,35.1 49.8,44.1 56.8,20.4 187.8,45.6 247.5,14.7 15.1,-7.8 24.6,-18.8 28.5,-32.7 16.5,-59.8 -75.9,-106 -76.8,-106.4 -0.8,-0.4 -1.3,-1.2 -1.4,-2.1 -0.1,-0.9 0.3,-1.8 1,-2.3 1.5,-1.2 149.5,-117.4 126.6,-309.4 -21.7,-181.9 -203.9,-269.7 -224.7,-279.1 z m 235.8,510.9 c -63.2,0 -135.2,-17.3 -169.9,-29.7 -26.3,-9.4 -44.1,-25.3 -52.9,-47 -22.2,-55.1 17.4,-134.9 41,-182.6 2.5,-5 4.8,-9.6 6.8,-13.7 45.4,-94.4 -65,-234.8 -66.2,-236.2 -0.7,-0.9 -0.8,-2.2 -0.1,-3.1 l 170.7,-244.3 c 0.7,-1 2,-1.4 3.1,-0.9 2.1,0.9 206.4,89.1 229.7,284.1 21.4,179.3 -103.9,293.4 -125.5,311.6 17.6,9.4 91.9,53 76,110.6 -4.2,15.3 -14.7,27.4 -31.1,35.9 -21.2,11.1 -50.4,15.3 -81.6,15.3"
   style="fill:#ffffe5;fill-opacity:1" />
		</g><g
       id="g3942"
       style="fill:#ffffe5;fill-opacity:1">
			<g
   id="g3922"
   style="fill:#ffffe5;fill-opacity:1">
			</g>
			<g
   id="g3940"
   style="fill:#ffffe5;fill-opacity:1">
				<g
   id="g3938"
   style="fill:#ffffe5;fill-opacity:1">
					<defs
   id="defs3926">
						<rect
   id="rect3924"
   x="1372.1"
   y="2261.6001"
   width="288.20001"
   height="571.70001" />
					</defs>
					<clipPath
   id="clipPath3930">
						<use
   xlink:href="#SVGID_1_"
   style="overflow:visible"
   id="use3928"
   x="0"
   y="0"
   width="100%"
   height="100%" />
					</clipPath>
					<g
   id="g3936"
   class="st4"
   clip-path="url(#SVGID_2_)"
   style="fill:#ffffe5;fill-opacity:1">
						<g
   id="g3934"
   transform="translate(2217.0049,1889.6641)"
   style="fill:#ffffe5;fill-opacity:1">
							<path
   id="path3932"
   inkscape:connector-curvature="0"
   class="st5"
   d="m -574.4,691.7 c -51.4,155.5 -176,224.8 -243.9,251.9 12.3,-35 29.8,-67.7 39.8,-88.5 46.7,-97 -66.5,-238.9 -66.5,-238.9 l 170.7,-244.3 c 0,0 38.7,16.3 84.4,50.8 30,73.4 48.8,168.5 15.5,269"
   style="fill:#ffffe5;fill-opacity:1" />
						</g>
					</g>
				</g>
			</g>
		</g><g
       id="g3946"
       transform="translate(2083.2725,1930.5723)"
       style="fill:#ffffe5;fill-opacity:1">
			<path
   id="path3944"
   inkscape:connector-curvature="0"
   class="st6"
   d="m -688.8,574.9 c 26.5,36.7 104.1,156.5 60.4,247.1 -2,4.2 -4.3,8.9 -6.9,14 -20.7,41.6 -59.1,119.1 -40.4,165.7 6.5,16.3 19.8,27.8 40.6,35.2 64,23 184.5,41.7 235.1,15.5 11.2,-5.8 18,-13.4 20.6,-23 12.9,-46.8 -67.9,-88 -68.7,-88.4 -5.6,-2.8 -9.4,-8.2 -10,-14.5 -0.6,-6.2 2,-12.4 7,-16.2 1.4,-1.1 142.4,-112.5 120.6,-295.3 -18.3,-154.5 -159.8,-238.4 -204,-261 z m 216.8,526.4 c -65.9,0 -139.7,-17.5 -175.2,-30.3 -30.7,-11 -51.5,-29.8 -62,-55.8 -24.8,-61.6 16.7,-145.3 41.5,-195.3 2.4,-4.9 4.7,-9.5 6.7,-13.6 41.3,-85.7 -63.3,-218.4 -64.3,-219.7 -5,-6.3 -5.3,-15.1 -0.7,-21.7 l 170.7,-244.3 c 4.9,-7 14,-9.6 21.9,-6.3 8.8,3.7 214.8,92.7 239.1,296.6 19.3,161.8 -72.9,270.6 -114.9,311 30.8,20.4 80,62.6 65,117.2 -5.4,19.7 -18.5,35 -38.9,45.6 -23.5,12.1 -55.2,16.6 -88.9,16.6"
   style="fill:#ffffe5;fill-opacity:1" />
		</g><g
       id="g3950"
       transform="translate(2312.4043,2251.5942)"
       style="fill:#ffffe5;fill-opacity:1">
			<path
   id="path3948"
   inkscape:connector-curvature="0"
   class="st2"
   d="m -492.7,-341.9 c -57.6,32.7 -146.6,33.4 -219.1,26.6 -67.6,-6.4 -120.8,-19.5 -120.8,-19.5 l -75.9,-72.2 -76.2,-72.5 -115.3,-109.7 -33.5,-31.9 c 0,0 73.3,20.8 172.6,35.5 52.7,7.8 112.7,13.9 172.9,14.2 12.8,0.1 25.6,-0.1 38.3,-0.6 42.2,-1.6 83.7,-6.5 122.1,-16 32.4,-8 62.6,-19.4 89.2,-34.8 0,0 194.6,-151.7 263.3,-51.6 54.1,78.8 -44.8,234.4 -217.6,332.5"
   style="fill:#ffffe5;fill-opacity:1" />
		</g><g
       id="g3972"
       style="fill:#ffffe5;fill-opacity:1">
			<g
   id="g3952"
   style="fill:#ffffe5;fill-opacity:1">
			</g>
			<g
   id="g3970"
   style="fill:#ffffe5;fill-opacity:1">
				<g
   id="g3968"
   style="fill:#ffffe5;fill-opacity:1">
					<defs
   id="defs3956">
						<rect
   id="rect3954"
   x="1178.9"
   y="1586"
   width="873.20001"
   height="353.79999" />
					</defs>
					<clipPath
   id="clipPath3960">
						<use
   xlink:href="#SVGID_3_"
   style="overflow:visible"
   id="use3958"
   x="0"
   y="0"
   width="100%"
   height="100%" />
					</clipPath>
					<g
   id="g3966"
   class="st7"
   clip-path="url(#SVGID_4_)"
   style="fill:#ffffe5;fill-opacity:1">
						<g
   id="g3964"
   transform="translate(2312.4043,2251.5942)"
   style="fill:#ffffe5;fill-opacity:1">
							<path
   id="path3962"
   inkscape:connector-curvature="0"
   class="st5"
   d="m -492.7,-341.9 c -111.3,63.2 -339.9,7 -339.9,7 L -1133.5,-621 c 0,0 51.8,14.7 127.3,28.1 l 173.6,165.1 c 0,0 228.6,56.1 339.9,-7.1 114.1,-64.8 195.9,-154.5 222.9,-230.8 41.7,81.1 -56.2,229.2 -222.9,323.8"
   style="fill:#ffffe5;fill-opacity:1" />
						</g>
					</g>
				</g>
			</g>
		</g><g
       id="g3976"
       transform="translate(2231.3203,2225.6226)"
       style="fill:#ffffe5;fill-opacity:1">
			<path
   id="path3974"
   inkscape:connector-curvature="0"
   class="st6"
   d="m -562.1,-267.7 c -96.1,0 -187.7,-22.1 -193.8,-23.5 -9.7,-2.4 -15.7,-12.2 -13.3,-21.9 2.4,-9.7 12.2,-15.7 21.9,-13.3 2.2,0.5 222.9,53.7 326.6,-5.2 113.5,-64.5 201.9,-160.6 220,-239.2 6.3,-27.3 3.5,-49.9 -8.4,-67.2 -9.8,-14.3 -23.1,-22.6 -40.8,-25.3 -63.3,-9.8 -163.3,55.1 -196.5,80.9 -0.6,0.5 -1.3,1 -2,1.4 -200.9,117.3 -592.6,8.1 -609.2,3.4 -9.6,-2.7 -15.2,-12.8 -12.5,-22.4 2.7,-9.6 12.8,-15.2 22.4,-12.5 3.9,1.1 392.1,109.3 580,0.7 13.3,-10.2 134.8,-101 223.2,-87.4 27.7,4.3 49.6,17.9 65.1,40.6 17.6,25.6 22.4,58.8 13.8,95.9 -20.6,89.3 -113.8,192.3 -237.5,262.6 -42.9,24.6 -101.8,32.4 -159,32.4"
   style="fill:#ffffe5;fill-opacity:1" />
		</g><g
       id="g3980"
       transform="translate(1837.4229,2385.9448)"
       style="fill:#ffffe5;fill-opacity:1">
			<path
   id="path3978"
   inkscape:connector-curvature="0"
   class="st2"
   d="m -899.2,-725.5 c 0,0 -209.5,-0.5 -291.7,64.2 -66.8,52.5 -146.6,582.7 37.3,685.7 99.9,55.9 355.8,51.4 355.8,51.4 z"
   style="fill:#ffffe5;fill-opacity:1" />
		</g><g
       id="g4002"
       style="fill:#ffffe5;fill-opacity:1">
			<g
   id="g3982"
   style="fill:#ffffe5;fill-opacity:1">
			</g>
			<g
   id="g4000"
   style="fill:#ffffe5;fill-opacity:1">
				<g
   id="g3998"
   style="fill:#ffffe5;fill-opacity:1">
					<defs
   id="defs3986">
						<rect
   id="rect3984"
   x="570.5"
   y="1991.3"
   width="469.10001"
   height="470.5" />
					</defs>
					<clipPath
   id="clipPath3990">
						<use
   xlink:href="#SVGID_5_"
   style="overflow:visible"
   id="use3988"
   x="0"
   y="0"
   width="100%"
   height="100%" />
					</clipPath>
					<g
   id="g3996"
   class="st8"
   clip-path="url(#SVGID_6_)"
   style="fill:#ffffe5;fill-opacity:1">
						<g
   id="g3994"
   transform="translate(1881.7275,2035.7534)"
   style="fill:#ffffe5;fill-opacity:1">
							<path
   id="path3992"
   inkscape:connector-curvature="0"
   class="st5"
   d="m -861.3,274.5 19.1,151.4 c 0,0 -255.9,4.6 -355.8,-51.4 -103.6,-58 -123.5,-251.6 -109.3,-419 7.3,118.8 38.8,226.7 111.7,267.6 82.4,46.1 270.6,51.1 334.3,51.4"
   style="fill:#ffffe5;fill-opacity:1" />
						</g>
					</g>
				</g>
			</g>
		</g><g
       id="g4006"
       transform="translate(1828.8335,2376.0215)"
       style="fill:#ffffe5;fill-opacity:1">
			<path
   id="path4004"
   inkscape:connector-curvature="0"
   class="st6"
   d="m -906.5,-697.2 c -49.4,1.4 -200.8,9.9 -264.6,60 -31.5,24.8 -81.1,228.6 -66.5,416.4 6.8,87 29.9,199.2 101.4,239.2 78.6,44 264.7,48.8 326.4,49.1 z m 101.6,801.1 c -58.7,0 -259.6,-3.8 -349,-53.8 -85.5,-47.9 -112.4,-172.2 -119.9,-268.1 -13.7,-176.2 27.5,-406.3 80.2,-447.7 86.2,-67.8 294,-68.2 303,-68 9.1,0 16.8,6.8 17.9,15.9 l 101.4,801.2 c 0.6,5.1 -0.9,10.2 -4.3,14.1 -3.4,3.9 -8.2,6.2 -13.4,6.3 -1.3,0 -7,0.1 -15.9,0.1"
   style="fill:#ffffe5;fill-opacity:1" />
		</g><g
       id="g4010"
       transform="translate(1796.1792,2316.0674)"
       style="fill:#ffffe5;fill-opacity:1">
			<path
   id="path4008"
   inkscape:connector-curvature="0"
   class="st9"
   d="m -934.5,-526 c -2.6,0 -5.3,-0.6 -7.8,-2 -0.6,-0.3 -57.6,-30.3 -126.2,-37.1 -59.2,-5.9 -90.3,12.7 -90.7,12.9 -7.8,4.7 -18,2.4 -22.8,-5.3 -4.8,-7.7 -2.6,-17.8 5.1,-22.7 1.6,-1 40,-25 111.6,-17.9 75.4,7.4 136.1,39.5 138.6,40.8 8.1,4.3 11.1,14.4 6.8,22.4 -2.9,5.7 -8.7,8.9 -14.6,8.9"
   style="fill:#ffffe5;fill-opacity:1" />
		</g><g
       id="g4014"
       transform="translate(1676.0791,2130.1885)"
       style="fill:#ffffe5;fill-opacity:1">
			<path
   id="path4012"
   inkscape:connector-curvature="0"
   class="st2"
   d="m -1037.3,4.9 c 5.5,-6.2 153.6,4 161.7,10.6 8.1,6.6 34.2,185.9 -3.9,206.2 -37.8,20.2 -93.4,9.9 -120.3,-15.8 -39.5,-37.8 -43,-194.8 -37.5,-201"
   style="fill:#ffffe5;fill-opacity:1" />
		</g><g
       id="g4018"
       transform="translate(1677.126,2129.2026)"
       style="fill:#ffffe5;fill-opacity:1">
			<path
   id="path4016"
   inkscape:connector-curvature="0"
   class="st3"
   d="m -1036.4,7.7 c -4.9,12.4 -0.4,161.3 37.4,197.4 24.8,23.6 79,35.8 117.3,15.4 7,-3.8 12.2,-14.2 15.4,-31 11.1,-58.9 -6.8,-165 -12,-171 -8.6,-6.1 -146.7,-15.4 -158.1,-10.8 m 110.2,228.2 c -29.8,0 -59.5,-11 -76.4,-27.1 -38.1,-36.4 -46,-195.3 -37.7,-204.7 4.1,-4.6 46.8,-2.7 82,-0.4 12.8,0.9 76.8,5.4 83.3,10.7 7.5,6.1 21.4,102.1 15.9,159.4 -2.7,28.2 -9.5,45.3 -20.3,51.1 -14.1,7.7 -30.5,11 -46.8,11"
   style="fill:#ffffe5;fill-opacity:1" />
		</g><g
       id="g4040"
       style="fill:#ffffe5;fill-opacity:1">
			<g
   id="g4020"
   style="fill:#ffffe5;fill-opacity:1">
			</g>
			<g
   id="g4038"
   style="fill:#ffffe5;fill-opacity:1">
				<g
   id="g4036"
   style="fill:#ffffe5;fill-opacity:1">
					<defs
   id="defs4024">
						<rect
   id="rect4022"
   x="649.79999"
   y="2140"
   width="167"
   height="222.5" />
					</defs>
					<clipPath
   id="clipPath4028">
						<use
   xlink:href="#SVGID_7_"
   style="overflow:visible"
   id="use4026"
   x="0"
   y="0"
   width="100%"
   height="100%" />
					</clipPath>
					<g
   id="g4034"
   class="st10"
   clip-path="url(#SVGID_8_)"
   style="fill:#ffffe5;fill-opacity:1">
						<g
   id="g4032"
   transform="translate(1761.1035,2013.3457)"
   style="fill:#ffffe5;fill-opacity:1">
							<path
   id="path4030"
   inkscape:connector-curvature="0"
   class="st5"
   d="m -964.5,338.5 c -37.8,20.1 -93.4,9.9 -120.3,-15.8 -11.8,-11.3 -20.4,-33.2 -26.5,-58.6 29.3,16.3 72.5,20.3 103.6,3.7 23.5,-12.6 22.6,-85.4 16.6,-141.1 16.5,1.9 28.4,3.9 30.6,5.6 8,6.6 34.2,185.9 -4,206.2"
   style="fill:#ffffe5;fill-opacity:1" />
						</g>
					</g>
				</g>
			</g>
		</g><g
       id="g4044"
       transform="translate(1679.0347,2122.4844)"
       style="fill:#ffffe5;fill-opacity:1">
			<path
   id="path4042"
   inkscape:connector-curvature="0"
   class="st6"
   d="m -885.4,37 z m -141.2,-10.8 c -1.7,34.6 6.1,148.9 34.7,176.2 21.5,20.6 69.8,30.6 102.2,13.3 4.2,-2.2 14.5,-22.3 11.4,-87.5 -2,-42.3 -8.3,-79.2 -11.8,-92.4 -23.7,-4.7 -107.8,-10.6 -136.5,-9.6 m 98.3,229.4 c -33.2,0 -66,-12.4 -85.2,-30.8 -19.7,-18.8 -33.3,-59.8 -40.4,-121.9 -1,-8.9 -9.6,-87.7 2,-100.8 5.1,-5.8 9.1,-10.3 92.5,-4.7 80.6,5.4 87.1,10.7 90.6,13.5 3.6,2.9 10.3,8.3 17.5,68 2.7,22.6 6.7,65.9 3.2,102.7 -3.2,33.7 -11.8,53.1 -27.1,61.3 -16.2,8.9 -34.7,12.7 -53.1,12.7"
   style="fill:#ffffe5;fill-opacity:1" />
		</g><g
       id="g4048"
       transform="translate(2211.9814,2046.0371)"
       style="fill:#ffffe5;fill-opacity:1">
			<path
   id="path4046"
   inkscape:connector-curvature="0"
   class="st2"
   d="m -578.7,245.2 c -43,237.1 -236.5,260.2 -236.5,260.2 83.1,208.6 -76,515.6 -76,515.6 0,0 81.1,27.9 86.2,80.8 4.6,48.2 -117,106.6 -277.4,66.1 -246.1,-62 46.7,-424.3 -210.1,-715.3 -58,-65.7 -89.9,-144.5 -104.6,-227.1 -4.1,-23.4 -6.9,-47.2 -8.5,-71 -5,-74.7 1.7,-150.3 13.9,-220.6 11.7,-67.3 28.5,-129.6 44.9,-181.3 10.5,-33.1 20.9,-61.9 29.7,-84.8 3.4,-8.8 6.5,-16.8 9.4,-23.8 9.2,-22.7 15.2,-35.4 15.2,-35.4 l 144.5,3.8 35.1,1 113.4,3 139.1,3.7 169.4,4.5 c 0,0 1.2,3.4 3.5,9.7 1.7,4.8 4,11.2 6.8,19.1 6.2,18 14.8,43.5 24.4,74.4 14.1,45.2 30.5,101.7 45,162.5 13.9,58 26.1,119.8 33,179.2 3.6,31 5.8,61.2 6,90 0.3,30.6 -1.6,59.6 -6.4,85.7"
   style="fill:#ffffe5;fill-opacity:1" />
		</g><g
       id="g4070"
       style="fill:#ffffe5;fill-opacity:1">
			<g
   id="g4050"
   style="fill:#ffffe5;fill-opacity:1">
			</g>
			<g
   id="g4068"
   style="fill:#ffffe5;fill-opacity:1">
				<g
   id="g4066"
   style="fill:#ffffe5;fill-opacity:1">
					<defs
   id="defs4054">
						<rect
   id="rect4052"
   x="806.29999"
   y="2027.7"
   width="833.29999"
   height="1199.9" />
					</defs>
					<clipPath
   id="clipPath4058">
						<use
   xlink:href="#SVGID_9_"
   style="overflow:visible"
   id="use4056"
   x="0"
   y="0"
   width="100%"
   height="100%" />
					</clipPath>
					<g
   id="g4064"
   class="st11"
   clip-path="url(#SVGID_10_)"
   style="fill:#ffffe5;fill-opacity:1">
						<g
   id="g4062"
   transform="translate(2215.3965,2092.23)"
   style="fill:#ffffe5;fill-opacity:1">
							<path
   id="path4060"
   inkscape:connector-curvature="0"
   class="st5"
   d="m -575.7,113.3 c -3.7,0.5 -7.4,1 -11.1,1.4 -39.6,4.8 -10.6,-2.7 -35.7,-2.9 l 4.4,47.1 c 1.9,20.1 -13,38.1 -33.2,40 l -447.1,44.2 c -20.1,1.9 -38.1,-13.1 -40,-33.2 l -2.9,-31.7 c -1,0.7 -12.1,-0.2 -27.5,1 -26,2 -57.6,3.4 -88.4,4.3 -41.4,1.2 -67.4,45.3 -48.2,82 15.2,29.1 33.9,56.8 56.6,82.5 256.8,291 -35.9,653.3 210.1,715.3 97.4,24.6 180.6,12.7 229.8,-11.3 0.2,1.2 0.4,2.4 0.5,3.7 4.6,48.2 -117,106.6 -277.4,66.1 -246.1,-62 46.7,-424.3 -210.1,-715.3 -58,-65.7 -89.9,-144.5 -104.6,-227.1 -4.1,-23.4 -6.9,-47.2 -8.5,-71 8.2,-7.6 19.3,-12.1 31.7,-11.7 5.4,0.2 12.3,0.3 20.2,0.2 59.4,-0.2 180.7,-6.1 214.2,-10.8 9.3,-1.3 18.3,0.4 26.2,4.3 l -7.7,-82 c -1.9,-20.1 13.1,-38.1 33.2,-40 l 351.7,-32.8 c 20.1,-1.9 38.1,13 40,33.1 l 5.9,63.2 c 0.8,0 1.7,-0.1 2.6,0 40.1,1.4 75.4,-3.8 109.3,-8.7 3.5,31 5.7,61.3 6,90.1"
   style="fill:#ffffe5;fill-opacity:1" />
						</g>
					</g>
				</g>
			</g>
		</g><g
       id="g4110"
       style="fill:#ffffe5;fill-opacity:1">
			<g
   id="g4072"
   style="fill:#ffffe5;fill-opacity:1">
			</g>
			<g
   id="g4108"
   style="fill:#ffffe5;fill-opacity:1">
				<g
   id="g4106"
   style="fill:#ffffe5;fill-opacity:1">
					<defs
   id="defs4076">
						<rect
   id="rect4074"
   x="804.70001"
   y="1654.7"
   width="137.3"
   height="545.90002" />
					</defs>
					<clipPath
   id="clipPath4080">
						<use
   xlink:href="#SVGID_11_"
   style="overflow:visible"
   id="use4078"
   x="0"
   y="0"
   width="100%"
   height="100%" />
					</clipPath>
					<g
   id="g4104"
   class="st12"
   clip-path="url(#SVGID_12_)"
   style="fill:#ffffe5;fill-opacity:1">
						<g
   id="g4102"
   style="fill:#ffffe5;fill-opacity:1">
							<g
   id="g4082"
   style="fill:#ffffe5;fill-opacity:1">
							</g>
							<g
   id="g4100"
   style="fill:#ffffe5;fill-opacity:1">
								<g
   id="g4098"
   style="fill:#ffffe5;fill-opacity:1">
									<defs
   id="defs4086">
										<rect
   id="rect4084"
   x="804.70001"
   y="1654.7"
   width="137.3"
   height="545.90002" />
									</defs>
									<clipPath
   id="clipPath4090">
										<use
   xlink:href="#SVGID_13_"
   style="overflow:visible"
   id="use4088"
   x="0"
   y="0"
   width="100%"
   height="100%" />
									</clipPath>
									<g
   id="g4096"
   class="st13"
   clip-path="url(#SVGID_14_)"
   style="fill:#ffffe5;fill-opacity:1">
										<g
   id="g4094"
   transform="translate(1791.7354,2126.4336)"
   style="fill:#ffffe5;fill-opacity:1">
											<path
   id="path4092"
   inkscape:connector-curvature="0"
   class="st5"
   d="m -938.3,15.6 c 1,15.7 2.6,31.5 4.8,47.1 -8,0 -14.8,0 -20.2,-0.2 -12.3,-0.5 -23.4,4.1 -31.7,11.7 -17.7,-266.5 113.1,-545.9 113.1,-545.9 l 22.5,0.6 c -36.9,96 -101.2,294.7 -88.5,486.7"
   style="fill:#ffffe5;fill-opacity:1" />
										</g>
									</g>
								</g>
							</g>
						</g>
					</g>
				</g>
			</g>
		</g><g
       id="g4114"
       transform="translate(1833.5601,2379.0923)"
       style="fill:#ffffe5;fill-opacity:1">
			<path
   id="path4112"
   inkscape:connector-curvature="0"
   class="st6"
   d="m -902.5,-706 c -15.4,35.5 -64.4,155 -90.8,297.9 -28.6,154.9 -35.7,370.2 92.7,515.6 137,155.2 123.5,328.5 112.8,467.7 -11,141.7 -12,216.8 88.2,242 120.3,30.3 210.4,1.5 241.6,-25.3 8.9,-7.6 13.9,-15.7 13.3,-21.5 -3.2,-33.7 -54.6,-58.6 -74.1,-65.4 -5,-1.7 -9,-5.5 -10.9,-10.4 -1.9,-4.9 -1.7,-10.4 0.7,-15.1 1.6,-3 154.3,-302.2 75.3,-500.6 -2.1,-5.2 -1.6,-11.1 1.3,-16 2.9,-4.8 7.8,-8.1 13.4,-8.7 7.3,-0.9 180.9,-25.1 220.8,-245.5 34,-187.4 -83.6,-532.4 -107.4,-599.6 z M -599,866.5 c -33.7,0 -70.5,-4.2 -109.4,-14 -134.6,-33.9 -125.7,-147.9 -115.5,-280 10.2,-132.4 23,-297.3 -103.8,-440.9 -109.4,-123.9 -144.3,-313.1 -101.1,-547 32.3,-174.7 95.6,-311 98.2,-316.7 3.1,-6.5 9.6,-10.8 16.9,-10.4 l 601.5,15.9 c 7.4,0.2 13.9,4.9 16.5,11.8 6.3,16.8 152.6,413.2 113.3,630.2 -23.3,128.7 -90.2,196.6 -142.2,230.9 -34.8,22.9 -67.4,34.2 -88,39.6 59.6,185 -43.7,425.8 -75.4,492.9 27.3,13 75.1,42.1 79.5,88.3 1.2,12.8 -2.3,32.3 -25.8,52.5 -30.5,26.1 -89.8,46.9 -164.7,46.9"
   style="fill:#ffffe5;fill-opacity:1" />
		</g><g
       id="g4118"
       transform="translate(1933.4619,2398.7686)"
       style="fill:#ffffe5;fill-opacity:1">
			<path
   id="path4116"
   inkscape:connector-curvature="0"
   class="st2"
   d="m -817,-762.1 -17.4,22.8 -70,91.7 -68.4,89.6 -96.1,125.9 c 0,0 -17,5.7 -44.3,13.3 -68.7,19.2 -202.5,50.5 -292.5,33.3 -235.3,-45 -308.3,-207.7 -267.3,-294 43.1,-90.8 198.7,-24.7 250.9,0.7 16.7,8.1 34.2,14.4 52.3,18.3 66.8,14.4 142.4,11.4 215.7,0 39.7,-6.1 78.8,-14.7 115.5,-24.4 10.9,-2.8 21.6,-5.8 32,-8.8 55.2,-15.9 103.2,-33.3 137.1,-46.6 32,-12.5 51.5,-21.4 52.5,-21.8"
   style="fill:#ffffe5;fill-opacity:1" />
		</g><g
       id="g4140"
       style="fill:#ffffe5;fill-opacity:1">
			<g
   id="g4120"
   style="fill:#ffffe5;fill-opacity:1">
			</g>
			<g
   id="g4138"
   style="fill:#ffffe5;fill-opacity:1">
				<g
   id="g4136"
   style="fill:#ffffe5;fill-opacity:1">
					<defs
   id="defs4124">
						<rect
   id="rect4122"
   x="249.7"
   y="1684.9"
   width="619.40002"
   height="333.39999" />
					</defs>
					<clipPath
   id="clipPath4128">
						<use
   xlink:href="#SVGID_15_"
   style="overflow:visible"
   id="use4126"
   x="0"
   y="0"
   width="100%"
   height="100%" />
					</clipPath>
					<g
   id="g4134"
   class="st14"
   clip-path="url(#SVGID_16_)"
   style="fill:#ffffe5;fill-opacity:1">
						<g
   id="g4132"
   transform="translate(1797.7188,2220.918)"
   style="fill:#ffffe5;fill-opacity:1">
							<path
   id="path4130"
   inkscape:connector-curvature="0"
   class="st5"
   d="m -933.2,-254.2 c 0,0 -211.1,70.6 -336.8,46.6 -235.3,-45 -308.3,-207.7 -267.3,-294 7.6,-16 18.6,-27.1 31.9,-34.4 2.8,87.8 86.8,202.1 278.1,238.7 71.5,13.7 170.5,-3.3 242.7,-20.4 37,-8.9 67.8,29.1 51.4,63.5"
   style="fill:#ffffe5;fill-opacity:1" />
						</g>
					</g>
				</g>
			</g>
		</g><g
       id="g4144"
       transform="translate(1648.3364,2183.3574)"
       style="fill:#ffffe5;fill-opacity:1">
			<path
   id="path4142"
   inkscape:connector-curvature="0"
   class="st6"
   d="m -1061,-147 c -22.2,0 -43.5,-1.6 -63,-5.3 -128.3,-24.6 -227,-88.2 -270.8,-174.5 -25.7,-50.8 -29.2,-103.6 -9.5,-145.1 11.4,-24 30,-40.6 55.2,-49.5 68,-23.8 167.1,15.8 220,41.6 15.9,7.7 32.1,13.4 48.2,16.9 217.5,46.9 538.3,-98.9 541.5,-100.4 9.1,-4.2 19.9,-0.2 24,8.9 4.2,9.1 0.2,19.9 -8.9,24 -13.6,6.2 -335,152.3 -564.2,102.9 -19,-4.1 -37.9,-10.7 -56.4,-19.7 -30.1,-14.6 -132.8,-60.8 -192.2,-40 -16,5.6 -27.3,15.7 -34.5,30.8 -14.6,30.8 -11.2,73.1 9.1,113.2 38.6,76.2 128,132.8 245.3,155.2 119.6,22.9 325.5,-45.3 327.6,-46 9.5,-3.2 19.8,1.9 22.9,11.4 3.2,9.5 -1.9,19.8 -11.4,22.9 -7.4,2.7 -158.5,52.7 -282.9,52.7"
   style="fill:#ffffe5;fill-opacity:1" />
		</g><g
       id="g4148"
       transform="translate(2345.4609,2632.7471)"
       style="fill:#ffffe5;fill-opacity:1">
			<path
   id="path4146"
   inkscape:connector-curvature="0"
   class="st2"
   d="m -464.4,-1430.3 c 11.1,111.1 -29.8,206.1 -91.3,212.3 l -94.3,9.4 c 16.9,-1.7 32.2,-10 45.3,-23.6 17.8,-18.3 31.5,-46.2 39.6,-79.8 7.7,-32.1 10.3,-69.5 6.4,-108.9 -3.9,-39.4 -13.9,-75.5 -27.8,-105.5 -14.6,-31.4 -33.6,-56 -54.6,-70.4 -15.5,-10.7 -32.2,-15.9 -49.1,-14.2 l 94.3,-9.4 c 61.5,-6.2 120.4,79 131.5,190.1"
   style="fill:#ffffe5;fill-opacity:1" />
		</g><g
       id="g4152"
       transform="translate(2237.7891,2730.0962)"
       style="fill:#ffffe5;fill-opacity:1">
			<path
   id="path4150"
   inkscape:connector-curvature="0"
   class="st3"
   d="m -556.6,-1708.3 c 8.3,2.5 16.5,6.5 24.5,12.1 21.4,14.7 40.6,39.4 55.5,71.4 14.5,31.1 24.2,67.9 28,106.3 3.8,38.4 1.6,76.4 -6.5,109.8 -8.3,34.4 -22.2,62.4 -40.3,81 -6.8,7 -14,12.6 -21.7,16.7 l 68.6,-6.8 c 28.8,-2.9 53.9,-26 70.8,-65.2 17.1,-39.7 23.6,-90.9 18.2,-144.2 -10.9,-109.5 -68.6,-193.7 -128.7,-187.8 z m 14.2,404.9 c -1.3,0 -2.4,-1 -2.6,-2.3 -0.1,-1.4 0.9,-2.7 2.3,-2.8 15.9,-1.6 30.6,-9.3 43.7,-22.8 17.4,-17.9 30.9,-45.1 39,-78.6 7.9,-32.8 10.1,-70.2 6.3,-108 -3.8,-37.9 -13.3,-74 -27.6,-104.6 -14.5,-31.2 -33.1,-55.2 -53.7,-69.4 -15.5,-10.7 -31.4,-15.4 -47.4,-13.7 -1.4,0.1 -2.7,-0.9 -2.8,-2.3 -0.1,-1.4 0.9,-2.7 2.3,-2.8 v 0 l 94.3,-9.4 c 63,-6.2 123.1,80 134.3,192.4 5.4,54.2 -1.2,106.3 -18.6,146.8 -17.6,41 -44.3,65.3 -75,68.3 l -94.3,9.4 c 0,0 0,0 0,0 -0.1,-0.2 -0.1,-0.2 -0.2,-0.2"
   style="fill:#ffffe5;fill-opacity:1" />
		</g><g
       id="g4174"
       style="fill:#ffffe5;fill-opacity:1">
			<g
   id="g4154"
   style="fill:#ffffe5;fill-opacity:1">
			</g>
			<g
   id="g4172"
   style="fill:#ffffe5;fill-opacity:1">
				<g
   id="g4170"
   style="fill:#ffffe5;fill-opacity:1">
					<defs
   id="defs4158">
						<rect
   id="rect4156"
   x="1701.5"
   y="1219"
   width="182"
   height="189.10001" />
					</defs>
					<clipPath
   id="clipPath4162">
						<use
   xlink:href="#SVGID_17_"
   style="overflow:visible"
   id="use4160"
   x="0"
   y="0"
   width="100%"
   height="100%" />
					</clipPath>
					<g
   id="g4168"
   class="st15"
   clip-path="url(#SVGID_18_)"
   style="fill:#ffffe5;fill-opacity:1">
						<g
   id="g4166"
   transform="translate(2346.7227,2623.8291)"
   style="fill:#ffffe5;fill-opacity:1">
							<path
   id="path4164"
   inkscape:connector-curvature="0"
   class="st5"
   d="m -463.3,-1404.9 c 2.3,93.9 -33.7,169.8 -87.9,176.9 l -94,12.2 c 16.8,-2.2 31.9,-11 44.6,-25 17.2,-18.9 30.1,-47.1 37.2,-80.9 4.3,-20.4 6.4,-42.8 6.2,-66.4 l 2.4,1.2 c 29.9,15 65.6,8 89,-15.9 0.9,-1 1.8,-1.7 2.5,-2.1"
   style="fill:#ffffe5;fill-opacity:1" />
						</g>
					</g>
				</g>
			</g>
		</g><g
       id="g4178"
       transform="translate(2263.5723,2724.2549)"
       style="fill:#ffffe5;fill-opacity:1">
			<path
   id="path4176"
   inkscape:connector-curvature="0"
   class="st6"
   d="m -534.5,-1691.7 c 17.7,16.3 33.5,38.8 46.3,66.1 15.2,32.7 25.4,71.2 29.4,111.3 4,40.1 1.6,79.9 -6.8,114.9 -7.1,29.3 -18.1,54.5 -32.3,73.9 l 22.3,-2.2 c 22.9,-2.3 43.5,-22.1 58.1,-55.9 16.1,-37.3 22.1,-85.8 17,-136.5 -9.9,-99.3 -61.1,-178.9 -111.7,-173.8 z m -33.7,409.7 c -9.2,0 -17.1,-7 -18,-16.3 -1,-10 6.3,-18.8 16.2,-19.8 v 0 c 12.1,-1.2 23.6,-7.3 34,-18.2 15.3,-15.8 27.7,-41.1 35.1,-71.4 7.5,-31.1 9.6,-66.7 6,-102.8 -3.6,-36.1 -12.7,-70.6 -26.2,-99.6 -13.2,-28.3 -30.4,-50.7 -48.5,-63.1 -12.4,-8.6 -24.9,-12.3 -37,-11.1 -10,1 -18.8,-6.3 -19.8,-16.2 -1,-10 6.3,-18.8 16.2,-19.8 v 0 l 94.3,-9.4 c 72.5,-7.2 139.1,83.4 151.4,206.3 v 0 c 5.7,56.7 -1.4,111.6 -19.8,154.5 -20,46.4 -51.1,74 -87.8,77.6 l -94.3,9.4 c -0.6,-0.1 -1.2,-0.1 -1.8,-0.1"
   style="fill:#ffffe5;fill-opacity:1" />
		</g><g
       id="g4204"
       style="fill:#ffffe5;fill-opacity:1">
			<g
   id="g4180"
   style="fill:#ffffe5;fill-opacity:1">
			</g>
			<g
   id="g4202"
   style="fill:#ffffe5;fill-opacity:1">
				<g
   id="g4200"
   style="fill:#ffffe5;fill-opacity:1">
					<defs
   id="defs4184">
						<rect
   id="rect4182"
   x="600.40002"
   y="611.70001"
   width="1189.8"
   height="1194.2" />
					</defs>
					<clipPath
   id="clipPath4188">
						<use
   xlink:href="#SVGID_19_"
   style="overflow:visible"
   id="use4186"
   x="0"
   y="0"
   width="100%"
   height="100%" />
					</clipPath>
					<g
   id="g4198"
   class="st16"
   clip-path="url(#SVGID_20_)"
   style="fill:#ffffe5;fill-opacity:1">
						<g
   id="g4192"
   transform="translate(2196.3633,2860.7769)"
   style="fill:#ffffe5;fill-opacity:1">
							<path
   id="path4190"
   inkscape:connector-curvature="0"
   class="st2"
   d="m -592,-2081.5 c -193,-200.5 -472,-162.3 -472,-162.3 0,0 -281,17.7 -430.6,252.4 -117.8,184.8 -109.8,387.6 -80,530.2 29.5,141.3 118.3,262.4 243.7,327.7 94.3,49.1 223.7,88.5 384.8,72.4 h 0.2 c 161.1,-16.1 280.2,-80.3 363,-147.1 110,-88.7 173.2,-225.1 174.2,-369.4 0.9,-145.8 -31.4,-346.1 -183.3,-503.9"
   style="fill:#ffffe5;fill-opacity:1" />
						</g>
						<g
   id="g4196"
   transform="translate(1971.2412,2948.2925)"
   style="fill:#ffffe5;fill-opacity:1">
							<path
   id="path4194"
   inkscape:connector-curvature="0"
   class="st3"
   d="m -784.7,-2331.5 c -32.9,0 -53.1,2.6 -53.8,2.7 -3,0.2 -281.6,20.4 -428.8,251.2 -118.3,185.6 -108.6,389.8 -79.7,528.3 29.7,142.4 118,261.2 242.3,325.9 118.1,61.4 247,85.7 383.3,72.1 136.5,-13.7 258.2,-63 361.9,-146.6 109.1,-88.1 172.2,-222 173.2,-367.4 1,-141.5 -30,-343.6 -182.6,-502.1 -139.1,-144.5 -325.3,-164.1 -415.8,-164.1 m -9.3,1189.1 c -110.5,0 -215.5,-25.6 -313.1,-76.4 -125.7,-65.4 -215,-185.5 -245,-329.4 -29.1,-139.5 -38.9,-345 80.4,-532.1 148.6,-233.1 429.8,-253.4 432.6,-253.6 2.6,-0.4 282.3,-36.1 474,163.1 153.8,159.8 185,363.2 184,505.7 -1,147 -64.8,282.4 -175.1,371.4 -104.5,84.3 -227.1,133.9 -364.4,147.7 -24.7,2.4 -49.1,3.6 -73.4,3.6"
   style="fill:#ffffe5;fill-opacity:1" />
						</g>
					</g>
				</g>
			</g>
		</g><g
       id="g4208"
       transform="translate(1997.4346,2848.5981)"
       style="fill:#ffffe5;fill-opacity:1">
			<path
   id="path4206"
   inkscape:connector-curvature="0"
   class="st3"
   d="m -762.3,-2046.8 c -28.8,0 -46.7,2.2 -47.4,2.3 -0.4,0.1 -0.7,0.1 -1.1,0.1 -2.3,0.2 -228.7,17.4 -349,191 -97.1,140.2 -90.4,293.9 -67.7,398.1 v 0 c 23,105.7 93.2,193.4 192.6,240.7 95.7,45.7 200.7,63.2 312,52.3 0.2,0 0.5,-0.1 0.7,-0.1 111.3,-11.1 211,-49.1 296.1,-112.9 88.2,-66.2 139.7,-166.1 141.3,-274.1 1.6,-106.7 -22.3,-258.7 -145,-376.8 -109.8,-105.6 -257.7,-120.6 -332.5,-120.6 m -24.2,920.9 c -92.7,0 -180.8,-19.6 -262.6,-58.7 -108.7,-51.8 -185.5,-147.8 -210.7,-263.6 v 0 c -24.1,-110.6 -31.1,-274 72.8,-424 127.8,-184.4 357.6,-204 373.5,-205.2 15.9,-2 245,-28.2 406.8,127.3 131.3,126.3 156.9,287.9 155.2,401.2 -1.8,118.4 -58.1,227.8 -154.6,300.1 -89.9,67.4 -195,107.6 -312.2,119.4 -0.3,0 -0.5,0.1 -0.7,0.1 -22.8,2.3 -45.3,3.4 -67.5,3.4"
   style="fill:#ffffe5;fill-opacity:1" />
		</g><path
       id="path4210"
       inkscape:connector-curvature="0"
       class="st17"
       d="m 770,1393.4 c 23.8,109.2 97.3,202.5 201.7,252.2 78.6,37.5 186.5,67.1 321.3,53.7 h 0.2 c 134.8,-13.5 234.7,-64 304.4,-116.2 92.5,-69.4 146.3,-175.4 148,-287.1 1.7,-112.8 -24,-267.7 -150.1,-389 -160.2,-154 -393.6,-122.8 -393.6,-122.8 0,0 -235,15.5 -361.6,198.1 -99.7,143.8 -94.3,300.9 -70.3,411.1"
       style="fill:#ffffe5;fill-opacity:1" /><g
       id="g4214"
       transform="translate(2223.2705,2621.7817)"
       style="fill:#ffffe5;fill-opacity:1">
			<path
   id="path4212"
   inkscape:connector-curvature="0"
   class="st2"
   d="m -569,-1399 c 15.8,-62.7 -12,-175.3 -89.2,-244 -110,-97.8 -209.2,-103.1 -234,-88.7 -41.2,24 -33,103.7 72.7,167 85,50.9 122.2,141.5 144.1,172.7 21.9,31.2 90.6,55.6 106.4,-7"
   style="fill:#ffffe5;fill-opacity:1" />
		</g><g
       id="g4218"
       transform="translate(2223.2705,2621.7817)"
       style="fill:#ffffe5;fill-opacity:1">
			<path
   id="path4216"
   inkscape:connector-curvature="0"
   class="st6"
   d="m -569,-1399 z m -292.3,-320.6 c -10.9,0 -18.4,1.5 -21.8,3.5 -11.5,6.7 -14,18.7 -14,27.5 -0.2,27.1 22.6,69.7 87,108.3 71.1,42.6 110.7,111.4 134.3,152.5 6,10.4 11.2,19.4 15.3,25.3 9.8,14 34.3,27.1 52.4,23.7 4,-0.7 16.1,-3 21.5,-24.8 13.1,-51.9 -8.7,-159.3 -83.7,-226 -82.4,-73.1 -155,-90 -191,-90 m 247.1,377.7 c -30.4,0 -61.3,-18.7 -76,-39.7 -5.1,-7.2 -10.6,-16.9 -17.1,-28.1 -23.3,-40.5 -58.5,-101.7 -121.5,-139.5 -65.8,-39.4 -104.9,-91.6 -104.6,-139.6 0.2,-25.5 11.8,-46.8 32,-58.6 32.2,-18.8 140.1,-11.4 255.1,90.8 81.1,72.1 112.4,192.1 94.8,261.9 -9.7,38.6 -35.6,48.9 -50.1,51.6 -4.1,0.8 -8.3,1.2 -12.6,1.2"
   style="fill:#ffffe5;fill-opacity:1" />
		</g><g
       id="g4222"
       transform="translate(1990.084,2810.6304)"
       style="fill:#ffffe5;fill-opacity:1">
			<path
   id="path4220"
   inkscape:connector-curvature="0"
   class="st2"
   d="m -768.5,-1938.3 c -27.2,-28.7 -84.8,-36.4 -137.4,-23.9 -84.8,20.2 -98.6,76.6 -94.9,93 5.4,24.3 41.4,48.6 103.9,29 49.4,-15.5 86.5,-22.7 106.3,-21.1 40.6,3.1 45.3,-52.5 22.1,-77"
   style="fill:#ffffe5;fill-opacity:1" />
		</g><g
       id="g4226"
       transform="translate(1942.2695,2816.8408)"
       style="fill:#ffffe5;fill-opacity:1">
			<path
   id="path4224"
   inkscape:connector-curvature="0"
   class="st6"
   d="m -809.5,-1956.1 c -14.4,0 -29.5,1.7 -44.4,5.2 -74.4,17.7 -83,63.7 -81.4,71.4 1.2,5.4 6,10.9 12.8,14.9 9.2,5.3 30.4,12.5 67.9,0.7 35.8,-11.3 84.5,-24.2 113.2,-21.9 6.9,0.5 11.1,-1.7 13.8,-7.5 5.4,-11.2 2.4,-29.8 -6.3,-38.9 -14.6,-15.3 -43.3,-23.9 -75.6,-23.9 m -82.4,134.9 c -18.4,0 -35,-4 -48.7,-11.9 -15.7,-9.1 -26.6,-23.1 -30.1,-38.4 -5.9,-26.4 13.3,-91.9 108.4,-114.6 62.1,-14.8 124.2,-3.1 154.7,29.1 v 0 c 19.2,20.3 24.7,54.4 12.7,79.5 -9.2,19.2 -27.6,29.7 -49.4,28 -8.3,-0.6 -34.7,0 -99.5,20.4 -16.8,5.2 -33.1,7.9 -48.1,7.9"
   style="fill:#ffffe5;fill-opacity:1" />
		</g><g
       id="g4230"
       transform="translate(1997.4302,2848.5981)"
       style="fill:#ffffe5;fill-opacity:1">
			<path
   id="path4228"
   inkscape:connector-curvature="0"
   class="st3"
   d="m -762.3,-2046.8 c -28.8,0 -46.7,2.2 -47.4,2.3 -0.4,0.1 -0.7,0.1 -1.1,0.1 -2.3,0.2 -228.7,17.4 -349,191 -97.1,140.2 -90.4,293.9 -67.7,398.1 v 0 c 23,105.7 93.2,193.4 192.6,240.7 95.7,45.7 200.7,63.2 312,52.3 0.3,0 0.5,-0.1 0.7,-0.1 111.3,-11.1 211,-49.1 296.1,-112.9 88.2,-66.1 139.7,-166.1 141.3,-274.1 1.6,-106.7 -22.3,-258.7 -145,-376.8 -109.8,-105.6 -257.7,-120.6 -332.5,-120.6 m -24.2,920.9 c -92.7,0 -180.8,-19.6 -262.6,-58.7 -108.7,-51.8 -185.5,-147.8 -210.7,-263.6 v 0 c -24.1,-110.7 -31.1,-274 72.8,-424 127.8,-184.4 357.6,-204 373.5,-205.2 15.9,-2 245,-28.2 406.7,127.3 131.3,126.3 156.9,287.9 155.2,401.2 -1.8,118.4 -58.1,227.8 -154.6,300.1 -89.9,67.4 -195,107.6 -312.2,119.4 -0.3,0 -0.5,0.1 -0.7,0.1 -22.7,2.3 -45.2,3.4 -67.4,3.4"
   style="fill:#ffffe5;fill-opacity:1" />
		</g><g
       id="g4234"
       transform="translate(1775.8862,2749.4443)"
       style="fill:#ffffe5;fill-opacity:1">
			<path
   id="path4232"
   inkscape:connector-curvature="0"
   class="st2"
   d="m -951.8,-1763.6 c 126.6,-182.6 361.6,-198.1 361.6,-198.1 0,0 233.4,-31.2 393.6,122.8 126.1,121.3 151.8,276.2 150.1,389 -1.7,111.8 -55.4,217.7 -148,287.1 -69.7,52.2 -169.6,102.7 -304.4,116.2 h -0.2 c -134.8,13.4 -242.7,-16.2 -321.3,-53.7 -104.4,-49.7 -177.9,-143 -201.7,-252.2 -24,-110.2 -29.4,-267.3 70.3,-411.1 m -202.3,413.7 c 29.5,141.3 118.3,262.4 243.6,327.7 94.4,49.1 223.7,88.5 384.8,72.5 h 0.3 c 161.1,-16.1 280.2,-80.4 363,-147.1 110,-88.7 173.2,-225.1 174.2,-369.4 1,-145.7 -31.4,-346 -183.3,-503.9 -193,-200.5 -471.9,-162.3 -471.9,-162.3 0,0 -281,17.7 -430.6,252.4 -117.8,184.7 -109.9,387.5 -80.1,530.1"
   style="fill:#ffffe5;fill-opacity:1" />
		</g><g
       id="g4238"
       transform="translate(1777.0332,2748.6509)"
       style="fill:#ffffe5;fill-opacity:1">
			<path
   id="path4236"
   inkscape:connector-curvature="0"
   class="st3"
   d="m -950.9,-1761.3 c -100,144.3 -93.2,302.1 -69.8,409 23.9,109.9 96.9,201.2 200.2,250.4 98.2,46.8 205.8,64.9 319.9,53.5 114.1,-11.4 216.1,-50.3 303.3,-115.7 91.7,-68.8 145.2,-172.7 146.9,-285.1 1.6,-109.5 -22.9,-265.5 -149.3,-387.1 -157.4,-151.4 -389.2,-122.4 -391.5,-122.1 -2.4,0.2 -235.3,17.6 -359.7,197.1 m 384.8,721.3 c -90.7,0 -176.7,-19.2 -256.6,-57.3 -104.8,-49.9 -178.8,-142.5 -203.1,-254 -23.5,-107.9 -30.4,-267.2 70.6,-413.1 125.8,-181.5 361.2,-199.1 363.5,-199.2 2.2,-0.3 236.3,-29.6 395.6,123.5 127.7,122.8 152.5,280.4 150.9,390.9 -1.7,114 -56,219.4 -149,289.1 -88,66 -190.8,105.2 -305.7,116.7 -22.3,2.3 -44.4,3.4 -66.2,3.4 m -24.3,-1091.8 c -32.9,0 -53.1,2.6 -53.9,2.7 -3,0.2 -281.6,20.4 -428.8,251.2 -118.3,185.7 -108.6,389.8 -79.7,528.3 v 0 c 29.7,142.4 118,261.2 242.3,325.9 118.1,61.4 247,85.7 383.3,72.2 136.5,-13.7 258.1,-63 361.9,-146.6 109.2,-88 172.3,-222 173.3,-367.5 1,-141.5 -30,-343.5 -182.6,-502 -139.2,-144.6 -325.3,-164.2 -415.8,-164.2 m -9.3,1189.1 c -110.5,0 -215.5,-25.6 -313.1,-76.4 -125.7,-65.4 -214.9,-185.5 -245,-329.4 -29.2,-139.5 -38.9,-345 80.4,-532.1 148.6,-233.1 429.8,-253.4 432.6,-253.6 2.6,-0.4 282.2,-36 473.9,163.1 153.9,159.8 185,363.2 184,505.7 -1,147.1 -64.9,282.4 -175.2,371.4 -104.6,84.3 -227.1,134 -364.4,147.7 -24.5,2.3 -49,3.5 -73.2,3.6"
   style="fill:#ffffe5;fill-opacity:1" />
		</g><g
       id="g4260"
       style="fill:#ffffe5;fill-opacity:1">
			<g
   id="g4240"
   style="fill:#ffffe5;fill-opacity:1">
			</g>
			<g
   id="g4258"
   style="fill:#ffffe5;fill-opacity:1">
				<g
   id="g4256"
   style="fill:#ffffe5;fill-opacity:1">
					<defs
   id="defs4244">
						<rect
   id="rect4242"
   x="602.90002"
   y="1082.2"
   width="1184.7"
   height="721.09998" />
					</defs>
					<clipPath
   id="clipPath4248">
						<use
   xlink:href="#SVGID_21_"
   style="overflow:visible"
   id="use4246"
   x="0"
   y="0"
   width="100%"
   height="100%" />
					</clipPath>
					<g
   id="g4254"
   class="st18"
   clip-path="url(#SVGID_22_)"
   style="fill:#ffffe5;fill-opacity:1">
						<g
   id="g4252"
   transform="translate(1666.9019,2526.501)"
   style="fill:#ffffe5;fill-opacity:1">
							<path
   id="path4250"
   inkscape:connector-curvature="0"
   class="st5"
   d="m -1045.1,-1126.9 c 29.5,141.2 118.3,262.4 243.7,327.7 94.3,49.1 223.7,88.4 384.8,72.4 h 0.3 c 161.1,-16.1 280.2,-80.3 363,-147.1 110,-88.8 173.2,-225.1 174.2,-369.4 0.1,-21 -0.4,-43 -1.9,-66 -12.9,52.2 -34.3,101.6 -63.2,146.2 -17.1,87.4 -66.6,167.3 -141.2,223.3 -69.7,52.2 -169.6,102.7 -304.4,116.2 h -0.2 c -134.8,13.4 -242.7,-16.2 -321.3,-53.7 -77.2,-36.8 -137.6,-97.4 -173.3,-170.6 -74.4,-67.5 -126.5,-158.9 -147.8,-260.7 -8.6,-40.8 -15.3,-86.6 -17.8,-135.5 -23.5,116.3 -13.5,228.4 5.1,317.2"
   style="fill:#ffffe5;fill-opacity:1" />
						</g>
					</g>
				</g>
			</g>
		</g><g
       id="g4264"
       transform="translate(1971.2705,2939.9258)"
       style="fill:#ffffe5;fill-opacity:1">
			<path
   id="path4262"
   inkscape:connector-curvature="0"
   class="st6"
   d="m -784.6,-2307.6 c -31.6,0 -51.1,2.4 -51.8,2.5 -0.4,0.1 -0.9,0.1 -1.3,0.1 -2.7,0.2 -273.8,20.2 -416.5,244.1 -115.5,181.2 -105.9,381.1 -77.5,516.8 v 0 c 28.8,137.8 114.2,252.7 234.3,315.3 115.3,60 241.2,83.7 374.3,70.5 0.2,0 0.4,0 0.5,-0.1 133.1,-13.3 252,-61.5 353.4,-143.2 105.4,-85.1 166.5,-214.6 167.4,-355.4 0.9,-138.6 -29.2,-336.4 -178.3,-491.2 -135.2,-140.5 -316.8,-159.4 -404.5,-159.4 m -9.4,1189.1 c -112.9,0 -220.3,-26.2 -320.2,-78.2 -129.8,-67.6 -222,-191.5 -253,-340 v 0 c -29.7,-142.3 -39.6,-352.1 82.5,-543.7 150.7,-236.3 425.1,-259.4 444.1,-260.7 19,-2.5 292.4,-34.1 486.8,167.8 157.5,163.6 189.4,371.2 188.4,516.5 -1,151.7 -67,291.5 -180.9,383.4 -106.9,86.1 -232.1,137 -372.3,151 -0.2,0 -0.4,0.1 -0.5,0.1 -25.3,2.6 -50.2,3.8 -74.9,3.8"
   style="fill:#ffffe5;fill-opacity:1" />
		</g><g
       id="g4268"
       transform="translate(1997.4302,2848.5981)"
       style="fill:#ffffe5;fill-opacity:1">
			<path
   id="path4266"
   inkscape:connector-curvature="0"
   class="st3"
   d="m -762.3,-2046.8 c -28.8,0 -46.7,2.2 -47.4,2.3 -0.4,0.1 -0.7,0.1 -1.1,0.1 -2.3,0.2 -228.7,17.4 -349,191 -97.1,140.2 -90.4,293.9 -67.7,398.1 v 0 c 23,105.7 93.2,193.4 192.6,240.7 95.7,45.7 200.7,63.2 312,52.3 0.3,0 0.5,-0.1 0.7,-0.1 111.3,-11.1 211,-49.1 296.1,-112.9 88.2,-66.1 139.7,-166.1 141.3,-274.1 1.6,-106.7 -22.3,-258.7 -145,-376.8 -109.8,-105.6 -257.7,-120.6 -332.5,-120.6 m -24.2,920.9 c -92.7,0 -180.8,-19.6 -262.6,-58.7 -108.7,-51.8 -185.5,-147.8 -210.7,-263.6 v 0 c -24.1,-110.7 -31.1,-274 72.8,-424 127.8,-184.4 357.6,-204 373.5,-205.2 15.9,-2 245,-28.2 406.7,127.3 131.3,126.3 156.9,287.9 155.2,401.2 -1.8,118.4 -58.1,227.8 -154.6,300.1 -89.9,67.4 -195,107.6 -312.2,119.4 -0.3,0 -0.5,0.1 -0.7,0.1 -22.7,2.3 -45.2,3.4 -67.4,3.4"
   style="fill:#ffffe5;fill-opacity:1" />
		</g><g
       id="g4272"
       transform="translate(2151.6611,2110.8682)"
       style="fill:#ffffe5;fill-opacity:1">
			<path
   id="path4270"
   inkscape:connector-curvature="0"
   class="st2"
   d="m -630.3,60 c 31.5,0.7 80.8,-0.5 138.9,-9.9 26.1,-4.2 43,-29.9 36.5,-55.5 v 0 c -5.7,-22.2 -27.1,-36.5 -49.8,-33.4 -38,5.3 -77.2,12.2 -122.6,10.6 -27.7,-1 -49.6,23.2 -45.5,50.7 3.2,21.2 21.1,37.1 42.5,37.5"
   style="fill:#ffffe5;fill-opacity:1" />
		</g><g
       id="g4276"
       transform="translate(2152.3525,2157.0068)"
       style="fill:#ffffe5;fill-opacity:1">
			<path
   id="path4274"
   inkscape:connector-curvature="0"
   class="st3"
   d="m -629.7,-71.7 c -12,0 -23.3,5 -31.2,14 -8.2,9.2 -11.9,21.5 -10,33.7 3,20 19.9,34.9 40.1,35.3 31.1,0.7 80.4,-0.5 138.4,-9.9 11.8,-1.9 22.2,-8.7 28.8,-18.6 6.6,-10.1 8.6,-22 5.6,-33.7 -5.3,-20.9 -25.5,-34.4 -47,-31.4 -5,0.7 -9.9,1.4 -14.9,2.1 -33.6,4.9 -68.4,9.9 -108.1,8.5 -0.7,0 -1.2,0 -1.7,0 m 13.7,88.3 c -5.4,0 -10.4,-0.1 -15.1,-0.2 -22.7,-0.5 -41.7,-17.2 -45.1,-39.7 -2.1,-13.8 2,-27.6 11.3,-38 9.3,-10.5 22.8,-16.2 36.8,-15.7 39.2,1.4 73.8,-3.6 107.2,-8.4 5,-0.7 10,-1.4 15,-2.1 24.1,-3.4 46.7,11.8 52.7,35.3 3.3,12.9 1,26.7 -6.3,37.8 -7.3,11.2 -19.1,18.8 -32.3,20.9 -49.7,8.1 -93,10.1 -124.2,10.1"
   style="fill:#ffffe5;fill-opacity:1" />
		</g><g
       id="g4298"
       style="fill:#ffffe5;fill-opacity:1">
			<g
   id="g4278"
   style="fill:#ffffe5;fill-opacity:1">
			</g>
			<g
   id="g4296"
   style="fill:#ffffe5;fill-opacity:1">
				<g
   id="g4294"
   style="fill:#ffffe5;fill-opacity:1">
					<defs
   id="defs4282">
						<rect
   id="rect4280"
   x="1478.3"
   y="2097"
   width="219.8"
   height="74" />
					</defs>
					<clipPath
   id="clipPath4286">
						<use
   xlink:href="#SVGID_23_"
   style="overflow:visible"
   id="use4284"
   x="0"
   y="0"
   width="100%"
   height="100%" />
					</clipPath>
					<g
   id="g4292"
   class="st19"
   clip-path="url(#SVGID_24_)"
   style="fill:#ffffe5;fill-opacity:1">
						<g
   id="g4290"
   transform="translate(2245.3477,2148.6489)"
   style="fill:#ffffe5;fill-opacity:1">
							<path
   id="path4288"
   inkscape:connector-curvature="0"
   class="st20"
   d="m -550.1,-47.9 c 0.6,1.5 1.1,3.1 1.5,4.7 6.6,25.6 -10.4,51.3 -36.5,55.5 -58,9.4 -107.3,10.6 -138.9,9.9 -18.3,-0.4 -34,-12 -40.2,-28.5 -1.1,-2.9 -1.9,-5.9 -2.3,-9 -1.3,-9 0.1,-17.6 3.6,-25.1 7.1,14.4 21.7,24.1 38.5,24.5 31.5,0.7 80.8,-0.5 138.9,-9.9 15.6,-2.5 27.9,-12.7 33.9,-25.9 0.5,1.3 1,2.5 1.5,3.8"
   style="fill:#ffffe5;fill-opacity:1" />
						</g>
					</g>
				</g>
			</g>
		</g><g
       id="g4302"
       transform="translate(2152.3555,2149.8481)"
       style="fill:#ffffe5;fill-opacity:1">
			<path
   id="path4300"
   inkscape:connector-curvature="0"
   class="st6"
   d="m -629.7,-51.3 c -8.2,0 -15.9,3.4 -21.3,9.5 -5.6,6.3 -8.1,14.6 -6.8,22.9 2.1,13.6 13.5,23.7 27.2,24 30.6,0.7 78.9,-0.5 136,-9.7 8.2,-1.3 15.2,-5.9 19.8,-12.8 4.5,-6.9 5.9,-15.1 3.8,-23.1 -3.7,-14.4 -17.5,-23.6 -32.3,-21.6 -4.9,0.7 -9.9,1.4 -14.9,2.1 -34.2,5 -69.6,10.1 -110.5,8.6 -0.3,0.1 -0.6,0.1 -1,0.1 m 13.7,88.4 c -5.5,0 -10.6,-0.1 -15.3,-0.2 -29.2,-0.6 -53.5,-22.1 -57.9,-51 -2.7,-17.7 2.6,-35.5 14.5,-48.8 12,-13.4 29.3,-20.8 47.2,-20.1 38,1.4 72,-3.5 104.8,-8.3 5,-0.7 10,-1.5 15,-2.1 30.7,-4.3 59.7,15.1 67.4,45.2 4.2,16.5 1.3,34.1 -8.1,48.3 -9.4,14.3 -24.4,24 -41.3,26.7 -50.5,8.2 -94.6,10.3 -126.3,10.3"
   style="fill:#ffffe5;fill-opacity:1" />
		</g><g
       id="g4306"
       transform="translate(1781.833,2075.9888)"
       style="fill:#ffffe5;fill-opacity:1">
			<path
   id="path4304"
   inkscape:connector-curvature="0"
   class="st2"
   d="m -946.8,159.6 c 31.5,0.7 192.7,-0.5 250.7,-9.9 26.1,-4.2 43,-29.9 36.5,-55.5 -5.7,-22.2 -27.1,-36.5 -49.8,-33.4 -38,5.3 -189.1,12.2 -234.5,10.6 -27.7,-1 -49.6,23.2 -45.5,50.7 3.3,21.2 21.2,37.1 42.6,37.5"
   style="fill:#ffffe5;fill-opacity:1" />
		</g><g
       id="g4346"
       style="fill:#ffffe5;fill-opacity:1">
			<g
   id="g4308"
   style="fill:#ffffe5;fill-opacity:1">
			</g>
			<g
   id="g4344"
   style="fill:#ffffe5;fill-opacity:1">
				<g
   id="g4342"
   style="fill:#ffffe5;fill-opacity:1">
					<defs
   id="defs4312">
						<rect
   id="rect4310"
   x="792"
   y="2161.7"
   width="331.70001"
   height="74" />
					</defs>
					<clipPath
   id="clipPath4316">
						<use
   xlink:href="#SVGID_25_"
   style="overflow:visible"
   id="use4314"
   x="0"
   y="0"
   width="100%"
   height="100%" />
					</clipPath>
					<g
   id="g4340"
   class="st21"
   clip-path="url(#SVGID_26_)"
   style="fill:#ffffe5;fill-opacity:1">
						<g
   id="g4338"
   style="fill:#ffffe5;fill-opacity:1">
							<g
   id="g4318"
   style="fill:#ffffe5;fill-opacity:1">
							</g>
							<g
   id="g4336"
   style="fill:#ffffe5;fill-opacity:1">
								<g
   id="g4334"
   style="fill:#ffffe5;fill-opacity:1">
									<defs
   id="defs4322">
										<rect
   id="rect4320"
   x="792"
   y="2161.7"
   width="331.70001"
   height="74" />
									</defs>
									<clipPath
   id="clipPath4326">
										<use
   xlink:href="#SVGID_27_"
   style="overflow:visible"
   id="use4324"
   x="0"
   y="0"
   width="100%"
   height="100%" />
									</clipPath>
									<g
   id="g4332"
   class="st22"
   clip-path="url(#SVGID_28_)"
   style="fill:#ffffe5;fill-opacity:1">
										<g
   id="g4330"
   transform="translate(1935.8008,2113.7695)"
   style="fill:#ffffe5;fill-opacity:1">
											<path
   id="path4328"
   inkscape:connector-curvature="0"
   class="st5"
   d="m -815,51.7 c 0.6,1.5 1.1,3.1 1.5,4.7 6.6,25.6 -10.4,51.3 -36.5,55.5 -58,9.4 -219.2,10.6 -250.7,9.9 -18.3,-0.4 -34,-12 -40.2,-28.5 -1.1,-2.9 -1.9,-5.9 -2.3,-9 -1.3,-9 0.1,-17.6 3.6,-25.1 7.1,14.4 21.7,24.1 38.5,24.5 31.5,0.7 192.7,-0.5 250.7,-9.9 15.6,-2.5 27.9,-12.7 33.9,-25.9 0.5,1.3 1,2.6 1.5,3.8"
   style="fill:#ffffe5;fill-opacity:1" />
										</g>
									</g>
								</g>
							</g>
						</g>
					</g>
				</g>
			</g>
		</g><g
       id="g4350"
       transform="translate(1782.5278,2114.9697)"
       style="fill:#ffffe5;fill-opacity:1">
			<path
   id="path4348"
   inkscape:connector-curvature="0"
   class="st6"
   d="m -946.2,48.3 c -8.2,0 -15.9,3.4 -21.3,9.5 -5.6,6.3 -8.1,14.6 -6.8,22.9 2.1,13.6 13.5,23.7 27.2,24 32.8,0.7 192,-0.7 247.9,-9.7 8.2,-1.3 15.2,-5.9 19.8,-12.8 4.5,-6.9 5.9,-15.1 3.9,-23.1 -3.7,-14.4 -17.5,-23.6 -32.3,-21.6 -38.9,5.5 -191.9,12.4 -237.2,10.7 -0.5,0.1 -0.8,0.1 -1.2,0.1 m 21.4,88.4 c -10,0 -17.9,-0.1 -23,-0.2 -29.2,-0.6 -53.5,-22.1 -57.9,-51 -2.7,-17.7 2.6,-35.5 14.5,-48.8 12,-13.4 29.3,-20.8 47.2,-20.1 44.3,1.6 193.7,-5.1 231.7,-10.4 30.8,-4.3 59.7,15.1 67.4,45.2 4.2,16.5 1.3,34.1 -8.1,48.3 -9.4,14.3 -24.4,24 -41.3,26.7 -49.9,8.1 -173.5,10.3 -230.5,10.3"
   style="fill:#ffffe5;fill-opacity:1" />
		</g><g
       id="g4354"
       transform="translate(1951.2651,2046.2002)"
       style="fill:#ffffe5;fill-opacity:1">
			<path
   id="path4352"
   inkscape:connector-curvature="0"
   class="st2"
   d="m -801.8,244.7 351.7,-32.8 c 20.1,-1.9 35.1,-19.9 33.2,-40 l -18.5,-198.6 c -1.9,-20.1 -19.9,-35.1 -40,-33.2 L -827.1,-27 c -20.1,1.9 -35.1,19.9 -33.2,40 l 18.5,198.6 c 1.9,20 19.9,35 40,33.1"
   style="fill:#ffffe5;fill-opacity:1" />
		</g><g
       id="g4358"
       transform="translate(2128.9727,2208.9922)"
       style="fill:#ffffe5;fill-opacity:1">
			<path
   id="path4356"
   inkscape:connector-curvature="0"
   class="st3"
   d="m -649.7,-220.2 c -1.1,0 -2.1,0.1 -3.2,0.2 l -351.7,32.8 c -18.8,1.8 -32.6,18.4 -30.8,37.2 l 18.5,198.6 c 1.8,18.8 18.5,32.5 37.2,30.8 L -628,46.5 c 18.8,-1.7 32.6,-18.4 30.8,-37.2 l -18.5,-198.6 c -0.8,-9 -5.2,-17.2 -12.2,-23.1 -6.3,-5 -13.9,-7.8 -21.8,-7.8 M -979.5,81.9 Z m -3.4,2.8 c -20.1,0 -37.2,-15.3 -39.1,-35.7 l -18.5,-198.6 c -2,-21.6 13.9,-40.8 35.5,-42.8 l 351.7,-32.8 c 10.4,-1 20.6,2.2 28.7,8.9 8.1,6.7 13.1,16.2 14.1,26.6 L -592,8.9 c 2,21.6 -13.9,40.8 -35.5,42.8 l -351.7,32.8 c -1.3,0.1 -2.5,0.2 -3.7,0.2"
   style="fill:#ffffe5;fill-opacity:1" />
		</g><g
       id="g4362"
       transform="translate(2128.96,2201.8335)"
       style="fill:#ffffe5;fill-opacity:1">
			<path
   id="path4360"
   inkscape:connector-curvature="0"
   class="st6"
   d="m -649.7,-199.7 c -0.6,0 -1.3,0 -1.9,0.1 l -351.7,32.8 c -11.5,1.1 -19.9,11.3 -18.8,22.7 l 18.5,198.6 c 1.1,11.5 11.3,19.9 22.7,18.8 l 351.7,-32.8 c 11.5,-1.1 19.9,-11.3 18.8,-22.7 l -18.5,-198.6 c -0.5,-5.5 -3.2,-10.5 -7.5,-14.1 -3.8,-3.2 -8.5,-4.8 -13.3,-4.8 M -979.5,89.1 Z m -3.4,16 c -26.8,0 -49.8,-20.5 -52.4,-47.7 l -18.5,-198.6 c -2.7,-28.9 18.6,-54.6 47.5,-57.3 l 351.7,-32.8 c 13.9,-1.3 27.6,2.9 38.5,11.9 10.8,9 17.5,21.6 18.8,35.6 l 18.5,198.6 c 2.7,28.9 -18.6,54.6 -47.5,57.3 L -978,104.9 c -1.6,0.1 -3.3,0.2 -4.9,0.2"
   style="fill:#ffffe5;fill-opacity:1" />
		</g><g
       id="g4402"
       style="fill:#ffffe5;fill-opacity:1">
			<g
   id="g4364"
   style="fill:#ffffe5;fill-opacity:1">
			</g>
			<g
   id="g4400"
   style="fill:#ffffe5;fill-opacity:1">
				<g
   id="g4398"
   style="fill:#ffffe5;fill-opacity:1">
					<defs
   id="defs4368">
						<rect
   id="rect4366"
   x="1090.8"
   y="2022.4"
   width="443.70001"
   height="268.60001" />
					</defs>
					<clipPath
   id="clipPath4372">
						<use
   xlink:href="#SVGID_29_"
   style="overflow:visible"
   id="use4370"
   x="0"
   y="0"
   width="100%"
   height="100%" />
					</clipPath>
					<g
   id="g4396"
   class="st23"
   clip-path="url(#SVGID_30_)"
   style="fill:#ffffe5;fill-opacity:1">
						<g
   id="g4394"
   style="fill:#ffffe5;fill-opacity:1">
							<g
   id="g4374"
   style="fill:#ffffe5;fill-opacity:1">
							</g>
							<g
   id="g4392"
   style="fill:#ffffe5;fill-opacity:1">
								<g
   id="g4390"
   style="fill:#ffffe5;fill-opacity:1">
									<defs
   id="defs4378">
										<rect
   id="rect4376"
   x="1090.8"
   y="2022.4"
   width="443.70001"
   height="268.60001" />
									</defs>
									<clipPath
   id="clipPath4382">
										<use
   xlink:href="#SVGID_31_"
   style="overflow:visible"
   id="use4380"
   x="0"
   y="0"
   width="100%"
   height="100%" />
									</clipPath>
									<g
   id="g4388"
   class="st24"
   clip-path="url(#SVGID_32_)"
   style="fill:#ffffe5;fill-opacity:1">
										<g
   id="g4386"
   transform="translate(2156.4854,2108.5288)"
   style="fill:#ffffe5;fill-opacity:1">
											<path
   id="path4384"
   inkscape:connector-curvature="0"
   class="st5"
   d="m -626.1,66.7 4,42.9 c 1.9,20.1 -13.1,38.1 -33.2,40 l -351.7,32.8 c -20.1,1.9 -38.1,-13 -40,-33.2 l -18.5,-198.6 c -1.5,-15.8 7.5,-30.4 21.1,-36.8 l 14.5,155.7 c 1.9,20.1 19.9,35 40,33.2 L -638.2,70 c 4.3,-0.4 8.4,-1.6 12.1,-3.3"
   style="fill:#ffffe5;fill-opacity:1" />
										</g>
									</g>
								</g>
							</g>
						</g>
					</g>
				</g>
			</g>
		</g><g
       id="g4406"
       transform="translate(1989.1499,2048.5005)"
       style="fill:#ffffe5;fill-opacity:1">
			<path
   id="path4404"
   inkscape:connector-curvature="0"
   class="st2"
   d="m -769.3,238.1 351.7,-32.8 c 20.1,-1.9 35.1,-19.9 33.2,-40 L -403,-33.2 c -1.9,-20.1 -19.9,-35.1 -40,-33.2 l -351.7,32.8 c -20.1,1.9 -35.1,19.9 -33.2,40 l 18.5,198.6 c 1.9,20.1 19.9,35 40.1,33.1"
   style="fill:#ffffe5;fill-opacity:1" />
		</g><g
       id="g4410"
       transform="translate(2166.8545,2211.2949)"
       style="fill:#ffffe5;fill-opacity:1">
			<path
   id="path4408"
   inkscape:connector-curvature="0"
   class="st3"
   d="m -617.3,-226.8 c -1.1,0 -2.1,0.1 -3.2,0.2 l -351.7,32.8 c -9,0.8 -17.2,5.2 -23.1,12.2 -5.8,7 -8.6,15.9 -7.8,25 L -984.6,42 c 1.8,18.8 18.4,32.6 37.2,30.8 L -595.6,40 c 18.8,-1.7 32.6,-18.4 30.8,-37.2 l -18.5,-198.6 c -0.8,-9 -5.2,-17.2 -12.2,-23.1 -6.2,-5.1 -13.9,-7.9 -21.8,-7.9 M -947,75.3 Z m -3.5,2.8 c -20.1,0 -37.2,-15.3 -39.1,-35.7 l -18.5,-198.6 c -1,-10.4 2.2,-20.6 8.9,-28.7 6.7,-8.1 16.2,-13.1 26.6,-14.1 l 351.7,-32.8 c 10.4,-1 20.6,2.2 28.7,8.9 8.1,6.7 13.1,16.2 14.1,26.6 l 18.5,198.6 c 2,21.6 -13.9,40.8 -35.5,42.8 l -351.7,32.8 c -1.2,0.1 -2.5,0.2 -3.7,0.2"
   style="fill:#ffffe5;fill-opacity:1" />
		</g><g
       id="g4414"
       transform="translate(2166.8418,2204.1362)"
       style="fill:#ffffe5;fill-opacity:1">
			<path
   id="path4412"
   inkscape:connector-curvature="0"
   class="st6"
   d="m -617.3,-206.3 c -0.6,0 -1.3,0 -1.9,0.1 l -351.7,32.8 c -5.5,0.5 -10.5,3.2 -14.1,7.5 -3.6,4.3 -5.3,9.7 -4.8,15.2 l 18.5,198.6 c 1.1,11.5 11.2,20 22.7,18.8 l 351.7,-32.8 c 11.5,-1.1 19.9,-11.3 18.8,-22.7 l -18.5,-198.6 c -0.5,-5.5 -3.2,-10.5 -7.5,-14.1 -3.7,-3.1 -8.4,-4.8 -13.2,-4.8 M -947,82.5 Z m -3.5,16 c -26.8,0 -49.8,-20.5 -52.4,-47.7 l -18.5,-198.6 c -1.3,-13.9 2.9,-27.6 11.9,-38.5 9,-10.8 21.6,-17.5 35.6,-18.8 l 351.7,-32.8 c 13.9,-1.3 27.6,2.9 38.5,11.9 10.8,9 17.5,21.6 18.8,35.6 l 18.5,198.6 c 2.7,28.9 -18.6,54.6 -47.5,57.3 l -351.7,32.8 c -1.6,0.2 -3.3,0.2 -4.9,0.2"
   style="fill:#ffffe5;fill-opacity:1" />
		</g><g
       id="g4418"
       transform="translate(1783.916,2743.8813)"
       style="fill:#ffffe5;fill-opacity:1">
			<path
   id="path4416"
   inkscape:connector-curvature="0"
   class="st6"
   d="m -945,-1747.7 c -96.8,139.7 -90.1,292.9 -67.4,396.9 22.9,105.2 92.8,192.6 191.7,239.7 95.4,45.5 200.1,63.1 311.2,52.1 0.3,0 0.5,-0.1 0.7,-0.1 111.1,-11.1 210.4,-49 295.3,-112.6 87.8,-65.9 139.1,-165.3 140.7,-272.9 1.6,-106.4 -22.2,-258 -144.5,-375.7 -151.7,-145.9 -376.4,-118.1 -378.7,-117.9 -0.4,0.1 -0.8,0.1 -1.2,0.1 -2.2,0.2 -227.9,17.4 -347.8,190.4 z m 372,728.1 c -93,0 -181.3,-19.7 -263.2,-58.8 -109.1,-52 -186.3,-148.4 -211.6,-264.7 -24.2,-110.9 -31.2,-274.8 73,-425.2 v 0 c 128.1,-184.8 358.2,-204.7 374.7,-205.9 16.4,-2.1 245.9,-28.1 408,127.7 131.7,126.7 157.4,288.7 155.7,402.3 -1.8,118.9 -58.3,228.7 -155.2,301.3 -90.2,67.6 -195.4,107.8 -312.9,119.7 -0.3,0 -0.5,0.1 -0.8,0.1 -22.9,2.3 -45.4,3.5 -67.7,3.5"
   style="fill:#ffffe5;fill-opacity:1" />
		</g><g
       id="g4422"
       transform="translate(1695.3276,2567.8516)"
       style="fill:#ffffe5;fill-opacity:1">
			<path
   id="path4420"
   inkscape:connector-curvature="0"
   class="st2"
   d="m -1020.8,-1245 c 3.9,39.4 1.4,76.8 -6.4,108.9 -8.1,33.6 -21.9,61.4 -39.6,79.8 -13.1,13.6 -28.5,21.9 -45.3,23.6 -61.5,6.1 -120.4,-78.9 -131.5,-190 -11.1,-111.1 29.8,-206.2 91.3,-212.3 16.9,-1.7 33.6,3.5 49.1,14.2 21.1,14.5 40,39 54.6,70.4 14,29.8 23.9,66 27.8,105.4"
   style="fill:#ffffe5;fill-opacity:1" />
		</g><g
       id="g4426"
       transform="translate(1627.8945,2669.0508)"
       style="fill:#ffffe5;fill-opacity:1">
			<path
   id="path4424"
   inkscape:connector-curvature="0"
   class="st3"
   d="m -1078.5,-1534 c -2,0 -4.1,0.1 -6.1,0.3 -28.8,2.9 -53.9,26 -70.8,65.2 -17.1,39.7 -23.5,90.9 -18.2,144.2 5.3,53.3 21.8,102.2 46.4,137.8 24.3,35.1 53.5,52.8 82.3,49.9 15.9,-1.6 30.6,-9.3 43.7,-22.8 17.4,-17.9 30.9,-45.1 39,-78.6 7.9,-32.8 10.1,-70.2 6.3,-108 -3.8,-37.9 -13.3,-74 -27.6,-104.6 -14.5,-31.2 -33.1,-55.2 -53.7,-69.4 -13.6,-9.3 -27.4,-14 -41.3,-14 m 27.5,403 c -28.5,0 -56.9,-18.4 -80.4,-52.5 -25.1,-36.2 -41.9,-86 -47.3,-140.2 -5.4,-54.2 1.2,-106.3 18.6,-146.8 17.6,-41 44.3,-65.3 75,-68.3 17.2,-1.7 34.3,3.2 50.8,14.6 21.4,14.7 40.6,39.4 55.5,71.4 14.5,31.1 24.2,67.9 28,106.3 3.8,38.4 1.6,76.4 -6.5,109.8 -8.3,34.4 -22.2,62.4 -40.3,81 -14,14.5 -29.7,22.7 -46.9,24.4 -2.1,0.2 -4.3,0.3 -6.5,0.3"
   style="fill:#ffffe5;fill-opacity:1" />
		</g><g
       id="g4448"
       style="fill:#ffffe5;fill-opacity:1">
			<g
   id="g4428"
   style="fill:#ffffe5;fill-opacity:1">
			</g>
			<g
   id="g4446"
   style="fill:#ffffe5;fill-opacity:1">
				<g
   id="g4444"
   style="fill:#ffffe5;fill-opacity:1">
					<defs
   id="defs4432">
						<rect
   id="rect4430"
   x="449.89999"
   y="1288.3"
   width="226.39999"
   height="247.2" />
					</defs>
					<clipPath
   id="clipPath4436">
						<use
   xlink:href="#SVGID_33_"
   style="overflow:visible"
   id="use4434"
   x="0"
   y="0"
   width="100%"
   height="100%" />
					</clipPath>
					<g
   id="g4442"
   class="st25"
   clip-path="url(#SVGID_34_)"
   style="fill:#ffffe5;fill-opacity:1">
						<g
   id="g4440"
   transform="translate(1695.3252,2567.8555)"
   style="fill:#ffffe5;fill-opacity:1">
							<path
   id="path4438"
   inkscape:connector-curvature="0"
   class="st5"
   d="m -1020.8,-1245 c 3.9,39.4 1.4,76.8 -6.4,108.9 -8.1,33.6 -21.9,61.4 -39.6,79.8 -13.1,13.6 -28.5,21.9 -45.3,23.6 -61.5,6.1 -120.4,-78.9 -131.5,-190 -1.2,-11.9 -1.8,-23.7 -1.8,-35.2 15.6,65.6 66.4,111.7 121.4,106.2 16.9,-1.7 32.4,-8 45.9,-18 18.3,-13.5 32.8,-33.5 41.9,-57.4 6.1,-16 9.7,-33.7 10.4,-52.4 2.1,11.1 3.8,22.6 5,34.5"
   style="fill:#ffffe5;fill-opacity:1" />
						</g>
					</g>
				</g>
			</g>
		</g><g
       id="g4452"
       transform="translate(1746.1587,2572.9253)"
       style="fill:#ffffe5;fill-opacity:1">
			<path
   id="path4450"
   inkscape:connector-curvature="0"
   class="st2"
   d="m -977.3,-1259.5 c 11.1,111.1 -29.8,206.1 -91.3,212.3 l -94.3,9.4 c 16.9,-1.7 32.2,-10 45.3,-23.6 17.8,-18.3 31.5,-46.2 39.6,-79.8 7.8,-32.1 10.3,-69.5 6.4,-108.9 -3.9,-39.4 -13.9,-75.5 -27.8,-105.5 -14.6,-31.4 -33.6,-56 -54.6,-70.4 -15.5,-10.7 -32.2,-15.9 -49.1,-14.2 l 94.3,-9.4 c 61.6,-6.1 120.4,79 131.5,190.1"
   style="fill:#ffffe5;fill-opacity:1" />
		</g><g
       id="g4456"
       transform="translate(1638.4888,2670.2729)"
       style="fill:#ffffe5;fill-opacity:1">
			<path
   id="path4454"
   inkscape:connector-curvature="0"
   class="st3"
   d="m -1069.4,-1537.5 c 8.3,2.5 16.5,6.5 24.5,12.1 21.4,14.7 40.6,39.4 55.5,71.4 14.5,31.1 24.2,67.9 28,106.3 3.8,38.4 1.6,76.4 -6.5,109.8 -8.3,34.4 -22.2,62.4 -40.3,81 -6.8,7.1 -14,12.6 -21.7,16.7 l 68.6,-6.8 c 60,-6 100,-99.9 89,-209.4 -10.9,-109.5 -68.7,-193.7 -128.7,-187.8 z m 14.1,404.9 c -1.3,0 -2.4,-1 -2.6,-2.3 -0.1,-1.4 0.9,-2.7 2.3,-2.8 15.9,-1.6 30.6,-9.3 43.7,-22.8 17.4,-17.9 30.9,-45.1 39,-78.6 7.9,-32.8 10.1,-70.2 6.3,-108 -3.8,-37.9 -13.3,-74 -27.6,-104.6 -14.5,-31.2 -33.1,-55.2 -53.7,-69.4 -15.5,-10.7 -31.4,-15.3 -47.3,-13.8 h -0.1 c -1.4,0.1 -2.7,-0.9 -2.8,-2.3 -0.1,-1.4 0.9,-2.7 2.3,-2.8 v 0 l 94.3,-9.4 c 62.9,-6.1 123.1,80 134.3,192.4 11.2,112.3 -30.8,208.8 -93.7,215.1 l -94.3,9.4 c 0.1,-0.1 0,-0.1 -0.1,-0.1"
   style="fill:#ffffe5;fill-opacity:1" />
		</g><g
       id="g4478"
       style="fill:#ffffe5;fill-opacity:1">
			<g
   id="g4458"
   style="fill:#ffffe5;fill-opacity:1">
			</g>
			<g
   id="g4476"
   style="fill:#ffffe5;fill-opacity:1">
				<g
   id="g4474"
   style="fill:#ffffe5;fill-opacity:1">
					<defs
   id="defs4462">
						<rect
   id="rect4460"
   x="583.20001"
   y="1315.5"
   width="187.5"
   height="219.60001" />
					</defs>
					<clipPath
   id="clipPath4466">
						<use
   xlink:href="#SVGID_35_"
   style="overflow:visible"
   id="use4464"
   x="0"
   y="0"
   width="100%"
   height="100%" />
					</clipPath>
					<g
   id="g4472"
   class="st26"
   clip-path="url(#SVGID_36_)"
   style="fill:#ffffe5;fill-opacity:1">
						<g
   id="g4470"
   transform="translate(1746.5112,2568.9438)"
   style="fill:#ffffe5;fill-opacity:1">
							<path
   id="path4468"
   inkscape:connector-curvature="0"
   class="st5"
   d="m -977,-1248.1 c 8.6,107.9 -31.8,198.9 -92,204.9 l -94.3,9.4 c 16.9,-1.7 32.2,-10 45.3,-23.6 17.8,-18.3 31.5,-46.2 39.6,-79.8 4.5,-18.5 4.8,-94.9 5.6,-116.2 l 12.5,13.9 c 23.2,26 65.1,22.2 82.9,-7.8 0.1,-0.3 0.3,-0.6 0.4,-0.8"
   style="fill:#ffffe5;fill-opacity:1" />
						</g>
					</g>
				</g>
			</g>
		</g><g
       id="g4482"
       transform="translate(1627.854,2660.6782)"
       style="fill:#ffffe5;fill-opacity:1">
			<path
   id="path4480"
   inkscape:connector-curvature="0"
   class="st6"
   d="m -1078.5,-1510.1 c -1.5,0 -3,0.1 -4.5,0.2 -22.9,2.3 -43.5,22.1 -58,55.9 -16.1,37.3 -22.1,85.8 -17,136.6 5.1,50.7 20.6,97.1 43.7,130.5 20.9,30.2 45,45.6 67.9,43.3 12.2,-1.2 23.6,-7.3 34.1,-18.2 15.3,-15.8 27.7,-41.1 35.1,-71.4 7.5,-31.1 9.6,-66.7 6,-102.8 v 0 c -3.6,-36.1 -12.7,-70.6 -26.2,-99.6 -13.2,-28.3 -30.4,-50.7 -48.5,-63.1 -11,-7.6 -21.9,-11.4 -32.6,-11.4 m 27.4,403 c -33.7,0 -66.5,-20.7 -93.1,-59.2 -26.6,-38.4 -44.3,-90.8 -50,-147.5 -5.7,-56.7 1.4,-111.6 19.8,-154.5 20,-46.4 51.1,-74 87.7,-77.7 20.7,-2.1 41.8,3.9 61.2,17.3 23.6,16.2 44.7,43.1 60.8,77.7 15.2,32.7 25.4,71.2 29.4,111.3 v 0 c 4,40.1 1.7,79.9 -6.8,114.9 -9,37.1 -24.3,67.5 -44.2,88.1 -16.3,16.9 -35.9,27 -56.5,29 -2.8,0.5 -5.5,0.6 -8.3,0.6"
   style="fill:#ffffe5;fill-opacity:1" />
		</g><g
       id="g4486"
       transform="translate(1664.2681,2664.4346)"
       style="fill:#ffffe5;fill-opacity:1">
			<path
   id="path4484"
   inkscape:connector-curvature="0"
   class="st6"
   d="m -1047.4,-1520.8 c 17.7,16.3 33.6,38.8 46.3,66.1 15.2,32.7 25.4,71.2 29.4,111.3 4,40.1 1.7,79.9 -6.8,114.9 -7.1,29.3 -18.1,54.5 -32.3,73.9 l 22.3,-2.2 c 50.6,-5.1 85,-93.2 75.1,-192.4 -9.9,-99.3 -61.1,-178.9 -111.7,-173.8 z m -33.7,409.6 c -9.2,0 -17.1,-7 -18,-16.3 -1,-10 6.3,-18.8 16.2,-19.8 v 0 c 12.1,-1.2 23.6,-7.3 34,-18.2 15.3,-15.8 27.7,-41.1 35.1,-71.4 7.5,-31.1 9.6,-66.7 6,-102.8 -3.6,-36.1 -12.7,-70.6 -26.2,-99.6 -13.2,-28.3 -30.4,-50.7 -48.5,-63.1 -12.4,-8.6 -24.8,-12.3 -37,-11.1 v 0 c -10,1 -18.8,-6.3 -19.8,-16.2 -1,-10 6.3,-18.8 16.2,-19.8 l 94.3,-9.4 c 72.6,-7.2 139.1,83.4 151.3,206.3 12.3,122.9 -35,224.9 -107.6,232.1 l -94.3,9.4 c -0.5,-0.1 -1.1,-0.1 -1.7,-0.1"
   style="fill:#ffffe5;fill-opacity:1" />
		</g><g
       id="g4490"
       transform="translate(2142.8926,2062.9453)"
       style="fill:#ffffe5;fill-opacity:1">
			<path
   id="path4488"
   inkscape:connector-curvature="0"
   class="st6"
   d="m -637.8,196.9 c -6.7,0 -12.5,-5.1 -13.1,-11.9 L -661.7,76.4 c -0.4,-3.7 -4.6,-6.5 -9.7,-6.2 -19.2,1 -35.6,-12.4 -37.3,-30.2 l -9.1,-98.1 c -0.7,-7.3 4.7,-13.7 11.9,-14.4 7.3,-0.6 13.7,4.7 14.4,11.9 l 9.1,98.1 c 0.3,3.7 4.6,6.5 9.7,6.2 19.2,-0.9 35.5,12.3 37.3,30 l 10.8,108.6 c 0.7,7.3 -4.6,13.7 -11.9,14.5 -0.4,0.1 -0.8,0.1 -1.3,0.1"
   style="fill:#ffffe5;fill-opacity:1" />
		</g><g
       id="g4494"
       transform="translate(2051.9883,2124.9355)"
       style="fill:#ffffe5;fill-opacity:1">
			<path
   id="path4492"
   inkscape:connector-curvature="0"
   class="st2"
   d="m -715.6,19.9 c 0.6,5.8 -3.1,53.6 -3.1,53.6 0,0 -14.9,1.4 -33.2,3.2 -22.8,2.2 -43.6,-19.7 -46.4,-48.9 -2.8,-29.2 13.5,-54.6 36.3,-56.8 15.4,-1.5 33.2,-3.2 33.2,-3.2 0,0 12.3,42.6 13.2,52.1"
   style="fill:#ffffe5;fill-opacity:1" />
		</g><g
       id="g4498"
       transform="translate(2040.6719,2146.8525)"
       style="fill:#ffffe5;fill-opacity:1">
			<path
   id="path4496"
   inkscape:connector-curvature="0"
   class="st6"
   d="m -725.3,-42.7 -24.4,2.3 c -7.7,0.7 -14.8,5.5 -19.9,13.4 -5.6,8.7 -8,20 -6.9,31.8 1.1,11.8 5.7,22.4 12.8,29.9 6.5,6.8 14.3,10.2 22.1,9.4 l 24.3,-2.3 c 1.5,-19.9 2.7,-39.6 2.5,-43 -0.5,-5.2 -6,-25.6 -10.5,-41.5 m -18.5,108.2 c -12.9,0 -25.2,-5.6 -35.2,-16.1 -10.4,-10.9 -17,-26 -18.6,-42.5 -1.6,-16.5 2,-32.5 10.2,-45.2 8.6,-13.5 21.3,-21.7 35.7,-23.1 l 33.2,-3.2 c 5,-0.5 9.8,2.7 11.2,7.6 2.1,7.3 12.7,44 13.6,54 v 0 c 0.6,6.1 -2,40.8 -3.1,55.4 -0.4,5.1 -4.4,9.2 -9.5,9.7 l -33.2,3.2 c -1.5,0.1 -2.9,0.2 -4.3,0.2"
   style="fill:#ffffe5;fill-opacity:1" />
		</g><g
       id="g4502"
       transform="translate(2069.8652,2126.646)"
       style="fill:#ffffe5;fill-opacity:1">
			<path
   id="path4500"
   inkscape:connector-curvature="0"
   class="st2"
   d="m -700.3,15 c 2.8,29.2 -13.5,54.6 -36.3,56.8 -22.8,2.2 -43.6,-19.7 -46.4,-48.9 -2.8,-29.2 13.5,-54.6 36.3,-56.8 22.9,-2.2 43.6,19.7 46.4,48.9"
   style="fill:#ffffe5;fill-opacity:1" />
		</g><g
       id="g4506"
       transform="translate(2046.5371,2147.3594)"
       style="fill:#ffffe5;fill-opacity:1">
			<path
   id="path4504"
   inkscape:connector-curvature="0"
   class="st6"
   d="m -720.2,-44.2 c -0.7,0 -1.4,0 -2.1,0.1 -17,1.6 -29,21.9 -26.8,45.2 2.2,23.3 17.9,41 34.9,39.3 7.7,-0.7 14.8,-5.5 19.9,-13.4 5.6,-8.7 8.1,-20 6.9,-31.8 -1.1,-11.8 -5.7,-22.4 -12.8,-29.9 -6,-6.1 -13,-9.5 -20,-9.5 m 3.8,106 c -27,0 -50.7,-25.3 -53.8,-58.6 -3.3,-34.9 17.2,-65.6 45.8,-68.3 14.3,-1.4 28.4,4.3 39.4,15.9 10.4,10.9 17,26 18.6,42.5 1.6,16.5 -2,32.5 -10.2,45.2 -8.6,13.5 -21.3,21.7 -35.7,23.1 -1.3,0.1 -2.7,0.2 -4.1,0.2"
   style="fill:#ffffe5;fill-opacity:1" />
		</g></g></clipPath></defs>
<style
   type="text/css"
   id="style2">
	.st0{fill:#263238;}
	.st1{clip-path:url(#rect1317_1_);}
	.st2{fill:#FFFFFF;}
	.st3{fill:#390075;}
	.st4{opacity:0.3;clip-path:url(#SVGID_2_);}
	.st5{fill:#6B3DC3;}
	.st6{fill:#310080;}
	.st7{opacity:0.3;clip-path:url(#SVGID_4_);}
	.st8{opacity:0.3;clip-path:url(#SVGID_6_);}
	.st9{fill:#0B3354;}
	.st10{opacity:0.3;clip-path:url(#SVGID_8_);}
	.st11{opacity:0.3;clip-path:url(#SVGID_10_);}
	.st12{opacity:0.3;clip-path:url(#SVGID_12_);}
	.st13{opacity:0.3;clip-path:url(#SVGID_14_);}
	.st14{opacity:0.35;clip-path:url(#SVGID_16_);}
	.st15{opacity:0.3;clip-path:url(#SVGID_18_);}
	.st16{opacity:0.35;clip-path:url(#SVGID_20_);}
	.st17{fill:#826BCE;}
	.st18{opacity:0.3;clip-path:url(#SVGID_22_);}
	.st19{opacity:0.3;clip-path:url(#SVGID_24_);}
	.st20{fill:#35ABDF;}
	.st21{opacity:0.3;clip-path:url(#SVGID_26_);}
	.st22{opacity:0.3;clip-path:url(#SVGID_28_);}
	.st23{opacity:0.3;clip-path:url(#SVGID_30_);}
	.st24{opacity:0.3;clip-path:url(#SVGID_32_);}
	.st25{opacity:0.3;clip-path:url(#SVGID_34_);}
	.st26{opacity:0.3;clip-path:url(#SVGID_36_);}
</style>
<circle
   class="st0"
   cx="1142.6"
   cy="1142.6"
   r="1142.6"
   id="circle4"
   style="fill:#263238;fill-opacity:1" />
<circle
   class="st0"
   cx="1142.55"
   cy="1142.55"
   r="1142.6"
   id="circle4-3"
   style="fill:#ffffe7;fill-opacity:1"
   clip-path="url(#clipPath3912)"
   transform="matrix(0.8486794,0,0,0.8486794,174.16642,-53.992454)" />
<sodipodi:namedview
   bordercolor="#666666"
   borderopacity="1"
   gridtolerance="10"
   guidetolerance="10"
   id="namedview4"
   inkscape:current-layer="svg2"
   inkscape:cx="830.60863"
   inkscape:cy="1149.8893"
   inkscape:pageopacity="0"
   inkscape:pageshadow="2"
   inkscape:snap-bbox="true"
   inkscape:snap-bbox-midpoints="true"
   inkscape:window-height="1016"
   inkscape:window-maximized="1"
   inkscape:window-width="1848"
   inkscape:window-x="72"
   inkscape:window-y="27"
   inkscape:zoom="0.13705938"
   objecttolerance="10"
   pagecolor="#ffffff"
   showgrid="false"
   inkscape:document-rotation="0">
	</sodipodi:namedview>
</svg>
