<?xml version="1.0" encoding="utf-8"?>
<!-- Generator: Adobe Illustrator 23.0.1, SVG Export Plug-In . SVG Version: 6.00 Build 0)  -->
<svg version="1.1"
	 id="svg2" inkscape:version="0.92.5 (2060ec1f9f, 2020-04-08)" sodipodi:docname="logo3.svg" xmlns:cc="http://creativecommons.org/ns#" xmlns:dc="http://purl.org/dc/elements/1.1/" xmlns:inkscape="http://www.inkscape.org/namespaces/inkscape" xmlns:rdf="http://www.w3.org/1999/02/22-rdf-syntax-ns#" xmlns:sodipodi="http://sodipodi.sourceforge.net/DTD/sodipodi-0.dtd" xmlns:svg="http://www.w3.org/2000/svg"
	 xmlns="http://www.w3.org/2000/svg" xmlns:xlink="http://www.w3.org/1999/xlink" x="0px" y="0px" viewBox="0 0 2285.1 2285.1"
	 style="enable-background:new 0 0 2285.1 2285.1;" xml:space="preserve">
<style type="text/css">
	.st0{fill:#263238;}
	.st1{clip-path:url(#rect1317_1_);}
	.st2{fill:#FFFFFF;}
	.st3{fill:#390075;}
	.st4{opacity:0.3;clip-path:url(#SVGID_2_);}
	.st5{fill:#6B3DC3;}
	.st6{fill:#310080;}
	.st7{opacity:0.3;clip-path:url(#SVGID_4_);}
	.st8{opacity:0.3;clip-path:url(#SVGID_6_);}
	.st9{fill:#0B3354;}
	.st10{opacity:0.3;clip-path:url(#SVGID_8_);}
	.st11{opacity:0.3;clip-path:url(#SVGID_10_);}
	.st12{opacity:0.3;clip-path:url(#SVGID_12_);}
	.st13{opacity:0.3;clip-path:url(#SVGID_14_);}
	.st14{opacity:0.35;clip-path:url(#SVGID_16_);}
	.st15{opacity:0.3;clip-path:url(#SVGID_18_);}
	.st16{opacity:0.35;clip-path:url(#SVGID_20_);}
	.st17{fill:#826BCE;}
	.st18{opacity:0.3;clip-path:url(#SVGID_22_);}
	.st19{opacity:0.3;clip-path:url(#SVGID_24_);}
	.st20{fill:#35ABDF;}
	.st21{opacity:0.3;clip-path:url(#SVGID_26_);}
	.st22{opacity:0.3;clip-path:url(#SVGID_28_);}
	.st23{opacity:0.3;clip-path:url(#SVGID_30_);}
	.st24{opacity:0.3;clip-path:url(#SVGID_32_);}
	.st25{opacity:0.3;clip-path:url(#SVGID_34_);}
	.st26{opacity:0.3;clip-path:url(#SVGID_36_);}
</style>
<circle class="st0" cx="1142.6" cy="1142.6" r="1142.6"/>
<g>
	<defs>
		<path id="rect1317" d="M1142.5,0L1142.5,0c631,0,1142.6,511.5,1142.6,1142.6l0,0c0,631-511.5,1142.6-1142.6,1142.6h0
			c-631,0-1142.6-511.5-1142.6-1142.6l0,0C-0.1,511.5,511.5,0,1142.5,0z"/>
	</defs>
	<clipPath id="rect1317_1_">
		<use xlink:href="#rect1317"  style="overflow:visible;"/>
	</clipPath>
	<g id="g14" class="st1">
		<g id="g20" transform="translate(2163.1748,2062.0029)">
			<path id="path22" inkscape:connector-curvature="0" class="st2" d="M-620.4,199.6c0,0,204.8,86.2,228.1,282
				s-127.6,311.8-127.6,311.8s95.5,46.9,78.2,109.4c-21.6,78.1-206.4,45.9-279.3,19.8c-112.3-40.3-30.7-183.6-3.6-239.8
				c46.7-97-66.5-238.9-66.5-238.9L-620.4,199.6z"/>
		</g>
		<g id="g24" transform="translate(2072.9502,1930.4131)">
			<path id="path26" inkscape:connector-curvature="0" class="st3" d="M-697.6,575.4c12.7,16.4,110.4,147,65.6,240.1
				c-2,4.1-4.3,8.8-6.8,13.8c-23.3,46.9-62.2,125.4-40.9,178.4c8.2,20.3,24.9,35.1,49.8,44.1c56.8,20.4,187.8,45.6,247.5,14.7
				c15.1-7.8,24.6-18.8,28.5-32.7c16.5-59.8-75.9-106-76.8-106.4c-0.8-0.4-1.3-1.2-1.4-2.1c-0.1-0.9,0.3-1.8,1-2.3
				c1.5-1.2,149.5-117.4,126.6-309.4c-21.7-181.9-203.9-269.7-224.7-279.1L-697.6,575.4z M-461.8,1086.3
				c-63.2,0-135.2-17.3-169.9-29.7c-26.3-9.4-44.1-25.3-52.9-47c-22.2-55.1,17.4-134.9,41-182.6c2.5-5,4.8-9.6,6.8-13.7
				c45.4-94.4-65-234.8-66.2-236.2c-0.7-0.9-0.8-2.2-0.1-3.1l170.7-244.3c0.7-1,2-1.4,3.1-0.9c2.1,0.9,206.4,89.1,229.7,284.1
				c21.4,179.3-103.9,293.4-125.5,311.6c17.6,9.4,91.9,53,76,110.6c-4.2,15.3-14.7,27.4-31.1,35.9
				C-401.4,1082.1-430.6,1086.3-461.8,1086.3"/>
		</g>
		<g id="g28">
			<g id="g30">
			</g>
			<g id="g42">
				<g>
					<defs>
						<rect id="SVGID_1_" x="1372.1" y="2261.6" width="288.2" height="571.7"/>
					</defs>
					<clipPath id="SVGID_2_">
						<use xlink:href="#SVGID_1_"  style="overflow:visible;"/>
					</clipPath>
					<g id="g40" class="st4">
						<g id="g38" transform="translate(2217.0049,1889.6641)">
							<path id="path36" inkscape:connector-curvature="0" class="st5" d="M-574.4,691.7c-51.4,155.5-176,224.8-243.9,251.9
								c12.3-35,29.8-67.7,39.8-88.5c46.7-97-66.5-238.9-66.5-238.9l170.7-244.3c0,0,38.7,16.3,84.4,50.8
								C-559.9,496.1-541.1,591.2-574.4,691.7"/>
						</g>
					</g>
				</g>
			</g>
		</g>
		<g id="g44" transform="translate(2083.2725,1930.5723)">
			<path id="path46" inkscape:connector-curvature="0" class="st6" d="M-688.8,574.9c26.5,36.7,104.1,156.5,60.4,247.1
				c-2,4.2-4.3,8.9-6.9,14c-20.7,41.6-59.1,119.1-40.4,165.7c6.5,16.3,19.8,27.8,40.6,35.2c64,23,184.5,41.7,235.1,15.5
				c11.2-5.8,18-13.4,20.6-23c12.9-46.8-67.9-88-68.7-88.4c-5.6-2.8-9.4-8.2-10-14.5c-0.6-6.2,2-12.4,7-16.2
				c1.4-1.1,142.4-112.5,120.6-295.3C-348.8,460.5-490.3,376.6-534.5,354L-688.8,574.9z M-472,1101.3c-65.9,0-139.7-17.5-175.2-30.3
				c-30.7-11-51.5-29.8-62-55.8c-24.8-61.6,16.7-145.3,41.5-195.3c2.4-4.9,4.7-9.5,6.7-13.6c41.3-85.7-63.3-218.4-64.3-219.7
				c-5-6.3-5.3-15.1-0.7-21.7l170.7-244.3c4.9-7,14-9.6,21.9-6.3c8.8,3.7,214.8,92.7,239.1,296.6c19.3,161.8-72.9,270.6-114.9,311
				c30.8,20.4,80,62.6,65,117.2c-5.4,19.7-18.5,35-38.9,45.6C-406.6,1096.8-438.3,1101.3-472,1101.3"/>
		</g>
		<g id="g48" transform="translate(2312.4043,2251.5942)">
			<path id="path50" inkscape:connector-curvature="0" class="st2" d="M-492.7-341.9c-57.6,32.7-146.6,33.4-219.1,26.6
				c-67.6-6.4-120.8-19.5-120.8-19.5l-75.9-72.2l-76.2-72.5L-1100-589.2l-33.5-31.9c0,0,73.3,20.8,172.6,35.5
				c52.7,7.8,112.7,13.9,172.9,14.2c12.8,0.1,25.6-0.1,38.3-0.6c42.2-1.6,83.7-6.5,122.1-16c32.4-8,62.6-19.4,89.2-34.8
				c0,0,194.6-151.7,263.3-51.6C-221-595.6-319.9-440-492.7-341.9"/>
		</g>
		<g id="g52">
			<g id="g54">
			</g>
			<g id="g66">
				<g>
					<defs>
						<rect id="SVGID_3_" x="1178.9" y="1586" width="873.2" height="353.8"/>
					</defs>
					<clipPath id="SVGID_4_">
						<use xlink:href="#SVGID_3_"  style="overflow:visible;"/>
					</clipPath>
					<g id="g64" class="st7">
						<g id="g62" transform="translate(2312.4043,2251.5942)">
							<path id="path60" inkscape:connector-curvature="0" class="st5" d="M-492.7-341.9c-111.3,63.2-339.9,7-339.9,7L-1133.5-621
								c0,0,51.8,14.7,127.3,28.1l173.6,165.1c0,0,228.6,56.1,339.9-7.1c114.1-64.8,195.9-154.5,222.9-230.8
								C-228.1-584.6-326-436.5-492.7-341.9"/>
						</g>
					</g>
				</g>
			</g>
		</g>
		<g id="g68" transform="translate(2231.3203,2225.6226)">
			<path id="path70" inkscape:connector-curvature="0" class="st6" d="M-562.1-267.7c-96.1,0-187.7-22.1-193.8-23.5
				c-9.7-2.4-15.7-12.2-13.3-21.9c2.4-9.7,12.2-15.7,21.9-13.3c2.2,0.5,222.9,53.7,326.6-5.2c113.5-64.5,201.9-160.6,220-239.2
				c6.3-27.3,3.5-49.9-8.4-67.2c-9.8-14.3-23.1-22.6-40.8-25.3c-63.3-9.8-163.3,55.1-196.5,80.9c-0.6,0.5-1.3,1-2,1.4
				c-200.9,117.3-592.6,8.1-609.2,3.4c-9.6-2.7-15.2-12.8-12.5-22.4c2.7-9.6,12.8-15.2,22.4-12.5c3.9,1.1,392.1,109.3,580,0.7
				c13.3-10.2,134.8-101,223.2-87.4c27.7,4.3,49.6,17.9,65.1,40.6c17.6,25.6,22.4,58.8,13.8,95.9
				c-20.6,89.3-113.8,192.3-237.5,262.6C-446-275.5-504.9-267.7-562.1-267.7"/>
		</g>
		<g id="g72" transform="translate(1837.4229,2385.9448)">
			<path id="path74" inkscape:connector-curvature="0" class="st2" d="M-899.2-725.5c0,0-209.5-0.5-291.7,64.2
				c-66.8,52.5-146.6,582.7,37.3,685.7c99.9,55.9,355.8,51.4,355.8,51.4L-899.2-725.5z"/>
		</g>
		<g id="g76">
			<g id="g78">
			</g>
			<g id="g90">
				<g>
					<defs>
						<rect id="SVGID_5_" x="570.5" y="1991.3" width="469.1" height="470.5"/>
					</defs>
					<clipPath id="SVGID_6_">
						<use xlink:href="#SVGID_5_"  style="overflow:visible;"/>
					</clipPath>
					<g id="g88" class="st8">
						<g id="g86" transform="translate(1881.7275,2035.7534)">
							<path id="path84" inkscape:connector-curvature="0" class="st5" d="M-861.3,274.5l19.1,151.4c0,0-255.9,4.6-355.8-51.4
								c-103.6-58-123.5-251.6-109.3-419c7.3,118.8,38.8,226.7,111.7,267.6C-1113.2,269.2-925,274.2-861.3,274.5"/>
						</g>
					</g>
				</g>
			</g>
		</g>
		<g id="g92" transform="translate(1828.8335,2376.0215)">
			<path id="path94" inkscape:connector-curvature="0" class="st6" d="M-906.5-697.2c-49.4,1.4-200.8,9.9-264.6,60
				c-31.5,24.8-81.1,228.6-66.5,416.4c6.8,87,29.9,199.2,101.4,239.2c78.6,44,264.7,48.8,326.4,49.1L-906.5-697.2z M-804.9,103.9
				c-58.7,0-259.6-3.8-349-53.8c-85.5-47.9-112.4-172.2-119.9-268.1c-13.7-176.2,27.5-406.3,80.2-447.7c86.2-67.8,294-68.2,303-68
				c9.1,0,16.8,6.8,17.9,15.9l101.4,801.2c0.6,5.1-0.9,10.2-4.3,14.1c-3.4,3.9-8.2,6.2-13.4,6.3C-790.3,103.8-796,103.9-804.9,103.9
				"/>
		</g>
		<g id="g96" transform="translate(1796.1792,2316.0674)">
			<path id="path98" inkscape:connector-curvature="0" class="st9" d="M-934.5-526c-2.6,0-5.3-0.6-7.8-2
				c-0.6-0.3-57.6-30.3-126.2-37.1c-59.2-5.9-90.3,12.7-90.7,12.9c-7.8,4.7-18,2.4-22.8-5.3c-4.8-7.7-2.6-17.8,5.1-22.7
				c1.6-1,40-25,111.6-17.9c75.4,7.4,136.1,39.5,138.6,40.8c8.1,4.3,11.1,14.4,6.8,22.4C-922.8-529.2-928.6-526-934.5-526"/>
		</g>
		<g id="g100" transform="translate(1676.0791,2130.1885)">
			<path id="path102" inkscape:connector-curvature="0" class="st2" d="M-1037.3,4.9c5.5-6.2,153.6,4,161.7,10.6
				c8.1,6.6,34.2,185.9-3.9,206.2c-37.8,20.2-93.4,9.9-120.3-15.8C-1039.3,168.1-1042.8,11.1-1037.3,4.9"/>
		</g>
		<g id="g104" transform="translate(1677.126,2129.2026)">
			<path id="path106" inkscape:connector-curvature="0" class="st3" d="M-1036.4,7.7c-4.9,12.4-0.4,161.3,37.4,197.4
				c24.8,23.6,79,35.8,117.3,15.4c7-3.8,12.2-14.2,15.4-31c11.1-58.9-6.8-165-12-171C-886.9,12.4-1025,3.1-1036.4,7.7 M-926.2,235.9
				c-29.8,0-59.5-11-76.4-27.1c-38.1-36.4-46-195.3-37.7-204.7c4.1-4.6,46.8-2.7,82-0.4c12.8,0.9,76.8,5.4,83.3,10.7
				c7.5,6.1,21.4,102.1,15.9,159.4c-2.7,28.2-9.5,45.3-20.3,51.1C-893.5,232.6-909.9,235.9-926.2,235.9"/>
		</g>
		<g id="g108">
			<g id="g110">
			</g>
			<g id="g122">
				<g>
					<defs>
						<rect id="SVGID_7_" x="649.8" y="2140" width="167" height="222.5"/>
					</defs>
					<clipPath id="SVGID_8_">
						<use xlink:href="#SVGID_7_"  style="overflow:visible;"/>
					</clipPath>
					<g id="g120" class="st10">
						<g id="g118" transform="translate(1761.1035,2013.3457)">
							<path id="path116" inkscape:connector-curvature="0" class="st5" d="M-964.5,338.5c-37.8,20.1-93.4,9.9-120.3-15.8
								c-11.8-11.3-20.4-33.2-26.5-58.6c29.3,16.3,72.5,20.3,103.6,3.7c23.5-12.6,22.6-85.4,16.6-141.1c16.5,1.9,28.4,3.9,30.6,5.6
								C-952.5,138.9-926.3,318.2-964.5,338.5"/>
						</g>
					</g>
				</g>
			</g>
		</g>
		<g id="g124" transform="translate(1679.0347,2122.4844)">
			<path id="path126" inkscape:connector-curvature="0" class="st6" d="M-885.4,37L-885.4,37L-885.4,37z M-1026.6,26.2
				c-1.7,34.6,6.1,148.9,34.7,176.2c21.5,20.6,69.8,30.6,102.2,13.3c4.2-2.2,14.5-22.3,11.4-87.5c-2-42.3-8.3-79.2-11.8-92.4
				C-913.8,31.1-997.9,25.2-1026.6,26.2 M-928.3,255.6c-33.2,0-66-12.4-85.2-30.8c-19.7-18.8-33.3-59.8-40.4-121.9
				c-1-8.9-9.6-87.7,2-100.8c5.1-5.8,9.1-10.3,92.5-4.7c80.6,5.4,87.1,10.7,90.6,13.5c3.6,2.9,10.3,8.3,17.5,68
				c2.7,22.6,6.7,65.9,3.2,102.7c-3.2,33.7-11.8,53.1-27.1,61.3C-891.4,251.8-909.9,255.6-928.3,255.6"/>
		</g>
		<g id="g128" transform="translate(2211.9814,2046.0371)">
			<path id="path130" inkscape:connector-curvature="0" class="st2" d="M-578.7,245.2c-43,237.1-236.5,260.2-236.5,260.2
				c83.1,208.6-76,515.6-76,515.6s81.1,27.9,86.2,80.8c4.6,48.2-117,106.6-277.4,66.1c-246.1-62,46.7-424.3-210.1-715.3
				c-58-65.7-89.9-144.5-104.6-227.1c-4.1-23.4-6.9-47.2-8.5-71c-5-74.7,1.7-150.3,13.9-220.6c11.7-67.3,28.5-129.6,44.9-181.3
				c10.5-33.1,20.9-61.9,29.7-84.8c3.4-8.8,6.5-16.8,9.4-23.8c9.2-22.7,15.2-35.4,15.2-35.4l144.5,3.8l35.1,1l113.4,3l139.1,3.7
				l169.4,4.5c0,0,1.2,3.4,3.5,9.7c1.7,4.8,4,11.2,6.8,19.1c6.2,18,14.8,43.5,24.4,74.4c14.1,45.2,30.5,101.7,45,162.5
				c13.9,58,26.1,119.8,33,179.2c3.6,31,5.8,61.2,6,90C-572,190.1-573.9,219.1-578.7,245.2"/>
		</g>
		<g id="g132">
			<g id="g134">
			</g>
			<g id="g146">
				<g>
					<defs>
						<rect id="SVGID_9_" x="806.3" y="2027.7" width="833.3" height="1199.9"/>
					</defs>
					<clipPath id="SVGID_10_">
						<use xlink:href="#SVGID_9_"  style="overflow:visible;"/>
					</clipPath>
					<g id="g144" class="st11">
						<g id="g142" transform="translate(2215.3965,2092.23)">
							<path id="path140" inkscape:connector-curvature="0" class="st5" d="M-575.7,113.3c-3.7,0.5-7.4,1-11.1,1.4
								c-39.6,4.8-10.6-2.7-35.7-2.9l4.4,47.1c1.9,20.1-13,38.1-33.2,40l-447.1,44.2c-20.1,1.9-38.1-13.1-40-33.2l-2.9-31.7
								c-1,0.7-12.1-0.2-27.5,1c-26,2-57.6,3.4-88.4,4.3c-41.4,1.2-67.4,45.3-48.2,82c15.2,29.1,33.9,56.8,56.6,82.5
								c256.8,291-35.9,653.3,210.1,715.3c97.4,24.6,180.6,12.7,229.8-11.3c0.2,1.2,0.4,2.4,0.5,3.7c4.6,48.2-117,106.6-277.4,66.1
								c-246.1-62,46.7-424.3-210.1-715.3c-58-65.7-89.9-144.5-104.6-227.1c-4.1-23.4-6.9-47.2-8.5-71c8.2-7.6,19.3-12.1,31.7-11.7
								c5.4,0.2,12.3,0.3,20.2,0.2c59.4-0.2,180.7-6.1,214.2-10.8c9.3-1.3,18.3,0.4,26.2,4.3l-7.7-82c-1.9-20.1,13.1-38.1,33.2-40
								l351.7-32.8c20.1-1.9,38.1,13,40,33.1l5.9,63.2c0.8,0,1.7-0.1,2.6,0c40.1,1.4,75.4-3.8,109.3-8.7
								C-578.2,54.2-576,84.5-575.7,113.3"/>
						</g>
					</g>
				</g>
			</g>
		</g>
		<g id="g148">
			<g id="g150">
			</g>
			<g id="g174">
				<g>
					<defs>
						<rect id="SVGID_11_" x="804.7" y="1654.7" width="137.3" height="545.9"/>
					</defs>
					<clipPath id="SVGID_12_">
						<use xlink:href="#SVGID_11_"  style="overflow:visible;"/>
					</clipPath>
					<g id="g172" class="st12">
						<g id="g170">
							<g id="g160">
							</g>
							<g id="g168">
								<g>
									<defs>
										<rect id="SVGID_13_" x="804.7" y="1654.7" width="137.3" height="545.9"/>
									</defs>
									<clipPath id="SVGID_14_">
										<use xlink:href="#SVGID_13_"  style="overflow:visible;"/>
									</clipPath>
									<g id="g166" class="st13">
										<g id="g164" transform="translate(1791.7354,2126.4336)">
											<path id="path162" inkscape:connector-curvature="0" class="st5" d="M-938.3,15.6c1,15.7,2.6,31.5,4.8,47.1
												c-8,0-14.8,0-20.2-0.2c-12.3-0.5-23.4,4.1-31.7,11.7c-17.7-266.5,113.1-545.9,113.1-545.9l22.5,0.6
												C-886.7-375.1-951-176.4-938.3,15.6"/>
										</g>
									</g>
								</g>
							</g>
						</g>
					</g>
				</g>
			</g>
		</g>
		<g id="g176" transform="translate(1833.5601,2379.0923)">
			<path id="path178" inkscape:connector-curvature="0" class="st6" d="M-902.5-706c-15.4,35.5-64.4,155-90.8,297.9
				c-28.6,154.9-35.7,370.2,92.7,515.6c137,155.2,123.5,328.5,112.8,467.7c-11,141.7-12,216.8,88.2,242
				c120.3,30.3,210.4,1.5,241.6-25.3c8.9-7.6,13.9-15.7,13.3-21.5c-3.2-33.7-54.6-58.6-74.1-65.4c-5-1.7-9-5.5-10.9-10.4
				c-1.9-4.9-1.7-10.4,0.7-15.1c1.6-3,154.3-302.2,75.3-500.6c-2.1-5.2-1.6-11.1,1.3-16c2.9-4.8,7.8-8.1,13.4-8.7
				c7.3-0.9,180.9-25.1,220.8-245.5c34-187.4-83.6-532.4-107.4-599.6L-902.5-706z M-599,866.5c-33.7,0-70.5-4.2-109.4-14
				c-134.6-33.9-125.7-147.9-115.5-280c10.2-132.4,23-297.3-103.8-440.9c-109.4-123.9-144.3-313.1-101.1-547
				c32.3-174.7,95.6-311,98.2-316.7c3.1-6.5,9.6-10.8,16.9-10.4l601.5,15.9c7.4,0.2,13.9,4.9,16.5,11.8
				c6.3,16.8,152.6,413.2,113.3,630.2C-205.7,44.1-272.6,112-324.6,146.3c-34.8,22.9-67.4,34.2-88,39.6
				c59.6,185-43.7,425.8-75.4,492.9c27.3,13,75.1,42.1,79.5,88.3c1.2,12.8-2.3,32.3-25.8,52.5C-464.8,845.7-524.1,866.5-599,866.5"
				/>
		</g>
		<g id="g180" transform="translate(1933.4619,2398.7686)">
			<path id="path182" inkscape:connector-curvature="0" class="st2" d="M-817-762.1l-17.4,22.8l-70,91.7l-68.4,89.6l-96.1,125.9
				c0,0-17,5.7-44.3,13.3c-68.7,19.2-202.5,50.5-292.5,33.3c-235.3-45-308.3-207.7-267.3-294c43.1-90.8,198.7-24.7,250.9,0.7
				c16.7,8.1,34.2,14.4,52.3,18.3c66.8,14.4,142.4,11.4,215.7,0c39.7-6.1,78.8-14.7,115.5-24.4c10.9-2.8,21.6-5.8,32-8.8
				c55.2-15.9,103.2-33.3,137.1-46.6C-837.5-752.8-818-761.7-817-762.1"/>
		</g>
		<g id="g184">
			<g id="g186">
			</g>
			<g id="g198">
				<g>
					<defs>
						<rect id="SVGID_15_" x="249.7" y="1684.9" width="619.4" height="333.4"/>
					</defs>
					<clipPath id="SVGID_16_">
						<use xlink:href="#SVGID_15_"  style="overflow:visible;"/>
					</clipPath>
					<g id="g196" class="st14">
						<g id="g194" transform="translate(1797.7188,2220.918)">
							<path id="path192" inkscape:connector-curvature="0" class="st5" d="M-933.2-254.2c0,0-211.1,70.6-336.8,46.6
								c-235.3-45-308.3-207.7-267.3-294c7.6-16,18.6-27.1,31.9-34.4c2.8,87.8,86.8,202.1,278.1,238.7
								c71.5,13.7,170.5-3.3,242.7-20.4C-947.6-326.6-916.8-288.6-933.2-254.2"/>
						</g>
					</g>
				</g>
			</g>
		</g>
		<g id="g200" transform="translate(1648.3364,2183.3574)">
			<path id="path202" inkscape:connector-curvature="0" class="st6" d="M-1061-147c-22.2,0-43.5-1.6-63-5.3
				c-128.3-24.6-227-88.2-270.8-174.5c-25.7-50.8-29.2-103.6-9.5-145.1c11.4-24,30-40.6,55.2-49.5c68-23.8,167.1,15.8,220,41.6
				c15.9,7.7,32.1,13.4,48.2,16.9c217.5,46.9,538.3-98.9,541.5-100.4c9.1-4.2,19.9-0.2,24,8.9c4.2,9.1,0.2,19.9-8.9,24
				c-13.6,6.2-335,152.3-564.2,102.9c-19-4.1-37.9-10.7-56.4-19.7c-30.1-14.6-132.8-60.8-192.2-40c-16,5.6-27.3,15.7-34.5,30.8
				c-14.6,30.8-11.2,73.1,9.1,113.2c38.6,76.2,128,132.8,245.3,155.2c119.6,22.9,325.5-45.3,327.6-46c9.5-3.2,19.8,1.9,22.9,11.4
				c3.2,9.5-1.9,19.8-11.4,22.9C-785.5-197-936.6-147-1061-147"/>
		</g>
		<g id="g204" transform="translate(2345.4609,2632.7471)">
			<path id="path206" inkscape:connector-curvature="0" class="st2" d="M-464.4-1430.3c11.1,111.1-29.8,206.1-91.3,212.3l-94.3,9.4
				c16.9-1.7,32.2-10,45.3-23.6c17.8-18.3,31.5-46.2,39.6-79.8c7.7-32.1,10.3-69.5,6.4-108.9c-3.9-39.4-13.9-75.5-27.8-105.5
				c-14.6-31.4-33.6-56-54.6-70.4c-15.5-10.7-32.2-15.9-49.1-14.2l94.3-9.4C-534.4-1626.6-475.5-1541.4-464.4-1430.3"/>
		</g>
		<g id="g208" transform="translate(2237.7891,2730.0962)">
			<path id="path210" inkscape:connector-curvature="0" class="st3" d="M-556.6-1708.3c8.3,2.5,16.5,6.5,24.5,12.1
				c21.4,14.7,40.6,39.4,55.5,71.4c14.5,31.1,24.2,67.9,28,106.3c3.8,38.4,1.6,76.4-6.5,109.8c-8.3,34.4-22.2,62.4-40.3,81
				c-6.8,7-14,12.6-21.7,16.7l68.6-6.8c28.8-2.9,53.9-26,70.8-65.2c17.1-39.7,23.6-90.9,18.2-144.2
				c-10.9-109.5-68.6-193.7-128.7-187.8L-556.6-1708.3z M-542.4-1303.4c-1.3,0-2.4-1-2.6-2.3c-0.1-1.4,0.9-2.7,2.3-2.8
				c15.9-1.6,30.6-9.3,43.7-22.8c17.4-17.9,30.9-45.1,39-78.6c7.9-32.8,10.1-70.2,6.3-108c-3.8-37.9-13.3-74-27.6-104.6
				c-14.5-31.2-33.1-55.2-53.7-69.4c-15.5-10.7-31.4-15.4-47.4-13.7c-1.4,0.1-2.7-0.9-2.8-2.3c-0.1-1.4,0.9-2.7,2.3-2.8h0l94.3-9.4
				c63-6.2,123.1,80,134.3,192.4c5.4,54.2-1.2,106.3-18.6,146.8c-17.6,41-44.3,65.3-75,68.3l-94.3,9.4c0,0,0,0,0,0
				C-542.3-1303.4-542.3-1303.4-542.4-1303.4"/>
		</g>
		<g id="g212">
			<g id="g214">
			</g>
			<g id="g226">
				<g>
					<defs>
						<rect id="SVGID_17_" x="1701.5" y="1219" width="182" height="189.1"/>
					</defs>
					<clipPath id="SVGID_18_">
						<use xlink:href="#SVGID_17_"  style="overflow:visible;"/>
					</clipPath>
					<g id="g224" class="st15">
						<g id="g222" transform="translate(2346.7227,2623.8291)">
							<path id="path220" inkscape:connector-curvature="0" class="st5" d="M-463.3-1404.9c2.3,93.9-33.7,169.8-87.9,176.9l-94,12.2
								c16.8-2.2,31.9-11,44.6-25c17.2-18.9,30.1-47.1,37.2-80.9c4.3-20.4,6.4-42.8,6.2-66.4l2.4,1.2c29.9,15,65.6,8,89-15.9
								C-464.9-1403.8-464-1404.5-463.3-1404.9"/>
						</g>
					</g>
				</g>
			</g>
		</g>
		<g id="g228" transform="translate(2263.5723,2724.2549)">
			<path id="path230" inkscape:connector-curvature="0" class="st6" d="M-534.5-1691.7c17.7,16.3,33.5,38.8,46.3,66.1
				c15.2,32.7,25.4,71.2,29.4,111.3c4,40.1,1.6,79.9-6.8,114.9c-7.1,29.3-18.1,54.5-32.3,73.9l22.3-2.2
				c22.9-2.3,43.5-22.1,58.1-55.9c16.1-37.3,22.1-85.8,17-136.5c-9.9-99.3-61.1-178.9-111.7-173.8L-534.5-1691.7z M-568.2-1282
				c-9.2,0-17.1-7-18-16.3c-1-10,6.3-18.8,16.2-19.8l0,0c12.1-1.2,23.6-7.3,34-18.2c15.3-15.8,27.7-41.1,35.1-71.4
				c7.5-31.1,9.6-66.7,6-102.8c-3.6-36.1-12.7-70.6-26.2-99.6c-13.2-28.3-30.4-50.7-48.5-63.1c-12.4-8.6-24.9-12.3-37-11.1
				c-10,1-18.8-6.3-19.8-16.2c-1-10,6.3-18.8,16.2-19.8h0l94.3-9.4c72.5-7.2,139.1,83.4,151.4,206.3v0
				c5.7,56.7-1.4,111.6-19.8,154.5c-20,46.4-51.1,74-87.8,77.6l-94.3,9.4C-567-1282-567.6-1282-568.2-1282"/>
		</g>
		<g id="g232">
			<g id="g234">
			</g>
			<g id="g250">
				<g>
					<defs>
						<rect id="SVGID_19_" x="600.4" y="611.7" width="1189.8" height="1194.2"/>
					</defs>
					<clipPath id="SVGID_20_">
						<use xlink:href="#SVGID_19_"  style="overflow:visible;"/>
					</clipPath>
					<g id="g248" class="st16">
						<g id="g242" transform="translate(2196.3633,2860.7769)">
							<path id="path240" inkscape:connector-curvature="0" class="st2" d="M-592-2081.5C-785-2282-1064-2243.8-1064-2243.8
								s-281,17.7-430.6,252.4c-117.8,184.8-109.8,387.6-80,530.2c29.5,141.3,118.3,262.4,243.7,327.7
								c94.3,49.1,223.7,88.5,384.8,72.4l0.2,0c161.1-16.1,280.2-80.3,363-147.1c110-88.7,173.2-225.1,174.2-369.4
								C-407.8-1723.4-440.1-1923.7-592-2081.5"/>
						</g>
						<g id="g246" transform="translate(1971.2412,2948.2925)">
							<path id="path244" inkscape:connector-curvature="0" class="st3" d="M-784.7-2331.5c-32.9,0-53.1,2.6-53.8,2.7
								c-3,0.2-281.6,20.4-428.8,251.2c-118.3,185.6-108.6,389.8-79.7,528.3c29.7,142.4,118,261.2,242.3,325.9
								c118.1,61.4,247,85.7,383.3,72.1c136.5-13.7,258.2-63,361.9-146.6c109.1-88.1,172.2-222,173.2-367.4
								c1-141.5-30-343.6-182.6-502.1C-508-2311.9-694.2-2331.5-784.7-2331.5 M-794-1142.4c-110.5,0-215.5-25.6-313.1-76.4
								c-125.7-65.4-215-185.5-245-329.4c-29.1-139.5-38.9-345,80.4-532.1c148.6-233.1,429.8-253.4,432.6-253.6
								c2.6-0.4,282.3-36.1,474,163.1c153.8,159.8,185,363.2,184,505.7c-1,147-64.8,282.4-175.1,371.4
								c-104.5,84.3-227.1,133.9-364.4,147.7C-745.3-1143.6-769.7-1142.4-794-1142.4"/>
						</g>
					</g>
				</g>
			</g>
		</g>
		<g id="g252" transform="translate(1997.4346,2848.5981)">
			<path id="path254" inkscape:connector-curvature="0" class="st3" d="M-762.3-2046.8c-28.8,0-46.7,2.2-47.4,2.3
				c-0.4,0.1-0.7,0.1-1.1,0.1c-2.3,0.2-228.7,17.4-349,191c-97.1,140.2-90.4,293.9-67.7,398.1v0c23,105.7,93.2,193.4,192.6,240.7
				c95.7,45.7,200.7,63.2,312,52.3c0.2,0,0.5-0.1,0.7-0.1c111.3-11.1,211-49.1,296.1-112.9c88.2-66.2,139.7-166.1,141.3-274.1
				c1.6-106.7-22.3-258.7-145-376.8C-539.6-2031.8-687.5-2046.8-762.3-2046.8 M-786.5-1125.9c-92.7,0-180.8-19.6-262.6-58.7
				c-108.7-51.8-185.5-147.8-210.7-263.6v0c-24.1-110.6-31.1-274,72.8-424c127.8-184.4,357.6-204,373.5-205.2
				c15.9-2,245-28.2,406.8,127.3c131.3,126.3,156.9,287.9,155.2,401.2c-1.8,118.4-58.1,227.8-154.6,300.1
				c-89.9,67.4-195,107.6-312.2,119.4c-0.3,0-0.5,0.1-0.7,0.1C-741.8-1127-764.3-1125.9-786.5-1125.9"/>
		</g>
		<path id="path258" inkscape:connector-curvature="0" class="st17" d="M770,1393.4c23.8,109.2,97.3,202.5,201.7,252.2
			c78.6,37.5,186.5,67.1,321.3,53.7l0.2,0c134.8-13.5,234.7-64,304.4-116.2c92.5-69.4,146.3-175.4,148-287.1
			c1.7-112.8-24-267.7-150.1-389c-160.2-154-393.6-122.8-393.6-122.8s-235,15.5-361.6,198.1C740.6,1126.1,746,1283.2,770,1393.4"/>
		<g id="g260" transform="translate(2223.2705,2621.7817)">
			<path id="path262" inkscape:connector-curvature="0" class="st2" d="M-569-1399c15.8-62.7-12-175.3-89.2-244
				c-110-97.8-209.2-103.1-234-88.7c-41.2,24-33,103.7,72.7,167c85,50.9,122.2,141.5,144.1,172.7
				C-653.5-1360.8-584.8-1336.4-569-1399"/>
		</g>
		<g id="g264" transform="translate(2223.2705,2621.7817)">
			<path id="path266" inkscape:connector-curvature="0" class="st6" d="M-569-1399L-569-1399L-569-1399z M-861.3-1719.6
				c-10.9,0-18.4,1.5-21.8,3.5c-11.5,6.7-14,18.7-14,27.5c-0.2,27.1,22.6,69.7,87,108.3c71.1,42.6,110.7,111.4,134.3,152.5
				c6,10.4,11.2,19.4,15.3,25.3c9.8,14,34.3,27.1,52.4,23.7c4-0.7,16.1-3,21.5-24.8c13.1-51.9-8.7-159.3-83.7-226
				C-752.7-1702.7-825.3-1719.6-861.3-1719.6 M-614.2-1341.9c-30.4,0-61.3-18.7-76-39.7c-5.1-7.2-10.6-16.9-17.1-28.1
				c-23.3-40.5-58.5-101.7-121.5-139.5c-65.8-39.4-104.9-91.6-104.6-139.6c0.2-25.5,11.8-46.8,32-58.6
				c32.2-18.8,140.1-11.4,255.1,90.8c81.1,72.1,112.4,192.1,94.8,261.9c-9.7,38.6-35.6,48.9-50.1,51.6
				C-605.7-1342.3-609.9-1341.9-614.2-1341.9"/>
		</g>
		<g id="g268" transform="translate(1990.084,2810.6304)">
			<path id="path270" inkscape:connector-curvature="0" class="st2" d="M-768.5-1938.3c-27.2-28.7-84.8-36.4-137.4-23.9
				c-84.8,20.2-98.6,76.6-94.9,93c5.4,24.3,41.4,48.6,103.9,29c49.4-15.5,86.5-22.7,106.3-21.1
				C-750-1858.2-745.3-1913.8-768.5-1938.3"/>
		</g>
		<g id="g272" transform="translate(1942.2695,2816.8408)">
			<path id="path274" inkscape:connector-curvature="0" class="st6" d="M-809.5-1956.1c-14.4,0-29.5,1.7-44.4,5.2
				c-74.4,17.7-83,63.7-81.4,71.4c1.2,5.4,6,10.9,12.8,14.9c9.2,5.3,30.4,12.5,67.9,0.7c35.8-11.3,84.5-24.2,113.2-21.9
				c6.9,0.5,11.1-1.7,13.8-7.5c5.4-11.2,2.4-29.8-6.3-38.9C-748.5-1947.5-777.2-1956.1-809.5-1956.1 M-891.9-1821.2
				c-18.4,0-35-4-48.7-11.9c-15.7-9.1-26.6-23.1-30.1-38.4c-5.9-26.4,13.3-91.9,108.4-114.6c62.1-14.8,124.2-3.1,154.7,29.1h0
				c19.2,20.3,24.7,54.4,12.7,79.5c-9.2,19.2-27.6,29.7-49.4,28c-8.3-0.6-34.7,0-99.5,20.4C-860.6-1823.9-876.9-1821.2-891.9-1821.2
				"/>
		</g>
		<g id="g276" transform="translate(1997.4302,2848.5981)">
			<path id="path278" inkscape:connector-curvature="0" class="st3" d="M-762.3-2046.8c-28.8,0-46.7,2.2-47.4,2.3
				c-0.4,0.1-0.7,0.1-1.1,0.1c-2.3,0.2-228.7,17.4-349,191c-97.1,140.2-90.4,293.9-67.7,398.1v0c23,105.7,93.2,193.4,192.6,240.7
				c95.7,45.7,200.7,63.2,312,52.3c0.3,0,0.5-0.1,0.7-0.1c111.3-11.1,211-49.1,296.1-112.9c88.2-66.1,139.7-166.1,141.3-274.1
				c1.6-106.7-22.3-258.7-145-376.8C-539.6-2031.8-687.5-2046.8-762.3-2046.8 M-786.5-1125.9c-92.7,0-180.8-19.6-262.6-58.7
				c-108.7-51.8-185.5-147.8-210.7-263.6v0c-24.1-110.7-31.1-274,72.8-424c127.8-184.4,357.6-204,373.5-205.2
				c15.9-2,245-28.2,406.7,127.3c131.3,126.3,156.9,287.9,155.2,401.2c-1.8,118.4-58.1,227.8-154.6,300.1
				c-89.9,67.4-195,107.6-312.2,119.4c-0.3,0-0.5,0.1-0.7,0.1C-741.8-1127-764.3-1125.9-786.5-1125.9"/>
		</g>
		<g id="g280" transform="translate(1775.8862,2749.4443)">
			<path id="path282" inkscape:connector-curvature="0" class="st2" d="M-951.8-1763.6c126.6-182.6,361.6-198.1,361.6-198.1
				s233.4-31.2,393.6,122.8c126.1,121.3,151.8,276.2,150.1,389c-1.7,111.8-55.4,217.7-148,287.1c-69.7,52.2-169.6,102.7-304.4,116.2
				l-0.2,0c-134.8,13.4-242.7-16.2-321.3-53.7c-104.4-49.7-177.9-143-201.7-252.2C-1046.1-1462.7-1051.5-1619.8-951.8-1763.6
				 M-1154.1-1349.9c29.5,141.3,118.3,262.4,243.6,327.7c94.4,49.1,223.7,88.5,384.8,72.5l0.3,0c161.1-16.1,280.2-80.4,363-147.1
				c110-88.7,173.2-225.1,174.2-369.4c1-145.7-31.4-346-183.3-503.9c-193-200.5-471.9-162.3-471.9-162.3s-281,17.7-430.6,252.4
				C-1191.8-1695.3-1183.9-1492.5-1154.1-1349.9"/>
		</g>
		<g id="g284" transform="translate(1777.0332,2748.6509)">
			<path id="path286" inkscape:connector-curvature="0" class="st3" d="M-950.9-1761.3c-100,144.3-93.2,302.1-69.8,409
				c23.9,109.9,96.9,201.2,200.2,250.4c98.2,46.8,205.8,64.9,319.9,53.5c114.1-11.4,216.1-50.3,303.3-115.7
				c91.7-68.8,145.2-172.7,146.9-285.1c1.6-109.5-22.9-265.5-149.3-387.1c-157.4-151.4-389.2-122.4-391.5-122.1
				C-593.6-1958.2-826.5-1940.8-950.9-1761.3 M-566.1-1040c-90.7,0-176.7-19.2-256.6-57.3c-104.8-49.9-178.8-142.5-203.1-254
				c-23.5-107.9-30.4-267.2,70.6-413.1c125.8-181.5,361.2-199.1,363.5-199.2c2.2-0.3,236.3-29.6,395.6,123.5
				c127.7,122.8,152.5,280.4,150.9,390.9c-1.7,114-56,219.4-149,289.1c-88,66-190.8,105.2-305.7,116.7
				C-522.2-1041.1-544.3-1040-566.1-1040 M-590.4-2131.8c-32.9,0-53.1,2.6-53.9,2.7c-3,0.2-281.6,20.4-428.8,251.2
				c-118.3,185.7-108.6,389.8-79.7,528.3v0c29.7,142.4,118,261.2,242.3,325.9c118.1,61.4,247,85.7,383.3,72.2
				c136.5-13.7,258.1-63,361.9-146.6C-56.1-1186.1,7-1320.1,8-1465.6c1-141.5-30-343.5-182.6-502
				C-313.8-2112.2-499.9-2131.8-590.4-2131.8 M-599.7-942.7c-110.5,0-215.5-25.6-313.1-76.4c-125.7-65.4-214.9-185.5-245-329.4
				c-29.2-139.5-38.9-345,80.4-532.1c148.6-233.1,429.8-253.4,432.6-253.6c2.6-0.4,282.2-36,473.9,163.1
				c153.9,159.8,185,363.2,184,505.7c-1,147.1-64.9,282.4-175.2,371.4c-104.6,84.3-227.1,134-364.4,147.7
				C-551-944-575.5-942.8-599.7-942.7"/>
		</g>
		<g id="g288">
			<g id="g290">
			</g>
			<g id="g302">
				<g>
					<defs>
						<rect id="SVGID_21_" x="602.9" y="1082.2" width="1184.7" height="721.1"/>
					</defs>
					<clipPath id="SVGID_22_">
						<use xlink:href="#SVGID_21_"  style="overflow:visible;"/>
					</clipPath>
					<g id="g300" class="st18">
						<g id="g298" transform="translate(1666.9019,2526.501)">
							<path id="path296" inkscape:connector-curvature="0" class="st5" d="M-1045.1-1126.9c29.5,141.2,118.3,262.4,243.7,327.7
								c94.3,49.1,223.7,88.4,384.8,72.4l0.3,0c161.1-16.1,280.2-80.3,363-147.1c110-88.8,173.2-225.1,174.2-369.4
								c0.1-21-0.4-43-1.9-66c-12.9,52.2-34.3,101.6-63.2,146.2c-17.1,87.4-66.6,167.3-141.2,223.3
								c-69.7,52.2-169.6,102.7-304.4,116.2l-0.2,0c-134.8,13.4-242.7-16.2-321.3-53.7c-77.2-36.8-137.6-97.4-173.3-170.6
								c-74.4-67.5-126.5-158.9-147.8-260.7c-8.6-40.8-15.3-86.6-17.8-135.5C-1073.7-1327.8-1063.7-1215.7-1045.1-1126.9"/>
						</g>
					</g>
				</g>
			</g>
		</g>
		<g id="g304" transform="translate(1971.2705,2939.9258)">
			<path id="path306" inkscape:connector-curvature="0" class="st6" d="M-784.6-2307.6c-31.6,0-51.1,2.4-51.8,2.5
				c-0.4,0.1-0.9,0.1-1.3,0.1c-2.7,0.2-273.8,20.2-416.5,244.1c-115.5,181.2-105.9,381.1-77.5,516.8v0
				c28.8,137.8,114.2,252.7,234.3,315.3c115.3,60,241.2,83.7,374.3,70.5c0.2,0,0.4,0,0.5-0.1c133.1-13.3,252-61.5,353.4-143.2
				c105.4-85.1,166.5-214.6,167.4-355.4c0.9-138.6-29.2-336.4-178.3-491.2C-515.3-2288.7-696.9-2307.6-784.6-2307.6 M-794-1118.5
				c-112.9,0-220.3-26.2-320.2-78.2c-129.8-67.6-222-191.5-253-340v0c-29.7-142.3-39.6-352.1,82.5-543.7
				c150.7-236.3,425.1-259.4,444.1-260.7c19-2.5,292.4-34.1,486.8,167.8c157.5,163.6,189.4,371.2,188.4,516.5
				c-1,151.7-67,291.5-180.9,383.4c-106.9,86.1-232.1,137-372.3,151c-0.2,0-0.4,0.1-0.5,0.1C-744.4-1119.7-769.3-1118.5-794-1118.5"
				/>
		</g>
		<g id="g308" transform="translate(1997.4302,2848.5981)">
			<path id="path310" inkscape:connector-curvature="0" class="st3" d="M-762.3-2046.8c-28.8,0-46.7,2.2-47.4,2.3
				c-0.4,0.1-0.7,0.1-1.1,0.1c-2.3,0.2-228.7,17.4-349,191c-97.1,140.2-90.4,293.9-67.7,398.1v0c23,105.7,93.2,193.4,192.6,240.7
				c95.7,45.7,200.7,63.2,312,52.3c0.3,0,0.5-0.1,0.7-0.1c111.3-11.1,211-49.1,296.1-112.9c88.2-66.1,139.7-166.1,141.3-274.1
				c1.6-106.7-22.3-258.7-145-376.8C-539.6-2031.8-687.5-2046.8-762.3-2046.8 M-786.5-1125.9c-92.7,0-180.8-19.6-262.6-58.7
				c-108.7-51.8-185.5-147.8-210.7-263.6v0c-24.1-110.7-31.1-274,72.8-424c127.8-184.4,357.6-204,373.5-205.2
				c15.9-2,245-28.2,406.7,127.3c131.3,126.3,156.9,287.9,155.2,401.2c-1.8,118.4-58.1,227.8-154.6,300.1
				c-89.9,67.4-195,107.6-312.2,119.4c-0.3,0-0.5,0.1-0.7,0.1C-741.8-1127-764.3-1125.9-786.5-1125.9"/>
		</g>
		<g id="g312" transform="translate(2151.6611,2110.8682)">
			<path id="path314" inkscape:connector-curvature="0" class="st2" d="M-630.3,60c31.5,0.7,80.8-0.5,138.9-9.9
				c26.1-4.2,43-29.9,36.5-55.5l0,0c-5.7-22.2-27.1-36.5-49.8-33.4c-38,5.3-77.2,12.2-122.6,10.6c-27.7-1-49.6,23.2-45.5,50.7
				C-669.6,43.7-651.7,59.6-630.3,60"/>
		</g>
		<g id="g316" transform="translate(2152.3525,2157.0068)">
			<path id="path318" inkscape:connector-curvature="0" class="st3" d="M-629.7-71.7c-12,0-23.3,5-31.2,14
				c-8.2,9.2-11.9,21.5-10,33.7c3,20,19.9,34.9,40.1,35.3c31.1,0.7,80.4-0.5,138.4-9.9c11.8-1.9,22.2-8.7,28.8-18.6
				c6.6-10.1,8.6-22,5.6-33.7c-5.3-20.9-25.5-34.4-47-31.4c-5,0.7-9.9,1.4-14.9,2.1c-33.6,4.9-68.4,9.9-108.1,8.5
				C-628.7-71.7-629.2-71.7-629.7-71.7 M-616,16.6c-5.4,0-10.4-0.1-15.1-0.2c-22.7-0.5-41.7-17.2-45.1-39.7
				c-2.1-13.8,2-27.6,11.3-38c9.3-10.5,22.8-16.2,36.8-15.7c39.2,1.4,73.8-3.6,107.2-8.4c5-0.7,10-1.4,15-2.1
				c24.1-3.4,46.7,11.8,52.7,35.3c3.3,12.9,1,26.7-6.3,37.8c-7.3,11.2-19.1,18.8-32.3,20.9C-541.5,14.6-584.8,16.6-616,16.6"/>
		</g>
		<g id="g320">
			<g id="g322">
			</g>
			<g id="g334">
				<g>
					<defs>
						<rect id="SVGID_23_" x="1478.3" y="2097" width="219.8" height="74"/>
					</defs>
					<clipPath id="SVGID_24_">
						<use xlink:href="#SVGID_23_"  style="overflow:visible;"/>
					</clipPath>
					<g id="g332" class="st19">
						<g id="g330" transform="translate(2245.3477,2148.6489)">
							<path id="path328" inkscape:connector-curvature="0" class="st20" d="M-550.1-47.9c0.6,1.5,1.1,3.1,1.5,4.7
								c6.6,25.6-10.4,51.3-36.5,55.5c-58,9.4-107.3,10.6-138.9,9.9c-18.3-0.4-34-12-40.2-28.5c-1.1-2.9-1.9-5.9-2.3-9
								c-1.3-9,0.1-17.6,3.6-25.1c7.1,14.4,21.7,24.1,38.5,24.5c31.5,0.7,80.8-0.5,138.9-9.9c15.6-2.5,27.9-12.7,33.9-25.9
								C-551.1-50.4-550.6-49.2-550.1-47.9"/>
						</g>
					</g>
				</g>
			</g>
		</g>
		<g id="g336" transform="translate(2152.3555,2149.8481)">
			<path id="path338" inkscape:connector-curvature="0" class="st6" d="M-629.7-51.3c-8.2,0-15.9,3.4-21.3,9.5
				c-5.6,6.3-8.1,14.6-6.8,22.9c2.1,13.6,13.5,23.7,27.2,24c30.6,0.7,78.9-0.5,136-9.7c8.2-1.3,15.2-5.9,19.8-12.8
				c4.5-6.9,5.9-15.1,3.8-23.1c-3.7-14.4-17.5-23.6-32.3-21.6c-4.9,0.7-9.9,1.4-14.9,2.1c-34.2,5-69.6,10.1-110.5,8.6
				C-629-51.3-629.3-51.3-629.7-51.3 M-616,37.1c-5.5,0-10.6-0.1-15.3-0.2c-29.2-0.6-53.5-22.1-57.9-51
				c-2.7-17.7,2.6-35.5,14.5-48.8c12-13.4,29.3-20.8,47.2-20.1c38,1.4,72-3.5,104.8-8.3c5-0.7,10-1.5,15-2.1
				c30.7-4.3,59.7,15.1,67.4,45.2c4.2,16.5,1.3,34.1-8.1,48.3c-9.4,14.3-24.4,24-41.3,26.7C-540.2,35-584.3,37.1-616,37.1"/>
		</g>
		<g id="g340" transform="translate(1781.833,2075.9888)">
			<path id="path342" inkscape:connector-curvature="0" class="st2" d="M-946.8,159.6c31.5,0.7,192.7-0.5,250.7-9.9
				c26.1-4.2,43-29.9,36.5-55.5c-5.7-22.2-27.1-36.5-49.8-33.4c-38,5.3-189.1,12.2-234.5,10.6c-27.7-1-49.6,23.2-45.5,50.7
				C-986.1,143.3-968.2,159.2-946.8,159.6"/>
		</g>
		<g id="g344">
			<g id="g346">
			</g>
			<g id="g370">
				<g>
					<defs>
						<rect id="SVGID_25_" x="792" y="2161.7" width="331.7" height="74"/>
					</defs>
					<clipPath id="SVGID_26_">
						<use xlink:href="#SVGID_25_"  style="overflow:visible;"/>
					</clipPath>
					<g id="g368" class="st21">
						<g id="g366">
							<g id="g356">
							</g>
							<g id="g364">
								<g>
									<defs>
										<rect id="SVGID_27_" x="792" y="2161.7" width="331.7" height="74"/>
									</defs>
									<clipPath id="SVGID_28_">
										<use xlink:href="#SVGID_27_"  style="overflow:visible;"/>
									</clipPath>
									<g id="g362" class="st22">
										<g id="g360" transform="translate(1935.8008,2113.7695)">
											<path id="path358" inkscape:connector-curvature="0" class="st5" d="M-815,51.7c0.6,1.5,1.1,3.1,1.5,4.7
												c6.6,25.6-10.4,51.3-36.5,55.5c-58,9.4-219.2,10.6-250.7,9.9c-18.3-0.4-34-12-40.2-28.5c-1.1-2.9-1.9-5.9-2.3-9
												c-1.3-9,0.1-17.6,3.6-25.1c7.1,14.4,21.7,24.1,38.5,24.5c31.5,0.7,192.7-0.5,250.7-9.9c15.6-2.5,27.9-12.7,33.9-25.9
												C-816,49.2-815.5,50.5-815,51.7"/>
										</g>
									</g>
								</g>
							</g>
						</g>
					</g>
				</g>
			</g>
		</g>
		<g id="g372" transform="translate(1782.5278,2114.9697)">
			<path id="path374" inkscape:connector-curvature="0" class="st6" d="M-946.2,48.3c-8.2,0-15.9,3.4-21.3,9.5
				c-5.6,6.3-8.1,14.6-6.8,22.9c2.1,13.6,13.5,23.7,27.2,24c32.8,0.7,192-0.7,247.9-9.7c8.2-1.3,15.2-5.9,19.8-12.8
				c4.5-6.9,5.9-15.1,3.9-23.1c-3.7-14.4-17.5-23.6-32.3-21.6c-38.9,5.5-191.9,12.4-237.2,10.7C-945.5,48.3-945.8,48.3-946.2,48.3
				 M-924.8,136.7c-10,0-17.9-0.1-23-0.2c-29.2-0.6-53.5-22.1-57.9-51c-2.7-17.7,2.6-35.5,14.5-48.8c12-13.4,29.3-20.8,47.2-20.1
				c44.3,1.6,193.7-5.1,231.7-10.4c30.8-4.3,59.7,15.1,67.4,45.2c4.2,16.5,1.3,34.1-8.1,48.3c-9.4,14.3-24.4,24-41.3,26.7
				C-744.2,134.5-867.8,136.7-924.8,136.7"/>
		</g>
		<g id="g376" transform="translate(1951.2651,2046.2002)">
			<path id="path378" inkscape:connector-curvature="0" class="st2" d="M-801.8,244.7l351.7-32.8c20.1-1.9,35.1-19.9,33.2-40
				l-18.5-198.6c-1.9-20.1-19.9-35.1-40-33.2L-827.1-27c-20.1,1.9-35.1,19.9-33.2,40l18.5,198.6
				C-839.9,231.6-821.9,246.6-801.8,244.7"/>
		</g>
		<g id="g380" transform="translate(2128.9727,2208.9922)">
			<path id="path382" inkscape:connector-curvature="0" class="st3" d="M-649.7-220.2c-1.1,0-2.1,0.1-3.2,0.2l-351.7,32.8
				c-18.8,1.8-32.6,18.4-30.8,37.2l18.5,198.6c1.8,18.8,18.5,32.5,37.2,30.8L-628,46.5c18.8-1.7,32.6-18.4,30.8-37.2l-18.5-198.6
				c-0.8-9-5.2-17.2-12.2-23.1C-634.2-217.4-641.8-220.2-649.7-220.2 M-979.5,81.9L-979.5,81.9L-979.5,81.9z M-982.9,84.7
				c-20.1,0-37.2-15.3-39.1-35.7l-18.5-198.6c-2-21.6,13.9-40.8,35.5-42.8l351.7-32.8c10.4-1,20.6,2.2,28.7,8.9
				c8.1,6.7,13.1,16.2,14.1,26.6L-592,8.9c2,21.6-13.9,40.8-35.5,42.8l-351.7,32.8C-980.5,84.6-981.7,84.7-982.9,84.7"/>
		</g>
		<g id="g384" transform="translate(2128.96,2201.8335)">
			<path id="path386" inkscape:connector-curvature="0" class="st6" d="M-649.7-199.7c-0.6,0-1.3,0-1.9,0.1l-351.7,32.8
				c-11.5,1.1-19.9,11.3-18.8,22.7l18.5,198.6c1.1,11.5,11.3,19.9,22.7,18.8l351.7-32.8c11.5-1.1,19.9-11.3,18.8-22.7l-18.5-198.6
				c-0.5-5.5-3.2-10.5-7.5-14.1C-640.2-198.1-644.9-199.7-649.7-199.7 M-979.5,89.1L-979.5,89.1L-979.5,89.1z M-982.9,105.1
				c-26.8,0-49.8-20.5-52.4-47.7l-18.5-198.6c-2.7-28.9,18.6-54.6,47.5-57.3l351.7-32.8c13.9-1.3,27.6,2.9,38.5,11.9
				c10.8,9,17.5,21.6,18.8,35.6l18.5,198.6c2.7,28.9-18.6,54.6-47.5,57.3L-978,104.9C-979.6,105-981.3,105.1-982.9,105.1"/>
		</g>
		<g id="g388">
			<g id="g390">
			</g>
			<g id="g414">
				<g>
					<defs>
						<rect id="SVGID_29_" x="1090.8" y="2022.4" width="443.7" height="268.6"/>
					</defs>
					<clipPath id="SVGID_30_">
						<use xlink:href="#SVGID_29_"  style="overflow:visible;"/>
					</clipPath>
					<g id="g412" class="st23">
						<g id="g410">
							<g id="g400">
							</g>
							<g id="g408">
								<g>
									<defs>
										<rect id="SVGID_31_" x="1090.8" y="2022.4" width="443.7" height="268.6"/>
									</defs>
									<clipPath id="SVGID_32_">
										<use xlink:href="#SVGID_31_"  style="overflow:visible;"/>
									</clipPath>
									<g id="g406" class="st24">
										<g id="g404" transform="translate(2156.4854,2108.5288)">
											<path id="path402" inkscape:connector-curvature="0" class="st5" d="M-626.1,66.7l4,42.9c1.9,20.1-13.1,38.1-33.2,40
												l-351.7,32.8c-20.1,1.9-38.1-13-40-33.2l-18.5-198.6c-1.5-15.8,7.5-30.4,21.1-36.8l14.5,155.7c1.9,20.1,19.9,35,40,33.2
												L-638.2,70C-633.9,69.6-629.8,68.4-626.1,66.7"/>
										</g>
									</g>
								</g>
							</g>
						</g>
					</g>
				</g>
			</g>
		</g>
		<g id="g416" transform="translate(1989.1499,2048.5005)">
			<path id="path418" inkscape:connector-curvature="0" class="st2" d="M-769.3,238.1l351.7-32.8c20.1-1.9,35.1-19.9,33.2-40
				L-403-33.2c-1.9-20.1-19.9-35.1-40-33.2l-351.7,32.8c-20.1,1.9-35.1,19.9-33.2,40l18.5,198.6C-807.5,225.1-789.5,240-769.3,238.1
				"/>
		</g>
		<g id="g420" transform="translate(2166.8545,2211.2949)">
			<path id="path422" inkscape:connector-curvature="0" class="st3" d="M-617.3-226.8c-1.1,0-2.1,0.1-3.2,0.2l-351.7,32.8
				c-9,0.8-17.2,5.2-23.1,12.2c-5.8,7-8.6,15.9-7.8,25l18.5,198.6c1.8,18.8,18.4,32.6,37.2,30.8L-595.6,40
				c18.8-1.7,32.6-18.4,30.8-37.2l-18.5-198.6c-0.8-9-5.2-17.2-12.2-23.1C-601.7-224-609.4-226.8-617.3-226.8 M-947,75.3L-947,75.3
				L-947,75.3z M-950.5,78.1c-20.1,0-37.2-15.3-39.1-35.7l-18.5-198.6c-1-10.4,2.2-20.6,8.9-28.7c6.7-8.1,16.2-13.1,26.6-14.1
				l351.7-32.8c10.4-1,20.6,2.2,28.7,8.9c8.1,6.7,13.1,16.2,14.1,26.6l18.5,198.6c2,21.6-13.9,40.8-35.5,42.8l-351.7,32.8
				C-948,78-949.3,78.1-950.5,78.1"/>
		</g>
		<g id="g424" transform="translate(2166.8418,2204.1362)">
			<path id="path426" inkscape:connector-curvature="0" class="st6" d="M-617.3-206.3c-0.6,0-1.3,0-1.9,0.1l-351.7,32.8
				c-5.5,0.5-10.5,3.2-14.1,7.5c-3.6,4.3-5.3,9.7-4.8,15.2l18.5,198.6c1.1,11.5,11.2,20,22.7,18.8l351.7-32.8
				c11.5-1.1,19.9-11.3,18.8-22.7l-18.5-198.6c-0.5-5.5-3.2-10.5-7.5-14.1C-607.8-204.6-612.5-206.3-617.3-206.3 M-947,82.5
				L-947,82.5L-947,82.5z M-950.5,98.5c-26.8,0-49.8-20.5-52.4-47.7l-18.5-198.6c-1.3-13.9,2.9-27.6,11.9-38.5
				c9-10.8,21.6-17.5,35.6-18.8l351.7-32.8c13.9-1.3,27.6,2.9,38.5,11.9c10.8,9,17.5,21.6,18.8,35.6l18.5,198.6
				c2.7,28.9-18.6,54.6-47.5,57.3l-351.7,32.8C-947.2,98.5-948.9,98.5-950.5,98.5"/>
		</g>
		<g id="g428" transform="translate(1783.916,2743.8813)">
			<path id="path430" inkscape:connector-curvature="0" class="st6" d="M-945-1747.7c-96.8,139.7-90.1,292.9-67.4,396.9
				c22.9,105.2,92.8,192.6,191.7,239.7c95.4,45.5,200.1,63.1,311.2,52.1c0.3,0,0.5-0.1,0.7-0.1c111.1-11.1,210.4-49,295.3-112.6
				c87.8-65.9,139.1-165.3,140.7-272.9c1.6-106.4-22.2-258-144.5-375.7c-151.7-145.9-376.4-118.1-378.7-117.9
				c-0.4,0.1-0.8,0.1-1.2,0.1C-599.4-1937.9-825.1-1920.7-945-1747.7L-945-1747.7z M-573-1019.6c-93,0-181.3-19.7-263.2-58.8
				c-109.1-52-186.3-148.4-211.6-264.7c-24.2-110.9-31.2-274.8,73-425.2h0c128.1-184.8,358.2-204.7,374.7-205.9
				c16.4-2.1,245.9-28.1,408,127.7c131.7,126.7,157.4,288.7,155.7,402.3c-1.8,118.9-58.3,228.7-155.2,301.3
				c-90.2,67.6-195.4,107.8-312.9,119.7c-0.3,0-0.5,0.1-0.8,0.1C-528.2-1020.8-550.7-1019.6-573-1019.6"/>
		</g>
		<g id="g432" transform="translate(1695.3276,2567.8516)">
			<path id="path434" inkscape:connector-curvature="0" class="st2" d="M-1020.8-1245c3.9,39.4,1.4,76.8-6.4,108.9
				c-8.1,33.6-21.9,61.4-39.6,79.8c-13.1,13.6-28.5,21.9-45.3,23.6c-61.5,6.1-120.4-78.9-131.5-190
				c-11.1-111.1,29.8-206.2,91.3-212.3c16.9-1.7,33.6,3.5,49.1,14.2c21.1,14.5,40,39,54.6,70.4
				C-1034.6-1320.6-1024.7-1284.4-1020.8-1245"/>
		</g>
		<g id="g436" transform="translate(1627.8945,2669.0508)">
			<path id="path438" inkscape:connector-curvature="0" class="st3" d="M-1078.5-1534c-2,0-4.1,0.1-6.1,0.3
				c-28.8,2.9-53.9,26-70.8,65.2c-17.1,39.7-23.5,90.9-18.2,144.2c5.3,53.3,21.8,102.2,46.4,137.8c24.3,35.1,53.5,52.8,82.3,49.9
				c15.9-1.6,30.6-9.3,43.7-22.8c17.4-17.9,30.9-45.1,39-78.6c7.9-32.8,10.1-70.2,6.3-108c-3.8-37.9-13.3-74-27.6-104.6
				c-14.5-31.2-33.1-55.2-53.7-69.4C-1050.8-1529.3-1064.6-1534-1078.5-1534 M-1051-1131c-28.5,0-56.9-18.4-80.4-52.5
				c-25.1-36.2-41.9-86-47.3-140.2c-5.4-54.2,1.2-106.3,18.6-146.8c17.6-41,44.3-65.3,75-68.3c17.2-1.7,34.3,3.2,50.8,14.6
				c21.4,14.7,40.6,39.4,55.5,71.4c14.5,31.1,24.2,67.9,28,106.3c3.8,38.4,1.6,76.4-6.5,109.8c-8.3,34.4-22.2,62.4-40.3,81
				c-14,14.5-29.7,22.7-46.9,24.4C-1046.6-1131.1-1048.8-1131-1051-1131"/>
		</g>
		<g id="g440">
			<g id="g442">
			</g>
			<g id="g454">
				<g>
					<defs>
						<rect id="SVGID_33_" x="449.9" y="1288.3" width="226.4" height="247.2"/>
					</defs>
					<clipPath id="SVGID_34_">
						<use xlink:href="#SVGID_33_"  style="overflow:visible;"/>
					</clipPath>
					<g id="g452" class="st25">
						<g id="g450" transform="translate(1695.3252,2567.8555)">
							<path id="path448" inkscape:connector-curvature="0" class="st5" d="M-1020.8-1245c3.9,39.4,1.4,76.8-6.4,108.9
								c-8.1,33.6-21.9,61.4-39.6,79.8c-13.1,13.6-28.5,21.9-45.3,23.6c-61.5,6.1-120.4-78.9-131.5-190c-1.2-11.9-1.8-23.7-1.8-35.2
								c15.6,65.6,66.4,111.7,121.4,106.2c16.9-1.7,32.4-8,45.9-18c18.3-13.5,32.8-33.5,41.9-57.4c6.1-16,9.7-33.7,10.4-52.4
								C-1023.7-1268.4-1022-1256.9-1020.8-1245"/>
						</g>
					</g>
				</g>
			</g>
		</g>
		<g id="g456" transform="translate(1746.1587,2572.9253)">
			<path id="path458" inkscape:connector-curvature="0" class="st2" d="M-977.3-1259.5c11.1,111.1-29.8,206.1-91.3,212.3l-94.3,9.4
				c16.9-1.7,32.2-10,45.3-23.6c17.8-18.3,31.5-46.2,39.6-79.8c7.8-32.1,10.3-69.5,6.4-108.9c-3.9-39.4-13.9-75.5-27.8-105.5
				c-14.6-31.4-33.6-56-54.6-70.4c-15.5-10.7-32.2-15.9-49.1-14.2l94.3-9.4C-1047.2-1455.7-988.4-1370.6-977.3-1259.5"/>
		</g>
		<g id="g460" transform="translate(1638.4888,2670.2729)">
			<path id="path462" inkscape:connector-curvature="0" class="st3" d="M-1069.4-1537.5c8.3,2.5,16.5,6.5,24.5,12.1
				c21.4,14.7,40.6,39.4,55.5,71.4c14.5,31.1,24.2,67.9,28,106.3c3.8,38.4,1.6,76.4-6.5,109.8c-8.3,34.4-22.2,62.4-40.3,81
				c-6.8,7.1-14,12.6-21.7,16.7l68.6-6.8c60-6,100-99.9,89-209.4c-10.9-109.5-68.7-193.7-128.7-187.8L-1069.4-1537.5z
				 M-1055.3-1132.6c-1.3,0-2.4-1-2.6-2.3c-0.1-1.4,0.9-2.7,2.3-2.8c15.9-1.6,30.6-9.3,43.7-22.8c17.4-17.9,30.9-45.1,39-78.6
				c7.9-32.8,10.1-70.2,6.3-108c-3.8-37.9-13.3-74-27.6-104.6c-14.5-31.2-33.1-55.2-53.7-69.4c-15.5-10.7-31.4-15.3-47.3-13.8
				l-0.1,0c-1.4,0.1-2.7-0.9-2.8-2.3c-0.1-1.4,0.9-2.7,2.3-2.8h0l94.3-9.4c62.9-6.1,123.1,80,134.3,192.4
				c11.2,112.3-30.8,208.8-93.7,215.1l-94.3,9.4C-1055.1-1132.6-1055.2-1132.6-1055.3-1132.6"/>
		</g>
		<g id="g464">
			<g id="g466">
			</g>
			<g id="g478">
				<g>
					<defs>
						<rect id="SVGID_35_" x="583.2" y="1315.5" width="187.5" height="219.6"/>
					</defs>
					<clipPath id="SVGID_36_">
						<use xlink:href="#SVGID_35_"  style="overflow:visible;"/>
					</clipPath>
					<g id="g476" class="st26">
						<g id="g474" transform="translate(1746.5112,2568.9438)">
							<path id="path472" inkscape:connector-curvature="0" class="st5" d="M-977-1248.1c8.6,107.9-31.8,198.9-92,204.9l-94.3,9.4
								c16.9-1.7,32.2-10,45.3-23.6c17.8-18.3,31.5-46.2,39.6-79.8c4.5-18.5,4.8-94.9,5.6-116.2l12.5,13.9
								c23.2,26,65.1,22.2,82.9-7.8C-977.3-1247.6-977.1-1247.9-977-1248.1"/>
						</g>
					</g>
				</g>
			</g>
		</g>
		<g id="g480" transform="translate(1627.854,2660.6782)">
			<path id="path482" inkscape:connector-curvature="0" class="st6" d="M-1078.5-1510.1c-1.5,0-3,0.1-4.5,0.2
				c-22.9,2.3-43.5,22.1-58,55.9c-16.1,37.3-22.1,85.8-17,136.6c5.1,50.7,20.6,97.1,43.7,130.5c20.9,30.2,45,45.6,67.9,43.3
				c12.2-1.2,23.6-7.3,34.1-18.2c15.3-15.8,27.7-41.1,35.1-71.4c7.5-31.1,9.6-66.7,6-102.8v0c-3.6-36.1-12.7-70.6-26.2-99.6
				c-13.2-28.3-30.4-50.7-48.5-63.1C-1056.9-1506.3-1067.8-1510.1-1078.5-1510.1 M-1051.1-1107.1c-33.7,0-66.5-20.7-93.1-59.2
				c-26.6-38.4-44.3-90.8-50-147.5c-5.7-56.7,1.4-111.6,19.8-154.5c20-46.4,51.1-74,87.7-77.7c20.7-2.1,41.8,3.9,61.2,17.3
				c23.6,16.2,44.7,43.1,60.8,77.7c15.2,32.7,25.4,71.2,29.4,111.3v0c4,40.1,1.7,79.9-6.8,114.9c-9,37.1-24.3,67.5-44.2,88.1
				c-16.3,16.9-35.9,27-56.5,29C-1045.6-1107.2-1048.3-1107.1-1051.1-1107.1"/>
		</g>
		<g id="g484" transform="translate(1664.2681,2664.4346)">
			<path id="path486" inkscape:connector-curvature="0" class="st6" d="M-1047.4-1520.8c17.7,16.3,33.6,38.8,46.3,66.1
				c15.2,32.7,25.4,71.2,29.4,111.3c4,40.1,1.7,79.9-6.8,114.9c-7.1,29.3-18.1,54.5-32.3,73.9l22.3-2.2c50.6-5.1,85-93.2,75.1-192.4
				c-9.9-99.3-61.1-178.9-111.7-173.8L-1047.4-1520.8z M-1081.1-1111.2c-9.2,0-17.1-7-18-16.3c-1-10,6.3-18.8,16.2-19.8h0
				c12.1-1.2,23.6-7.3,34-18.2c15.3-15.8,27.7-41.1,35.1-71.4c7.5-31.1,9.6-66.7,6-102.8c-3.6-36.1-12.7-70.6-26.2-99.6
				c-13.2-28.3-30.4-50.7-48.5-63.1c-12.4-8.6-24.8-12.3-37-11.1l0,0c-10,1-18.8-6.3-19.8-16.2c-1-10,6.3-18.8,16.2-19.8l94.3-9.4
				c72.6-7.2,139.1,83.4,151.3,206.3c12.3,122.9-35,224.9-107.6,232.1l-94.3,9.4C-1079.9-1111.2-1080.5-1111.2-1081.1-1111.2"/>
		</g>
		<g id="g488" transform="translate(2142.8926,2062.9453)">
			<path id="path490" inkscape:connector-curvature="0" class="st6" d="M-637.8,196.9c-6.7,0-12.5-5.1-13.1-11.9l-10.8-108.6
				c-0.4-3.7-4.6-6.5-9.7-6.2c-19.2,1-35.6-12.4-37.3-30.2l-9.1-98.1c-0.7-7.3,4.7-13.7,11.9-14.4c7.3-0.6,13.7,4.7,14.4,11.9
				l9.1,98.1c0.3,3.7,4.6,6.5,9.7,6.2c19.2-0.9,35.5,12.3,37.3,30l10.8,108.6c0.7,7.3-4.6,13.7-11.9,14.5
				C-636.9,196.9-637.3,196.9-637.8,196.9"/>
		</g>
		<g id="g492" transform="translate(2051.9883,2124.9355)">
			<path id="path494" inkscape:connector-curvature="0" class="st2" d="M-715.6,19.9c0.6,5.8-3.1,53.6-3.1,53.6s-14.9,1.4-33.2,3.2
				c-22.8,2.2-43.6-19.7-46.4-48.9C-801.1-1.4-784.8-26.8-762-29c15.4-1.5,33.2-3.2,33.2-3.2S-716.5,10.4-715.6,19.9"/>
		</g>
		<g id="g496" transform="translate(2040.6719,2146.8525)">
			<path id="path498" inkscape:connector-curvature="0" class="st6" d="M-725.3-42.7l-24.4,2.3c-7.7,0.7-14.8,5.5-19.9,13.4
				c-5.6,8.7-8,20-6.9,31.8c1.1,11.8,5.7,22.4,12.8,29.9c6.5,6.8,14.3,10.2,22.1,9.4l24.3-2.3c1.5-19.9,2.7-39.6,2.5-43
				C-715.3-6.4-720.8-26.8-725.3-42.7 M-743.8,65.5c-12.9,0-25.2-5.6-35.2-16.1c-10.4-10.9-17-26-18.6-42.5
				c-1.6-16.5,2-32.5,10.2-45.2c8.6-13.5,21.3-21.7,35.7-23.1l33.2-3.2c5-0.5,9.8,2.7,11.2,7.6c2.1,7.3,12.7,44,13.6,54v0
				c0.6,6.1-2,40.8-3.1,55.4c-0.4,5.1-4.4,9.2-9.5,9.7l-33.2,3.2C-741,65.4-742.4,65.5-743.8,65.5"/>
		</g>
		<g id="g500" transform="translate(2069.8652,2126.646)">
			<path id="path502" inkscape:connector-curvature="0" class="st2" d="M-700.3,15c2.8,29.2-13.5,54.6-36.3,56.8
				c-22.8,2.2-43.6-19.7-46.4-48.9c-2.8-29.2,13.5-54.6,36.3-56.8C-723.8-36.1-703.1-14.2-700.3,15"/>
		</g>
		<g id="g504" transform="translate(2046.5371,2147.3594)">
			<path id="path506" inkscape:connector-curvature="0" class="st6" d="M-720.2-44.2c-0.7,0-1.4,0-2.1,0.1
				c-17,1.6-29,21.9-26.8,45.2c2.2,23.3,17.9,41,34.9,39.3c7.7-0.7,14.8-5.5,19.9-13.4c5.6-8.7,8.1-20,6.9-31.8
				c-1.1-11.8-5.7-22.4-12.8-29.9C-706.2-40.8-713.2-44.2-720.2-44.2 M-716.4,61.8c-27,0-50.7-25.3-53.8-58.6
				c-3.3-34.9,17.2-65.6,45.8-68.3c14.3-1.4,28.4,4.3,39.4,15.9c10.4,10.9,17,26,18.6,42.5c1.6,16.5-2,32.5-10.2,45.2
				c-8.6,13.5-21.3,21.7-35.7,23.1C-713.6,61.7-715,61.8-716.4,61.8"/>
		</g>
	</g>
</g>
<sodipodi:namedview  bordercolor="#666666" borderopacity="1" gridtolerance="10" guidetolerance="10" id="namedview4" inkscape:current-layer="g10" inkscape:cx="1184.5376" inkscape:cy="1093.5418" inkscape:pageopacity="0" inkscape:pageshadow="2" inkscape:snap-bbox="true" inkscape:snap-bbox-midpoints="true" inkscape:window-height="1044" inkscape:window-maximized="1" inkscape:window-width="1920" inkscape:window-x="1920" inkscape:window-y="0" inkscape:zoom="0.17699999" objecttolerance="10" pagecolor="#ffffff" showgrid="false">
	</sodipodi:namedview>
</svg>
