<?xml version="1.0" encoding="iso-8859-1"?>
<!-- Generator: Adobe Illustrator 19.0.0, SVG Export Plug-In . SVG Version: 6.00 Build 0)  -->
<svg version="1.1" id="Layer_1" xmlns="http://www.w3.org/2000/svg" xmlns:xlink="http://www.w3.org/1999/xlink" x="0px" y="0px"
	 viewBox="0 0 512 512" style="enable-background:new 0 0 512 512;" xml:space="preserve">
<polygon style="fill:#1E2E3B;" points="225.938,85.826 296.44,367.833 429.176,456.323 429.176,322.938 "/>
<polygon style="fill:#3C5D76;" points="82.824,322.938 82.824,456.323 215.56,367.833 286.062,85.826 "/>
<circle style="fill:#FFDA44;" cx="256" cy="421.647" r="60.235"/>
<path style="fill:#FF9811;" d="M293.647,391.529c0,18.295-9.001,36.826-26.752,55.078c-3.659,3.763-7.362,7.16-10.895,10.159
	c-3.533-2.998-7.236-6.396-10.895-10.159c-17.751-18.251-26.752-36.783-26.752-55.078H293.647 M256,346.353l-82.824,45.176
	C173.176,466.824,256,512,256,512s82.824-45.176,82.824-120.471L256,346.353z"/>
<path style="fill:#FF5023;" d="M256,346.353v45.176h37.647c0,18.295-9.001,36.826-26.752,55.078
	c-3.659,3.763-7.362,7.16-10.895,10.159V512c0,0,82.824-45.176,82.824-120.471L256,346.353z"/>
<path style="fill:#CCE9F9;" d="M338.824,391.529V120.471C338.824,45.176,256,0,256,0s-82.824,45.176-82.824,120.471v271.059H338.824
	z"/>
<path style="fill:#93C7EF;" d="M338.824,391.529V120.471C338.824,45.176,256,0,256,0v391.529H338.824z"/>
<rect x="233.412" y="225.882" style="fill:#1E2E3B;" width="45.176" height="105.412"/>
<rect x="173.176" y="346.353" style="fill:#78B9EB;" width="165.647" height="45.176"/>
<rect x="256" y="346.353" style="fill:#5A8BB0;" width="82.824" height="45.176"/>
<g>
</g>
<g>
</g>
<g>
</g>
<g>
</g>
<g>
</g>
<g>
</g>
<g>
</g>
<g>
</g>
<g>
</g>
<g>
</g>
<g>
</g>
<g>
</g>
<g>
</g>
<g>
</g>
<g>
</g>
</svg>
