<?xml version="1.0" encoding="UTF-8" standalone="no"?>
<!-- Created with Inkscape (http://www.inkscape.org/) -->

<svg
   xmlns:osb="http://www.openswatchbook.org/uri/2009/osb"
   xmlns:dc="http://purl.org/dc/elements/1.1/"
   xmlns:cc="http://creativecommons.org/ns#"
   xmlns:rdf="http://www.w3.org/1999/02/22-rdf-syntax-ns#"
   xmlns:svg="http://www.w3.org/2000/svg"
   xmlns="http://www.w3.org/2000/svg"
   xmlns:xlink="http://www.w3.org/1999/xlink"
   xmlns:sodipodi="http://sodipodi.sourceforge.net/DTD/sodipodi-0.dtd"
   xmlns:inkscape="http://www.inkscape.org/namespaces/inkscape"
   version="1.1"
   id="svg2"
   xml:space="preserve"
   width="1310.3447"
   height="1310.3447"
   viewBox="0 0 1310.3447 1310.3447"
   sodipodi:docname="logo1.svg"
   inkscape:version="0.92.5 (2060ec1f9f, 2020-04-08)"><metadata
     id="metadata8"><rdf:RDF><cc:Work
         rdf:about=""><dc:format>image/svg+xml</dc:format><dc:type
           rdf:resource="http://purl.org/dc/dcmitype/StillImage" /></cc:Work></rdf:RDF></metadata><defs
     id="defs6"><linearGradient
       inkscape:collect="always"
       id="linearGradient2863"><stop
         style="stop-color:#9575cd;stop-opacity:1;"
         offset="0"
         id="stop2859" /><stop
         style="stop-color:#9575cd;stop-opacity:0;"
         offset="1"
         id="stop2861" /></linearGradient><linearGradient
       inkscape:collect="always"
       id="linearGradient2825"
       osb:paint="gradient"><stop
         style="stop-color:#8c9eff;stop-opacity:1;"
         offset="0"
         id="stop2821" /><stop
         style="stop-color:#4a148c;stop-opacity:0"
         offset="1"
         id="stop2823" /></linearGradient><linearGradient
       inkscape:collect="always"
       id="linearGradient2520"><stop
         style="stop-color:#4a148c;stop-opacity:1;"
         offset="0"
         id="stop2516" /><stop
         style="stop-color:#4a148c;stop-opacity:0;"
         offset="1"
         id="stop2518" /></linearGradient><linearGradient
       id="linearGradient2502"
       osb:paint="solid"><stop
         style="stop-color:#4a148c;stop-opacity:1;"
         offset="0"
         id="stop2500" /></linearGradient><clipPath
       clipPathUnits="userSpaceOnUse"
       id="clipPath22"><path
         d="M 0,4000 H 4000 V 0 H 0 Z"
         id="path20"
         inkscape:connector-curvature="0" /></clipPath><linearGradient
       inkscape:collect="always"
       xlink:href="#linearGradient2520"
       id="linearGradient2522"
       x1="998.84668"
       y1="-1761.7745"
       x2="1901.4896"
       y2="-1761.7745"
       gradientUnits="userSpaceOnUse" /><linearGradient
       inkscape:collect="always"
       xlink:href="#linearGradient2863"
       id="linearGradient2865"
       x1="1568.7594"
       y1="-1347.5774"
       x2="1282.5509"
       y2="-2195.3411"
       gradientUnits="userSpaceOnUse" /></defs><sodipodi:namedview
     pagecolor="#ffffff"
     bordercolor="#666666"
     borderopacity="1"
     objecttolerance="10"
     gridtolerance="10"
     guidetolerance="10"
     inkscape:pageopacity="0"
     inkscape:pageshadow="2"
     inkscape:window-width="1848"
     inkscape:window-height="1017"
     id="namedview4"
     showgrid="false"
     inkscape:zoom="0.35399999"
     inkscape:cx="597.14149"
     inkscape:cy="536.58574"
     inkscape:window-x="72"
     inkscape:window-y="27"
     inkscape:window-maximized="1"
     inkscape:current-layer="g10" /><g
     id="g10"
     inkscape:groupmode="layer"
     inkscape:label="Space Budz logo 3 Ai file"
     transform="matrix(1.3333333,0,0,-1.3333333,-1278.3851,3004.205)"><rect
       style="fill:url(#linearGradient2865);fill-opacity:1;stroke:#4a148c;stroke-width:30.00000075;stroke-miterlimit:3.70000005;stroke-dasharray:none;stroke-opacity:1;opacity:1"
       id="rect985"
       width="872.64294"
       height="872.64294"
       x="1013.8467"
       y="-2198.0959"
       transform="scale(1,-1)"
       ry="436.32147" /><g
       id="g16"
       transform="translate(328.68895,-285.74351)"><g
         id="g18"
         clip-path="url(#clipPath22)"><g
           id="g24"
           transform="translate(955.0518,2015.1279)"><path
             d="m 0,0 c -98.824,-206.386 -24.388,-221.366 126.311,-358.411 l 10.919,134.619 z"
             style="fill:#4a148c;fill-opacity:1;fill-rule:nonzero;stroke:none"
             id="path26"
             inkscape:connector-curvature="0" /></g><g
           id="g28"
           transform="translate(1222.707,2109.4546)"><path
             d="m 0,0 c 206.386,-98.824 157.789,-157.164 126.311,-358.411 l -92.909,98.028 z"
             style="fill:#4a148c;fill-opacity:1;fill-rule:nonzero;stroke:none"
             id="path30"
             inkscape:connector-curvature="0" /></g><g
           id="g32"
           transform="translate(1349.0181,1751.0439)"><path
             d="m 0,0 c 9.86,63.041 21.398,112.056 26.255,152.688 -34.441,-16.559 -90.881,-19.345 -138.144,93.3 l 18.98,-147.961 z"
             style="fill:#310080;fill-opacity:1;fill-rule:nonzero;stroke:none"
             id="path34"
             inkscape:connector-curvature="0" /></g><g
           id="g36"
           transform="translate(1081.3623,1656.7168)"><path
             d="M 0,0 10.92,134.619 -124.149,354.887 C -62.072,223.788 -8.387,116.358 -88.466,77.044 -63.497,55.121 -33.658,30.608 0,0"
             style="fill:#310080;fill-opacity:1;fill-rule:nonzero;stroke:none"
             id="path38"
             inkscape:connector-curvature="0" /></g><g
           id="g40"
           transform="translate(1175.4864,2287.9731)"><path
             d="m 0,0 c -61.604,157.412 -249.194,235.827 -249.194,235.827 0,0 -96.978,-178.702 -46.279,-339.957 50.7,-161.255 212.269,-392.507 212.269,-392.507 l 163.928,57.77 c 0,0 -19.119,281.455 -80.724,438.867"
             style="fill:#c9c0ec;fill-opacity:1;fill-rule:nonzero;stroke:none"
             id="path42"
             inkscape:connector-curvature="0" /></g><g
           id="g44"
           transform="translate(883.8804,2413.3291)"><path
             d="m 0,0 c -17.757,-64.71 -29.092,-149.254 -3.867,-229.486 50.7,-161.255 212.269,-392.507 212.269,-392.507 l 163.928,57.77 c 0,0 -1.109,16.286 -3.641,43.163 C 217.579,-609.036 55.823,-471.04 0,0"
             style="fill:#a497dc;fill-opacity:1;fill-rule:nonzero;stroke:none"
             id="path46"
             inkscape:connector-curvature="0" /></g><g
           id="g48"
           transform="translate(1074.9634,2426.9619)"><path
             d="m 0,0 c -71.574,64.608 -148.671,96.838 -148.671,96.838 0,0 -39.856,-73.446 -55.108,-168.653 z"
             style="fill:#4a148c;fill-opacity:1;fill-rule:nonzero;stroke:none"
             id="path50"
             inkscape:connector-curvature="0" /></g><g
           id="g52"
           transform="translate(871.1841,2355.1465)"><path
             d="m 0,0 203.779,71.815 c -1.879,1.697 -3.764,3.359 -5.65,5.011 C 121.754,41.639 2.725,7.419 55.108,168.653 55.108,168.653 15.252,95.208 0,0"
             style="fill:#310080;fill-opacity:1;fill-rule:nonzero;stroke:none"
             id="path54"
             inkscape:connector-curvature="0" /></g><g
           id="g56"
           transform="translate(1065.0854,2310.5879)"><path
             d="m 0,0 c 45.749,-21.906 65.077,-76.75 43.17,-122.499 -21.905,-45.749 -76.75,-65.077 -122.498,-43.171 -45.749,21.906 -65.077,76.751 -43.172,122.499 C -100.594,2.578 -45.749,21.906 0,0"
             style="fill:#e1dedc;fill-opacity:1;fill-rule:nonzero;stroke:none"
             id="path58"
             inkscape:connector-curvature="0" /></g><g
           id="g60"
           transform="translate(1062.3784,2304.9351)"><path
             d="m 0,0 c 42.626,-20.411 60.636,-71.513 40.225,-114.14 -20.411,-42.626 -71.513,-60.635 -114.14,-40.224 -42.626,20.411 -60.635,71.513 -40.225,114.139 C -93.729,2.402 -42.626,20.411 0,0"
             style="fill:#310080;fill-opacity:1;fill-rule:nonzero;stroke:none"
             id="path62"
             inkscape:connector-curvature="0" /></g><g
           id="g64"
           transform="translate(1060.0488,2300.0698)"><path
             d="m 0,0 c 39.939,-19.124 56.813,-67.005 37.689,-106.944 -19.124,-39.94 -67.005,-56.814 -106.944,-37.69 -39.94,19.125 -56.814,67.005 -37.69,106.945 C -87.82,2.25 -39.94,19.125 0,0"
             style="fill:#4a148c;fill-opacity:1;fill-rule:nonzero;stroke:none"
             id="path66"
             inkscape:connector-curvature="0" /></g><g
           id="g68"
           transform="translate(1054.6914,2288.8809)"><path
             d="m 0,0 c 33.76,-16.165 48.023,-56.638 31.857,-90.398 -16.165,-33.76 -56.637,-48.023 -90.398,-31.858 -33.76,16.166 -48.023,56.638 -31.857,90.398 C -74.233,1.902 -33.76,16.166 0,0"
             style="fill:#310080;fill-opacity:1;fill-rule:nonzero;stroke:none"
             id="path70"
             inkscape:connector-curvature="0" /></g><g
           id="g72"
           transform="translate(1052.8569,2285.0503)"><path
             d="m 0,0 c 31.645,-15.152 45.014,-53.088 29.861,-84.733 -15.152,-31.645 -53.088,-45.014 -84.733,-29.862 -31.644,15.153 -45.014,53.089 -29.861,84.734 C -69.581,1.783 -31.645,15.152 0,0"
             style="fill:#ffffff;fill-opacity:1;fill-rule:nonzero;stroke:none"
             id="path74"
             inkscape:connector-curvature="0" /></g><g
           id="g76"
           transform="translate(997.9854,2170.4556)"><path
             d="M 0,0 C 18.722,-8.965 39.615,-7.88 56.721,1.001 L 14.954,119.516 c -18.894,-3.806 -35.85,-16.06 -44.816,-34.783 -0.335,-0.7 -0.581,-1.419 -0.888,-2.125 L -2.025,1.098 C -1.342,0.741 -0.701,0.335 0,0"
             style="fill:#ffffff;fill-opacity:1;fill-rule:nonzero;stroke:none"
             id="path78"
             inkscape:connector-curvature="0" /></g><g
           id="g80"
           transform="translate(1029.0791,2291.1616)"><path
             d="m 0,0 38.947,-110.513 c 4.096,3.702 7.732,7.998 10.815,12.811 L 16.458,-3.2 C 11.038,-1.383 5.512,-0.316 0,0"
             style="fill:#ffffff;fill-opacity:1;fill-rule:nonzero;stroke:none"
             id="path82"
             inkscape:connector-curvature="0" /></g><g
           id="g84"
           transform="translate(885.3462,2348.9063)"><path
             d="m 0,0 c 0.668,-1.896 -0.327,-3.976 -2.224,-4.645 -1.897,-0.668 -3.976,0.328 -4.645,2.224 -0.668,1.897 0.327,3.977 2.224,4.645 C -2.748,2.893 -0.668,1.897 0,0"
             style="fill:#b5b0b6;fill-opacity:1;fill-rule:nonzero;stroke:none"
             id="path86"
             inkscape:connector-curvature="0" /></g><g
           id="g88"
           transform="translate(911.4795,2358.1162)"><path
             d="M 0,0 C 0.668,-1.897 -0.327,-3.976 -2.224,-4.645 -4.121,-5.313 -6.2,-4.317 -6.869,-2.42 -7.538,-0.524 -6.542,1.556 -4.645,2.224 -2.748,2.893 -0.668,1.897 0,0"
             style="fill:#b5b0b6;fill-opacity:1;fill-rule:nonzero;stroke:none"
             id="path90"
             inkscape:connector-curvature="0" /></g><g
           id="g92"
           transform="translate(937.6128,2367.3262)"><path
             d="m 0,0 c 0.668,-1.897 -0.328,-3.977 -2.224,-4.645 -1.897,-0.668 -3.977,0.327 -4.645,2.224 -0.669,1.897 0.327,3.977 2.224,4.645 C -2.748,2.893 -0.668,1.896 0,0"
             style="fill:#b5b0b6;fill-opacity:1;fill-rule:nonzero;stroke:none"
             id="path94"
             inkscape:connector-curvature="0" /></g><g
           id="g96"
           transform="translate(963.7461,2376.5356)"><path
             d="m 0,0 c 0.668,-1.896 -0.327,-3.976 -2.224,-4.645 -1.897,-0.668 -3.977,0.328 -4.645,2.225 -0.668,1.896 0.327,3.976 2.224,4.644 C -2.748,2.893 -0.668,1.897 0,0"
             style="fill:#b5b0b6;fill-opacity:1;fill-rule:nonzero;stroke:none"
             id="path98"
             inkscape:connector-curvature="0" /></g><g
           id="g100"
           transform="translate(989.8789,2385.7456)"><path
             d="M 0,0 C 0.668,-1.896 -0.327,-3.976 -2.224,-4.645 -4.121,-5.313 -6.2,-4.317 -6.869,-2.42 -7.537,-0.524 -6.542,1.556 -4.645,2.224 -2.748,2.893 -0.668,1.897 0,0"
             style="fill:#b5b0b6;fill-opacity:1;fill-rule:nonzero;stroke:none"
             id="path102"
             inkscape:connector-curvature="0" /></g><g
           id="g104"
           transform="translate(1016.0127,2394.9556)"><path
             d="m 0,0 c 0.668,-1.897 -0.328,-3.977 -2.224,-4.645 -1.897,-0.668 -3.977,0.328 -4.645,2.224 -0.669,1.897 0.327,3.977 2.224,4.645 C -2.748,2.893 -0.668,1.896 0,0"
             style="fill:#b5b0b6;fill-opacity:1;fill-rule:nonzero;stroke:none"
             id="path106"
             inkscape:connector-curvature="0" /></g><g
           id="g108"
           transform="translate(1042.1455,2404.1655)"><path
             d="m 0,0 c 0.669,-1.897 -0.327,-3.977 -2.224,-4.645 -1.897,-0.668 -3.976,0.328 -4.645,2.224 -0.668,1.897 0.328,3.977 2.224,4.645 C -2.748,2.893 -0.668,1.897 0,0"
             style="fill:#b5b0b6;fill-opacity:1;fill-rule:nonzero;stroke:none"
             id="path110"
             inkscape:connector-curvature="0" /></g><g
           id="g112"
           transform="translate(1068.2788,2413.375)"><path
             d="M 0,0 C 0.668,-1.896 -0.327,-3.976 -2.224,-4.645 -4.121,-5.313 -6.2,-4.317 -6.869,-2.42 -7.537,-0.523 -6.542,1.556 -4.645,2.224 -2.748,2.893 -0.668,1.897 0,0"
             style="fill:#b5b0b6;fill-opacity:1;fill-rule:nonzero;stroke:none"
             id="path114"
             inkscape:connector-curvature="0" /></g><g
           id="g116"
           transform="translate(1102.4976,1806.3115)"><path
             d="m 0,0 c 0.738,-2.094 -0.361,-4.391 -2.456,-5.128 -2.094,-0.738 -4.39,0.361 -5.128,2.455 -0.739,2.095 0.361,4.391 2.456,5.129 C -3.034,3.194 -0.738,2.095 0,0"
             style="fill:#b5b0b6;fill-opacity:1;fill-rule:nonzero;stroke:none"
             id="path118"
             inkscape:connector-curvature="0" /></g><g
           id="g120"
           transform="translate(1131.354,1816.4814)"><path
             d="m 0,0 c 0.738,-2.095 -0.361,-4.391 -2.456,-5.129 -2.094,-0.738 -4.39,0.361 -5.128,2.456 -0.738,2.095 0.361,4.391 2.456,5.129 C -3.034,3.194 -0.738,2.095 0,0"
             style="fill:#b5b0b6;fill-opacity:1;fill-rule:nonzero;stroke:none"
             id="path122"
             inkscape:connector-curvature="0" /></g><g
           id="g124"
           transform="translate(1160.2109,1826.6514)"><path
             d="m 0,0 c 0.738,-2.095 -0.361,-4.391 -2.456,-5.129 -2.094,-0.738 -4.391,0.361 -5.129,2.456 -0.738,2.094 0.362,4.391 2.456,5.129 C -3.035,3.193 -0.738,2.094 0,0"
             style="fill:#b5b0b6;fill-opacity:1;fill-rule:nonzero;stroke:none"
             id="path126"
             inkscape:connector-curvature="0" /></g><g
           id="g128"
           transform="translate(1189.0674,1836.8203)"><path
             d="m 0,0 c 0.738,-2.094 -0.362,-4.391 -2.456,-5.129 -2.094,-0.737 -4.391,0.361 -5.129,2.456 -0.738,2.095 0.361,4.391 2.456,5.129 C -3.035,3.194 -0.738,2.095 0,0"
             style="fill:#b5b0b6;fill-opacity:1;fill-rule:nonzero;stroke:none"
             id="path130"
             inkscape:connector-curvature="0" /></g><g
           id="g132"
           transform="translate(1217.9233,1846.9902)"><path
             d="m 0,0 c 0.738,-2.095 -0.361,-4.391 -2.456,-5.129 -2.094,-0.738 -4.39,0.361 -5.128,2.456 -0.738,2.095 0.361,4.391 2.456,5.129 C -3.034,3.193 -0.738,2.095 0,0"
             style="fill:#b5b0b6;fill-opacity:1;fill-rule:nonzero;stroke:none"
             id="path134"
             inkscape:connector-curvature="0" /></g><g
           id="g136"
           transform="translate(1246.7798,1857.1602)"><path
             d="m 0,0 c 0.738,-2.095 -0.361,-4.392 -2.456,-5.129 -2.094,-0.738 -4.39,0.361 -5.128,2.456 -0.739,2.094 0.361,4.39 2.456,5.128 C -3.034,3.193 -0.738,2.094 0,0"
             style="fill:#b5b0b6;fill-opacity:1;fill-rule:nonzero;stroke:none"
             id="path138"
             inkscape:connector-curvature="0" /></g><g
           id="g140"
           transform="translate(933.4883,2512.0425)"><path
             d="M 0,0 C 0,0 48.874,-19.512 123.726,-78.226 123.726,-78.226 70.245,-47.217 0,0"
             style="fill:#4a148c;fill-opacity:1;fill-rule:nonzero;stroke:none"
             id="path142"
             inkscape:connector-curvature="0" /></g><g
           id="g144"
           transform="translate(1238.1323,1810.1816)"><path
             d="m 0,0 -105.533,-36.71 0.807,-12.493 111.539,38.798 z"
             style="fill:#310080;fill-opacity:1;fill-rule:nonzero;stroke:none"
             id="path146"
             inkscape:connector-curvature="0" /></g><g
           id="g148"
           transform="translate(1133.4067,1760.9785)"><path
             d="M 0,0 2.131,-32.979 129.522,11.333 111.539,38.798 Z"
             style="fill:#4a148c;fill-opacity:1;fill-rule:nonzero;stroke:none"
             id="path150"
             inkscape:connector-curvature="0" /></g><g
           id="g152"
           transform="translate(1273.9561,1765.5342)"><path
             d="m 0,0 -142.859,-49.693 c -2.604,-0.906 -5.475,0.483 -6.381,3.087 -0.906,2.603 0.484,5.475 3.087,6.38 L -3.293,9.468 C -0.689,10.373 2.182,8.984 3.087,6.381 3.993,3.777 2.604,0.906 0,0"
             style="fill:#310080;fill-opacity:1;fill-rule:nonzero;stroke:none"
             id="path154"
             inkscape:connector-curvature="0" /></g><g
           id="g156"
           transform="translate(1136.1421,1718.2002)"><path
             d="m 0,0 c -1.145,-43.877 28.442,-84.789 41.125,-93.303 l 4.063,14.836 c 8.331,-23.947 51.655,-55.109 80.337,-68.497 L 66.373,23.088 Z"
             style="fill:#fe5722;fill-opacity:1;fill-rule:nonzero;stroke:none"
             id="path158"
             inkscape:connector-curvature="0" /></g><g
           id="g160"
           transform="translate(1268.8872,1764.375)"><path
             d="m 0,0 c 28.128,-33.694 30.319,-84.136 25.657,-98.683 l -12.394,9.112 c 8.33,-23.948 -6.302,-75.27 -20.483,-103.568 l -59.153,170.052 z"
             style="fill:#f3511e;fill-opacity:1;fill-rule:nonzero;stroke:none"
             id="path162"
             inkscape:connector-curvature="0" /></g><g
           id="g164"
           transform="translate(1160.3745,1726.6299)"><path
             d="m 0,0 c -0.727,-27.858 18.058,-53.833 26.11,-59.239 l 2.58,9.42 c 5.289,-15.204 32.796,-34.99 51.006,-43.49 L 42.14,14.658 Z"
             style="fill:#fec928;fill-opacity:1;fill-rule:nonzero;stroke:none"
             id="path166"
             inkscape:connector-curvature="0" /></g><g
           id="g168"
           transform="translate(1244.6548,1755.9463)"><path
             d="M 0,0 C 17.859,-21.393 19.25,-53.419 16.29,-62.654 L 8.421,-56.87 C 13.71,-72.074 4.419,-104.658 -4.584,-122.625 L -42.14,-14.658 Z"
             style="fill:#fec007;fill-opacity:1;fill-rule:nonzero;stroke:none"
             id="path170"
             inkscape:connector-curvature="0" /></g><g
           id="g172"
           transform="translate(1090.1553,1792.1816)"><path
             d="M 0,0 -0.615,-21.363 180.02,41.47 166.289,57.843 Z"
             style="fill:#4a148c;fill-opacity:1;fill-rule:nonzero;stroke:none"
             id="path174"
             inkscape:connector-curvature="0" /></g><g
           id="g176"
           transform="translate(1121.3105,1783.9336)"><path
             d="m 0,0 -0.436,-15.161 128.199,44.594 -9.746,11.62 z"
             style="fill:#4a148c;fill-opacity:1;fill-rule:nonzero;stroke:none"
             id="path178"
             inkscape:connector-curvature="0" /></g></g></g></g></svg>