<?xml version="1.0" encoding="UTF-8"?>
<!-- Created with Inkscape (http://www.inkscape.org/) -->
<svg width="349.55mm" height="503.75mm" version="1.1" viewBox="0 0 349.55 503.75" xmlns="http://www.w3.org/2000/svg">
 <defs>
  <clipPath id="clipPath18">
   <path d="m0 4e3h4e3v-4e3h-4e3z"/>
  </clipPath>
  <clipPath id="clipPath34">
   <path d="m2071.2 2062h155.28v-308.06h-155.28z"/>
  </clipPath>
  <clipPath id="clipPath58">
   <path d="m1967.1 2426h470.55v-190.64h-470.55z"/>
  </clipPath>
  <clipPath id="clipPath82">
   <path d="m1639.2 2207.7h252.8v-253.52h-252.8z"/>
  </clipPath>
  <clipPath id="clipPath114">
   <path d="m1682 2127.5h90v-119.89h-90z"/>
  </clipPath>
  <clipPath id="clipPath138">
   <path d="m1766.4 2188h449.05v-646.59h-449.05z"/>
  </clipPath>
  <clipPath id="clipPath154">
   <path d="m1765.5 2389h73.96v-294.14h-73.96z"/>
  </clipPath>
  <clipPath id="clipPath158">
   <path d="m1765.5 2389h73.96v-294.14h-73.96z"/>
  </clipPath>
  <clipPath id="clipPath190">
   <path d="m1466.4 2372.8h333.76v-179.63h-333.76z"/>
  </clipPath>
  <clipPath id="clipPath218">
   <path d="m2248.7 2623.8h98.07v-101.89h-98.07z"/>
  </clipPath>
  <clipPath id="clipPath238">
   <path d="m1655.4 2951.1h641.14v-643.53h-641.14z"/>
  </clipPath>
  <clipPath id="clipPath294">
   <path d="m1656.7 2697.5h638.4v-388.58h-638.4z"/>
  </clipPath>
  <clipPath id="clipPath326">
   <path d="m2128.5 2150.7h118.45v-39.9h-118.45z"/>
  </clipPath>
  <clipPath id="clipPath350">
   <path d="m1758.6 2115.8h178.73v-39.9h-178.73z"/>
  </clipPath>
  <clipPath id="clipPath354">
   <path d="m1758.6 2115.8h178.73v-39.9h-178.73z"/>
  </clipPath>
  <clipPath id="clipPath394">
   <path d="m1919.6 2190.9h239.08v-144.76h-239.08z"/>
  </clipPath>
  <clipPath id="clipPath398">
   <path d="m1919.6 2190.9h239.08v-144.76h-239.08z"/>
  </clipPath>
  <clipPath id="clipPath446">
   <path d="m1574.3 2586.5h122.02v-133.19h-122.02z"/>
  </clipPath>
  <clipPath id="clipPath470">
   <path d="m1646.1 2571.8h101.03v-118.35h-101.03z"/>
  </clipPath>
 </defs>
 <g transform="translate(33.163 87.448)">
  <g transform="matrix(.35278 0 0 -.35278 -547 956.67)" clip-path="url(#clipPath18)">
   <g transform="translate(2163.2 2062)">
    <path d="m0 0s110.34-46.461 122.93-151.96-68.754-168-68.754-168 51.439-25.25 42.136-58.977c-11.616-42.105-111.22-24.748-150.51-10.647-60.496 21.712-16.518 98.925-1.937 129.22 25.16 52.269-35.82 128.73-35.82 128.73z" fill="#fff"/>
   </g>
   <g transform="translate(2073 1930.4)">
    <path d="m0 0c6.866-8.843 59.48-79.238 35.342-129.39-1.076-2.235-2.313-4.727-3.655-7.43-12.539-25.274-33.526-67.57-22.03-96.119 4.409-10.952 13.437-18.94 26.835-23.748 30.623-10.993 101.18-24.59 133.35-7.908 8.118 4.213 13.28 10.138 15.342 17.612 8.893 32.239-40.901 57.105-41.405 57.353-0.433 0.211-0.725 0.635-0.772 1.113-0.049 0.482 0.154 0.953 0.537 1.245 0.807 0.621 80.557 63.264 68.218 166.73-11.693 98.043-109.87 145.32-121.06 150.39zm127.09-275.32c-34.081 0-72.88 9.31-91.539 16.007-14.179 5.089-23.761 13.612-28.479 25.331-11.965 29.714 9.371 72.712 22.119 98.402 1.337 2.695 2.568 5.177 3.64 7.401 24.486 50.874-35.052 126.5-35.656 127.26-0.384 0.481-0.406 1.161-0.053 1.668l91.961 131.64c0.38 0.54 1.085 0.733 1.686 0.487 1.111-0.467 111.24-47.992 123.77-153.09 11.522-96.593-55.996-158.1-67.612-167.9 9.494-5.068 49.525-28.538 40.954-59.612-2.276-8.252-7.91-14.761-16.748-19.344-11.528-5.981-27.213-8.253-44.043-8.253" fill="#390075"/>
   </g>
   <g clip-path="url(#clipPath34)" opacity=".3">
    <g transform="translate(2217 1889.7)">
     <path d="m0 0c-27.707-83.812-94.842-121.14-131.44-135.72 6.654 18.866 16.075 36.481 21.456 47.688 25.162 52.265-35.811 128.73-35.811 128.73l91.961 131.64s20.852-8.774 45.478-27.372c16.164-39.539 26.256-90.777 8.351-144.96" fill="#6b3dc3"/>
    </g>
   </g>
   <g transform="translate(2083.3 1930.6)">
    <path d="m0 0c14.263-19.752 56.083-84.314 32.563-133.18-1.087-2.263-2.339-4.786-3.697-7.522-11.135-22.437-31.859-64.203-21.764-89.271 3.526-8.758 10.688-14.97 21.895-18.994 34.489-12.376 99.44-22.474 126.67-8.352 6.051 3.137 9.689 7.194 11.126 12.404 6.958 25.22-36.581 47.393-37.023 47.611-3.032 1.487-5.08 4.438-5.415 7.798-0.334 3.361 1.09 6.657 3.769 8.715 0.757 0.585 76.751 60.611 65.005 159.1-9.942 83.359-86.186 128.56-109.97 140.73zm116.83-283.68c-35.52 0-75.278 9.448-94.435 16.324-16.524 5.931-27.769 16.052-33.418 30.085-13.368 33.197 9.014 78.302 22.387 105.25 1.32 2.663 2.535 5.113 3.595 7.312 22.239 46.205-34.086 117.69-34.658 118.41-2.697 3.383-2.848 8.136-0.37 11.684l91.961 131.64c2.638 3.776 7.552 5.196 11.798 3.409 4.719-1.986 115.73-49.929 128.83-159.81 10.403-87.21-39.289-145.82-61.9-167.57 16.582-10.982 43.113-33.752 35-63.165-2.922-10.591-9.975-18.85-20.964-24.552-12.617-6.543-29.673-9.016-47.83-9.016" fill="#310080"/>
   </g>
   <g transform="translate(2312.4 2251.6)">
    <path d="m0 0c-31.033-17.615-79.013-18.017-118.06-14.311-36.414 3.46-65.103 10.516-65.103 10.516l-40.901 38.914-41.059 39.048-62.111 59.098-18.039 17.169s39.517-11.208 93.01-19.156c28.377-4.197 60.705-7.48 93.167-7.658 6.9-0.044 13.798 0.067 20.653 0.313 22.727 0.848 45.098 3.483 65.795 8.617 17.481 4.309 33.756 10.427 48.068 18.777 0 0 104.84 81.758 141.88 27.796 29.113-42.397-24.18-126.23-117.3-179.12" fill="#fff"/>
   </g>
   <g clip-path="url(#clipPath58)" opacity=".3">
    <g transform="translate(2312.4 2251.6)">
     <path d="m0 0c-59.968-34.047-183.16-3.795-183.16-3.795l-162.11 154.23s27.929-7.926 68.586-15.16l93.524-88.992s123.2-30.252 183.16 3.818c61.464 34.896 105.58 83.276 120.09 124.36 22.505-43.625-30.275-123.44-120.09-174.46" fill="#6b3dc3"/>
    </g>
   </g>
   <g transform="translate(2231.3 2225.6)">
    <path d="m0 0c-51.808-3e-3 -101.16 11.886-104.41 12.685-5.24 1.287-8.443 6.574-7.157 11.814 1.284 5.24 6.575 8.448 11.813 7.158 1.193-0.292 120.14-28.923 176.01 2.813 61.164 34.731 108.81 86.527 118.57 128.89 3.393 14.728 1.875 26.915-4.511 36.218-5.284 7.698-12.47 12.156-21.967 13.629-34.084 5.256-87.973-29.695-105.86-43.619-0.341-0.267-0.704-0.512-1.077-0.732-108.25-63.198-319.34-4.377-328.28-1.84-5.19 1.472-8.202 6.871-6.731 12.061 1.472 5.19 6.879 8.202 12.063 6.733 2.104-0.597 211.28-58.888 312.56-0.393 7.143 5.479 72.618 54.438 120.3 47.099 14.907-2.308 26.719-9.67 35.104-21.885 9.473-13.798 12.046-31.663 7.44-51.656-11.08-48.105-61.307-103.64-127.96-141.5-23.368-13.267-55.076-17.48-85.91-17.48" fill="#310080"/>
   </g>
   <g transform="translate(1837.4 2385.9)">
    <path d="m0 0s-112.87 0.267-157.21-34.577c-35.999-28.289-78.985-314.01 20.104-369.5 53.812-30.134 191.72-27.682 191.72-27.682z" fill="#fff"/>
   </g>
   <g clip-path="url(#clipPath82)" opacity=".3">
    <g transform="translate(1881.7 2035.8)">
     <path d="m0 0 10.308-81.568s-137.9-2.465-191.71 27.691c-55.832 31.261-66.569 135.59-58.884 225.78 3.926-63.993 20.884-122.18 60.188-144.18 44.325-24.857 145.77-27.55 180.09-27.723" fill="#6b3dc3"/>
    </g>
   </g>
   <g transform="translate(1828.8 2376)">
    <path d="m0 0c-26.642-0.771-108.23-5.337-142.58-32.334-16.973-13.339-43.708-123.19-35.823-224.38 3.655-46.893 16.104-107.33 54.664-128.92 42.344-23.714 142.62-26.287 175.87-26.468zm54.749-431.67c-31.614 0-139.91 2.038-188.04 28.989-46.098 25.817-60.57 92.801-64.595 144.45-7.396 94.924 14.823 218.94 43.229 241.26 46.474 36.524 158.41 36.736 163.27 36.666 4.912-0.011 9.051-3.669 9.667-8.542l54.619-431.76c0.349-2.75-0.489-5.521-2.306-7.617-1.816-2.097-4.437-3.325-7.21-3.375-0.761-0.011-3.803-0.061-8.634-0.061" fill="#310080"/>
   </g>
   <g transform="translate(1676.1 2130.2)">
    <path d="m0 0c2.973 3.347 82.766-2.174 87.139-5.709 4.373-3.536 18.441-100.17-2.117-111.14-20.361-10.86-50.325-5.343-64.807 8.495-21.34 20.392-23.188 105-20.215 108.35" fill="#fff"/>
   </g>
   <g transform="translate(1677.1 2129.2)">
    <path d="m0 0c-2.659-6.687-0.199-86.928 20.13-106.36 13.339-12.741 42.571-19.275 63.188-8.272 3.795 2.025 6.582 7.651 8.285 16.728 5.957 31.749-3.686 88.933-6.441 92.14-4.61 3.219-79.028 8.242-85.162 5.761m59.354-122.96c-16.06 0-32.089 5.933-41.15 14.592-20.522 19.61-24.776 105.24-20.293 110.29 2.191 2.467 25.238 1.464 44.181 0.192 6.88-0.465 41.38-2.918 44.877-5.744 4.056-3.277 11.531-54.992 8.592-85.92-1.441-15.169-5.119-24.432-10.928-27.531-7.671-4.093-16.482-5.875-25.279-5.875" fill="#390075"/>
   </g>
   <g clip-path="url(#clipPath114)" opacity=".3">
    <g transform="translate(1761.1 2013.3)">
     <path d="m0 0c-20.361-10.857-50.321-5.335-64.819 8.494-6.382 6.098-11.017 17.913-14.295 31.6 15.78-8.769 39.05-10.92 55.81-1.979 12.665 6.767 12.182 46.042 8.942 76.035 8.899-1.002 15.327-2.075 16.474-3.009 4.375-3.544 18.447-100.18-2.112-111.14" fill="#6b3dc3"/>
    </g>
   </g>
   <g transform="translate(1679 2122.5)">
    <path d="m0 0m80.458-5.446h1e-3zm-76.104 5.822c-0.898-18.663 3.273-80.238 18.689-94.969 11.587-11.074 37.604-16.486 55.083-7.161 2.268 1.211 7.794 12.036 6.164 47.14-1.059 22.812-4.47 42.68-6.352 49.802-12.79 2.548-58.091 5.703-73.584 5.188m53.014-123.64c-17.865 0-35.543 6.68-45.894 16.57-10.615 10.143-17.936 32.239-21.758 65.67-0.551 4.814-5.196 47.241 1.07 54.293 2.75 3.099 4.925 5.547 49.864 2.52 43.406-2.921 46.913-5.758 48.798-7.281 1.938-1.565 5.554-4.485 9.411-36.666 1.457-12.162 3.622-35.525 1.739-55.338-1.724-18.142-6.361-28.639-14.591-33.027-8.79-4.689-18.744-6.741-28.639-6.741" fill="#310080"/>
   </g>
   <g transform="translate(2212 2046)">
    <path d="m0 0c-23.175-127.77-127.46-140.23-127.46-140.23 44.765-112.41-40.968-277.85-40.968-277.85s43.714-15.048 46.46-43.559c2.479-25.987-63.071-57.423-149.47-35.632-132.6 33.422 25.162 228.66-113.24 385.46-31.256 35.41-48.47 77.852-56.373 122.39-2.233 12.636-3.729 25.429-4.577 38.267-2.679 40.232 0.938 80.999 7.502 118.86 6.318 36.281 15.36 69.859 24.201 97.722 5.671 17.838 11.253 33.333 16.008 45.679 1.831 4.756 3.527 9.043 5.068 12.816 4.956 12.212 8.171 19.066 8.171 19.066l77.852-2.054 18.933-0.513 61.084-1.608 74.971-1.987 91.27-2.411s0.67-1.831 1.897-5.247c0.916-2.568 2.144-6.05 3.64-10.315 3.348-9.689 7.97-23.465 13.149-40.075 7.614-24.358 16.433-54.811 24.247-87.541 7.479-31.256 14.043-64.545 17.794-96.56 1.943-16.678 3.125-32.998 3.259-48.493 0.179-16.522-0.87-32.128-3.415-46.193" fill="#fff"/>
   </g>
   <g clip-path="url(#clipPath138)" opacity=".3">
    <g transform="translate(2215.4 2092.2)">
     <path d="m0 0c-2.009-0.268-3.996-0.536-5.961-0.759-21.321-2.568-5.719 1.446-19.248 1.579l2.366-25.384c1.028-10.851-7.032-20.541-17.883-21.545l-240.92-23.837c-10.829-1.004-20.541 7.033-21.545 17.883l-1.589 17.078c-0.514-0.38-6.495 0.089-14.801-0.536-14.022-1.076-31.02-1.812-47.659-2.3-22.295-0.655-36.315-24.41-25.98-44.175 8.208-15.695 18.281-30.614 30.506-44.46 138.4-156.8-19.357-352.04 113.24-385.46 52.489-13.24 97.297-6.832 123.82 6.073 0.111-0.648 0.201-1.318 0.267-1.988 2.479-25.987-63.071-57.422-149.47-35.632-132.6 33.422 25.162 228.66-113.24 385.46-31.256 35.409-48.47 77.851-56.373 122.39-2.233 12.636-3.729 25.429-4.577 38.267 4.421 4.086 10.426 6.541 17.057 6.296 2.903-0.112 6.609-0.157 10.895-0.134 32.016 0.112 97.365 3.304 115.45 5.827 5.001 0.692 9.868-0.201 14.11-2.3l-4.13 44.184c-1.005 10.828 7.033 20.54 17.883 21.545l189.5 17.659c10.85 1.028 20.54-7.032 21.545-17.86l3.192-34.07c0.446 0 0.915 0.045 1.385 0.022 21.611-0.781 40.611 2.032 58.896 4.667 1.943-16.678 3.125-32.998 3.259-48.493" fill="#6b3dc3"/>
    </g>
   </g>
   <g clip-path="url(#clipPath154)" opacity=".3">
    <g clip-path="url(#clipPath158)" opacity=".3">
     <g transform="translate(1791.7 2126.4)">
      <path d="m0 0c0.558-8.484 1.406-16.968 2.567-25.385-4.286-0.022-7.992 0.023-10.895 0.134-6.63 0.246-12.636-2.21-17.057-6.296-9.533 143.62 60.95 294.15 60.95 294.15l12.123-0.313c-19.892-51.774-54.564-158.83-47.688-262.29" fill="#6b3dc3"/>
     </g>
    </g>
   </g>
   <g transform="translate(1833.6 2379.1)">
    <path d="m0 0c-8.324-19.15-34.715-83.534-48.912-160.53-15.394-83.495-19.22-199.48 49.97-277.86 73.803-83.609 66.576-177 60.77-252.04-5.907-76.34-6.474-116.81 47.543-130.42 64.821-16.344 113.36-0.788 130.18 13.656 4.79 4.113 7.47 8.443 7.171 11.583-1.737 18.143-29.413 31.602-39.93 35.258-2.678 0.93-4.825 2.979-5.874 5.611-1.05 2.633-0.911 5.595 0.392 8.11 0.837 1.617 83.154 162.84 40.584 269.74-1.124 2.818-0.872 5.998 0.678 8.607 1.551 2.609 4.225 4.346 7.238 4.705 3.943 0.496 97.474 13.532 119 132.27 18.311 100.99-45.027 286.91-57.884 323.09zm163.53-847.34c-18.155 0-38.008 2.263-58.932 7.537-72.506 18.278-67.75 79.724-62.246 150.88 5.523 71.372 12.396 160.2-55.937 237.61-58.95 66.784-77.781 168.71-54.458 294.75 17.42 94.145 51.492 167.57 52.935 170.65 1.645 3.517 5.161 5.8 9.104 5.622l324.12-8.578c3.982-0.106 7.502-2.621 8.893-6.354 3.369-9.035 82.228-222.65 61.03-339.58-12.584-69.398-48.631-105.98-76.654-124.44-18.735-12.342-36.344-18.426-47.428-21.313 32.105-99.684-23.522-229.46-40.642-265.6 14.736-7.003 40.471-22.686 42.856-47.608 0.66-6.889-1.216-17.38-13.888-28.264-16.45-14.128-48.389-25.317-88.751-25.317" fill="#310080"/>
   </g>
   <g transform="translate(1933.5 2398.8)">
    <path d="m0 0-9.377-12.302-37.731-49.43-36.839-48.269-51.796-67.85s-9.176-3.058-23.867-7.166c-37.016-10.337-109.11-27.215-157.62-17.928-126.81 24.268-166.11 111.92-144.05 158.4 23.241 48.939 107.08 13.329 135.21-0.357 8.997-4.376 18.419-7.769 28.198-9.868 35.99-7.747 76.713-6.14 116.25 0 21.411 3.304 42.465 7.948 62.224 13.15 5.871 1.518 11.631 3.126 17.235 4.733 29.761 8.573 55.615 17.928 73.855 25.095 17.281 6.765 27.752 11.542 28.31 11.788" fill="#fff"/>
   </g>
   <g clip-path="url(#clipPath190)" opacity=".35001">
    <g transform="translate(1797.7 2220.9)">
     <path d="m0 0s-113.75-38.066-181.49-25.095c-126.81 24.269-166.11 111.92-144.05 158.4 4.085 8.595 10.024 14.579 17.213 18.53 1.518-47.331 46.774-108.88 149.83-128.62 38.51-7.374 91.885 1.754 130.78 11.005 19.957 4.747 36.524-15.696 27.718-34.224" fill="#6b3dc3"/>
    </g>
   </g>
   <g transform="translate(1648.3 2183.4)">
    <path d="m0 0c-11.946 0-23.431 0.857-33.939 2.868-69.157 13.239-122.34 47.502-145.91 94.006-13.866 27.355-15.734 55.852-5.129 78.185 6.131 12.911 16.139 21.876 29.749 26.649 36.663 12.849 90.02-8.532 118.56-22.422 8.544-4.158 17.281-7.215 25.968-9.088 117.21-25.254 290.04 53.31 291.77 54.107 4.9 2.255 10.701 0.108 12.955-4.792 2.254-4.903 0.107-10.703-4.795-12.955-7.313-3.364-180.54-82.045-304.05-55.458-10.221 2.205-20.448 5.777-30.4 10.622-16.213 7.885-71.58 32.76-103.55 21.55-8.627-3.026-14.699-8.453-18.565-16.594-7.876-16.58-6.041-39.375 4.907-60.973 20.817-41.065 68.986-71.556 132.16-83.648 64.422-12.334 175.43 24.404 176.54 24.777 5.112 1.71 10.65-1.047 12.361-6.164 1.712-5.115-1.046-10.65-6.162-12.362-4.024-1.348-85.465-28.306-152.47-28.308" fill="#310080"/>
   </g>
   <g transform="translate(2345.5 2632.7)">
    <path d="m0 0c5.977-59.875-16.057-111.08-49.224-114.39l-50.831-5.073c9.086 0.907 17.364 5.413 24.42 12.726 9.581 9.877 16.982 24.883 21.357 42.989 4.176 17.294 5.568 37.433 3.447 58.676-2.12 21.243-7.465 40.71-14.979 56.837-7.869 16.905-18.089 30.152-29.433 37.94-8.363 5.775-17.368 8.555-26.454 7.648l50.831 5.074c33.167 3.311 64.889-42.55 70.866-102.42" fill="#fff"/>
   </g>
   <g transform="translate(2237.8 2730.1)">
    <path d="m0 0c4.458-1.328 8.875-3.497 13.222-6.499 11.522-7.91 21.865-21.221 29.906-38.501 7.812-16.767 13.035-36.574 15.101-57.284 2.068-20.712 0.865-41.162-3.48-59.143-4.473-18.516-11.98-33.604-21.712-43.633-3.664-3.797-7.563-6.796-11.669-8.979l36.941 3.689c15.514 1.548 29.062 14.03 38.149 35.146 9.204 21.389 12.693 48.99 9.827 77.715-5.891 59.016-36.965 104.38-69.34 101.18zm7.615-218.21c-0.709 0-1.315 0.537-1.386 1.256-0.077 0.768 0.483 1.45 1.249 1.528 8.578 0.855 16.503 4.998 23.554 12.307 9.386 9.672 16.65 24.318 21.005 42.349 4.272 17.677 5.452 37.808 3.416 58.208s-7.173 39.899-14.856 56.385c-7.829 16.825-17.843 29.75-28.958 37.382-8.359 5.771-16.939 8.288-25.527 7.408-0.746-0.036-1.45 0.485-1.525 1.251-0.077 0.768 0.482 1.45 1.248 1.528h2e-3l50.83 5.073c33.926 3.333 66.349-43.131 72.394-103.68 2.914-29.191-0.652-57.282-10.04-79.097-9.506-22.09-23.866-35.168-40.434-36.822l-50.816-5.073c-5e-3 0-0.011 0-0.015-3e-3 -0.047-2e-3 -0.095-5e-3 -0.141-5e-3" fill="#390075"/>
   </g>
   <g clip-path="url(#clipPath218)" opacity=".3">
    <g transform="translate(2346.7 2623.8)">
     <path d="m0 0c1.242-50.623-18.166-91.504-47.357-95.302l-50.658-6.591c9.056 1.178 17.195 5.929 24.03 13.45 9.281 10.159 16.23 25.38 20.062 43.608 2.308 10.967 3.461 23.052 3.332 35.763l1.284-0.646c16.123-8.106 35.369-4.327 47.966 8.594 0.524 0.537 0.977 0.924 1.341 1.124" fill="#6b3dc3"/>
    </g>
   </g>
   <g transform="translate(2263.6 2724.3)">
    <path d="m0 0c9.561-8.757 18.078-20.894 24.935-35.625 8.205-17.608 13.684-38.351 15.843-59.987 2.16-21.635 0.888-43.054-3.674-61.94-3.813-15.781-9.76-29.349-17.404-39.823l11.994 1.197c12.349 1.231 23.461 11.93 31.29 30.126 8.653 20.105 11.915 46.236 9.186 73.574-5.341 53.498-32.915 96.42-60.177 93.675zm-18.178-220.74c-4.959 0-9.205 3.759-9.709 8.796-0.536 5.368 3.382 10.154 8.75 10.691l0.024 3e-3c6.54 0.66 12.709 3.951 18.336 9.787 8.243 8.495 14.944 22.16 18.892 38.501 4.053 16.775 5.168 35.937 3.223 55.413-1.943 19.473-6.822 38.036-14.113 53.678-7.097 15.249-16.369 27.33-26.109 34.016-6.7 4.624-13.411 6.64-19.957 5.98-5.377-0.545-10.153 3.383-10.687 8.751-0.535 5.368 3.382 10.152 8.749 10.689h3e-3l50.828 5.073c39.094 3.864 74.942-44.93 81.557-111.17v-3e-3c3.052-30.577-0.742-60.137-10.68-83.236-10.764-25.011-27.56-39.87-47.294-41.842l-50.831-5.076c-0.33-0.033-0.658-0.047-0.982-0.047" fill="#310080"/>
   </g>
   <g clip-path="url(#clipPath238)" opacity=".35001">
    <g transform="translate(2196.4 2860.8)">
     <path d="m0 0c-104 108.04-254.32 87.451-254.32 87.451s-151.42-9.532-232.03-136c-63.451-99.576-59.172-208.88-43.116-285.72 15.877-76.127 63.762-141.4 131.29-176.56 50.834-26.456 120.52-47.671 207.34-39.026l0.128 0.012c86.812 8.687 150.98 43.285 195.62 79.271 59.249 47.819 93.327 121.3 93.843 199.06 0.527 78.514-16.88 186.47-98.761 271.52" fill="#fff"/>
    </g>
    <g transform="translate(1971.2 2948.3)">
     <path d="m0 0c-17.715 0-28.605-1.392-29.004-1.448-1.609-0.103-151.75-10.976-231.04-135.36-63.744-100.03-58.529-210.03-42.929-284.68 16.004-76.729 63.596-140.74 130.57-175.61 63.621-33.11 133.12-46.188 206.56-38.874 73.55 7.356 139.12 33.926 195.01 78.979 58.787 47.45 92.803 119.61 93.323 197.98 0.512 76.275-16.139 185.13-98.371 270.54-75.031 77.941-175.37 88.485-224.12 88.485m-5.002-640.74c-59.54 0-116.1 13.787-168.69 41.151-67.724 35.266-115.84 99.97-132.02 177.52-15.706 75.164-20.942 185.93 43.307 286.75 80.072 125.61 231.6 136.55 233.12 136.64 1.409 0.2 152.11 19.429 255.41-87.875 82.883-86.087 99.667-195.7 99.151-272.49-0.526-79.212-34.919-152.16-94.36-200.14-56.322-45.4-122.39-72.171-196.36-79.574-13.324-1.326-26.516-1.988-39.563-1.988" fill="#390075"/>
    </g>
   </g>
   <g transform="translate(1997.4 2848.6)">
    <path d="m0 0c-15.536 0-25.191-1.194-25.529-1.239-0.194-0.028-0.395-0.047-0.589-0.058-1.218-0.084-123.24-9.37-188.09-102.94-52.328-75.546-48.71-158.35-36.459-214.51v-5e-3c12.4-56.942 50.226-104.22 103.78-129.72 51.574-24.607 108.13-34.077 168.14-28.157 0.134 0.019 0.265 0.039 0.378 0.05 59.992 5.989 113.68 26.464 159.56 60.856 47.528 35.647 75.285 89.484 76.155 147.71 0.858 57.507-11.999 139.42-78.144 203.04-59.221 56.939-138.95 64.977-179.21 64.977m-13.081-496.21c-49.973-3e-3 -97.422 10.583-141.49 31.607-58.573 27.891-99.961 79.664-113.55 142.05v-6e-3c-13.004 59.623-16.756 147.66 39.231 228.49 68.861 99.363 192.68 109.95 201.29 110.57 8.569 1.098 132.03 15.189 219.18-68.605 70.768-68.078 84.535-155.14 83.622-216.18-0.951-63.791-31.313-122.74-83.298-161.73-48.462-36.327-105.06-57.963-168.24-64.315-0.138-0.019-0.273-0.038-0.386-0.049-12.257-1.217-24.39-1.827-36.37-1.827" fill="#390075"/>
   </g>
   <g transform="translate(1738 2527.9)">
    <path d="m0 0c12.815-58.852 52.433-109.11 108.66-135.89 42.352-20.206 100.47-36.18 173.13-28.954l0.117 0.021c72.659 7.255 126.5 34.465 164.03 62.601 49.848 37.385 78.828 94.495 79.726 154.72 0.909 60.793-12.953 144.27-80.882 209.62-86.311 82.984-212.1 66.152-212.1 66.152s-126.64-8.362-194.84-106.77c-53.678-77.492-50.797-162.12-37.846-221.5" fill="#826bce"/>
   </g>
   <g transform="translate(2223.3 2621.8)">
    <path d="m0 0c8.51 33.769-6.449 94.446-48.09 131.46-59.275 52.689-112.73 55.575-126.08 47.796-22.18-12.92-17.793-55.877 39.201-89.992 45.797-27.413 65.866-76.269 77.659-93.054 11.792-16.784 48.801-29.978 57.311 3.79" fill="#fff"/>
   </g>
   <g transform="translate(2223.3 2621.8)">
    <path d="m0 0h0.028zm-157.49 172.72c-5.863 0-9.916-0.832-11.764-1.907-6.197-3.611-7.533-10.054-7.56-14.826-0.088-14.593 12.176-37.585 46.861-58.345 38.326-22.942 59.647-60.023 72.386-82.178 3.228-5.616 6.016-10.466 8.248-13.64 5.287-7.526 18.475-14.593 28.235-12.794 2.14 0.395 8.649 1.601 11.612 13.353 7.05 27.977-4.704 85.859-45.107 121.77-44.398 39.465-83.531 48.563-102.91 48.563m133.15-203.51c-16.38 0-33.021 10.082-40.962 21.384-2.741 3.901-5.734 9.107-9.199 15.135-12.553 21.832-31.522 54.826-65.483 75.154-35.448 21.216-56.518 49.337-56.365 75.223 0.082 13.732 6.375 25.245 17.264 31.587 17.362 10.118 75.515 6.151 137.48-48.933 43.722-38.864 60.553-103.53 51.075-141.15-5.244-20.807-19.172-26.342-27.005-27.79-2.249-0.415-4.528-0.613-6.81-0.613" fill="#310080"/>
   </g>
   <g transform="translate(1990.1 2810.6)">
    <path d="m0 0c-14.66 15.461-45.694 19.618-74.016 12.886-45.69-10.859-53.13-41.269-51.162-50.113 2.914-13.091 22.308-26.204 55.965-15.626 26.606 8.363 46.61 12.24 57.296 11.394 21.904-1.736 24.438 28.255 11.917 41.459" fill="#fff"/>
   </g>
   <g transform="translate(1942.3 2816.8)">
    <path d="m0 0c-7.76 0-15.905-0.916-23.942-2.826-40.066-9.525-44.699-34.333-43.885-38.501 0.646-2.896 3.226-5.9 6.9-8.022 4.982-2.876 16.364-6.752 36.599-0.395 19.297 6.064 45.548 13.053 60.995 11.811 3.74-0.287 5.964 0.913 7.456 4.029 2.89 6.052 1.272 16.048-3.396 20.974-7.899 8.327-23.341 12.93-40.727 12.93m-44.441-72.67c-9.934 0-18.873 2.141-26.255 6.404-8.453 4.881-14.358 12.429-16.201 20.706-3.169 14.237 7.145 49.547 58.436 61.739 33.437 7.949 66.937 1.654 83.363-15.667h1e-3c10.351-10.917 13.295-29.332 6.848-42.836-4.955-10.372-14.896-16.029-26.626-15.083-4.485 0.337-18.683-2e-3 -53.595-10.975-9.11-2.863-17.871-4.288-25.971-4.288" fill="#310080"/>
   </g>
   <g transform="translate(1997.4 2848.6)">
    <path d="m0 0c-15.536 0-25.19-1.194-25.529-1.239-0.194-0.028-0.395-0.047-0.589-0.058-1.218-0.084-123.24-9.37-188.09-102.94-52.328-75.543-48.71-158.35-36.459-214.51v-5e-3c12.4-56.942 50.225-104.22 103.78-129.72 51.574-24.607 108.14-34.077 168.14-28.157 0.135 0.019 0.267 0.039 0.38 0.05 59.994 5.989 113.68 26.464 159.56 60.858 47.527 35.645 75.284 89.482 76.154 147.7 0.858 57.507-12.001 139.42-78.145 203.04-59.219 56.939-138.95 64.977-179.21 64.977m-13.079-496.21c-49.975-3e-3 -97.423 10.583-141.49 31.607-58.573 27.891-99.961 79.664-113.54 142.05v-6e-3c-13.006 59.626-16.756 147.66 39.23 228.49 68.86 99.363 192.68 109.95 201.29 110.57 8.569 1.098 132.03 15.189 219.18-68.605 70.771-68.078 84.538-155.14 83.624-216.18-0.952-63.791-31.313-122.74-83.297-161.72-48.462-36.327-105.06-57.966-168.24-64.318-0.138-0.019-0.274-0.038-0.388-0.049-12.257-1.217-24.39-1.827-36.369-1.827" fill="#390075"/>
   </g>
   <g transform="translate(1775.9 2749.4)">
    <path d="m0 0c68.197 98.405 194.84 106.77 194.84 106.77s125.79 16.832 212.1-66.152c67.93-65.348 81.791-148.82 80.883-209.62-0.899-60.222-29.879-117.33-79.727-154.72-37.536-28.137-91.374-55.346-164.03-62.602l-0.116-0.02c-72.657-7.227-130.78 8.747-173.13 28.954-56.232 26.773-95.848 77.033-108.66 135.88-12.951 59.376-15.832 144.01 37.846 221.5m-108.99-222.94c15.886-76.116 63.765-141.4 131.29-176.56 50.846-26.458 120.54-47.667 207.34-39.042l0.145 0.019c86.806 8.681 150.97 43.304 195.6 79.276 59.267 47.807 93.327 121.3 93.863 199.06 0.53 78.502-16.906 186.46-98.782 271.51-104.01 108.04-254.29 87.463-254.29 87.463s-151.41-9.54-232.05-136.01c-63.442-99.563-59.176-208.87-43.112-285.71" fill="#fff"/>
   </g>
   <g transform="translate(1777 2748.7)">
    <path d="m0 0c-53.872-77.773-50.198-162.79-37.629-220.41 12.899-59.239 52.227-108.42 107.9-134.93 52.906-25.24 110.9-34.952 172.39-28.823 61.497 6.147 116.45 27.118 163.45 62.351 49.407 37.053 78.264 93.045 79.169 153.62 0.883 59.002-12.361 143.08-80.456 208.59-84.842 81.574-209.7 65.94-210.95 65.773-1.353-0.092-126.86-9.478-193.88-106.18m207.32-388.71c-48.884 0-95.229 10.337-138.25 30.86-56.457 26.88-96.342 76.761-109.42 136.85-12.687 58.164-16.383 144 38.061 222.59 67.796 97.829 194.62 107.28 195.89 107.36 1.169 0.161 127.36 15.959 213.16-66.539 68.818-66.199 82.202-151.09 81.311-210.64-0.918-61.443-30.18-118.23-80.285-155.81-47.412-35.542-102.84-56.696-164.73-62.875-12.053-1.2-23.971-1.798-35.741-1.798m-13.072 588.36c-17.73 0-28.629-1.395-29.029-1.451-1.609-0.103-151.75-10.981-231.06-135.38-63.748-100.04-58.527-210.03-42.923-284.68v-3e-3c16.016-76.727 63.607-140.74 130.57-175.61 63.619-33.102 133.11-46.183 206.56-38.888 73.535 7.358 139.1 33.929 195.01 78.99 58.781 47.416 92.803 119.58 93.343 197.98 0.514 76.256-16.139 185.09-98.393 270.53-75.037 77.947-175.32 88.499-224.07 88.499m-5-640.75c-59.563 0-116.13 13.791-168.73 41.158-67.71 35.263-115.83 99.964-132.01 177.52-15.71 75.156-20.952 185.91 43.301 286.74 80.09 125.62 231.62 136.56 233.14 136.66 1.411 0.201 152.08 19.421 255.39-87.886 82.905-86.12 99.69-195.71 99.172-272.48-0.546-79.246-34.947-152.19-94.382-200.14-56.34-45.409-122.4-72.182-196.34-79.577-13.311-1.323-26.499-1.983-39.535-1.986" fill="#390075"/>
   </g>
   <g clip-path="url(#clipPath294)" opacity=".3">
    <g transform="translate(1666.9 2526.5)">
     <path d="m0 0c15.871-76.113 63.772-141.38 131.3-176.56 50.83-26.446 120.52-47.654 207.33-39.036l0.138 0.018c86.809 8.673 150.97 43.296 195.6 79.268 59.271 47.824 93.33 121.31 93.858 199.08 0.068 11.298-0.204 23.194-1.021 35.539-6.978-28.118-18.48-54.773-34.04-78.768-9.222-47.121-35.867-90.137-76.076-120.31-37.549-28.141-91.374-55.35-164.04-62.591l-0.111-0.02c-72.643-7.242-130.79 8.734-173.13 28.955-41.599 19.815-74.129 52.468-93.406 91.951-40.1 36.378-68.172 85.61-79.626 140.48-4.612 21.994-8.243 46.685-9.571 73.023-12.63-62.786-7.197-123.21 2.801-171.03" fill="#6b3dc3"/>
    </g>
   </g>
   <g transform="translate(1971.3 2939.9)">
    <path d="m0 0c-17.04 0-27.509-1.32-27.895-1.373-0.23-0.03-0.47-0.056-0.702-0.069-1.458-0.095-147.52-10.89-224.43-131.52-62.231-97.665-57.073-205.34-41.786-278.46v-3e-3c15.5-74.26 61.515-136.18 126.24-169.89 62.109-32.318 129.98-45.101 201.72-38 0.105 0.013 0.216 0.024 0.28 0.033 71.746 7.175 135.82 33.135 190.44 77.158 56.815 45.832 89.701 115.64 90.225 191.52 0.503 74.697-15.752 181.25-96.053 264.67-72.92 75.747-170.76 85.932-218.04 85.932m-5.034-640.76c-60.848-3e-3 -118.72 14.105-172.56 42.115-69.947 36.427-119.64 103.21-136.34 183.23v-2e-3c-16.029 76.679-21.332 189.75 44.436 292.96 81.197 127.36 229.04 139.78 239.32 140.49 10.219 1.339 157.57 18.37 262.3-90.414 84.857-88.148 102.04-200.02 101.51-278.35-0.564-81.769-36.1-157.07-97.497-206.6-57.594-46.422-125.1-73.8-200.62-81.379-0.107-0.014-0.221-0.028-0.286-0.033-13.55-1.348-26.98-2.019-40.258-2.019" fill="#310080"/>
   </g>
   <g transform="translate(1997.4 2848.6)">
    <path d="m0 0c-15.536 0-25.19-1.194-25.529-1.239-0.194-0.028-0.395-0.047-0.589-0.058-1.218-0.084-123.24-9.37-188.09-102.94-52.328-75.543-48.71-158.35-36.459-214.51v-5e-3c12.4-56.942 50.225-104.22 103.78-129.72 51.574-24.607 108.14-34.077 168.14-28.157 0.135 0.019 0.267 0.039 0.38 0.05 59.994 5.989 113.68 26.464 159.56 60.858 47.527 35.645 75.284 89.482 76.154 147.7 0.858 57.507-12.001 139.42-78.145 203.04-59.219 56.939-138.95 64.977-179.21 64.977m-13.079-496.21c-49.975-3e-3 -97.423 10.583-141.49 31.607-58.573 27.891-99.961 79.664-113.54 142.05v-6e-3c-13.006 59.626-16.756 147.66 39.23 228.49 68.86 99.363 192.68 109.95 201.29 110.57 8.569 1.098 132.03 15.189 219.18-68.605 70.771-68.078 84.538-155.14 83.624-216.18-0.952-63.791-31.313-122.74-83.297-161.72-48.462-36.327-105.06-57.966-168.24-64.318-0.138-0.019-0.274-0.038-0.388-0.049-12.257-1.217-24.39-1.827-36.369-1.827" fill="#390075"/>
   </g>
   <g transform="translate(2151.7 2110.9)">
    <path d="m0 0c16.992-0.374 43.551 0.271 74.837 5.329 14.067 2.274 23.181 16.1 19.654 29.906-3.056 11.967-14.626 19.69-26.857 17.978-20.487-2.865-41.611-6.585-66.057-5.696-14.94 0.543-26.743-12.516-24.512-27.298 1.724-11.416 11.392-19.966 22.935-20.219" fill="#fff"/>
   </g>
   <g transform="translate(2152.4 2157)">
    <path d="m0 0c-6.444 0-12.541-2.715-16.834-7.526-4.435-4.97-6.407-11.597-5.413-18.184 1.631-10.79 10.709-18.794 21.587-19.034 16.752-0.356 43.307 0.257 74.584 5.313 6.336 1.022 11.985 4.683 15.5 10.045 3.553 5.419 4.626 11.862 3.023 18.137-2.879 11.274-13.758 18.558-25.311 16.943-2.669-0.373-5.348-0.763-8.042-1.153-18.128-2.62-36.883-5.329-58.259-4.558-0.28 0.011-0.559 0.017-0.835 0.017m7.394-47.623c-2.911 0-5.621 0.034-8.116 0.09-12.238 0.267-22.451 9.271-24.284 21.405-1.119 7.412 1.1 14.871 6.089 20.459 5.033 5.641 12.273 8.74 19.853 8.442 21.131-0.774 39.752 1.927 57.757 4.53 2.701 0.393 5.384 0.78 8.056 1.153 12.963 1.823 25.171-6.36 28.402-19.014 1.774-6.944 0.537-14.364-3.394-20.359-3.943-6.014-10.28-10.121-17.388-11.271-26.828-4.337-50.205-5.435-66.975-5.435" fill="#390075"/>
   </g>
   <g clip-path="url(#clipPath326)" opacity=".3">
    <g transform="translate(2245.3 2148.6)">
     <path d="m0 0c0.313-0.834 0.581-1.686 0.803-2.554 3.533-13.799-5.58-27.629-19.661-29.894-31.277-5.067-57.832-5.713-74.83-5.337-9.836 0.231-18.32 6.473-21.666 15.369-0.582 1.544-1.014 3.163-1.261 4.85-0.722 4.824 0.036 9.464 1.934 13.511 3.846-7.739 11.712-12.996 20.723-13.186 16.996-0.376 43.553 0.27 74.834 5.322 8.393 1.358 15.01 6.827 18.253 13.954 0.317-0.657 0.609-1.34 0.871-2.035" fill="#35abdf"/>
    </g>
   </g>
   <g transform="translate(2152.4 2149.8)">
    <path d="m0 0c-4.405 0-8.567-1.852-11.497-5.134-3.011-3.375-4.351-7.874-3.675-12.348 1.109-7.34 7.276-12.783 14.666-12.947 16.464-0.363 42.543 0.25 73.284 5.223 4.421 0.713 8.205 3.166 10.657 6.902 2.437 3.72 3.174 8.139 2.074 12.443-1.977 7.735-9.443 12.736-17.384 11.625-2.658-0.373-5.326-0.758-8.01-1.147-18.44-2.671-37.503-5.427-59.544-4.628-0.19 9e-3 -0.381 0.011-0.571 0.011m7.382-47.62c-2.964 0-5.722 0.034-8.264 0.09-15.726 0.345-28.85 11.908-31.205 27.491-1.437 9.528 1.415 19.112 7.827 26.295 6.458 7.237 15.781 11.19 25.452 10.828 20.493-0.737 38.783 1.905 56.473 4.464 2.712 0.392 5.405 0.782 8.09 1.155 16.569 2.339 32.194-8.138 36.329-24.331 2.27-8.885 0.687-18.382-4.344-26.053-5.042-7.693-13.145-12.947-22.232-14.414-27.278-4.411-51.061-5.525-68.126-5.525" fill="#310080"/>
   </g>
   <g transform="translate(1781.8 2076)">
    <path d="m0 0c16.993-0.374 103.83 0.271 135.12 5.329 14.067 2.274 23.18 16.1 19.654 29.906-3.056 11.966-14.626 19.69-26.857 17.978-20.487-2.866-101.89-6.585-126.34-5.697-14.94 0.543-26.743-12.515-24.511-27.297 1.724-11.416 11.392-19.966 22.934-20.219" fill="#fff"/>
   </g>
   <g clip-path="url(#clipPath350)" opacity=".3">
    <g clip-path="url(#clipPath354)" opacity=".3">
     <g transform="translate(1935.8 2113.8)">
      <path d="m0 0c0.313-0.834 0.581-1.686 0.802-2.555 3.534-13.798-5.579-27.629-19.661-29.894-31.276-5.066-118.11-5.712-135.11-5.336-9.837 0.231-18.32 6.473-21.667 15.368-0.581 1.545-1.013 3.163-1.26 4.851-0.722 4.824 0.036 9.464 1.934 13.51 3.846-7.738 11.712-12.995 20.723-13.185 16.996-0.376 103.83 0.27 135.12 5.321 8.393 1.359 15.01 6.828 18.252 13.955 0.318-0.657 0.61-1.34 0.872-2.035" fill="#6b3dc3"/>
     </g>
    </g>
   </g>
   <g transform="translate(1782.5 2115)">
    <path d="m0 0c-4.405 0-8.568-1.852-11.498-5.134-3.011-3.375-4.349-7.877-3.673-12.351 1.108-7.34 7.275-12.78 14.665-12.945 17.648-0.389 103.44 0.351 133.56 5.223 4.421 0.713 8.205 3.166 10.656 6.903 2.438 3.72 3.174 8.138 2.075 12.443-1.976 7.735-9.438 12.73-17.387 11.624-20.982-2.937-103.42-6.665-127.83-5.774-0.19 8e-3 -0.383 0.011-0.572 0.011m11.527-47.628c-5.369 0-9.639 0.036-12.409 0.097-15.729 0.345-28.851 11.906-31.204 27.489-1.439 9.528 1.413 19.112 7.825 26.298 6.457 7.234 15.77 11.182 25.454 10.828 23.873-0.863 104.39 2.759 124.84 5.619 16.581 2.333 32.196-8.141 36.33-24.332 2.27-8.885 0.687-18.382-4.343-26.053-5.042-7.693-13.146-12.946-22.232-14.414-26.977-4.36-93.562-5.532-124.26-5.532" fill="#310080"/>
   </g>
   <g transform="translate(1951.3 2046.2)">
    <path d="m0 0 189.5 17.669c10.845 1.011 18.89 10.711 17.879 21.555l-9.975 107c-1.012 10.844-10.711 18.89-21.556 17.879l-189.5-17.669c-10.844-1.011-18.889-10.711-17.878-21.555l9.976-107c1.011-10.844 10.711-18.89 21.555-17.879" fill="#fff"/>
   </g>
   <g transform="translate(2129 2209)">
    <path d="m0 0c-0.572 0-1.148-0.028-1.727-0.081l-189.5-17.666c-10.106-0.944-17.561-9.935-16.62-20.039l9.976-107c0.944-10.107 9.954-17.535 20.038-16.619l189.5 17.669c10.106 0.941 17.562 9.931 16.62 20.038l-9.976 107c-0.455 4.875-2.795 9.294-6.592 12.443-3.347 2.776-7.453 4.257-11.719 4.257m-177.71-162.79h0.028zm-1.853-1.481c-10.809 0-20.069 8.258-21.092 19.229l-9.976 107c-1.085 11.638 7.5 21.987 19.139 23.076l189.5 17.666c5.609 0.521 11.115-1.18 15.486-4.808 4.37-3.623 7.065-8.713 7.589-14.328l9.975-107c1.085-11.641-7.501-21.99-19.138-23.076l-189.5-17.669c-0.665-0.061-1.326-0.092-1.982-0.092" fill="#390075"/>
   </g>
   <g transform="translate(2129 2201.8)">
    <path d="m0 0c-0.348 0-0.697-0.017-1.047-0.05l-189.51-17.666c-6.174-0.576-10.732-6.07-10.157-12.245l9.976-107c0.578-6.176 6.076-10.742 12.247-10.155l189.5 17.669c6.175 0.574 10.732 6.067 10.157 12.245l-9.976 107c-0.277 2.971-1.71 5.668-4.034 7.595-2.051 1.701-4.561 2.609-7.163 2.609m-177.69-155.63h0.027zm-1.859-8.639c-14.459 0-26.844 11.044-28.213 25.723l-9.976 107c-1.451 15.564 10.033 29.41 25.598 30.866l189.51 17.666c7.508 0.702 14.877-1.578 20.72-6.426 5.843-4.845 9.445-11.655 10.146-19.175l9.976-107c1.451-15.57-10.033-29.416-25.601-30.867l-189.5-17.669c-0.89-0.084-1.775-0.122-2.652-0.122" fill="#310080"/>
   </g>
   <g clip-path="url(#clipPath394)" opacity=".3">
    <g clip-path="url(#clipPath398)" opacity=".3">
     <g transform="translate(2156.5 2108.5)">
      <path d="m0 0 2.159-23.097c1.01-10.845-7.036-20.556-17.881-21.566l-189.5-17.659c-10.845-1.01-20.536 7.023-21.546 17.868l-9.98 107c-0.796 8.54 4.028 16.368 11.395 19.806l7.82-83.904c1.026-10.842 10.718-18.875 21.562-17.866l189.5 17.66c2.306 0.214 4.486 0.821 6.471 1.756" fill="#6b3dc3"/>
     </g>
    </g>
   </g>
   <g transform="translate(1989.1 2048.5)">
    <path d="m0 0 189.5 17.668c10.844 1.012 18.89 10.711 17.878 21.556l-9.975 107c-1.012 10.844-10.711 18.89-21.556 17.879l-189.5-17.669c-10.844-1.011-18.889-10.711-17.878-21.555l9.976-107c1.011-10.845 10.711-18.89 21.555-17.879" fill="#fff"/>
   </g>
   <g transform="translate(2166.9 2211.3)">
    <path d="m0 0c-0.572 0-1.146-0.028-1.723-0.081l-189.5-17.669c-4.874-0.454-9.293-2.795-12.44-6.59-3.149-3.798-4.633-8.573-4.178-13.446l9.976-107c0.943-10.107 9.905-17.563 20.036-16.619l189.5 17.669c10.106 0.941 17.56 9.931 16.618 20.038l-9.976 107c-0.454 4.875-2.795 9.294-6.591 12.443-3.349 2.776-7.456 4.26-11.722 4.26m-177.7-162.79h0.028zm-1.853-1.482c-10.81 0-20.067 8.258-21.09 19.229l-9.977 107c-0.523 5.618 1.184 11.117 4.809 15.485 3.624 4.372 8.713 7.067 14.329 7.591l189.51 17.669c5.627 0.518 11.115-1.183 15.484-4.811 4.37-3.626 7.065-8.713 7.589-14.328l9.976-107c1.084-11.641-7.501-21.99-19.137-23.076l-189.51-17.669c-0.666-0.061-1.327-0.092-1.983-0.092" fill="#390075"/>
   </g>
   <g transform="translate(2166.8 2204.1)">
    <path d="m0 0c-0.349 0-0.696-0.017-1.046-0.05l-189.5-17.669c-2.97-0.276-5.668-1.71-7.595-4.034-1.929-2.326-2.838-5.241-2.561-8.211l9.977-107c0.576-6.176 6.054-10.756 12.245-10.155l189.5 17.669c6.175 0.574 10.731 6.067 10.156 12.245l-9.977 107c-0.276 2.971-1.711 5.669-4.035 7.595-2.051 1.701-4.562 2.612-7.164 2.612m-177.69-155.64h0.028zm-1.858-8.639c-14.459 0-26.845 11.047-28.212 25.723l-9.976 107c-0.703 7.517 1.58 14.876 6.425 20.72 4.844 5.842 11.654 9.444 19.175 10.146l189.5 17.669c7.515 0.704 14.877-1.581 20.72-6.429 5.841-4.845 9.444-11.655 10.145-19.175l9.975-107c1.452-15.57-10.033-29.416-25.6-30.867l-189.5-17.669c-0.89-0.084-1.775-0.122-2.652-0.122" fill="#310080"/>
   </g>
   <g transform="translate(1783.9 2743.9)">
    <path d="m0 0c-52.158-75.295-48.547-157.86-36.332-213.85 12.344-56.693 50.003-103.76 103.32-129.15 51.433-24.537 107.85-33.996 167.68-28.079 0.142 0.02 0.279 0.039 0.397 0.05 59.842 5.972 113.38 26.395 159.15 60.698 47.317 35.485 74.953 89.083 75.817 147.04 0.859 57.342-11.958 139.01-77.886 202.43-81.767 78.614-202.83 63.665-204.05 63.507-0.21-0.028-0.43-0.051-0.643-0.064-1.213-0.082-122.84-9.356-187.45-102.58zm200.43-392.33c-50.097 0-97.669 10.611-141.85 31.69-58.809 27.999-100.36 79.988-114 142.62-13.04 59.782-16.796 148.07 39.36 229.14h1e-3c69.011 99.58 193.02 110.29 201.9 110.93 8.816 1.122 132.5 15.146 219.85-68.833 70.986-68.288 84.795-155.59 83.88-216.8-0.958-64.055-31.44-123.24-83.632-162.38-48.58-36.415-105.32-58.108-168.63-64.475-0.146-0.022-0.288-0.042-0.41-0.053-12.286-1.223-24.445-1.832-36.453-1.832" fill="#310080"/>
   </g>
   <g transform="translate(1695.3 2567.9)">
    <path d="m0 0c2.121-21.243 0.729-41.382-3.448-58.677-4.375-18.105-11.775-33.111-21.356-42.988-7.056-7.314-15.334-11.819-24.42-12.727-33.146-3.308-64.867 42.532-70.843 102.41-5.977 59.875 16.054 111.1 49.201 114.41 9.086 0.907 18.091-1.873 26.453-7.649 11.345-7.787 21.565-21.034 29.434-37.939 7.514-16.128 12.858-35.594 14.979-56.837" fill="#fff"/>
   </g>
   <g transform="translate(1627.9 2669.1)">
    <path d="m0 0c-1.099 0-2.196-0.053-3.294-0.164-15.504-1.545-29.046-14.03-38.129-35.155-9.202-21.397-12.69-49-9.823-77.726 2.868-28.726 11.743-55.093 24.992-74.243 13.08-18.902 28.831-28.463 44.324-26.913 8.578 0.855 16.504 4.998 23.555 12.307 9.384 9.672 16.646 24.315 21.004 42.346 4.272 17.683 5.452 37.811 3.415 58.208-2.036 20.403-7.173 39.902-14.855 56.388-7.831 16.825-17.845 29.75-28.958 37.379-7.292 5.033-14.755 7.573-22.231 7.573m14.795-217.16c-15.373 0-30.641 9.915-43.344 28.28-13.514 19.532-22.561 46.364-25.473 75.552-2.914 29.19 0.65 57.283 10.036 79.107 9.503 22.099 23.856 35.176 40.414 36.83 9.26 0.925 18.467-1.731 27.386-7.89 11.521-7.908 21.863-21.222 29.906-38.496 7.813-16.77 13.034-36.58 15.1-57.289 2.069-20.707 0.867-41.158-3.479-59.144-4.474-18.513-11.982-33.601-21.712-43.63-7.518-7.796-16.026-12.22-25.281-13.144-1.184-0.117-2.368-0.176-3.553-0.176" fill="#390075"/>
   </g>
   <g clip-path="url(#clipPath446)" opacity=".3">
    <g transform="translate(1695.3 2567.9)">
     <path d="m0 0c2.121-21.243 0.729-41.382-3.448-58.676-4.375-18.106-11.775-33.112-21.356-42.989-7.056-7.313-15.334-11.819-24.42-12.726-33.146-3.308-64.867 42.531-70.843 102.41-0.643 6.439-0.953 12.761-0.971 18.941 8.429-35.373 35.782-60.172 65.412-57.215 9.086 0.907 17.472 4.333 24.722 9.698 9.843 7.25 17.663 18.063 22.558 30.957 3.269 8.605 5.223 18.169 5.588 28.238 1.199-6.019 2.122-12.259 2.758-18.634" fill="#6b3dc3"/>
    </g>
   </g>
   <g transform="translate(1746.2 2572.9)">
    <path d="m0 0c5.977-59.875-16.057-111.08-49.224-114.39l-50.831-5.074c9.086 0.907 17.364 5.413 24.42 12.726 9.581 9.877 16.981 24.883 21.356 42.989 4.177 17.294 5.569 37.433 3.448 58.676s-7.465 40.71-14.979 56.838c-7.869 16.904-18.089 30.152-29.434 37.939-8.362 5.775-17.367 8.555-26.453 7.648l50.831 5.074c33.167 3.311 64.889-42.55 70.866-102.42" fill="#fff"/>
   </g>
   <g transform="translate(1638.5 2670.3)">
    <path d="m0 0c4.458-1.328 8.872-3.497 13.22-6.499 11.521-7.907 21.863-21.221 29.905-38.495 7.813-16.77 13.035-36.58 15.101-57.289 2.069-20.707 0.866-41.158-3.479-59.144-4.474-18.513-11.982-33.601-21.712-43.63-3.664-3.8-7.564-6.799-11.67-8.979l36.942 3.686c32.342 3.227 53.863 53.859 47.975 112.86-5.892 59.018-37.006 104.39-69.339 101.18zm7.613-218.21c-0.708 0-1.315 0.537-1.386 1.255-0.077 0.769 0.483 1.451 1.249 1.529 8.578 0.855 16.503 4.998 23.555 12.307 9.384 9.672 16.646 24.315 21.004 42.346 4.272 17.683 5.452 37.811 3.415 58.208-2.036 20.403-7.174 39.902-14.855 56.388-7.831 16.825-17.845 29.75-28.958 37.379-8.352 5.766-16.926 8.25-25.486 7.414l-0.039-5e-3c-0.78-0.051-1.451 0.484-1.528 1.25-0.076 0.768 0.484 1.45 1.249 1.528h0.019l50.813 5.076c33.873 3.308 66.349-43.126 72.393-103.68 6.043-60.539-16.6-112.54-50.473-115.92l-50.831-5.074c-0.047-3e-3 -0.095-5e-3 -0.141-5e-3" fill="#390075"/>
   </g>
   <g clip-path="url(#clipPath470)" opacity=".3">
    <g transform="translate(1746.5 2568.9)">
     <path d="m0 0c4.628-58.149-17.153-107.17-49.579-110.4l-50.831-5.074c9.086 0.907 17.364 5.413 24.42 12.726 9.581 9.877 16.981 24.883 21.356 42.988 2.408 9.952 2.602 51.128 3.015 62.635l6.709-7.515c12.495-13.997 35.102-11.956 44.647 4.198 0.088 0.149 0.176 0.298 0.263 0.447" fill="#6b3dc3"/>
    </g>
   </g>
   <g transform="translate(1627.9 2660.7)">
    <path d="m0 0c-0.81 0-1.616-0.042-2.422-0.123-12.337-1.23-23.443-11.93-31.269-30.131-8.651-20.116-11.913-46.249-9.183-73.588 2.729-27.337 11.09-52.306 23.545-70.309 11.268-16.286 24.257-24.58 36.608-23.347 6.549 0.655 12.726 3.949 18.36 9.79 8.241 8.495 14.943 22.16 18.893 38.499 4.052 16.777 5.166 35.939 3.221 55.409v3e-3c-1.943 19.473-6.823 38.039-14.112 53.681-7.097 15.25-16.369 27.328-26.108 34.013-5.878 4.06-11.76 6.103-17.533 6.103m14.792-217.16c-18.185 0-35.855 11.176-50.186 31.891-14.307 20.679-23.867 48.909-26.919 79.486-3.052 30.574 0.738 60.137 10.676 83.244 10.76 25.02 27.549 39.885 47.274 41.853 11.13 1.109 22.526-2.113 32.974-9.33 12.737-8.745 24.066-23.223 32.739-41.856 8.204-17.608 13.684-38.353 15.843-59.99v3e-3c2.161-21.634 0.891-43.051-3.672-61.942-4.827-19.969-13.071-36.391-23.841-47.494-8.794-9.116-19.334-14.535-30.46-15.645-1.478-0.148-2.955-0.22-4.428-0.22" fill="#310080"/>
   </g>
   <g transform="translate(1664.3 2664.4)">
    <path d="m0 0c9.562-8.757 18.079-20.894 24.936-35.625 8.204-17.608 13.684-38.354 15.843-59.99 2.16-21.632 0.891-43.048-3.673-61.94-3.814-15.781-9.763-29.349-17.407-39.823l11.997 1.197c27.28 2.723 45.815 50.212 40.474 103.7-5.338 53.498-32.901 96.384-60.175 93.675zm-18.176-220.74c-4.958 0-9.204 3.759-9.708 8.795-0.536 5.368 3.381 10.154 8.749 10.692h0.02c6.54 0.66 12.711 3.954 18.34 9.79 8.241 8.492 14.943 22.16 18.893 38.498 4.052 16.778 5.166 35.94 3.221 55.41-1.943 19.476-6.823 38.042-14.112 53.684-7.097 15.249-16.369 27.328-26.108 34.013-6.692 4.622-13.389 6.626-19.929 5.983l-0.026-3e-3c-5.38-0.529-10.155 3.383-10.691 8.749-0.536 5.368 3.382 10.154 8.75 10.691l50.831 5.076c39.122 3.906 74.944-44.933 81.556-111.18 6.612-66.232-18.854-121.17-57.973-125.08l-50.831-5.073c-0.33-0.033-0.657-0.047-0.982-0.047" fill="#310080"/>
   </g>
   <g transform="translate(2142.9 2062.9)">
    <path d="m0 0c-3.621 0-6.72 2.745-7.085 6.426l-5.797 58.506c-0.196 1.997-2.476 3.478-5.241 3.336-10.329-0.532-19.21 6.665-20.104 16.271l-4.928 52.854c-0.365 3.92 2.515 7.395 6.436 7.76 3.914 0.345 7.394-2.514 7.758-6.434l4.929-52.857c0.187-2.008 2.465-3.5 5.245-3.355 10.359 0.495 19.146-6.619 20.092-16.172l5.797-58.506c0.387-3.917-2.473-7.406-6.391-7.796-0.239-0.022-0.476-0.033-0.711-0.033" fill="#310080"/>
   </g>
   <g transform="translate(2052 2124.9)">
    <path d="m0 0c0.3-3.138-1.688-28.89-1.688-28.89s-8.025-0.768-17.877-1.711c-12.311-1.177-23.509 10.614-25.013 26.336-1.505 15.723 7.255 29.423 19.565 30.601 8.308 0.794 17.877 1.71 17.877 1.71s6.647-22.934 7.136-28.046" fill="#fff"/>
   </g>
   <g transform="translate(2040.7 2146.9)">
    <path d="m0 0-13.151-1.259c-4.173-0.398-7.974-2.97-10.705-7.241-3.011-4.711-4.336-10.798-3.73-17.138 0.607-6.342 3.062-12.067 6.912-16.121 3.49-3.678 7.709-5.479 11.882-5.081l13.095 1.25c0.788 10.703 1.445 21.333 1.335 23.154-0.285 2.851-3.221 13.863-5.638 22.436m-9.983-58.303c-6.929 0-13.587 3.035-18.959 8.69-5.599 5.894-9.147 14.021-9.996 22.889-0.848 8.866 1.095 17.519 5.475 24.369 4.659 7.289 11.486 11.71 19.224 12.451l17.878 1.709c2.712 0.265 5.254-1.456 6.018-4.09 1.135-3.915 6.821-23.719 7.335-29.09v-3e-3c0.314-3.271-1.07-21.979-1.679-29.87-0.212-2.762-2.383-4.972-5.142-5.237l-17.878-1.709c-0.76-0.073-1.521-0.109-2.276-0.109" fill="#310080"/>
   </g>
   <g transform="translate(2069.9 2126.6)">
    <path d="m0 0c1.505-15.723-7.255-29.423-19.565-30.601-12.31-1.177-23.508 10.614-25.013 26.336-1.504 15.723 7.256 29.423 19.565 30.601 12.311 1.178 23.509-10.613 25.013-26.336" fill="#fff"/>
   </g>
   <g transform="translate(2046.5 2147.4)">
    <path d="m0 0c-0.381 0-0.762-0.02-1.142-0.056-9.159-0.874-15.633-11.814-14.432-24.379 1.203-12.565 9.628-22.107 18.794-21.203 4.171 0.399 7.971 2.971 10.701 7.242 3.013 4.711 4.338 10.798 3.731 17.141-0.607 6.342-3.061 12.067-6.912 16.121-3.173 3.338-6.947 5.134-10.74 5.134m2.091-57.098c-14.525 0-27.302 13.655-29.017 31.577-1.802 18.827 9.279 35.344 24.698 36.819 7.731 0.746 15.279-2.305 21.236-8.578 5.597-5.894 9.148-14.022 9.996-22.889 0.849-8.866-1.095-17.522-5.473-24.372-4.661-7.289-11.488-11.71-19.225-12.451-0.743-0.07-1.482-0.106-2.215-0.106" fill="#310080"/>
   </g>
  </g>
 </g>
</svg>
