<?xml version="1.0" encoding="UTF-8" standalone="no"?>
<!-- Created with Inkscape (http://www.inkscape.org/) -->

<svg
   xmlns:dc="http://purl.org/dc/elements/1.1/"
   xmlns:cc="http://creativecommons.org/ns#"
   xmlns:rdf="http://www.w3.org/1999/02/22-rdf-syntax-ns#"
   xmlns:svg="http://www.w3.org/2000/svg"
   xmlns="http://www.w3.org/2000/svg"
   xmlns:sodipodi="http://sodipodi.sourceforge.net/DTD/sodipodi-0.dtd"
   xmlns:inkscape="http://www.inkscape.org/namespaces/inkscape"
   version="1.1"
   id="svg2"
   xml:space="preserve"
   width="1321.1428"
   height="1903.927"
   viewBox="0 0 1321.1428 1903.927"
   sodipodi:docname="spacebud.svg"
   inkscape:version="0.92.5 (2060ec1f9f, 2020-04-08)"><metadata
     id="metadata8"><rdf:RDF><cc:Work
         rdf:about=""><dc:format>image/svg+xml</dc:format><dc:type
           rdf:resource="http://purl.org/dc/dcmitype/StillImage" /><dc:title></dc:title></cc:Work></rdf:RDF></metadata><defs
     id="defs6"><clipPath
       clipPathUnits="userSpaceOnUse"
       id="clipPath18"><path
         d="M 0,4000 H 4000 V 0 H 0 Z"
         id="path16"
         inkscape:connector-curvature="0" /></clipPath><clipPath
       clipPathUnits="userSpaceOnUse"
       id="clipPath34"><path
         d="m 2071.21,2062 h 155.28 v -308.06 h -155.28 z"
         id="path32"
         inkscape:connector-curvature="0" /></clipPath><clipPath
       clipPathUnits="userSpaceOnUse"
       id="clipPath58"><path
         d="m 1967.13,2426.05 h 470.55 v -190.64 h -470.55 z"
         id="path56"
         inkscape:connector-curvature="0" /></clipPath><clipPath
       clipPathUnits="userSpaceOnUse"
       id="clipPath82"><path
         d="m 1639.24,2207.66 h 252.8 v -253.52 h -252.8 z"
         id="path80"
         inkscape:connector-curvature="0" /></clipPath><clipPath
       clipPathUnits="userSpaceOnUse"
       id="clipPath114"><path
         d="m 1681.99,2127.5 h 90 v -119.89 h -90 z"
         id="path112"
         inkscape:connector-curvature="0" /></clipPath><clipPath
       clipPathUnits="userSpaceOnUse"
       id="clipPath138"><path
         d="M 1766.35,2188.05 H 2215.4 V 1541.46 H 1766.35 Z"
         id="path136"
         inkscape:connector-curvature="0" /></clipPath><clipPath
       clipPathUnits="userSpaceOnUse"
       id="clipPath154"><path
         d="m 1765.46,2389.03 h 73.96 v -294.14 h -73.96 z"
         id="path152"
         inkscape:connector-curvature="0" /></clipPath><clipPath
       clipPathUnits="userSpaceOnUse"
       id="clipPath158"><path
         d="m 1765.46,2389.03 h 73.96 v -294.14 h -73.96 z"
         id="path156"
         inkscape:connector-curvature="0" /></clipPath><clipPath
       clipPathUnits="userSpaceOnUse"
       id="clipPath190"><path
         d="m 1466.38,2372.76 h 333.76 v -179.63 h -333.76 z"
         id="path188"
         inkscape:connector-curvature="0" /></clipPath><clipPath
       clipPathUnits="userSpaceOnUse"
       id="clipPath218"><path
         d="m 2248.71,2623.83 h 98.07 v -101.89 h -98.07 z"
         id="path216"
         inkscape:connector-curvature="0" /></clipPath><clipPath
       clipPathUnits="userSpaceOnUse"
       id="clipPath238"><path
         d="m 1655.39,2951.08 h 641.14 v -643.53 h -641.14 z"
         id="path236"
         inkscape:connector-curvature="0" /></clipPath><clipPath
       clipPathUnits="userSpaceOnUse"
       id="clipPath294"><path
         d="m 1656.74,2697.53 h 638.4 v -388.58 h -638.4 z"
         id="path292"
         inkscape:connector-curvature="0" /></clipPath><clipPath
       clipPathUnits="userSpaceOnUse"
       id="clipPath326"><path
         d="m 2128.46,2150.68 h 118.45 v -39.9 h -118.45 z"
         id="path324"
         inkscape:connector-curvature="0" /></clipPath><clipPath
       clipPathUnits="userSpaceOnUse"
       id="clipPath350"><path
         d="m 1758.64,2115.8 h 178.73 v -39.9 h -178.73 z"
         id="path348"
         inkscape:connector-curvature="0" /></clipPath><clipPath
       clipPathUnits="userSpaceOnUse"
       id="clipPath354"><path
         d="m 1758.64,2115.8 h 178.73 v -39.9 h -178.73 z"
         id="path352"
         inkscape:connector-curvature="0" /></clipPath><clipPath
       clipPathUnits="userSpaceOnUse"
       id="clipPath394"><path
         d="m 1919.65,2190.88 h 239.08 v -144.76 h -239.08 z"
         id="path392"
         inkscape:connector-curvature="0" /></clipPath><clipPath
       clipPathUnits="userSpaceOnUse"
       id="clipPath398"><path
         d="m 1919.65,2190.88 h 239.08 v -144.76 h -239.08 z"
         id="path396"
         inkscape:connector-curvature="0" /></clipPath><clipPath
       clipPathUnits="userSpaceOnUse"
       id="clipPath446"><path
         d="m 1574.29,2586.49 h 122.02 V 2453.3 h -122.02 z"
         id="path444"
         inkscape:connector-curvature="0" /></clipPath><clipPath
       clipPathUnits="userSpaceOnUse"
       id="clipPath470"><path
         d="m 1646.1,2571.81 h 101.03 V 2453.46 H 1646.1 Z"
         id="path468"
         inkscape:connector-curvature="0" /></clipPath></defs><sodipodi:namedview
     pagecolor="#ffffff"
     bordercolor="#666666"
     borderopacity="1"
     objecttolerance="10"
     gridtolerance="10"
     guidetolerance="10"
     inkscape:pageopacity="0"
     inkscape:pageshadow="2"
     inkscape:window-width="1848"
     inkscape:window-height="1017"
     id="namedview4"
     showgrid="false"
     inkscape:zoom="0.17699999"
     inkscape:cx="1596.001"
     inkscape:cy="387.45671"
     inkscape:window-x="72"
     inkscape:window-y="27"
     inkscape:window-maximized="1"
     inkscape:current-layer="g10" /><g
     id="g10"
     inkscape:groupmode="layer"
     inkscape:label="Space Budz logo 1 ai file"
     transform="matrix(1.3333333,0,0,-1.3333333,-1942.0785,3946.262)"><g
       id="g12"><g
         id="g14"
         clip-path="url(#clipPath18)"><g
           id="g20"
           transform="translate(2163.1748,2062.0029)"><path
             d="m 0,0 c 0,0 110.344,-46.461 122.927,-151.965 12.583,-105.504 -68.754,-168.002 -68.754,-168.002 0,0 51.439,-25.25 42.136,-58.977 -11.616,-42.105 -111.225,-24.748 -150.513,-10.647 -60.496,21.712 -16.518,98.925 -1.937,129.218 25.16,52.269 -35.82,128.734 -35.82,128.734 z"
             style="fill:#ffffff;fill-opacity:1;fill-rule:nonzero;stroke:none"
             id="path22"
             inkscape:connector-curvature="0" /></g><g
           id="g24"
           transform="translate(2072.9502,1930.4131)"><path
             d="m 0,0 c 6.866,-8.843 59.48,-79.238 35.342,-129.389 -1.076,-2.235 -2.313,-4.727 -3.655,-7.43 -12.539,-25.274 -33.526,-67.57 -22.03,-96.119 4.409,-10.952 13.437,-18.94 26.835,-23.748 30.623,-10.993 101.178,-24.59 133.354,-7.908 8.118,4.213 13.28,10.138 15.342,17.612 8.893,32.239 -40.901,57.105 -41.405,57.353 -0.433,0.211 -0.725,0.635 -0.772,1.113 -0.049,0.482 0.154,0.953 0.537,1.245 0.807,0.621 80.557,63.264 68.218,166.731 C 200.073,77.503 101.894,124.775 90.71,129.848 Z m 127.087,-275.321 c -34.081,0 -72.88,9.31 -91.539,16.007 -14.179,5.089 -23.761,13.612 -28.479,25.331 -11.965,29.714 9.371,72.712 22.119,98.402 1.337,2.695 2.568,5.177 3.64,7.401 C 57.314,-77.306 -2.224,-1.676 -2.828,-0.916 -3.212,-0.435 -3.234,0.245 -2.881,0.752 L 89.08,132.39 c 0.38,0.54 1.085,0.733 1.686,0.487 1.111,-0.467 111.237,-47.992 123.77,-153.088 11.522,-96.593 -55.996,-158.105 -67.612,-167.901 9.494,-5.068 49.525,-28.538 40.954,-59.612 -2.276,-8.252 -7.91,-14.761 -16.748,-19.344 -11.528,-5.981 -27.213,-8.253 -44.043,-8.253"
             style="fill:#390075;fill-opacity:1;fill-rule:nonzero;stroke:none"
             id="path26"
             inkscape:connector-curvature="0" /></g><g
           id="g28"><g
             id="g30" /><g
             id="g42"><g
               clip-path="url(#clipPath34)"
               id="g40"
               style="opacity:0.30000299"><g
                 transform="translate(2217.0049,1889.6641)"
                 id="g38"><path
                   d="m 0,0 c -27.707,-83.812 -94.842,-121.142 -131.435,-135.72 6.654,18.866 16.075,36.481 21.456,47.688 25.162,52.265 -35.811,128.733 -35.811,128.733 l 91.961,131.635 c 0,0 20.852,-8.774 45.478,-27.372 C 7.813,105.425 17.905,54.187 0,0"
                   style="fill:#6b3dc3;fill-opacity:1;fill-rule:nonzero;stroke:none"
                   id="path36"
                   inkscape:connector-curvature="0" /></g></g></g></g><g
           id="g44"
           transform="translate(2083.2725,1930.5723)"><path
             d="m 0,0 c 14.263,-19.752 56.083,-84.314 32.563,-133.179 -1.087,-2.263 -2.339,-4.786 -3.697,-7.522 -11.135,-22.437 -31.859,-64.203 -21.764,-89.271 3.526,-8.758 10.688,-14.97 21.895,-18.994 34.489,-12.376 99.44,-22.474 126.671,-8.352 6.051,3.137 9.689,7.194 11.126,12.404 6.958,25.22 -36.581,47.393 -37.023,47.611 -3.032,1.487 -5.08,4.438 -5.415,7.798 -0.334,3.361 1.09,6.657 3.769,8.715 0.757,0.585 76.751,60.611 65.005,159.1 -9.942,83.359 -86.186,128.559 -109.97,140.729 z m 116.833,-283.678 c -35.52,0 -75.278,9.448 -94.435,16.324 -16.524,5.931 -27.769,16.052 -33.418,30.085 -13.368,33.197 9.014,78.302 22.387,105.251 1.32,2.663 2.535,5.113 3.595,7.312 22.239,46.205 -34.086,117.692 -34.658,118.41 -2.697,3.383 -2.848,8.136 -0.37,11.684 l 91.961,131.637 c 2.638,3.776 7.552,5.196 11.798,3.409 4.719,-1.986 115.73,-49.929 128.834,-159.813 10.403,-87.21 -39.289,-145.818 -61.9,-167.566 16.582,-10.982 43.113,-33.752 35,-63.165 -2.922,-10.591 -9.975,-18.85 -20.964,-24.552 -12.617,-6.543 -29.673,-9.016 -47.83,-9.016"
             style="fill:#310080;fill-opacity:1;fill-rule:nonzero;stroke:none"
             id="path46"
             inkscape:connector-curvature="0" /></g><g
           id="g48"
           transform="translate(2312.4043,2251.5942)"><path
             d="m 0,0 c -31.033,-17.615 -79.013,-18.017 -118.061,-14.311 -36.414,3.46 -65.103,10.516 -65.103,10.516 l -40.901,38.914 -41.059,39.048 -62.111,59.098 -18.039,17.169 c 0,0 39.517,-11.208 93.01,-19.156 28.377,-4.197 60.705,-7.48 93.167,-7.658 6.9,-0.044 13.798,0.067 20.653,0.313 22.727,0.848 45.098,3.483 65.795,8.617 17.481,4.309 33.756,10.427 48.068,18.777 0,0 104.844,81.758 141.883,27.796 C 146.415,136.726 93.122,52.891 0,0"
             style="fill:#ffffff;fill-opacity:1;fill-rule:nonzero;stroke:none"
             id="path50"
             inkscape:connector-curvature="0" /></g><g
           id="g52"><g
             id="g54" /><g
             id="g66"><g
               clip-path="url(#clipPath58)"
               id="g64"
               style="opacity:0.30000299"><g
                 transform="translate(2312.4043,2251.5942)"
                 id="g62"><path
                   d="m 0,0 c -59.968,-34.047 -183.164,-3.795 -183.164,-3.795 l -162.11,154.229 c 0,0 27.929,-7.926 68.586,-15.16 l 93.524,-88.992 c 0,0 123.196,-30.252 183.164,3.818 61.464,34.896 105.58,83.276 120.093,124.357 C 142.598,130.832 89.818,51.016 0,0"
                   style="fill:#6b3dc3;fill-opacity:1;fill-rule:nonzero;stroke:none"
                   id="path60"
                   inkscape:connector-curvature="0" /></g></g></g></g><g
           id="g68"
           transform="translate(2231.3203,2225.6226)"><path
             d="m 0,0 c -51.808,-0.003 -101.157,11.886 -104.406,12.685 -5.24,1.287 -8.443,6.574 -7.157,11.814 1.284,5.24 6.575,8.448 11.813,7.158 1.193,-0.292 120.137,-28.923 176.013,2.813 61.164,34.731 108.812,86.527 118.57,128.89 3.393,14.728 1.875,26.915 -4.511,36.218 -5.284,7.698 -12.47,12.156 -21.967,13.629 -34.084,5.256 -87.973,-29.695 -105.861,-43.619 -0.341,-0.267 -0.704,-0.512 -1.077,-0.732 -108.252,-63.198 -319.342,-4.377 -328.276,-1.84 -5.19,1.472 -8.202,6.871 -6.731,12.061 1.472,5.19 6.879,8.202 12.063,6.733 2.104,-0.597 211.283,-58.888 312.557,-0.393 7.143,5.479 72.618,54.438 120.296,47.099 14.907,-2.308 26.719,-9.67 35.104,-21.885 9.473,-13.798 12.046,-31.663 7.44,-51.656 C 202.79,110.87 152.563,55.33 85.91,17.48 62.542,4.213 30.834,0 0,0"
             style="fill:#310080;fill-opacity:1;fill-rule:nonzero;stroke:none"
             id="path70"
             inkscape:connector-curvature="0" /></g><g
           id="g72"
           transform="translate(1837.4229,2385.9448)"><path
             d="m 0,0 c 0,0 -112.867,0.267 -157.208,-34.577 -35.999,-28.289 -78.985,-314.01 20.104,-369.502 53.812,-30.134 191.724,-27.682 191.724,-27.682 z"
             style="fill:#ffffff;fill-opacity:1;fill-rule:nonzero;stroke:none"
             id="path74"
             inkscape:connector-curvature="0" /></g><g
           id="g76"><g
             id="g78" /><g
             id="g90"><g
               clip-path="url(#clipPath82)"
               id="g88"
               style="opacity:0.30000299"><g
                 transform="translate(1881.7275,2035.7534)"
                 id="g86"><path
                   d="m 0,0 10.308,-81.568 c 0,0 -137.898,-2.465 -191.706,27.691 -55.832,31.261 -66.569,135.59 -58.884,225.781 3.926,-63.993 20.884,-122.175 60.188,-144.181 C -135.769,2.866 -34.32,0.173 0,0"
                   style="fill:#6b3dc3;fill-opacity:1;fill-rule:nonzero;stroke:none"
                   id="path84"
                   inkscape:connector-curvature="0" /></g></g></g></g><g
           id="g92"
           transform="translate(1828.8335,2376.0215)"><path
             d="m 0,0 c -26.642,-0.771 -108.228,-5.337 -142.583,-32.334 -16.973,-13.339 -43.708,-123.188 -35.823,-224.38 3.655,-46.893 16.104,-107.326 54.664,-128.918 42.344,-23.714 142.625,-26.287 175.874,-26.468 z m 54.749,-431.667 c -31.614,0 -139.912,2.038 -188.036,28.989 -46.098,25.817 -60.57,92.801 -64.595,144.447 -7.396,94.924 14.823,218.936 43.229,241.255 46.474,36.524 158.407,36.736 163.266,36.666 4.912,-0.011 9.051,-3.669 9.667,-8.542 l 54.619,-431.762 c 0.349,-2.75 -0.489,-5.521 -2.306,-7.617 -1.816,-2.097 -4.437,-3.325 -7.21,-3.375 -0.761,-0.011 -3.803,-0.061 -8.634,-0.061"
             style="fill:#310080;fill-opacity:1;fill-rule:nonzero;stroke:none"
             id="path94"
             inkscape:connector-curvature="0" /></g><g
           id="g96"
           transform="translate(1796.1792,2316.0674)"><path
             d="m 0,0 c -1.42,0 -2.862,0.34 -4.203,1.055 -0.297,0.162 -31.019,16.33 -68.014,19.978 -31.926,3.157 -48.682,-6.861 -48.848,-6.964 -4.179,-2.553 -9.674,-1.295 -12.273,2.854 -2.6,4.154 -1.402,9.606 2.727,12.243 0.862,0.551 21.571,13.445 60.147,9.641 C -29.81,34.798 2.849,17.541 4.22,16.809 8.569,14.481 10.21,9.071 7.884,4.722 6.276,1.712 3.189,0 0,0"
             style="fill:#0b3354;fill-opacity:1;fill-rule:nonzero;stroke:none"
             id="path98"
             inkscape:connector-curvature="0" /></g><g
           id="g100"
           transform="translate(1676.0791,2130.1885)"><path
             d="m 0,0 c 2.973,3.347 82.766,-2.174 87.139,-5.709 4.373,-3.536 18.441,-100.172 -2.117,-111.137 -20.361,-10.86 -50.325,-5.343 -64.807,8.495 C -1.125,-87.959 -2.973,-3.347 0,0"
             style="fill:#ffffff;fill-opacity:1;fill-rule:nonzero;stroke:none"
             id="path102"
             inkscape:connector-curvature="0" /></g><g
           id="g104"
           transform="translate(1677.126,2129.2026)"><path
             d="m 0,0 c -2.659,-6.687 -0.199,-86.928 20.13,-106.357 13.339,-12.741 42.571,-19.275 63.188,-8.272 3.795,2.025 6.582,7.651 8.285,16.728 5.957,31.749 -3.686,88.933 -6.441,92.14 C 80.552,-2.542 6.134,2.481 0,0 m 59.354,-122.965 c -16.06,0 -32.089,5.933 -41.15,14.592 C -2.318,-88.763 -6.572,-3.132 -2.089,1.913 0.102,4.38 23.149,3.377 42.092,2.105 c 6.88,-0.465 41.38,-2.918 44.877,-5.744 4.056,-3.277 11.531,-54.992 8.592,-85.92 -1.441,-15.169 -5.119,-24.432 -10.928,-27.531 -7.671,-4.093 -16.482,-5.875 -25.279,-5.875"
             style="fill:#390075;fill-opacity:1;fill-rule:nonzero;stroke:none"
             id="path106"
             inkscape:connector-curvature="0" /></g><g
           id="g108"><g
             id="g110" /><g
             id="g122"><g
               clip-path="url(#clipPath114)"
               id="g120"
               style="opacity:0.30000299"><g
                 transform="translate(1761.1035,2013.3457)"
                 id="g118"><path
                   d="m 0,0 c -20.361,-10.857 -50.321,-5.335 -64.819,8.494 -6.382,6.098 -11.017,17.913 -14.295,31.6 15.78,-8.769 39.05,-10.92 55.81,-1.979 12.665,6.767 12.182,46.042 8.942,76.035 8.899,-1.002 15.327,-2.075 16.474,-3.009 C 6.487,107.597 20.559,10.959 0,0"
                   style="fill:#6b3dc3;fill-opacity:1;fill-rule:nonzero;stroke:none"
                   id="path116"
                   inkscape:connector-curvature="0" /></g></g></g></g><g
           id="g124"
           transform="translate(1679.0347,2122.4844)"><path
             d="m 0,0 z m 80.458,-5.446 h 0.001 z M 4.354,0.376 c -0.898,-18.663 3.273,-80.238 18.689,-94.969 11.587,-11.074 37.604,-16.486 55.083,-7.161 2.268,1.211 7.794,12.036 6.164,47.14 -1.059,22.812 -4.47,42.68 -6.352,49.802 -12.79,2.548 -58.091,5.703 -73.584,5.188 m 53.014,-123.645 c -17.865,0 -35.543,6.68 -45.894,16.57 -10.615,10.143 -17.936,32.239 -21.758,65.67 -0.551,4.814 -5.196,47.241 1.07,54.293 2.75,3.099 4.925,5.547 49.864,2.52 43.406,-2.921 46.913,-5.758 48.798,-7.281 1.938,-1.565 5.554,-4.485 9.411,-36.666 1.457,-12.162 3.622,-35.525 1.739,-55.338 -1.724,-18.142 -6.361,-28.639 -14.591,-33.027 -8.79,-4.689 -18.744,-6.741 -28.639,-6.741"
             style="fill:#310080;fill-opacity:1;fill-rule:nonzero;stroke:none"
             id="path126"
             inkscape:connector-curvature="0" /></g><g
           id="g128"
           transform="translate(2211.9814,2046.0371)"><path
             d="m 0,0 c -23.175,-127.772 -127.461,-140.23 -127.461,-140.23 44.765,-112.414 -40.968,-277.85 -40.968,-277.85 0,0 43.714,-15.048 46.46,-43.559 2.479,-25.987 -63.071,-57.423 -149.473,-35.632 -132.596,33.422 25.162,228.665 -113.239,385.461 -31.256,35.41 -48.47,77.852 -56.373,122.393 -2.233,12.636 -3.729,25.429 -4.577,38.267 -2.679,40.232 0.938,80.999 7.502,118.864 6.318,36.281 15.36,69.859 24.201,97.722 5.671,17.838 11.253,33.333 16.008,45.679 1.831,4.756 3.527,9.043 5.068,12.816 4.956,12.212 8.171,19.066 8.171,19.066 l 77.852,-2.054 18.933,-0.513 61.084,-1.608 74.971,-1.987 91.27,-2.411 c 0,0 0.67,-1.831 1.897,-5.247 0.916,-2.568 2.144,-6.05 3.64,-10.315 3.348,-9.689 7.97,-23.465 13.149,-40.075 7.614,-24.358 16.433,-54.811 24.247,-87.541 C -10.159,159.99 -3.595,126.701 0.156,94.686 2.099,78.008 3.281,61.688 3.415,46.193 3.594,29.671 2.545,14.065 0,0"
             style="fill:#ffffff;fill-opacity:1;fill-rule:nonzero;stroke:none"
             id="path130"
             inkscape:connector-curvature="0" /></g><g
           id="g132"><g
             id="g134" /><g
             id="g146"><g
               clip-path="url(#clipPath138)"
               id="g144"
               style="opacity:0.30000299"><g
                 transform="translate(2215.3965,2092.23)"
                 id="g142"><path
                   d="M 0,0 C -2.009,-0.268 -3.996,-0.536 -5.961,-0.759 -27.282,-3.327 -11.68,0.687 -25.209,0.82 l 2.366,-25.384 c 1.028,-10.851 -7.032,-20.541 -17.883,-21.545 l -240.916,-23.837 c -10.829,-1.004 -20.541,7.033 -21.545,17.883 l -1.589,17.078 c -0.514,-0.38 -6.495,0.089 -14.801,-0.536 -14.022,-1.076 -31.02,-1.812 -47.659,-2.3 -22.295,-0.655 -36.315,-24.41 -25.98,-44.175 8.208,-15.695 18.281,-30.614 30.506,-44.46 138.399,-156.796 -19.357,-352.039 113.238,-385.461 52.489,-13.24 97.297,-6.832 123.821,6.073 0.111,-0.648 0.201,-1.318 0.267,-1.988 2.479,-25.987 -63.071,-57.422 -149.473,-35.632 -132.596,33.422 25.162,228.665 -113.239,385.462 -31.256,35.409 -48.47,77.851 -56.373,122.392 -2.233,12.636 -3.729,25.429 -4.577,38.267 4.421,4.086 10.426,6.541 17.057,6.296 2.903,-0.112 6.609,-0.157 10.895,-0.134 32.016,0.112 97.365,3.304 115.449,5.827 5.001,0.692 9.868,-0.201 14.11,-2.3 l -4.13,44.184 c -1.005,10.828 7.033,20.54 17.883,21.545 l 189.505,17.659 c 10.85,1.028 20.54,-7.032 21.545,-17.86 l 3.192,-34.07 c 0.446,0 0.915,0.045 1.385,0.022 21.611,-0.781 40.611,2.032 58.896,4.667 C -1.316,31.815 -0.134,15.495 0,0"
                   style="fill:#6b3dc3;fill-opacity:1;fill-rule:nonzero;stroke:none"
                   id="path140"
                   inkscape:connector-curvature="0" /></g></g></g></g><g
           id="g148"><g
             id="g150" /><g
             id="g174"><g
               clip-path="url(#clipPath154)"
               id="g172"
               style="opacity:0.30000299"><g
                 id="g170"><g
                   id="g160" /><g
                   id="g168"><g
                     clip-path="url(#clipPath158)"
                     id="g166"
                     style="opacity:0.30000299"><g
                       transform="translate(1791.7354,2126.4336)"
                       id="g164"><path
                         d="m 0,0 c 0.558,-8.484 1.406,-16.968 2.567,-25.385 -4.286,-0.022 -7.992,0.023 -10.895,0.134 -6.63,0.246 -12.636,-2.21 -17.057,-6.296 -9.533,143.625 60.95,294.148 60.95,294.148 l 12.123,-0.313 C 27.796,210.514 -6.876,103.459 0,0"
                         style="fill:#6b3dc3;fill-opacity:1;fill-rule:nonzero;stroke:none"
                         id="path162"
                         inkscape:connector-curvature="0" /></g></g></g></g></g></g></g><g
           id="g176"
           transform="translate(1833.5601,2379.0923)"><path
             d="m 0,0 c -8.324,-19.15 -34.715,-83.534 -48.912,-160.533 -15.394,-83.495 -19.22,-199.475 49.97,-277.858 73.803,-83.609 66.576,-177.003 60.77,-252.045 -5.907,-76.34 -6.474,-116.809 47.543,-130.424 64.821,-16.344 113.365,-0.788 130.179,13.656 4.79,4.113 7.47,8.443 7.171,11.583 -1.737,18.143 -29.413,31.602 -39.93,35.258 -2.678,0.93 -4.825,2.979 -5.874,5.611 -1.05,2.633 -0.911,5.595 0.392,8.11 0.837,1.617 83.154,162.842 40.584,269.741 -1.124,2.818 -0.872,5.998 0.678,8.607 1.551,2.609 4.225,4.346 7.238,4.705 3.943,0.496 97.474,13.532 119.003,132.27 18.311,100.986 -45.027,286.913 -57.884,323.089 z m 163.528,-847.341 c -18.155,0 -38.008,2.263 -58.932,7.537 -72.506,18.278 -67.75,79.724 -62.246,150.875 5.523,71.372 12.396,160.196 -55.937,237.607 -58.95,66.784 -77.781,168.706 -54.458,294.748 17.42,94.145 51.492,167.572 52.935,170.654 1.645,3.517 5.161,5.8 9.104,5.622 l 324.118,-8.578 c 3.982,-0.106 7.502,-2.621 8.893,-6.354 3.369,-9.035 82.228,-222.654 61.03,-339.575 -12.584,-69.398 -48.631,-105.975 -76.654,-124.438 -18.735,-12.342 -36.344,-18.426 -47.428,-21.313 32.105,-99.684 -23.522,-229.464 -40.642,-265.596 14.736,-7.003 40.471,-22.686 42.856,-47.608 0.66,-6.889 -1.216,-17.38 -13.888,-28.264 -16.45,-14.128 -48.389,-25.317 -88.751,-25.317"
             style="fill:#310080;fill-opacity:1;fill-rule:nonzero;stroke:none"
             id="path178"
             inkscape:connector-curvature="0" /></g><g
           id="g180"
           transform="translate(1933.4619,2398.7686)"><path
             d="m 0,0 -9.377,-12.302 -37.731,-49.43 -36.839,-48.269 -51.796,-67.85 c 0,0 -9.176,-3.058 -23.867,-7.166 -37.016,-10.337 -109.108,-27.215 -157.623,-17.928 -126.812,24.268 -166.106,111.921 -144.048,158.404 23.241,48.939 107.076,13.329 135.207,-0.357 8.997,-4.376 18.419,-7.769 28.198,-9.868 35.99,-7.747 76.713,-6.14 116.252,0 21.411,3.304 42.465,7.948 62.224,13.15 5.871,1.518 11.631,3.126 17.235,4.733 29.761,8.573 55.615,17.928 73.855,25.095 C -11.029,-5.023 -0.558,-0.246 0,0"
             style="fill:#ffffff;fill-opacity:1;fill-rule:nonzero;stroke:none"
             id="path182"
             inkscape:connector-curvature="0" /></g><g
           id="g184"><g
             id="g186" /><g
             id="g198"><g
               clip-path="url(#clipPath190)"
               id="g196"
               style="opacity:0.35000604"><g
                 transform="translate(1797.7188,2220.918)"
                 id="g194"><path
                   d="m 0,0 c 0,0 -113.752,-38.066 -181.49,-25.095 -126.812,24.269 -166.106,111.922 -144.048,158.405 4.085,8.595 10.024,14.579 17.213,18.53 1.518,-47.331 46.774,-108.884 149.831,-128.621 38.51,-7.374 91.885,1.754 130.776,11.005 C -7.761,38.971 8.806,18.528 0,0"
                   style="fill:#6b3dc3;fill-opacity:1;fill-rule:nonzero;stroke:none"
                   id="path192"
                   inkscape:connector-curvature="0" /></g></g></g></g><g
           id="g200"
           transform="translate(1648.3364,2183.3574)"><path
             d="m 0,0 c -11.946,0 -23.431,0.857 -33.939,2.868 -69.157,13.239 -122.338,47.502 -145.91,94.006 -13.866,27.355 -15.734,55.852 -5.129,78.185 6.131,12.911 16.139,21.876 29.749,26.649 36.663,12.849 90.02,-8.532 118.564,-22.422 8.544,-4.158 17.281,-7.215 25.968,-9.088 117.212,-25.254 290.043,53.31 291.774,54.107 4.9,2.255 10.701,0.108 12.955,-4.792 2.254,-4.903 0.107,-10.703 -4.795,-12.955 -7.313,-3.364 -180.545,-82.045 -304.049,-55.458 -10.221,2.205 -20.448,5.777 -30.4,10.622 -16.213,7.885 -71.58,32.76 -103.554,21.55 -8.627,-3.026 -14.699,-8.453 -18.565,-16.594 -7.876,-16.58 -6.041,-39.375 4.907,-60.973 20.817,-41.065 68.986,-71.556 132.157,-83.648 64.422,-12.334 175.426,24.404 176.541,24.777 5.112,1.71 10.65,-1.047 12.361,-6.164 1.712,-5.115 -1.046,-10.65 -6.162,-12.362 C 148.449,26.96 67.008,0.002 0,0"
             style="fill:#310080;fill-opacity:1;fill-rule:nonzero;stroke:none"
             id="path202"
             inkscape:connector-curvature="0" /></g><g
           id="g204"
           transform="translate(2345.4609,2632.7471)"><path
             d="m 0,0 c 5.977,-59.875 -16.057,-111.081 -49.224,-114.392 l -50.831,-5.073 c 9.086,0.907 17.364,5.413 24.42,12.726 9.581,9.877 16.982,24.883 21.357,42.989 4.176,17.294 5.568,37.433 3.447,58.676 -2.12,21.243 -7.465,40.71 -14.979,56.837 -7.869,16.905 -18.089,30.152 -29.433,37.94 -8.363,5.775 -17.368,8.555 -26.454,7.648 l 50.831,5.074 C -37.699,105.736 -5.977,59.875 0,0"
             style="fill:#ffffff;fill-opacity:1;fill-rule:nonzero;stroke:none"
             id="path206"
             inkscape:connector-curvature="0" /></g><g
           id="g208"
           transform="translate(2237.7891,2730.0962)"><path
             d="M 0,0 C 4.458,-1.328 8.875,-3.497 13.222,-6.499 24.744,-14.409 35.087,-27.72 43.128,-45 c 7.812,-16.767 13.035,-36.574 15.101,-57.284 2.068,-20.712 0.865,-41.162 -3.48,-59.143 -4.473,-18.516 -11.98,-33.604 -21.712,-43.633 -3.664,-3.797 -7.563,-6.796 -11.669,-8.979 l 36.941,3.689 c 15.514,1.548 29.062,14.03 38.149,35.146 9.204,21.389 12.693,48.99 9.827,77.715 C 100.394,-38.473 69.32,6.894 36.945,3.687 Z m 7.615,-218.21 c -0.709,0 -1.315,0.537 -1.386,1.256 -0.077,0.768 0.483,1.45 1.249,1.528 8.578,0.855 16.503,4.998 23.554,12.307 9.386,9.672 16.65,24.318 21.005,42.349 4.272,17.677 5.452,37.808 3.416,58.208 -2.036,20.4 -7.173,39.899 -14.856,56.385 -7.829,16.825 -17.843,29.75 -28.958,37.382 -8.359,5.771 -16.939,8.288 -25.527,7.408 -0.746,-0.036 -1.45,0.485 -1.525,1.251 -0.077,0.768 0.482,1.45 1.248,1.528 h 0.002 l 50.83,5.073 c 33.926,3.333 66.349,-43.131 72.394,-103.675 2.914,-29.191 -0.652,-57.282 -10.04,-79.097 -9.506,-22.09 -23.866,-35.168 -40.434,-36.822 l -50.816,-5.073 c -0.005,0 -0.011,0 -0.015,-0.003 -0.047,-0.002 -0.095,-0.005 -0.141,-0.005"
             style="fill:#390075;fill-opacity:1;fill-rule:nonzero;stroke:none"
             id="path210"
             inkscape:connector-curvature="0" /></g><g
           id="g212"><g
             id="g214" /><g
             id="g226"><g
               clip-path="url(#clipPath218)"
               id="g224"
               style="opacity:0.30000299"><g
                 transform="translate(2346.7227,2623.8291)"
                 id="g222"><path
                   d="m 0,0 c 1.242,-50.623 -18.166,-91.504 -47.357,-95.302 l -50.658,-6.591 c 9.056,1.178 17.195,5.929 24.03,13.45 9.281,10.159 16.23,25.38 20.062,43.608 2.308,10.967 3.461,23.052 3.332,35.763 l 1.284,-0.646 c 16.123,-8.106 35.369,-4.327 47.966,8.594 C -0.817,-0.587 -0.364,-0.2 0,0"
                   style="fill:#6b3dc3;fill-opacity:1;fill-rule:nonzero;stroke:none"
                   id="path220"
                   inkscape:connector-curvature="0" /></g></g></g></g><g
           id="g228"
           transform="translate(2263.5723,2724.2549)"><path
             d="m 0,0 c 9.561,-8.757 18.078,-20.894 24.935,-35.625 8.205,-17.608 13.684,-38.351 15.843,-59.987 2.16,-21.635 0.888,-43.054 -3.674,-61.94 -3.813,-15.781 -9.76,-29.349 -17.404,-39.823 l 11.994,1.197 c 12.349,1.231 23.461,11.93 31.29,30.126 8.653,20.105 11.915,46.236 9.186,73.574 C 66.829,-38.98 39.255,3.942 11.993,1.197 Z m -18.178,-220.741 c -4.959,0 -9.205,3.759 -9.709,8.796 -0.536,5.368 3.382,10.154 8.75,10.691 l 0.024,0.003 c 6.54,0.66 12.709,3.951 18.336,9.787 8.243,8.495 14.944,22.16 18.892,38.501 4.053,16.775 5.168,35.937 3.223,55.413 -1.943,19.473 -6.822,38.036 -14.113,53.678 -7.097,15.249 -16.369,27.33 -26.109,34.016 -6.7,4.624 -13.411,6.64 -19.957,5.98 -5.377,-0.545 -10.153,3.383 -10.687,8.751 -0.535,5.368 3.382,10.152 8.749,10.689 h 0.003 l 50.828,5.073 c 39.094,3.864 74.942,-44.93 81.557,-111.174 v -0.003 c 3.052,-30.577 -0.742,-60.137 -10.68,-83.236 -10.764,-25.011 -27.56,-39.87 -47.294,-41.842 l -50.831,-5.076 c -0.33,-0.033 -0.658,-0.047 -0.982,-0.047"
             style="fill:#310080;fill-opacity:1;fill-rule:nonzero;stroke:none"
             id="path230"
             inkscape:connector-curvature="0" /></g><g
           id="g232"><g
             id="g234" /><g
             id="g250"><g
               clip-path="url(#clipPath238)"
               id="g248"
               style="opacity:0.35000604"><g
                 transform="translate(2196.3633,2860.7769)"
                 id="g242"><path
                   d="m 0,0 c -104.005,108.037 -254.315,87.451 -254.315,87.451 0,0 -151.415,-9.532 -232.034,-135.998 -63.451,-99.576 -59.172,-208.883 -43.116,-285.72 15.877,-76.127 63.762,-141.402 131.294,-176.565 50.834,-26.456 120.525,-47.671 207.342,-39.026 l 0.128,0.012 c 86.812,8.687 150.975,43.285 195.619,79.271 59.249,47.819 93.327,121.296 93.843,199.06 C 99.288,-193.001 81.881,-85.047 0,0"
                   style="fill:#ffffff;fill-opacity:1;fill-rule:nonzero;stroke:none"
                   id="path240"
                   inkscape:connector-curvature="0" /></g><g
                 transform="translate(1971.2412,2948.2925)"
                 id="g246"><path
                   d="m 0,0 c -17.715,0 -28.605,-1.392 -29.004,-1.448 -1.609,-0.103 -151.75,-10.976 -231.045,-135.364 -63.744,-100.033 -58.529,-210.027 -42.929,-284.685 16.004,-76.729 63.596,-140.737 130.574,-175.613 63.621,-33.11 133.118,-46.188 206.559,-38.874 73.55,7.356 139.118,33.926 195.01,78.979 58.787,47.45 92.803,119.61 93.323,197.983 0.512,76.275 -16.139,185.129 -98.371,270.537 C 149.086,-10.544 48.744,0 0,0 m -5.002,-640.739 c -59.54,0 -116.103,13.787 -168.691,41.151 -67.724,35.266 -115.842,99.97 -132.016,177.521 -15.706,75.164 -20.942,185.929 43.307,286.754 80.072,125.609 231.6,136.546 233.121,136.641 1.409,0.2 152.108,19.429 255.408,-87.875 82.883,-86.087 99.667,-195.699 99.151,-272.493 -0.526,-79.212 -34.919,-152.161 -94.36,-200.137 -56.322,-45.4 -122.387,-72.171 -196.357,-79.574 -13.324,-1.326 -26.516,-1.988 -39.563,-1.988"
                   style="fill:#390075;fill-opacity:1;fill-rule:nonzero;stroke:none"
                   id="path244"
                   inkscape:connector-curvature="0" /></g></g></g></g><g
           id="g252"
           transform="translate(1997.4346,2848.5981)"><path
             d="m 0,0 c -15.536,0 -25.191,-1.194 -25.529,-1.239 -0.194,-0.028 -0.395,-0.047 -0.589,-0.058 -1.218,-0.084 -123.236,-9.37 -188.087,-102.944 -52.328,-75.546 -48.71,-158.348 -36.459,-214.507 v -0.005 c 12.4,-56.942 50.226,-104.225 103.779,-129.723 51.574,-24.607 108.133,-34.077 168.143,-28.157 0.134,0.019 0.265,0.039 0.378,0.05 59.992,5.989 113.677,26.464 159.561,60.856 47.528,35.647 75.285,89.484 76.155,147.706 0.858,57.507 -11.999,139.415 -78.144,203.044 C 119.987,-8.038 40.261,0 0,0 m -13.081,-496.207 c -49.973,-0.003 -97.422,10.583 -141.489,31.607 -58.573,27.891 -99.961,79.664 -113.546,142.049 v -0.006 c -13.004,59.623 -16.756,147.662 39.231,228.487 68.861,99.363 192.676,109.954 201.291,110.572 8.569,1.098 132.033,15.189 219.182,-68.605 70.768,-68.078 84.535,-155.137 83.622,-216.185 -0.951,-63.791 -31.313,-122.737 -83.298,-161.728 -48.462,-36.327 -105.063,-57.963 -168.237,-64.315 -0.138,-0.019 -0.273,-0.038 -0.386,-0.049 -12.257,-1.217 -24.39,-1.827 -36.37,-1.827"
             style="fill:#390075;fill-opacity:1;fill-rule:nonzero;stroke:none"
             id="path254"
             inkscape:connector-curvature="0" /></g><g
           id="g256"
           transform="translate(1738.0454,2527.9453)"><path
             d="m 0,0 c 12.815,-58.852 52.433,-109.112 108.664,-135.886 42.352,-20.206 100.474,-36.18 173.13,-28.954 l 0.117,0.021 c 72.659,7.255 126.497,34.465 164.033,62.601 49.848,37.385 78.828,94.495 79.726,154.717 0.909,60.793 -12.953,144.267 -80.882,209.615 -86.311,82.984 -212.105,66.152 -212.105,66.152 0,0 -126.64,-8.362 -194.837,-106.767 C -15.832,144.007 -12.951,59.376 0,0"
             style="fill:#826bce;fill-opacity:1;fill-rule:nonzero;stroke:none"
             id="path258"
             inkscape:connector-curvature="0" /></g><g
           id="g260"
           transform="translate(2223.2705,2621.7817)"><path
             d="m 0,0 c 8.51,33.769 -6.449,94.446 -48.09,131.46 -59.275,52.689 -112.728,55.575 -126.081,47.796 -22.18,-12.92 -17.793,-55.877 39.201,-89.992 C -89.173,61.851 -69.104,12.995 -57.311,-3.79 -45.519,-20.574 -8.51,-33.768 0,0"
             style="fill:#ffffff;fill-opacity:1;fill-rule:nonzero;stroke:none"
             id="path262"
             inkscape:connector-curvature="0" /></g><g
           id="g264"
           transform="translate(2223.2705,2621.7817)"><path
             d="m 0,0 h 0.028 z m -157.49,172.723 c -5.863,0 -9.916,-0.832 -11.764,-1.907 -6.197,-3.611 -7.533,-10.054 -7.56,-14.826 -0.088,-14.593 12.176,-37.585 46.861,-58.345 38.326,-22.942 59.647,-60.023 72.386,-82.178 3.228,-5.616 6.016,-10.466 8.248,-13.64 5.287,-7.526 18.475,-14.593 28.235,-12.794 2.14,0.395 8.649,1.601 11.612,13.353 7.05,27.977 -4.704,85.859 -45.107,121.774 -44.398,39.465 -83.531,48.563 -102.911,48.563 M -24.342,-30.789 c -16.38,0 -33.021,10.082 -40.962,21.384 -2.741,3.901 -5.734,9.107 -9.199,15.135 -12.553,21.832 -31.522,54.826 -65.483,75.154 -35.448,21.216 -56.518,49.337 -56.365,75.223 0.082,13.732 6.375,25.245 17.264,31.587 17.362,10.118 75.515,6.151 137.485,-48.933 C 2.12,99.897 18.951,35.235 9.473,-2.386 4.229,-23.193 -9.699,-28.728 -17.532,-30.176 c -2.249,-0.415 -4.528,-0.613 -6.81,-0.613"
             style="fill:#310080;fill-opacity:1;fill-rule:nonzero;stroke:none"
             id="path266"
             inkscape:connector-curvature="0" /></g><g
           id="g268"
           transform="translate(1990.084,2810.6304)"><path
             d="m 0,0 c -14.66,15.461 -45.694,19.618 -74.016,12.886 -45.69,-10.859 -53.13,-41.269 -51.162,-50.113 2.914,-13.091 22.308,-26.204 55.965,-15.626 26.606,8.363 46.61,12.24 57.296,11.394 C 9.987,-43.195 12.521,-13.204 0,0"
             style="fill:#ffffff;fill-opacity:1;fill-rule:nonzero;stroke:none"
             id="path270"
             inkscape:connector-curvature="0" /></g><g
           id="g272"
           transform="translate(1942.2695,2816.8408)"><path
             d="m 0,0 c -7.76,0 -15.905,-0.916 -23.942,-2.826 -40.066,-9.525 -44.699,-34.333 -43.885,-38.501 0.646,-2.896 3.226,-5.9 6.9,-8.022 4.982,-2.876 16.364,-6.752 36.599,-0.395 19.297,6.064 45.548,13.053 60.995,11.811 3.74,-0.287 5.964,0.913 7.456,4.029 2.89,6.052 1.272,16.048 -3.396,20.974 C 32.828,-4.603 17.386,0 0,0 m -44.441,-72.67 c -9.934,0 -18.873,2.141 -26.255,6.404 -8.453,4.881 -14.358,12.429 -16.201,20.706 -3.169,14.237 7.145,49.547 58.436,61.739 33.437,7.949 66.937,1.654 83.363,-15.667 h 10e-4 C 65.254,-10.405 68.198,-28.82 61.751,-42.324 56.796,-52.696 46.855,-58.353 35.125,-57.407 30.64,-57.07 16.442,-57.409 -18.47,-68.382 c -9.11,-2.863 -17.871,-4.288 -25.971,-4.288"
             style="fill:#310080;fill-opacity:1;fill-rule:nonzero;stroke:none"
             id="path274"
             inkscape:connector-curvature="0" /></g><g
           id="g276"
           transform="translate(1997.4302,2848.5981)"><path
             d="m 0,0 c -15.536,0 -25.19,-1.194 -25.529,-1.239 -0.194,-0.028 -0.395,-0.047 -0.589,-0.058 -1.218,-0.084 -123.238,-9.37 -188.087,-102.944 -52.328,-75.543 -48.71,-158.348 -36.459,-214.507 v -0.005 c 12.4,-56.942 50.225,-104.225 103.778,-129.723 51.574,-24.607 108.138,-34.077 168.14,-28.157 0.135,0.019 0.267,0.039 0.38,0.05 59.994,5.989 113.68,26.464 159.564,60.858 47.527,35.645 75.284,89.482 76.154,147.704 0.858,57.507 -12.001,139.415 -78.145,203.044 C 119.988,-8.038 40.261,0 0,0 m -13.079,-496.207 c -49.975,-0.003 -97.423,10.583 -141.492,31.607 -58.573,27.891 -99.961,79.664 -113.544,142.049 v -0.006 c -13.006,59.626 -16.756,147.665 39.23,228.487 68.86,99.363 192.676,109.954 201.291,110.572 8.569,1.098 132.034,15.189 219.18,-68.605 70.771,-68.078 84.538,-155.137 83.624,-216.185 -0.952,-63.791 -31.313,-122.74 -83.297,-161.725 -48.462,-36.327 -105.06,-57.966 -168.235,-64.318 -0.138,-0.019 -0.274,-0.038 -0.388,-0.049 -12.257,-1.217 -24.39,-1.827 -36.369,-1.827"
             style="fill:#390075;fill-opacity:1;fill-rule:nonzero;stroke:none"
             id="path278"
             inkscape:connector-curvature="0" /></g><g
           id="g280"
           transform="translate(1775.8862,2749.4443)"><path
             d="m 0,0 c 68.197,98.405 194.837,106.767 194.837,106.767 0,0 125.793,16.832 212.105,-66.152 67.93,-65.348 81.791,-148.821 80.883,-209.615 -0.899,-60.222 -29.879,-117.332 -79.727,-154.716 -37.536,-28.137 -91.374,-55.346 -164.033,-62.602 l -0.116,-0.02 c -72.657,-7.227 -130.78,8.747 -173.131,28.954 -56.232,26.773 -95.848,77.033 -108.664,135.885 C -50.797,-162.123 -53.678,-77.491 0,0 m -108.988,-222.937 c 15.886,-76.116 63.765,-141.396 131.291,-176.56 50.846,-26.458 120.537,-47.667 207.339,-39.042 l 0.145,0.019 c 86.806,8.681 150.969,43.304 195.598,79.276 59.267,47.807 93.327,121.303 93.863,199.06 0.53,78.502 -16.906,186.456 -98.782,271.508 -104.007,108.04 -254.293,87.463 -254.293,87.463 0,0 -151.413,-9.54 -232.049,-136.012 -63.442,-99.563 -59.176,-208.867 -43.112,-285.712"
             style="fill:#ffffff;fill-opacity:1;fill-rule:nonzero;stroke:none"
             id="path282"
             inkscape:connector-curvature="0" /></g><g
           id="g284"
           transform="translate(1777.0332,2748.6509)"><path
             d="m 0,0 c -53.872,-77.773 -50.198,-162.786 -37.629,-220.407 12.899,-59.239 52.227,-108.417 107.9,-134.926 52.906,-25.24 110.902,-34.952 172.393,-28.823 61.497,6.147 116.45,27.118 163.45,62.351 49.407,37.053 78.264,93.045 79.169,153.617 0.883,59.002 -12.361,143.084 -80.456,208.591 -84.842,81.574 -209.702,65.94 -210.952,65.773 C 192.522,106.084 67.015,96.698 0,0 m 207.316,-388.711 c -48.884,0 -95.229,10.337 -138.246,30.86 -56.457,26.88 -96.342,76.761 -109.425,136.848 -12.687,58.164 -16.383,143.995 38.061,222.59 67.796,97.829 194.619,107.281 195.893,107.365 1.169,0.161 127.358,15.959 213.163,-66.539 68.818,-66.199 82.202,-151.087 81.311,-210.64 -0.918,-61.443 -30.18,-118.234 -80.285,-155.811 -47.412,-35.542 -102.836,-56.696 -164.731,-62.875 -12.053,-1.2 -23.971,-1.798 -35.741,-1.798 m -13.072,588.358 c -17.73,0 -28.629,-1.395 -29.029,-1.451 -1.609,-0.103 -151.749,-10.981 -231.062,-135.377 -63.748,-100.042 -58.527,-210.027 -42.923,-284.676 v -0.003 c 16.016,-76.727 63.607,-140.735 130.571,-175.608 63.619,-33.102 133.108,-46.183 206.556,-38.888 73.535,7.358 139.096,33.929 195.006,78.99 58.781,47.416 92.803,119.579 93.343,197.985 0.514,76.256 -16.139,185.088 -98.393,270.529 -75.037,77.947 -175.324,88.499 -224.069,88.499 m -5,-640.748 c -59.563,0 -116.134,13.791 -168.732,41.158 -67.71,35.263 -115.826,99.964 -132.013,177.515 -15.71,75.156 -20.952,185.912 43.301,286.745 80.09,125.619 231.617,136.561 233.138,136.655 1.411,0.201 152.083,19.421 255.386,-87.886 82.905,-86.12 99.69,-195.712 99.172,-272.484 -0.546,-79.246 -34.947,-152.194 -94.382,-200.14 -56.34,-45.409 -122.395,-72.182 -196.335,-79.577 -13.311,-1.323 -26.499,-1.983 -39.535,-1.986"
             style="fill:#390075;fill-opacity:1;fill-rule:nonzero;stroke:none"
             id="path286"
             inkscape:connector-curvature="0" /></g><g
           id="g288"><g
             id="g290" /><g
             id="g302"><g
               clip-path="url(#clipPath294)"
               id="g300"
               style="opacity:0.30000299"><g
                 transform="translate(1666.9019,2526.501)"
                 id="g298"><path
                   d="m 0,0 c 15.871,-76.113 63.772,-141.384 131.296,-176.563 50.83,-26.446 120.523,-47.654 207.329,-39.036 l 0.138,0.018 c 86.809,8.673 150.971,43.296 195.604,79.268 59.271,47.824 93.33,121.309 93.858,199.081 0.068,11.298 -0.204,23.194 -1.021,35.539 -6.978,-28.118 -18.48,-54.773 -34.04,-78.768 -9.222,-47.121 -35.867,-90.137 -76.076,-120.311 -37.549,-28.141 -91.374,-55.35 -164.045,-62.591 l -0.111,-0.02 c -72.643,-7.242 -130.792,8.734 -173.13,28.955 -41.599,19.815 -74.129,52.468 -93.406,91.951 C 46.296,-6.099 18.224,43.133 6.77,98.004 2.158,119.998 -1.473,144.689 -2.801,171.027 -15.431,108.241 -9.998,47.819 0,0"
                   style="fill:#6b3dc3;fill-opacity:1;fill-rule:nonzero;stroke:none"
                   id="path296"
                   inkscape:connector-curvature="0" /></g></g></g></g><g
           id="g304"
           transform="translate(1971.2705,2939.9258)"><path
             d="m 0,0 c -17.04,0 -27.509,-1.32 -27.895,-1.373 -0.23,-0.03 -0.47,-0.056 -0.702,-0.069 -1.458,-0.095 -147.519,-10.89 -224.428,-131.516 -62.231,-97.665 -57.073,-205.336 -41.786,-278.462 v -0.003 c 15.5,-74.26 61.515,-136.185 126.242,-169.891 62.109,-32.318 129.979,-45.101 201.72,-38 0.105,0.013 0.216,0.024 0.28,0.033 71.746,7.175 135.819,33.135 190.441,77.158 56.815,45.832 89.701,115.643 90.225,191.525 0.503,74.697 -15.752,181.252 -96.053,264.666 C 145.124,-10.185 47.288,0 0,0 m -5.034,-640.759 c -60.848,-0.003 -118.725,14.105 -172.556,42.115 -69.947,36.427 -119.642,103.211 -136.344,183.228 v -0.002 c -16.029,76.679 -21.332,189.749 44.436,292.96 81.197,127.355 229.045,139.779 239.316,140.489 10.219,1.339 157.573,18.37 262.301,-90.414 84.857,-88.148 102.04,-200.021 101.512,-278.348 -0.564,-81.769 -36.1,-157.07 -97.497,-206.597 -57.594,-46.422 -125.095,-73.8 -200.624,-81.379 -0.107,-0.014 -0.221,-0.028 -0.286,-0.033 -13.55,-1.348 -26.98,-2.019 -40.258,-2.019"
             style="fill:#310080;fill-opacity:1;fill-rule:nonzero;stroke:none"
             id="path306"
             inkscape:connector-curvature="0" /></g><g
           id="g308"
           transform="translate(1997.4302,2848.5981)"><path
             d="m 0,0 c -15.536,0 -25.19,-1.194 -25.529,-1.239 -0.194,-0.028 -0.395,-0.047 -0.589,-0.058 -1.218,-0.084 -123.238,-9.37 -188.087,-102.944 -52.328,-75.543 -48.71,-158.348 -36.459,-214.507 v -0.005 c 12.4,-56.942 50.225,-104.225 103.778,-129.723 51.574,-24.607 108.138,-34.077 168.14,-28.157 0.135,0.019 0.267,0.039 0.38,0.05 59.994,5.989 113.68,26.464 159.564,60.858 47.527,35.645 75.284,89.482 76.154,147.704 0.858,57.507 -12.001,139.415 -78.145,203.044 C 119.988,-8.038 40.261,0 0,0 m -13.079,-496.207 c -49.975,-0.003 -97.423,10.583 -141.492,31.607 -58.573,27.891 -99.961,79.664 -113.544,142.049 v -0.006 c -13.006,59.626 -16.756,147.665 39.23,228.487 68.86,99.363 192.676,109.954 201.291,110.572 8.569,1.098 132.034,15.189 219.18,-68.605 70.771,-68.078 84.538,-155.137 83.624,-216.185 -0.952,-63.791 -31.313,-122.74 -83.297,-161.725 -48.462,-36.327 -105.06,-57.966 -168.235,-64.318 -0.138,-0.019 -0.274,-0.038 -0.388,-0.049 -12.257,-1.217 -24.39,-1.827 -36.369,-1.827"
             style="fill:#390075;fill-opacity:1;fill-rule:nonzero;stroke:none"
             id="path310"
             inkscape:connector-curvature="0" /></g><g
           id="g312"
           transform="translate(2151.6611,2110.8682)"><path
             d="m 0,0 c 16.992,-0.374 43.551,0.271 74.837,5.329 14.067,2.274 23.181,16.1 19.654,29.906 v 0 C 91.435,47.202 79.865,54.925 67.634,53.213 47.147,50.348 26.023,46.628 1.577,47.517 -13.363,48.06 -25.166,35.001 -22.935,20.219 -21.211,8.803 -11.543,0.253 0,0"
             style="fill:#ffffff;fill-opacity:1;fill-rule:nonzero;stroke:none"
             id="path314"
             inkscape:connector-curvature="0" /></g><g
           id="g316"
           transform="translate(2152.3525,2157.0068)"><path
             d="m 0,0 c -6.444,0 -12.541,-2.715 -16.834,-7.526 -4.435,-4.97 -6.407,-11.597 -5.413,-18.184 1.631,-10.79 10.709,-18.794 21.587,-19.034 16.752,-0.356 43.307,0.257 74.584,5.313 6.336,1.022 11.985,4.683 15.5,10.045 3.553,5.419 4.626,11.862 3.023,18.137 C 89.568,0.025 78.689,7.309 67.136,5.694 64.467,5.321 61.788,4.931 59.094,4.541 40.966,1.921 22.211,-0.788 0.835,-0.017 0.555,-0.006 0.276,0 0,0 m 7.394,-47.623 c -2.911,0 -5.621,0.034 -8.116,0.09 -12.238,0.267 -22.451,9.271 -24.284,21.405 -1.119,7.412 1.1,14.871 6.089,20.459 5.033,5.641 12.273,8.74 19.853,8.442 21.131,-0.774 39.752,1.927 57.757,4.53 2.701,0.393 5.384,0.78 8.056,1.153 12.963,1.823 25.171,-6.36 28.402,-19.014 1.774,-6.944 0.537,-14.364 -3.394,-20.359 -3.943,-6.014 -10.28,-10.121 -17.388,-11.271 -26.828,-4.337 -50.205,-5.435 -66.975,-5.435"
             style="fill:#390075;fill-opacity:1;fill-rule:nonzero;stroke:none"
             id="path318"
             inkscape:connector-curvature="0" /></g><g
           id="g320"><g
             id="g322" /><g
             id="g334"><g
               clip-path="url(#clipPath326)"
               id="g332"
               style="opacity:0.30000299"><g
                 transform="translate(2245.3477,2148.6489)"
                 id="g330"><path
                   d="m 0,0 c 0.313,-0.834 0.581,-1.686 0.803,-2.554 3.533,-13.799 -5.58,-27.629 -19.661,-29.894 -31.277,-5.067 -57.832,-5.713 -74.83,-5.337 -9.836,0.231 -18.32,6.473 -21.666,15.369 -0.582,1.544 -1.014,3.163 -1.261,4.85 -0.722,4.824 0.036,9.464 1.934,13.511 3.846,-7.739 11.712,-12.996 20.723,-13.186 16.996,-0.376 43.553,0.27 74.834,5.322 8.393,1.358 15.01,6.827 18.253,13.954 C -0.554,1.378 -0.262,0.695 0,0"
                   style="fill:#35abdf;fill-opacity:1;fill-rule:nonzero;stroke:none"
                   id="path328"
                   inkscape:connector-curvature="0" /></g></g></g></g><g
           id="g336"
           transform="translate(2152.3555,2149.8481)"><path
             d="m 0,0 c -4.405,0 -8.567,-1.852 -11.497,-5.134 -3.011,-3.375 -4.351,-7.874 -3.675,-12.348 1.109,-7.34 7.276,-12.783 14.666,-12.947 16.464,-0.363 42.543,0.25 73.284,5.223 4.421,0.713 8.205,3.166 10.657,6.902 2.437,3.72 3.174,8.139 2.074,12.443 C 83.532,1.874 76.066,6.875 68.125,5.764 65.467,5.391 62.799,5.006 60.115,4.617 41.675,1.946 22.612,-0.81 0.571,-0.011 0.381,-0.002 0.19,0 0,0 m 7.382,-47.62 c -2.964,0 -5.722,0.034 -8.264,0.09 -15.726,0.345 -28.85,11.908 -31.205,27.491 -1.437,9.528 1.415,19.112 7.827,26.295 6.458,7.237 15.781,11.19 25.452,10.828 20.493,-0.737 38.783,1.905 56.473,4.464 2.712,0.392 5.405,0.782 8.09,1.155 16.569,2.339 32.194,-8.138 36.329,-24.331 2.27,-8.885 0.687,-18.382 -4.344,-26.053 C 92.698,-35.374 84.595,-40.628 75.508,-42.095 48.23,-46.506 24.447,-47.62 7.382,-47.62"
             style="fill:#310080;fill-opacity:1;fill-rule:nonzero;stroke:none"
             id="path338"
             inkscape:connector-curvature="0" /></g><g
           id="g340"
           transform="translate(1781.833,2075.9888)"><path
             d="m 0,0 c 16.993,-0.374 103.832,0.271 135.118,5.329 14.067,2.274 23.18,16.1 19.654,29.906 -3.056,11.966 -14.626,19.69 -26.857,17.978 C 107.428,50.347 26.024,46.628 1.577,47.516 -13.363,48.059 -25.166,35.001 -22.934,20.219 -21.21,8.803 -11.542,0.253 0,0"
             style="fill:#ffffff;fill-opacity:1;fill-rule:nonzero;stroke:none"
             id="path342"
             inkscape:connector-curvature="0" /></g><g
           id="g344"><g
             id="g346" /><g
             id="g370"><g
               clip-path="url(#clipPath350)"
               id="g368"
               style="opacity:0.30000299"><g
                 id="g366"><g
                   id="g356" /><g
                   id="g364"><g
                     clip-path="url(#clipPath354)"
                     id="g362"
                     style="opacity:0.30000299"><g
                       transform="translate(1935.8008,2113.7695)"
                       id="g360"><path
                         d="m 0,0 c 0.313,-0.834 0.581,-1.686 0.802,-2.555 3.534,-13.798 -5.579,-27.629 -19.661,-29.894 -31.276,-5.066 -118.113,-5.712 -135.11,-5.336 -9.837,0.231 -18.32,6.473 -21.667,15.368 -0.581,1.545 -1.013,3.163 -1.26,4.851 -0.722,4.824 0.036,9.464 1.934,13.51 3.846,-7.738 11.712,-12.995 20.723,-13.185 16.996,-0.376 103.833,0.27 135.115,5.321 8.393,1.359 15.01,6.828 18.252,13.955 C -0.554,1.378 -0.262,0.695 0,0"
                         style="fill:#6b3dc3;fill-opacity:1;fill-rule:nonzero;stroke:none"
                         id="path358"
                         inkscape:connector-curvature="0" /></g></g></g></g></g></g></g><g
           id="g372"
           transform="translate(1782.5278,2114.9697)"><path
             d="m 0,0 c -4.405,0 -8.568,-1.852 -11.498,-5.134 -3.011,-3.375 -4.349,-7.877 -3.673,-12.351 1.108,-7.34 7.275,-12.78 14.665,-12.945 17.648,-0.389 103.445,0.351 133.565,5.223 4.421,0.713 8.205,3.166 10.656,6.903 2.438,3.72 3.174,8.138 2.075,12.443 -1.976,7.735 -9.438,12.73 -17.387,11.624 C 107.421,2.826 24.979,-0.902 0.572,-0.011 0.382,-0.003 0.189,0 0,0 m 11.527,-47.628 c -5.369,0 -9.639,0.036 -12.409,0.097 -15.729,0.345 -28.851,11.906 -31.204,27.489 -1.439,9.528 1.413,19.112 7.825,26.298 6.457,7.234 15.77,11.182 25.454,10.828 23.873,-0.863 104.386,2.759 124.841,5.619 16.581,2.333 32.196,-8.141 36.33,-24.332 2.27,-8.885 0.687,-18.382 -4.343,-26.053 -5.042,-7.693 -13.146,-12.946 -22.232,-14.414 -26.977,-4.36 -93.562,-5.532 -124.262,-5.532"
             style="fill:#310080;fill-opacity:1;fill-rule:nonzero;stroke:none"
             id="path374"
             inkscape:connector-curvature="0" /></g><g
           id="g376"
           transform="translate(1951.2651,2046.2002)"><path
             d="m 0,0 189.504,17.669 c 10.845,1.011 18.89,10.711 17.879,21.555 l -9.975,106.999 c -1.012,10.844 -10.711,18.89 -21.556,17.879 L -13.653,146.433 c -10.844,-1.011 -18.889,-10.711 -17.878,-21.555 L -21.555,17.879 C -20.544,7.035 -10.844,-1.011 0,0"
             style="fill:#ffffff;fill-opacity:1;fill-rule:nonzero;stroke:none"
             id="path378"
             inkscape:connector-curvature="0" /></g><g
           id="g380"
           transform="translate(2128.9727,2208.9922)"><path
             d="M 0,0 C -0.572,0 -1.148,-0.028 -1.727,-0.081 L -191.23,-17.747 c -10.106,-0.944 -17.561,-9.935 -16.62,-20.039 l 9.976,-106.997 c 0.944,-10.107 9.954,-17.535 20.038,-16.619 l 189.503,17.669 c 10.106,0.941 17.562,9.931 16.62,20.038 L 18.311,-16.7 c -0.455,4.875 -2.795,9.294 -6.592,12.443 C 8.372,-1.481 4.266,0 0,0 m -177.707,-162.792 h 0.028 z m -1.853,-1.481 c -10.809,0 -20.069,8.258 -21.092,19.229 l -9.976,107 c -1.085,11.638 7.5,21.987 19.139,23.076 L -1.985,2.698 C 3.624,3.219 9.13,1.518 13.501,-2.11 c 4.37,-3.623 7.065,-8.713 7.589,-14.328 l 9.975,-106.998 c 1.085,-11.641 -7.501,-21.99 -19.138,-23.076 l -189.505,-17.669 c -0.665,-0.061 -1.326,-0.092 -1.982,-0.092"
             style="fill:#390075;fill-opacity:1;fill-rule:nonzero;stroke:none"
             id="path382"
             inkscape:connector-curvature="0" /></g><g
           id="g384"
           transform="translate(2128.96,2201.8335)"><path
             d="m 0,0 c -0.348,0 -0.697,-0.017 -1.047,-0.05 l -189.507,-17.666 c -6.174,-0.576 -10.732,-6.07 -10.157,-12.245 l 9.976,-107 c 0.578,-6.176 6.076,-10.742 12.247,-10.155 l 189.504,17.669 c 6.175,0.574 10.732,6.067 10.157,12.245 L 11.197,-10.204 C 10.92,-7.233 9.487,-4.536 7.163,-2.609 5.112,-0.908 2.602,0 0,0 m -177.694,-155.633 h 0.027 z m -1.859,-8.639 c -14.459,0 -26.844,11.044 -28.213,25.723 l -9.976,107.001 c -1.451,15.564 10.033,29.41 25.598,30.866 L -2.637,16.984 c 7.508,0.702 14.877,-1.578 20.72,-6.426 5.843,-4.845 9.445,-11.655 10.146,-19.175 l 9.976,-106.997 c 1.451,-15.57 -10.033,-29.416 -25.601,-30.867 l -189.505,-17.669 c -0.89,-0.084 -1.775,-0.122 -2.652,-0.122"
             style="fill:#310080;fill-opacity:1;fill-rule:nonzero;stroke:none"
             id="path386"
             inkscape:connector-curvature="0" /></g><g
           id="g388"><g
             id="g390" /><g
             id="g414"><g
               clip-path="url(#clipPath394)"
               id="g412"
               style="opacity:0.30000299"><g
                 id="g410"><g
                   id="g400" /><g
                   id="g408"><g
                     clip-path="url(#clipPath398)"
                     id="g406"
                     style="opacity:0.30000299"><g
                       transform="translate(2156.4854,2108.5288)"
                       id="g404"><path
                         d="m 0,0 2.159,-23.097 c 1.01,-10.845 -7.036,-20.556 -17.881,-21.566 l -189.499,-17.659 c -10.845,-1.01 -20.536,7.023 -21.546,17.868 l -9.98,107.002 c -0.796,8.54 4.028,16.368 11.395,19.806 l 7.82,-83.904 c 1.026,-10.842 10.718,-18.875 21.562,-17.866 L -6.471,-1.756 C -4.165,-1.542 -1.985,-0.935 0,0"
                         style="fill:#6b3dc3;fill-opacity:1;fill-rule:nonzero;stroke:none"
                         id="path402"
                         inkscape:connector-curvature="0" /></g></g></g></g></g></g></g><g
           id="g416"
           transform="translate(1989.1499,2048.5005)"><path
             d="m 0,0 189.505,17.668 c 10.844,1.012 18.89,10.711 17.878,21.556 l -9.975,106.999 c -1.012,10.844 -10.711,18.89 -21.556,17.879 L -13.653,146.433 c -10.844,-1.011 -18.889,-10.711 -17.878,-21.555 L -21.555,17.879 C -20.544,7.034 -10.844,-1.011 0,0"
             style="fill:#ffffff;fill-opacity:1;fill-rule:nonzero;stroke:none"
             id="path418"
             inkscape:connector-curvature="0" /></g><g
           id="g420"
           transform="translate(2166.8545,2211.2949)"><path
             d="M 0,0 C -0.572,0 -1.146,-0.028 -1.723,-0.081 L -191.228,-17.75 c -4.874,-0.454 -9.293,-2.795 -12.44,-6.59 -3.149,-3.798 -4.633,-8.573 -4.178,-13.446 l 9.976,-107 c 0.943,-10.107 9.905,-17.563 20.036,-16.619 l 189.505,17.669 c 10.106,0.941 17.56,9.931 16.618,20.038 L 18.313,-16.703 C 17.859,-11.828 15.518,-7.409 11.722,-4.26 8.373,-1.484 4.266,0 0,0 m -177.705,-162.794 h 0.028 z m -1.853,-1.482 c -10.81,0 -20.067,8.258 -21.09,19.229 l -9.977,107 c -0.523,5.618 1.184,11.117 4.809,15.485 3.624,4.372 8.713,7.067 14.329,7.591 L -1.981,2.698 c 5.627,0.518 11.115,-1.183 15.484,-4.811 4.37,-3.626 7.065,-8.713 7.589,-14.328 l 9.976,-106.998 c 1.084,-11.641 -7.501,-21.99 -19.137,-23.076 l -189.506,-17.669 c -0.666,-0.061 -1.327,-0.092 -1.983,-0.092"
             style="fill:#390075;fill-opacity:1;fill-rule:nonzero;stroke:none"
             id="path422"
             inkscape:connector-curvature="0" /></g><g
           id="g424"
           transform="translate(2166.8418,2204.1362)"><path
             d="m 0,0 c -0.349,0 -0.696,-0.017 -1.046,-0.05 l -189.505,-17.669 c -2.97,-0.276 -5.668,-1.71 -7.595,-4.034 -1.929,-2.326 -2.838,-5.241 -2.561,-8.211 l 9.977,-107 c 0.576,-6.176 6.054,-10.756 12.245,-10.155 L 11.02,-129.45 c 6.175,0.574 10.731,6.067 10.156,12.245 L 11.199,-10.207 C 10.923,-7.236 9.488,-4.538 7.164,-2.612 5.113,-0.911 2.602,0 0,0 m -177.692,-155.636 h 0.028 z m -1.858,-8.639 c -14.459,0 -26.845,11.047 -28.212,25.723 l -9.976,107.001 c -0.703,7.517 1.58,14.876 6.425,20.72 4.844,5.842 11.654,9.444 19.175,10.146 L -2.633,16.984 C 4.882,17.688 12.244,15.403 18.087,10.555 23.928,5.71 27.531,-1.1 28.232,-8.62 l 9.975,-106.997 c 1.452,-15.57 -10.033,-29.416 -25.6,-30.867 l -189.505,-17.669 c -0.89,-0.084 -1.775,-0.122 -2.652,-0.122"
             style="fill:#310080;fill-opacity:1;fill-rule:nonzero;stroke:none"
             id="path426"
             inkscape:connector-curvature="0" /></g><g
           id="g428"
           transform="translate(1783.916,2743.8813)"><path
             d="m 0,0 c -52.158,-75.295 -48.547,-157.855 -36.332,-213.853 12.344,-56.693 50.003,-103.765 103.319,-129.152 51.433,-24.537 107.848,-33.996 167.68,-28.079 0.142,0.02 0.279,0.039 0.397,0.05 59.842,5.972 113.385,26.395 159.146,60.698 47.317,35.485 74.953,89.083 75.817,147.043 0.859,57.342 -11.958,139.008 -77.886,202.432 -81.767,78.614 -202.83,63.665 -204.047,63.507 -0.21,-0.028 -0.43,-0.051 -0.643,-0.064 C 186.238,102.5 64.606,93.226 -0.001,0 Z m 200.433,-392.328 c -50.097,0 -97.669,10.611 -141.85,31.69 -58.809,27.999 -100.363,79.988 -114.003,142.625 -13.04,59.782 -16.796,148.066 39.36,229.139 h 10e-4 c 69.011,99.58 193.02,110.286 201.895,110.926 8.816,1.122 132.503,15.146 219.846,-68.833 70.986,-68.288 84.795,-155.589 83.88,-216.802 -0.958,-64.055 -31.44,-123.24 -83.632,-162.385 -48.58,-36.415 -105.315,-58.108 -168.634,-64.475 -0.146,-0.022 -0.288,-0.042 -0.41,-0.053 -12.286,-1.223 -24.445,-1.832 -36.453,-1.832"
             style="fill:#310080;fill-opacity:1;fill-rule:nonzero;stroke:none"
             id="path430"
             inkscape:connector-curvature="0" /></g><g
           id="g432"
           transform="translate(1695.3276,2567.8516)"><path
             d="m 0,0 c 2.121,-21.243 0.729,-41.382 -3.448,-58.677 -4.375,-18.105 -11.775,-33.111 -21.356,-42.988 -7.056,-7.314 -15.334,-11.819 -24.42,-12.727 -33.146,-3.308 -64.867,42.532 -70.843,102.407 -5.977,59.875 16.054,111.101 49.201,114.41 9.086,0.907 18.091,-1.873 26.453,-7.649 11.345,-7.787 21.565,-21.034 29.434,-37.939 C -7.465,40.709 -2.121,21.243 0,0"
             style="fill:#ffffff;fill-opacity:1;fill-rule:nonzero;stroke:none"
             id="path434"
             inkscape:connector-curvature="0" /></g><g
           id="g436"
           transform="translate(1627.8945,2669.0508)"><path
             d="m 0,0 c -1.099,0 -2.196,-0.053 -3.294,-0.164 -15.504,-1.545 -29.046,-14.03 -38.129,-35.155 -9.202,-21.397 -12.69,-49 -9.823,-77.726 2.868,-28.726 11.743,-55.093 24.992,-74.243 13.08,-18.902 28.831,-28.463 44.324,-26.913 8.578,0.855 16.504,4.998 23.555,12.307 9.384,9.672 16.646,24.315 21.004,42.346 4.272,17.683 5.452,37.811 3.415,58.208 -2.036,20.403 -7.173,39.902 -14.855,56.388 -7.831,16.825 -17.845,29.75 -28.958,37.379 C 14.939,-2.54 7.476,0 0,0 m 14.795,-217.155 c -15.373,0 -30.641,9.915 -43.344,28.28 -13.514,19.532 -22.561,46.364 -25.473,75.552 -2.914,29.19 0.65,57.283 10.036,79.107 9.503,22.099 23.856,35.176 40.414,36.83 9.26,0.925 18.467,-1.731 27.386,-7.89 11.521,-7.908 21.863,-21.222 29.906,-38.496 7.813,-16.77 13.034,-36.58 15.1,-57.289 2.069,-20.707 0.867,-41.158 -3.479,-59.144 -4.474,-18.513 -11.982,-33.601 -21.712,-43.63 -7.518,-7.796 -16.026,-12.22 -25.281,-13.144 -1.184,-0.117 -2.368,-0.176 -3.553,-0.176"
             style="fill:#390075;fill-opacity:1;fill-rule:nonzero;stroke:none"
             id="path438"
             inkscape:connector-curvature="0" /></g><g
           id="g440"><g
             id="g442" /><g
             id="g454"><g
               clip-path="url(#clipPath446)"
               id="g452"
               style="opacity:0.30000299"><g
                 transform="translate(1695.3252,2567.8555)"
                 id="g450"><path
                   d="m 0,0 c 2.121,-21.243 0.729,-41.382 -3.448,-58.676 -4.375,-18.106 -11.775,-33.112 -21.356,-42.989 -7.056,-7.313 -15.334,-11.819 -24.42,-12.726 -33.146,-3.308 -64.867,42.531 -70.843,102.406 -0.643,6.439 -0.953,12.761 -0.971,18.941 8.429,-35.373 35.782,-60.172 65.412,-57.215 9.086,0.907 17.472,4.333 24.722,9.698 9.843,7.25 17.663,18.063 22.558,30.957 3.269,8.605 5.223,18.169 5.588,28.238 C -1.559,12.615 -0.636,6.375 0,0"
                   style="fill:#6b3dc3;fill-opacity:1;fill-rule:nonzero;stroke:none"
                   id="path448"
                   inkscape:connector-curvature="0" /></g></g></g></g><g
           id="g456"
           transform="translate(1746.1587,2572.9253)"><path
             d="m 0,0 c 5.977,-59.875 -16.057,-111.081 -49.224,-114.391 l -50.831,-5.074 c 9.086,0.907 17.364,5.413 24.42,12.726 9.581,9.877 16.981,24.883 21.356,42.989 4.177,17.294 5.569,37.433 3.448,58.676 -2.121,21.243 -7.465,40.71 -14.979,56.838 -7.869,16.904 -18.089,30.152 -29.434,37.939 -8.362,5.775 -17.367,8.555 -26.453,7.648 l 50.831,5.074 C -37.699,105.736 -5.977,59.875 0,0"
             style="fill:#ffffff;fill-opacity:1;fill-rule:nonzero;stroke:none"
             id="path458"
             inkscape:connector-curvature="0" /></g><g
           id="g460"
           transform="translate(1638.4888,2670.2729)"><path
             d="m 0,0 c 4.458,-1.328 8.872,-3.497 13.22,-6.499 11.521,-7.907 21.863,-21.221 29.905,-38.495 7.813,-16.77 13.035,-36.58 15.101,-57.289 2.069,-20.707 0.866,-41.158 -3.479,-59.144 -4.474,-18.513 -11.982,-33.601 -21.712,-43.63 -3.664,-3.8 -7.564,-6.799 -11.67,-8.979 l 36.942,3.686 c 32.342,3.227 53.863,53.859 47.975,112.864 C 100.39,-38.468 69.276,6.905 36.943,3.689 Z m 7.613,-218.207 c -0.708,0 -1.315,0.537 -1.386,1.255 -0.077,0.769 0.483,1.451 1.249,1.529 8.578,0.855 16.503,4.998 23.555,12.307 9.384,9.672 16.646,24.315 21.004,42.346 4.272,17.683 5.452,37.811 3.415,58.208 -2.036,20.403 -7.174,39.902 -14.855,56.388 -7.831,16.825 -17.845,29.75 -28.958,37.379 -8.352,5.766 -16.926,8.25 -25.486,7.414 l -0.039,-0.005 c -0.78,-0.051 -1.451,0.484 -1.528,1.25 -0.076,0.768 0.484,1.45 1.249,1.528 h 0.019 l 50.813,5.076 c 33.873,3.308 66.349,-43.126 72.393,-103.676 6.043,-60.539 -16.6,-112.538 -50.473,-115.92 l -50.831,-5.074 c -0.047,-0.003 -0.095,-0.005 -0.141,-0.005"
             style="fill:#390075;fill-opacity:1;fill-rule:nonzero;stroke:none"
             id="path462"
             inkscape:connector-curvature="0" /></g><g
           id="g464"><g
             id="g466" /><g
             id="g478"><g
               clip-path="url(#clipPath470)"
               id="g476"
               style="opacity:0.30000299"><g
                 transform="translate(1746.5112,2568.9438)"
                 id="g474"><path
                   d="m 0,0 c 4.628,-58.149 -17.153,-107.168 -49.579,-110.405 l -50.831,-5.074 c 9.086,0.907 17.364,5.413 24.42,12.726 9.581,9.877 16.981,24.883 21.356,42.988 2.408,9.952 2.602,51.128 3.015,62.635 l 6.709,-7.515 C -32.415,-18.642 -9.808,-16.601 -0.263,-0.447 -0.175,-0.298 -0.087,-0.149 0,0"
                   style="fill:#6b3dc3;fill-opacity:1;fill-rule:nonzero;stroke:none"
                   id="path472"
                   inkscape:connector-curvature="0" /></g></g></g></g><g
           id="g480"
           transform="translate(1627.854,2660.6782)"><path
             d="m 0,0 c -0.81,0 -1.616,-0.042 -2.422,-0.123 -12.337,-1.23 -23.443,-11.93 -31.269,-30.131 -8.651,-20.116 -11.913,-46.249 -9.183,-73.588 2.729,-27.337 11.09,-52.306 23.545,-70.309 11.268,-16.286 24.257,-24.58 36.608,-23.347 6.549,0.655 12.726,3.949 18.36,9.79 8.241,8.495 14.943,22.16 18.893,38.499 4.052,16.777 5.166,35.939 3.221,55.409 v 0.003 C 55.81,-74.324 50.93,-55.758 43.641,-40.116 36.544,-24.866 27.272,-12.788 17.533,-6.103 11.655,-2.043 5.773,0 0,0 m 14.792,-217.157 c -18.185,0 -35.855,11.176 -50.186,31.891 -14.307,20.679 -23.867,48.909 -26.919,79.486 -3.052,30.574 0.738,60.137 10.676,83.244 10.76,25.02 27.549,39.885 47.274,41.853 11.13,1.109 22.526,-2.113 32.974,-9.33 12.737,-8.745 24.066,-23.223 32.739,-41.856 8.204,-17.608 13.684,-38.353 15.843,-59.99 v 0.003 c 2.161,-21.634 0.891,-43.051 -3.672,-61.942 -4.827,-19.969 -13.071,-36.391 -23.841,-47.494 -8.794,-9.116 -19.334,-14.535 -30.46,-15.645 -1.478,-0.148 -2.955,-0.22 -4.428,-0.22"
             style="fill:#310080;fill-opacity:1;fill-rule:nonzero;stroke:none"
             id="path482"
             inkscape:connector-curvature="0" /></g><g
           id="g484"
           transform="translate(1664.2681,2664.4346)"><path
             d="m 0,0 c 9.562,-8.757 18.079,-20.894 24.936,-35.625 8.204,-17.608 13.684,-38.354 15.843,-59.99 2.16,-21.632 0.891,-43.048 -3.673,-61.94 -3.814,-15.781 -9.763,-29.349 -17.407,-39.823 l 11.997,1.197 c 27.28,2.723 45.815,50.212 40.474,103.703 C 66.832,-38.98 39.269,3.906 11.995,1.197 Z m -18.176,-220.741 c -4.958,0 -9.204,3.759 -9.708,8.795 -0.536,5.368 3.381,10.154 8.749,10.692 h 0.02 c 6.54,0.66 12.711,3.954 18.34,9.79 8.241,8.492 14.943,22.16 18.893,38.498 4.052,16.778 5.166,35.94 3.221,55.41 -1.943,19.476 -6.823,38.042 -14.112,53.684 -7.097,15.249 -16.369,27.328 -26.108,34.013 -6.692,4.622 -13.389,6.626 -19.929,5.983 l -0.026,-0.003 c -5.38,-0.529 -10.155,3.383 -10.691,8.749 -0.536,5.368 3.382,10.154 8.75,10.691 l 50.831,5.076 C 49.176,24.543 84.998,-24.296 91.61,-90.54 98.222,-156.772 72.756,-211.714 33.637,-215.621 l -50.831,-5.073 c -0.33,-0.033 -0.657,-0.047 -0.982,-0.047"
             style="fill:#310080;fill-opacity:1;fill-rule:nonzero;stroke:none"
             id="path486"
             inkscape:connector-curvature="0" /></g><g
           id="g488"
           transform="translate(2142.8926,2062.9453)"><path
             d="m 0,0 c -3.621,0 -6.72,2.745 -7.085,6.426 l -5.797,58.506 c -0.196,1.997 -2.476,3.478 -5.241,3.336 -10.329,-0.532 -19.21,6.665 -20.104,16.271 l -4.928,52.854 c -0.365,3.92 2.515,7.395 6.436,7.76 3.914,0.345 7.394,-2.514 7.758,-6.434 l 4.929,-52.857 c 0.187,-2.008 2.465,-3.5 5.245,-3.355 C -8.428,83.002 0.359,75.888 1.305,66.335 L 7.102,7.829 C 7.489,3.912 4.629,0.423 0.711,0.033 0.472,0.011 0.235,0 0,0"
             style="fill:#310080;fill-opacity:1;fill-rule:nonzero;stroke:none"
             id="path490"
             inkscape:connector-curvature="0" /></g><g
           id="g492"
           transform="translate(2051.9883,2124.9355)"><path
             d="m 0,0 c 0.3,-3.138 -1.688,-28.89 -1.688,-28.89 0,0 -8.025,-0.768 -17.877,-1.711 -12.311,-1.177 -23.509,10.614 -25.013,26.336 -1.505,15.723 7.255,29.423 19.565,30.601 8.308,0.794 17.877,1.71 17.877,1.71 0,0 6.647,-22.934 7.136,-28.046"
             style="fill:#ffffff;fill-opacity:1;fill-rule:nonzero;stroke:none"
             id="path494"
             inkscape:connector-curvature="0" /></g><g
           id="g496"
           transform="translate(2040.6719,2146.8525)"><path
             d="m 0,0 -13.151,-1.259 c -4.173,-0.398 -7.974,-2.97 -10.705,-7.241 -3.011,-4.711 -4.336,-10.798 -3.73,-17.138 0.607,-6.342 3.062,-12.067 6.912,-16.121 3.49,-3.678 7.709,-5.479 11.882,-5.081 l 13.095,1.25 c 0.788,10.703 1.445,21.333 1.335,23.154 C 5.353,-19.585 2.417,-8.573 0,0 m -9.983,-58.303 c -6.929,0 -13.587,3.035 -18.959,8.69 -5.599,5.894 -9.147,14.021 -9.996,22.889 -0.848,8.866 1.095,17.519 5.475,24.369 4.659,7.289 11.486,11.71 19.224,12.451 l 17.878,1.709 c 2.712,0.265 5.254,-1.456 6.018,-4.09 1.135,-3.915 6.821,-23.719 7.335,-29.09 v -0.003 c 0.314,-3.271 -1.07,-21.979 -1.679,-29.87 -0.212,-2.762 -2.383,-4.972 -5.142,-5.237 l -17.878,-1.709 c -0.76,-0.073 -1.521,-0.109 -2.276,-0.109"
             style="fill:#310080;fill-opacity:1;fill-rule:nonzero;stroke:none"
             id="path498"
             inkscape:connector-curvature="0" /></g><g
           id="g500"
           transform="translate(2069.8652,2126.646)"><path
             d="m 0,0 c 1.505,-15.723 -7.255,-29.423 -19.565,-30.601 -12.31,-1.177 -23.508,10.614 -25.013,26.336 -1.504,15.723 7.256,29.423 19.565,30.601 C -12.702,27.514 -1.504,15.723 0,0"
             style="fill:#ffffff;fill-opacity:1;fill-rule:nonzero;stroke:none"
             id="path502"
             inkscape:connector-curvature="0" /></g><g
           id="g504"
           transform="translate(2046.5371,2147.3594)"><path
             d="M 0,0 C -0.381,0 -0.762,-0.02 -1.142,-0.056 -10.301,-0.93 -16.775,-11.87 -15.574,-24.435 -14.371,-37 -5.946,-46.542 3.22,-45.638 c 4.171,0.399 7.971,2.971 10.701,7.242 3.013,4.711 4.338,10.798 3.731,17.141 -0.607,6.342 -3.061,12.067 -6.912,16.121 C 7.567,-1.796 3.793,0 0,0 m 2.091,-57.098 c -14.525,0 -27.302,13.655 -29.017,31.577 -1.802,18.827 9.279,35.344 24.698,36.819 7.731,0.746 15.279,-2.305 21.236,-8.578 5.597,-5.894 9.148,-14.022 9.996,-22.889 0.849,-8.866 -1.095,-17.522 -5.473,-24.372 -4.661,-7.289 -11.488,-11.71 -19.225,-12.451 -0.743,-0.07 -1.482,-0.106 -2.215,-0.106"
             style="fill:#310080;fill-opacity:1;fill-rule:nonzero;stroke:none"
             id="path506"
             inkscape:connector-curvature="0" /></g></g></g></g></svg>