<?xml version="1.0" encoding="UTF-8"?>
<!-- Created with Inkscape (http://www.inkscape.org/) -->
<svg width="604.63mm" height="604.63mm" version="1.1" viewBox="0 0 604.63 604.63" xmlns="http://www.w3.org/2000/svg">
 <g transform="translate(670.49 193.44)">
  <g transform="matrix(.26458 0 0 .26458 -431.54 184.05)">
   <circle class="st0" cx="239.46" cy="-284.16" r="1142.6" fill="#263238"/>
   <g transform="translate(-903.14 -1426.8)">
    <clipPath id="rect1317_1_">
     <path d="m1142.5 0c631 0 1142.6 511.5 1142.6 1142.6 0 631-511.5 1142.6-1142.6 1142.6-631 0-1142.6-511.5-1142.6-1142.6s511.6-1142.6 1142.6-1142.6z"/>
    </clipPath>
    <g class="st1" clip-path="url(#rect1317_1_)">
     <g transform="translate(2163.2 2062)">
      <path class="st2" d="m-620.4 199.6s204.8 86.2 228.1 282-127.6 311.8-127.6 311.8 95.5 46.9 78.2 109.4c-21.6 78.1-206.4 45.9-279.3 19.8-112.3-40.3-30.7-183.6-3.6-239.8 46.7-97-66.5-238.9-66.5-238.9z" fill="#fff"/>
     </g>
     <g transform="translate(2073 1930.4)">
      <path class="st3" d="m-697.6 575.4c12.7 16.4 110.4 147 65.6 240.1-2 4.1-4.3 8.8-6.8 13.8-23.3 46.9-62.2 125.4-40.9 178.4 8.2 20.3 24.9 35.1 49.8 44.1 56.8 20.4 187.8 45.6 247.5 14.7 15.1-7.8 24.6-18.8 28.5-32.7 16.5-59.8-75.9-106-76.8-106.4-0.8-0.4-1.3-1.2-1.4-2.1s0.3-1.8 1-2.3c1.5-1.2 149.5-117.4 126.6-309.4-21.7-181.9-203.9-269.7-224.7-279.1zm235.8 510.9c-63.2 0-135.2-17.3-169.9-29.7-26.3-9.4-44.1-25.3-52.9-47-22.2-55.1 17.4-134.9 41-182.6 2.5-5 4.8-9.6 6.8-13.7 45.4-94.4-65-234.8-66.2-236.2-0.7-0.9-0.8-2.2-0.1-3.1l170.7-244.3c0.7-1 2-1.4 3.1-0.9 2.1 0.9 206.4 89.1 229.7 284.1 21.4 179.3-103.9 293.4-125.5 311.6 17.6 9.4 91.9 53 76 110.6-4.2 15.3-14.7 27.4-31.1 35.9-21.2 11.1-50.4 15.3-81.6 15.3" fill="#390075"/>
     </g>
     <clipPath id="SVGID_2_">
      <rect x="1372.1" y="2261.6" width="288.2" height="571.7"/>
     </clipPath>
     <g class="st4" clip-path="url(#SVGID_2_)" opacity=".3">
      <g transform="translate(2217 1889.7)">
       <path class="st5" d="m-574.4 691.7c-51.4 155.5-176 224.8-243.9 251.9 12.3-35 29.8-67.7 39.8-88.5 46.7-97-66.5-238.9-66.5-238.9l170.7-244.3s38.7 16.3 84.4 50.8c30 73.4 48.8 168.5 15.5 269" fill="#6b3dc3"/>
      </g>
     </g>
     <g transform="translate(2083.3 1930.6)">
      <path class="st6" d="m-688.8 574.9c26.5 36.7 104.1 156.5 60.4 247.1-2 4.2-4.3 8.9-6.9 14-20.7 41.6-59.1 119.1-40.4 165.7 6.5 16.3 19.8 27.8 40.6 35.2 64 23 184.5 41.7 235.1 15.5 11.2-5.8 18-13.4 20.6-23 12.9-46.8-67.9-88-68.7-88.4-5.6-2.8-9.4-8.2-10-14.5-0.6-6.2 2-12.4 7-16.2 1.4-1.1 142.4-112.5 120.6-295.3-18.3-154.5-159.8-238.4-204-261zm216.8 526.4c-65.9 0-139.7-17.5-175.2-30.3-30.7-11-51.5-29.8-62-55.8-24.8-61.6 16.7-145.3 41.5-195.3 2.4-4.9 4.7-9.5 6.7-13.6 41.3-85.7-63.3-218.4-64.3-219.7-5-6.3-5.3-15.1-0.7-21.7l170.7-244.3c4.9-7 14-9.6 21.9-6.3 8.8 3.7 214.8 92.7 239.1 296.6 19.3 161.8-72.9 270.6-114.9 311 30.8 20.4 80 62.6 65 117.2-5.4 19.7-18.5 35-38.9 45.6-23.5 12.1-55.2 16.6-88.9 16.6" fill="#310080"/>
     </g>
     <g transform="translate(2312.4 2251.6)">
      <path class="st2" d="m-492.7-341.9c-57.6 32.7-146.6 33.4-219.1 26.6-67.6-6.4-120.8-19.5-120.8-19.5l-75.9-72.2-191.5-182.2-33.5-31.9s73.3 20.8 172.6 35.5c52.7 7.8 112.7 13.9 172.9 14.2 12.8 0.1 25.6-0.1 38.3-0.6 42.2-1.6 83.7-6.5 122.1-16 32.4-8 62.6-19.4 89.2-34.8 0 0 194.6-151.7 263.3-51.6 54.1 78.8-44.8 234.4-217.6 332.5" fill="#fff"/>
     </g>
     <clipPath id="SVGID_4_">
      <rect x="1178.9" y="1586" width="873.2" height="353.8"/>
     </clipPath>
     <g class="st7" clip-path="url(#SVGID_4_)" opacity=".3">
      <g transform="translate(2312.4 2251.6)">
       <path class="st5" d="m-492.7-341.9c-111.3 63.2-339.9 7-339.9 7l-300.9-286.1s51.8 14.7 127.3 28.1l173.6 165.1s228.6 56.1 339.9-7.1c114.1-64.8 195.9-154.5 222.9-230.8 41.7 81.1-56.2 229.2-222.9 323.8" fill="#6b3dc3"/>
      </g>
     </g>
     <g transform="translate(2231.3 2225.6)">
      <path class="st6" d="m-562.1-267.7c-96.1 0-187.7-22.1-193.8-23.5-9.7-2.4-15.7-12.2-13.3-21.9s12.2-15.7 21.9-13.3c2.2 0.5 222.9 53.7 326.6-5.2 113.5-64.5 201.9-160.6 220-239.2 6.3-27.3 3.5-49.9-8.4-67.2-9.8-14.3-23.1-22.6-40.8-25.3-63.3-9.8-163.3 55.1-196.5 80.9-0.6 0.5-1.3 1-2 1.4-200.9 117.3-592.6 8.1-609.2 3.4-9.6-2.7-15.2-12.8-12.5-22.4s12.8-15.2 22.4-12.5c3.9 1.1 392.1 109.3 580 0.7 13.3-10.2 134.8-101 223.2-87.4 27.7 4.3 49.6 17.9 65.1 40.6 17.6 25.6 22.4 58.8 13.8 95.9-20.6 89.3-113.8 192.3-237.5 262.6-42.9 24.6-101.8 32.4-159 32.4" fill="#310080"/>
     </g>
     <g transform="translate(1837.4 2385.9)">
      <path class="st2" d="m-899.2-725.5s-209.5-0.5-291.7 64.2c-66.8 52.5-146.6 582.7 37.3 685.7 99.9 55.9 355.8 51.4 355.8 51.4z" fill="#fff"/>
     </g>
     <clipPath id="SVGID_6_">
      <rect x="570.5" y="1991.3" width="469.1" height="470.5"/>
     </clipPath>
     <g class="st8" clip-path="url(#SVGID_6_)" opacity=".3">
      <g transform="translate(1881.7 2035.8)">
       <path class="st5" d="m-861.3 274.5 19.1 151.4s-255.9 4.6-355.8-51.4c-103.6-58-123.5-251.6-109.3-419 7.3 118.8 38.8 226.7 111.7 267.6 82.4 46.1 270.6 51.1 334.3 51.4" fill="#6b3dc3"/>
      </g>
     </g>
     <g transform="translate(1828.8 2376)">
      <path class="st6" d="m-906.5-697.2c-49.4 1.4-200.8 9.9-264.6 60-31.5 24.8-81.1 228.6-66.5 416.4 6.8 87 29.9 199.2 101.4 239.2 78.6 44 264.7 48.8 326.4 49.1zm101.6 801.1c-58.7 0-259.6-3.8-349-53.8-85.5-47.9-112.4-172.2-119.9-268.1-13.7-176.2 27.5-406.3 80.2-447.7 86.2-67.8 294-68.2 303-68 9.1 0 16.8 6.8 17.9 15.9l101.4 801.2c0.6 5.1-0.9 10.2-4.3 14.1s-8.2 6.2-13.4 6.3c-1.3 0-7 0.1-15.9 0.1" fill="#310080"/>
     </g>
     <g transform="translate(1676.1 2130.2)">
      <path class="st2" d="m-1037.3 4.9c5.5-6.2 153.6 4 161.7 10.6s34.2 185.9-3.9 206.2c-37.8 20.2-93.4 9.9-120.3-15.8-39.5-37.8-43-194.8-37.5-201" fill="#fff"/>
     </g>
     <g transform="translate(1677.1 2129.2)">
      <path class="st3" d="m-1036.4 7.7c-4.9 12.4-0.4 161.3 37.4 197.4 24.8 23.6 79 35.8 117.3 15.4 7-3.8 12.2-14.2 15.4-31 11.1-58.9-6.8-165-12-171-8.6-6.1-146.7-15.4-158.1-10.8m110.2 228.2c-29.8 0-59.5-11-76.4-27.1-38.1-36.4-46-195.3-37.7-204.7 4.1-4.6 46.8-2.7 82-0.4 12.8 0.9 76.8 5.4 83.3 10.7 7.5 6.1 21.4 102.1 15.9 159.4-2.7 28.2-9.5 45.3-20.3 51.1-14.1 7.7-30.5 11-46.8 11" fill="#390075"/>
     </g>
     <clipPath id="SVGID_8_">
      <rect x="649.8" y="2140" width="167" height="222.5"/>
     </clipPath>
     <g class="st10" clip-path="url(#SVGID_8_)" opacity=".3">
      <g transform="translate(1761.1 2013.3)">
       <path class="st5" d="m-964.5 338.5c-37.8 20.1-93.4 9.9-120.3-15.8-11.8-11.3-20.4-33.2-26.5-58.6 29.3 16.3 72.5 20.3 103.6 3.7 23.5-12.6 22.6-85.4 16.6-141.1 16.5 1.9 28.4 3.9 30.6 5.6 8 6.6 34.2 185.9-4 206.2" fill="#6b3dc3"/>
      </g>
     </g>
     <g transform="translate(1679 2122.5)">
      <path class="st6" d="m-885.4 37m-141.2-10.8c-1.7 34.6 6.1 148.9 34.7 176.2 21.5 20.6 69.8 30.6 102.2 13.3 4.2-2.2 14.5-22.3 11.4-87.5-2-42.3-8.3-79.2-11.8-92.4-23.7-4.7-107.8-10.6-136.5-9.6m98.3 229.4c-33.2 0-66-12.4-85.2-30.8-19.7-18.8-33.3-59.8-40.4-121.9-1-8.9-9.6-87.7 2-100.8 5.1-5.8 9.1-10.3 92.5-4.7 80.6 5.4 87.1 10.7 90.6 13.5 3.6 2.9 10.3 8.3 17.5 68 2.7 22.6 6.7 65.9 3.2 102.7-3.2 33.7-11.8 53.1-27.1 61.3-16.2 8.9-34.7 12.7-53.1 12.7" fill="#310080"/>
     </g>
     <g transform="translate(2212 2046)">
      <path class="st2" d="m-578.7 245.2c-43 237.1-236.5 260.2-236.5 260.2 83.1 208.6-76 515.6-76 515.6s81.1 27.9 86.2 80.8c4.6 48.2-117 106.6-277.4 66.1-246.1-62 46.7-424.3-210.1-715.3-58-65.7-89.9-144.5-104.6-227.1-4.1-23.4-6.9-47.2-8.5-71-5-74.7 1.7-150.3 13.9-220.6 11.7-67.3 28.5-129.6 44.9-181.3 10.5-33.1 20.9-61.9 29.7-84.8 3.4-8.8 6.5-16.8 9.4-23.8 9.2-22.7 15.2-35.4 15.2-35.4l144.5 3.8 35.1 1 113.4 3 308.5 8.2s1.2 3.4 3.5 9.7c1.7 4.8 4 11.2 6.8 19.1 6.2 18 14.8 43.5 24.4 74.4 14.1 45.2 30.5 101.7 45 162.5 13.9 58 26.1 119.8 33 179.2 3.6 31 5.8 61.2 6 90 0.3 30.6-1.6 59.6-6.4 85.7" fill="#fff"/>
     </g>
     <clipPath id="SVGID_10_">
      <rect x="806.3" y="2027.7" width="833.3" height="1199.9"/>
     </clipPath>
     <g class="st11" clip-path="url(#SVGID_10_)" opacity=".3">
      <g transform="translate(2215.4 2092.2)">
       <path class="st5" d="m-575.7 113.3c-3.7 0.5-7.4 1-11.1 1.4-39.6 4.8-10.6-2.7-35.7-2.9l4.4 47.1c1.9 20.1-13 38.1-33.2 40l-447.1 44.2c-20.1 1.9-38.1-13.1-40-33.2l-2.9-31.7c-1 0.7-12.1-0.2-27.5 1-26 2-57.6 3.4-88.4 4.3-41.4 1.2-67.4 45.3-48.2 82 15.2 29.1 33.9 56.8 56.6 82.5 256.8 291-35.9 653.3 210.1 715.3 97.4 24.6 180.6 12.7 229.8-11.3 0.2 1.2 0.4 2.4 0.5 3.7 4.6 48.2-117 106.6-277.4 66.1-246.1-62 46.7-424.3-210.1-715.3-58-65.7-89.9-144.5-104.6-227.1-4.1-23.4-6.9-47.2-8.5-71 8.2-7.6 19.3-12.1 31.7-11.7 5.4 0.2 12.3 0.3 20.2 0.2 59.4-0.2 180.7-6.1 214.2-10.8 9.3-1.3 18.3 0.4 26.2 4.3l-7.7-82c-1.9-20.1 13.1-38.1 33.2-40l351.7-32.8c20.1-1.9 38.1 13 40 33.1l5.9 63.2c0.8 0 1.7-0.1 2.6 0 40.1 1.4 75.4-3.8 109.3-8.7 3.5 31 5.7 61.3 6 90.1" fill="#6b3dc3"/>
      </g>
     </g>
     <clipPath id="SVGID_12_">
      <rect x="804.7" y="1654.7" width="137.3" height="545.9"/>
     </clipPath>
     <g class="st12" clip-path="url(#SVGID_12_)" opacity=".3">
      <clipPath id="SVGID_14_">
       <rect x="804.7" y="1654.7" width="137.3" height="545.9"/>
      </clipPath>
      <g class="st13" clip-path="url(#SVGID_14_)" opacity=".3">
       <g transform="translate(1791.7 2126.4)">
        <path class="st5" d="m-938.3 15.6c1 15.7 2.6 31.5 4.8 47.1-8 0-14.8 0-20.2-0.2-12.3-0.5-23.4 4.1-31.7 11.7-17.7-266.5 113.1-545.9 113.1-545.9l22.5 0.6c-36.9 96-101.2 294.7-88.5 486.7" fill="#6b3dc3"/>
       </g>
      </g>
     </g>
     <g transform="translate(1833.6 2379.1)">
      <path class="st6" d="m-902.5-706c-15.4 35.5-64.4 155-90.8 297.9-28.6 154.9-35.7 370.2 92.7 515.6 137 155.2 123.5 328.5 112.8 467.7-11 141.7-12 216.8 88.2 242 120.3 30.3 210.4 1.5 241.6-25.3 8.9-7.6 13.9-15.7 13.3-21.5-3.2-33.7-54.6-58.6-74.1-65.4-5-1.7-9-5.5-10.9-10.4s-1.7-10.4 0.7-15.1c1.6-3 154.3-302.2 75.3-500.6-2.1-5.2-1.6-11.1 1.3-16 2.9-4.8 7.8-8.1 13.4-8.7 7.3-0.9 180.9-25.1 220.8-245.5 34-187.4-83.6-532.4-107.4-599.6zm303.5 1572.5c-33.7 0-70.5-4.2-109.4-14-134.6-33.9-125.7-147.9-115.5-280 10.2-132.4 23-297.3-103.8-440.9-109.4-123.9-144.3-313.1-101.1-547 32.3-174.7 95.6-311 98.2-316.7 3.1-6.5 9.6-10.8 16.9-10.4l601.5 15.9c7.4 0.2 13.9 4.9 16.5 11.8 6.3 16.8 152.6 413.2 113.3 630.2-23.3 128.7-90.2 196.6-142.2 230.9-34.8 22.9-67.4 34.2-88 39.6 59.6 185-43.7 425.8-75.4 492.9 27.3 13 75.1 42.1 79.5 88.3 1.2 12.8-2.3 32.3-25.8 52.5-30.5 26.1-89.8 46.9-164.7 46.9" fill="#310080"/>
     </g>
     <g transform="translate(1933.5 2398.8)">
      <path class="st2" d="m-817-762.1-17.4 22.8-70 91.7-68.4 89.6-96.1 125.9s-17 5.7-44.3 13.3c-68.7 19.2-202.5 50.5-292.5 33.3-235.3-45-308.3-207.7-267.3-294 43.1-90.8 198.7-24.7 250.9 0.7 16.7 8.1 34.2 14.4 52.3 18.3 66.8 14.4 142.4 11.4 215.7 0 39.7-6.1 78.8-14.7 115.5-24.4 10.9-2.8 21.6-5.8 32-8.8 55.2-15.9 103.2-33.3 137.1-46.6 32-12.5 51.5-21.4 52.5-21.8" fill="#fff"/>
     </g>
     <clipPath id="SVGID_16_">
      <rect x="249.7" y="1684.9" width="619.4" height="333.4"/>
     </clipPath>
     <g class="st14" clip-path="url(#SVGID_16_)" opacity=".35">
      <g transform="translate(1797.7 2220.9)">
       <path class="st5" d="m-933.2-254.2s-211.1 70.6-336.8 46.6c-235.3-45-308.3-207.7-267.3-294 7.6-16 18.6-27.1 31.9-34.4 2.8 87.8 86.8 202.1 278.1 238.7 71.5 13.7 170.5-3.3 242.7-20.4 37-8.9 67.8 29.1 51.4 63.5" fill="#6b3dc3"/>
      </g>
     </g>
     <g transform="translate(1648.3 2183.4)">
      <path class="st6" d="m-1061-147c-22.2 0-43.5-1.6-63-5.3-128.3-24.6-227-88.2-270.8-174.5-25.7-50.8-29.2-103.6-9.5-145.1 11.4-24 30-40.6 55.2-49.5 68-23.8 167.1 15.8 220 41.6 15.9 7.7 32.1 13.4 48.2 16.9 217.5 46.9 538.3-98.9 541.5-100.4 9.1-4.2 19.9-0.2 24 8.9 4.2 9.1 0.2 19.9-8.9 24-13.6 6.2-335 152.3-564.2 102.9-19-4.1-37.9-10.7-56.4-19.7-30.1-14.6-132.8-60.8-192.2-40-16 5.6-27.3 15.7-34.5 30.8-14.6 30.8-11.2 73.1 9.1 113.2 38.6 76.2 128 132.8 245.3 155.2 119.6 22.9 325.5-45.3 327.6-46 9.5-3.2 19.8 1.9 22.9 11.4 3.2 9.5-1.9 19.8-11.4 22.9-7.4 2.7-158.5 52.7-282.9 52.7" fill="#310080"/>
     </g>
     <g transform="translate(2345.5 2632.7)">
      <path class="st2" d="m-464.4-1430.3c11.1 111.1-29.8 206.1-91.3 212.3l-94.3 9.4c16.9-1.7 32.2-10 45.3-23.6 17.8-18.3 31.5-46.2 39.6-79.8 7.7-32.1 10.3-69.5 6.4-108.9s-13.9-75.5-27.8-105.5c-14.6-31.4-33.6-56-54.6-70.4-15.5-10.7-32.2-15.9-49.1-14.2l94.3-9.4c61.5-6.2 120.4 79 131.5 190.1" fill="#fff"/>
     </g>
     <g transform="translate(2237.8 2730.1)">
      <path class="st3" d="m-556.6-1708.3c8.3 2.5 16.5 6.5 24.5 12.1 21.4 14.7 40.6 39.4 55.5 71.4 14.5 31.1 24.2 67.9 28 106.3s1.6 76.4-6.5 109.8c-8.3 34.4-22.2 62.4-40.3 81-6.8 7-14 12.6-21.7 16.7l68.6-6.8c28.8-2.9 53.9-26 70.8-65.2 17.1-39.7 23.6-90.9 18.2-144.2-10.9-109.5-68.6-193.7-128.7-187.8zm14.2 404.9c-1.3 0-2.4-1-2.6-2.3-0.1-1.4 0.9-2.7 2.3-2.8 15.9-1.6 30.6-9.3 43.7-22.8 17.4-17.9 30.9-45.1 39-78.6 7.9-32.8 10.1-70.2 6.3-108-3.8-37.9-13.3-74-27.6-104.6-14.5-31.2-33.1-55.2-53.7-69.4-15.5-10.7-31.4-15.4-47.4-13.7-1.4 0.1-2.7-0.9-2.8-2.3s0.9-2.7 2.3-2.8l94.3-9.4c63-6.2 123.1 80 134.3 192.4 5.4 54.2-1.2 106.3-18.6 146.8-17.6 41-44.3 65.3-75 68.3l-94.3 9.4c-0.1-0.2-0.1-0.2-0.2-0.2" fill="#390075"/>
     </g>
     <clipPath id="SVGID_18_">
      <rect x="1701.5" y="1219" width="182" height="189.1"/>
     </clipPath>
     <g class="st15" clip-path="url(#SVGID_18_)" opacity=".3">
      <g transform="translate(2346.7 2623.8)">
       <path class="st5" d="m-463.3-1404.9c2.3 93.9-33.7 169.8-87.9 176.9l-94 12.2c16.8-2.2 31.9-11 44.6-25 17.2-18.9 30.1-47.1 37.2-80.9 4.3-20.4 6.4-42.8 6.2-66.4l2.4 1.2c29.9 15 65.6 8 89-15.9 0.9-1 1.8-1.7 2.5-2.1" fill="#6b3dc3"/>
      </g>
     </g>
     <g transform="translate(2263.6 2724.3)">
      <path class="st6" d="m-534.5-1691.7c17.7 16.3 33.5 38.8 46.3 66.1 15.2 32.7 25.4 71.2 29.4 111.3s1.6 79.9-6.8 114.9c-7.1 29.3-18.1 54.5-32.3 73.9l22.3-2.2c22.9-2.3 43.5-22.1 58.1-55.9 16.1-37.3 22.1-85.8 17-136.5-9.9-99.3-61.1-178.9-111.7-173.8zm-33.7 409.7c-9.2 0-17.1-7-18-16.3-1-10 6.3-18.8 16.2-19.8 12.1-1.2 23.6-7.3 34-18.2 15.3-15.8 27.7-41.1 35.1-71.4 7.5-31.1 9.6-66.7 6-102.8s-12.7-70.6-26.2-99.6c-13.2-28.3-30.4-50.7-48.5-63.1-12.4-8.6-24.9-12.3-37-11.1-10 1-18.8-6.3-19.8-16.2-1-10 6.3-18.8 16.2-19.8l94.3-9.4c72.5-7.2 139.1 83.4 151.4 206.3 5.7 56.7-1.4 111.6-19.8 154.5-20 46.4-51.1 74-87.8 77.6l-94.3 9.4c-0.6-0.1-1.2-0.1-1.8-0.1" fill="#310080"/>
     </g>
     <clipPath id="SVGID_20_">
      <rect x="600.4" y="611.7" width="1189.8" height="1194.2"/>
     </clipPath>
     <g class="st16" clip-path="url(#SVGID_20_)" opacity=".35">
      <g transform="translate(2196.4 2860.8)">
       <path class="st2" d="m-592-2081.5c-193-200.5-472-162.3-472-162.3s-281 17.7-430.6 252.4c-117.8 184.8-109.8 387.6-80 530.2 29.5 141.3 118.3 262.4 243.7 327.7 94.3 49.1 223.7 88.5 384.8 72.4h0.2c161.1-16.1 280.2-80.3 363-147.1 110-88.7 173.2-225.1 174.2-369.4 0.9-145.8-31.4-346.1-183.3-503.9" fill="#fff"/>
      </g>
      <g transform="translate(1971.2 2948.3)">
       <path class="st3" d="m-784.7-2331.5c-32.9 0-53.1 2.6-53.8 2.7-3 0.2-281.6 20.4-428.8 251.2-118.3 185.6-108.6 389.8-79.7 528.3 29.7 142.4 118 261.2 242.3 325.9 118.1 61.4 247 85.7 383.3 72.1 136.5-13.7 258.2-63 361.9-146.6 109.1-88.1 172.2-222 173.2-367.4 1-141.5-30-343.6-182.6-502.1-139.1-144.5-325.3-164.1-415.8-164.1m-9.3 1189.1c-110.5 0-215.5-25.6-313.1-76.4-125.7-65.4-215-185.5-245-329.4-29.1-139.5-38.9-345 80.4-532.1 148.6-233.1 429.8-253.4 432.6-253.6 2.6-0.4 282.3-36.1 474 163.1 153.8 159.8 185 363.2 184 505.7-1 147-64.8 282.4-175.1 371.4-104.5 84.3-227.1 133.9-364.4 147.7-24.7 2.4-49.1 3.6-73.4 3.6" fill="#390075"/>
      </g>
     </g>
     <g transform="translate(1997.4 2848.6)">
      <path class="st3" d="m-762.3-2046.8c-28.8 0-46.7 2.2-47.4 2.3-0.4 0.1-0.7 0.1-1.1 0.1-2.3 0.2-228.7 17.4-349 191-97.1 140.2-90.4 293.9-67.7 398.1 23 105.7 93.2 193.4 192.6 240.7 95.7 45.7 200.7 63.2 312 52.3 0.2 0 0.5-0.1 0.7-0.1 111.3-11.1 211-49.1 296.1-112.9 88.2-66.2 139.7-166.1 141.3-274.1 1.6-106.7-22.3-258.7-145-376.8-109.8-105.6-257.7-120.6-332.5-120.6m-24.2 920.9c-92.7 0-180.8-19.6-262.6-58.7-108.7-51.8-185.5-147.8-210.7-263.6-24.1-110.6-31.1-274 72.8-424 127.8-184.4 357.6-204 373.5-205.2 15.9-2 245-28.2 406.8 127.3 131.3 126.3 156.9 287.9 155.2 401.2-1.8 118.4-58.1 227.8-154.6 300.1-89.9 67.4-195 107.6-312.2 119.4-0.3 0-0.5 0.1-0.7 0.1-22.8 2.3-45.3 3.4-67.5 3.4" fill="#390075"/>
     </g>
     <path class="st17" d="m770 1393.4c23.8 109.2 97.3 202.5 201.7 252.2 78.6 37.5 186.5 67.1 321.3 53.7h0.2c134.8-13.5 234.7-64 304.4-116.2 92.5-69.4 146.3-175.4 148-287.1 1.7-112.8-24-267.7-150.1-389-160.2-154-393.6-122.8-393.6-122.8s-235 15.5-361.6 198.1c-99.7 143.8-94.3 300.9-70.3 411.1" fill="#826bce"/>
     <g transform="translate(2223.3 2621.8)">
      <path class="st2" d="m-569-1399c15.8-62.7-12-175.3-89.2-244-110-97.8-209.2-103.1-234-88.7-41.2 24-33 103.7 72.7 167 85 50.9 122.2 141.5 144.1 172.7s90.6 55.6 106.4-7" fill="#fff"/>
     </g>
     <g transform="translate(2223.3 2621.8)">
      <path class="st6" d="m-569-1399m-292.3-320.6c-10.9 0-18.4 1.5-21.8 3.5-11.5 6.7-14 18.7-14 27.5-0.2 27.1 22.6 69.7 87 108.3 71.1 42.6 110.7 111.4 134.3 152.5 6 10.4 11.2 19.4 15.3 25.3 9.8 14 34.3 27.1 52.4 23.7 4-0.7 16.1-3 21.5-24.8 13.1-51.9-8.7-159.3-83.7-226-82.4-73.1-155-90-191-90m247.1 377.7c-30.4 0-61.3-18.7-76-39.7-5.1-7.2-10.6-16.9-17.1-28.1-23.3-40.5-58.5-101.7-121.5-139.5-65.8-39.4-104.9-91.6-104.6-139.6 0.2-25.5 11.8-46.8 32-58.6 32.2-18.8 140.1-11.4 255.1 90.8 81.1 72.1 112.4 192.1 94.8 261.9-9.7 38.6-35.6 48.9-50.1 51.6-4.1 0.8-8.3 1.2-12.6 1.2" fill="#310080"/>
     </g>
     <g transform="translate(1990.1 2810.6)">
      <path class="st2" d="m-768.5-1938.3c-27.2-28.7-84.8-36.4-137.4-23.9-84.8 20.2-98.6 76.6-94.9 93 5.4 24.3 41.4 48.6 103.9 29 49.4-15.5 86.5-22.7 106.3-21.1 40.6 3.1 45.3-52.5 22.1-77" fill="#fff"/>
     </g>
     <g transform="translate(1942.3 2816.8)">
      <path class="st6" d="m-809.5-1956.1c-14.4 0-29.5 1.7-44.4 5.2-74.4 17.7-83 63.7-81.4 71.4 1.2 5.4 6 10.9 12.8 14.9 9.2 5.3 30.4 12.5 67.9 0.7 35.8-11.3 84.5-24.2 113.2-21.9 6.9 0.5 11.1-1.7 13.8-7.5 5.4-11.2 2.4-29.8-6.3-38.9-14.6-15.3-43.3-23.9-75.6-23.9m-82.4 134.9c-18.4 0-35-4-48.7-11.9-15.7-9.1-26.6-23.1-30.1-38.4-5.9-26.4 13.3-91.9 108.4-114.6 62.1-14.8 124.2-3.1 154.7 29.1 19.2 20.3 24.7 54.4 12.7 79.5-9.2 19.2-27.6 29.7-49.4 28-8.3-0.6-34.7 0-99.5 20.4-16.8 5.2-33.1 7.9-48.1 7.9" fill="#310080"/>
     </g>
     <g transform="translate(1997.4 2848.6)">
      <path class="st3" d="m-762.3-2046.8c-28.8 0-46.7 2.2-47.4 2.3-0.4 0.1-0.7 0.1-1.1 0.1-2.3 0.2-228.7 17.4-349 191-97.1 140.2-90.4 293.9-67.7 398.1 23 105.7 93.2 193.4 192.6 240.7 95.7 45.7 200.7 63.2 312 52.3 0.3 0 0.5-0.1 0.7-0.1 111.3-11.1 211-49.1 296.1-112.9 88.2-66.1 139.7-166.1 141.3-274.1 1.6-106.7-22.3-258.7-145-376.8-109.8-105.6-257.7-120.6-332.5-120.6m-24.2 920.9c-92.7 0-180.8-19.6-262.6-58.7-108.7-51.8-185.5-147.8-210.7-263.6-24.1-110.7-31.1-274 72.8-424 127.8-184.4 357.6-204 373.5-205.2 15.9-2 245-28.2 406.7 127.3 131.3 126.3 156.9 287.9 155.2 401.2-1.8 118.4-58.1 227.8-154.6 300.1-89.9 67.4-195 107.6-312.2 119.4-0.3 0-0.5 0.1-0.7 0.1-22.7 2.3-45.2 3.4-67.4 3.4" fill="#390075"/>
     </g>
     <g transform="translate(1775.9 2749.4)">
      <path class="st2" d="m-951.8-1763.6c126.6-182.6 361.6-198.1 361.6-198.1s233.4-31.2 393.6 122.8c126.1 121.3 151.8 276.2 150.1 389-1.7 111.8-55.4 217.7-148 287.1-69.7 52.2-169.6 102.7-304.4 116.2h-0.2c-134.8 13.4-242.7-16.2-321.3-53.7-104.4-49.7-177.9-143-201.7-252.2-24-110.2-29.4-267.3 70.3-411.1m-202.3 413.7c29.5 141.3 118.3 262.4 243.6 327.7 94.4 49.1 223.7 88.5 384.8 72.5h0.3c161.1-16.1 280.2-80.4 363-147.1 110-88.7 173.2-225.1 174.2-369.4 1-145.7-31.4-346-183.3-503.9-193-200.5-471.9-162.3-471.9-162.3s-281 17.7-430.6 252.4c-117.8 184.7-109.9 387.5-80.1 530.1" fill="#fff"/>
     </g>
     <g transform="translate(1777 2748.7)">
      <path class="st3" d="m-950.9-1761.3c-100 144.3-93.2 302.1-69.8 409 23.9 109.9 96.9 201.2 200.2 250.4 98.2 46.8 205.8 64.9 319.9 53.5s216.1-50.3 303.3-115.7c91.7-68.8 145.2-172.7 146.9-285.1 1.6-109.5-22.9-265.5-149.3-387.1-157.4-151.4-389.2-122.4-391.5-122.1-2.4 0.2-235.3 17.6-359.7 197.1m384.8 721.3c-90.7 0-176.7-19.2-256.6-57.3-104.8-49.9-178.8-142.5-203.1-254-23.5-107.9-30.4-267.2 70.6-413.1 125.8-181.5 361.2-199.1 363.5-199.2 2.2-0.3 236.3-29.6 395.6 123.5 127.7 122.8 152.5 280.4 150.9 390.9-1.7 114-56 219.4-149 289.1-88 66-190.8 105.2-305.7 116.7-22.3 2.3-44.4 3.4-66.2 3.4m-24.3-1091.8c-32.9 0-53.1 2.6-53.9 2.7-3 0.2-281.6 20.4-428.8 251.2-118.3 185.7-108.6 389.8-79.7 528.3 29.7 142.4 118 261.2 242.3 325.9 118.1 61.4 247 85.7 383.3 72.2 136.5-13.7 258.1-63 361.9-146.6 109.2-88 172.3-222 173.3-367.5 1-141.5-30-343.5-182.6-502-139.2-144.6-325.3-164.2-415.8-164.2m-9.3 1189.1c-110.5 0-215.5-25.6-313.1-76.4-125.7-65.4-214.9-185.5-245-329.4-29.2-139.5-38.9-345 80.4-532.1 148.6-233.1 429.8-253.4 432.6-253.6 2.6-0.4 282.2-36 473.9 163.1 153.9 159.8 185 363.2 184 505.7-1 147.1-64.9 282.4-175.2 371.4-104.6 84.3-227.1 134-364.4 147.7-24.5 2.3-49 3.5-73.2 3.6" fill="#390075"/>
     </g>
     <clipPath id="SVGID_22_">
      <rect x="602.9" y="1082.2" width="1184.7" height="721.1"/>
     </clipPath>
     <g class="st18" clip-path="url(#SVGID_22_)" opacity=".3">
      <g transform="translate(1666.9 2526.5)">
       <path class="st5" d="m-1045.1-1126.9c29.5 141.2 118.3 262.4 243.7 327.7 94.3 49.1 223.7 88.4 384.8 72.4h0.3c161.1-16.1 280.2-80.3 363-147.1 110-88.8 173.2-225.1 174.2-369.4 0.1-21-0.4-43-1.9-66-12.9 52.2-34.3 101.6-63.2 146.2-17.1 87.4-66.6 167.3-141.2 223.3-69.7 52.2-169.6 102.7-304.4 116.2h-0.2c-134.8 13.4-242.7-16.2-321.3-53.7-77.2-36.8-137.6-97.4-173.3-170.6-74.4-67.5-126.5-158.9-147.8-260.7-8.6-40.8-15.3-86.6-17.8-135.5-23.5 116.3-13.5 228.4 5.1 317.2" fill="#6b3dc3"/>
      </g>
     </g>
     <g transform="translate(1971.3 2939.9)">
      <path class="st6" d="m-784.6-2307.6c-31.6 0-51.1 2.4-51.8 2.5-0.4 0.1-0.9 0.1-1.3 0.1-2.7 0.2-273.8 20.2-416.5 244.1-115.5 181.2-105.9 381.1-77.5 516.8 28.8 137.8 114.2 252.7 234.3 315.3 115.3 60 241.2 83.7 374.3 70.5 0.2 0 0.4 0 0.5-0.1 133.1-13.3 252-61.5 353.4-143.2 105.4-85.1 166.5-214.6 167.4-355.4 0.9-138.6-29.2-336.4-178.3-491.2-135.2-140.5-316.8-159.4-404.5-159.4m-9.4 1189.1c-112.9 0-220.3-26.2-320.2-78.2-129.8-67.6-222-191.5-253-340-29.7-142.3-39.6-352.1 82.5-543.7 150.7-236.3 425.1-259.4 444.1-260.7 19-2.5 292.4-34.1 486.8 167.8 157.5 163.6 189.4 371.2 188.4 516.5-1 151.7-67 291.5-180.9 383.4-106.9 86.1-232.1 137-372.3 151-0.2 0-0.4 0.1-0.5 0.1-25.3 2.6-50.2 3.8-74.9 3.8" fill="#310080"/>
     </g>
     <g transform="translate(1997.4 2848.6)">
      <path class="st3" d="m-762.3-2046.8c-28.8 0-46.7 2.2-47.4 2.3-0.4 0.1-0.7 0.1-1.1 0.1-2.3 0.2-228.7 17.4-349 191-97.1 140.2-90.4 293.9-67.7 398.1 23 105.7 93.2 193.4 192.6 240.7 95.7 45.7 200.7 63.2 312 52.3 0.3 0 0.5-0.1 0.7-0.1 111.3-11.1 211-49.1 296.1-112.9 88.2-66.1 139.7-166.1 141.3-274.1 1.6-106.7-22.3-258.7-145-376.8-109.8-105.6-257.7-120.6-332.5-120.6m-24.2 920.9c-92.7 0-180.8-19.6-262.6-58.7-108.7-51.8-185.5-147.8-210.7-263.6-24.1-110.7-31.1-274 72.8-424 127.8-184.4 357.6-204 373.5-205.2 15.9-2 245-28.2 406.7 127.3 131.3 126.3 156.9 287.9 155.2 401.2-1.8 118.4-58.1 227.8-154.6 300.1-89.9 67.4-195 107.6-312.2 119.4-0.3 0-0.5 0.1-0.7 0.1-22.7 2.3-45.2 3.4-67.4 3.4" fill="#390075"/>
     </g>
     <g transform="translate(2151.7 2110.9)">
      <path class="st2" d="m-630.3 60c31.5 0.7 80.8-0.5 138.9-9.9 26.1-4.2 43-29.9 36.5-55.5-5.7-22.2-27.1-36.5-49.8-33.4-38 5.3-77.2 12.2-122.6 10.6-27.7-1-49.6 23.2-45.5 50.7 3.2 21.2 21.1 37.1 42.5 37.5" fill="#fff"/>
     </g>
     <g transform="translate(2152.4 2157)">
      <path class="st3" d="m-629.7-71.7c-12 0-23.3 5-31.2 14-8.2 9.2-11.9 21.5-10 33.7 3 20 19.9 34.9 40.1 35.3 31.1 0.7 80.4-0.5 138.4-9.9 11.8-1.9 22.2-8.7 28.8-18.6 6.6-10.1 8.6-22 5.6-33.7-5.3-20.9-25.5-34.4-47-31.4-5 0.7-9.9 1.4-14.9 2.1-33.6 4.9-68.4 9.9-108.1 8.5h-1.7m13.7 88.3c-5.4 0-10.4-0.1-15.1-0.2-22.7-0.5-41.7-17.2-45.1-39.7-2.1-13.8 2-27.6 11.3-38 9.3-10.5 22.8-16.2 36.8-15.7 39.2 1.4 73.8-3.6 107.2-8.4l15-2.1c24.1-3.4 46.7 11.8 52.7 35.3 3.3 12.9 1 26.7-6.3 37.8-7.3 11.2-19.1 18.8-32.3 20.9-49.7 8.1-93 10.1-124.2 10.1" fill="#390075"/>
     </g>
     <clipPath id="SVGID_24_">
      <rect x="1478.3" y="2097" width="219.8" height="74"/>
     </clipPath>
     <g class="st19" clip-path="url(#SVGID_24_)" opacity=".3">
      <g transform="translate(2245.3 2148.6)">
       <path class="st20" d="m-550.1-47.9c0.6 1.5 1.1 3.1 1.5 4.7 6.6 25.6-10.4 51.3-36.5 55.5-58 9.4-107.3 10.6-138.9 9.9-18.3-0.4-34-12-40.2-28.5-1.1-2.9-1.9-5.9-2.3-9-1.3-9 0.1-17.6 3.6-25.1 7.1 14.4 21.7 24.1 38.5 24.5 31.5 0.7 80.8-0.5 138.9-9.9 15.6-2.5 27.9-12.7 33.9-25.9 0.5 1.3 1 2.5 1.5 3.8" fill="#35abdf"/>
      </g>
     </g>
     <g transform="translate(2152.4 2149.8)">
      <path class="st6" d="m-629.7-51.3c-8.2 0-15.9 3.4-21.3 9.5-5.6 6.3-8.1 14.6-6.8 22.9 2.1 13.6 13.5 23.7 27.2 24 30.6 0.7 78.9-0.5 136-9.7 8.2-1.3 15.2-5.9 19.8-12.8 4.5-6.9 5.9-15.1 3.8-23.1-3.7-14.4-17.5-23.6-32.3-21.6-4.9 0.7-9.9 1.4-14.9 2.1-34.2 5-69.6 10.1-110.5 8.6-0.3 0.1-0.6 0.1-1 0.1m13.7 88.4c-5.5 0-10.6-0.1-15.3-0.2-29.2-0.6-53.5-22.1-57.9-51-2.7-17.7 2.6-35.5 14.5-48.8 12-13.4 29.3-20.8 47.2-20.1 38 1.4 72-3.5 104.8-8.3 5-0.7 10-1.5 15-2.1 30.7-4.3 59.7 15.1 67.4 45.2 4.2 16.5 1.3 34.1-8.1 48.3-9.4 14.3-24.4 24-41.3 26.7-50.5 8.2-94.6 10.3-126.3 10.3" fill="#310080"/>
     </g>
     <g transform="translate(1781.8 2076)">
      <path class="st2" d="m-946.8 159.6c31.5 0.7 192.7-0.5 250.7-9.9 26.1-4.2 43-29.9 36.5-55.5-5.7-22.2-27.1-36.5-49.8-33.4-38 5.3-189.1 12.2-234.5 10.6-27.7-1-49.6 23.2-45.5 50.7 3.3 21.2 21.2 37.1 42.6 37.5" fill="#fff"/>
     </g>
     <clipPath id="SVGID_26_">
      <rect x="792" y="2161.7" width="331.7" height="74"/>
     </clipPath>
     <g class="st21" clip-path="url(#SVGID_26_)" opacity=".3">
      <clipPath id="SVGID_28_">
       <rect x="792" y="2161.7" width="331.7" height="74"/>
      </clipPath>
      <g class="st22" clip-path="url(#SVGID_28_)" opacity=".3">
       <g transform="translate(1935.8 2113.8)">
        <path class="st5" d="m-815 51.7c0.6 1.5 1.1 3.1 1.5 4.7 6.6 25.6-10.4 51.3-36.5 55.5-58 9.4-219.2 10.6-250.7 9.9-18.3-0.4-34-12-40.2-28.5-1.1-2.9-1.9-5.9-2.3-9-1.3-9 0.1-17.6 3.6-25.1 7.1 14.4 21.7 24.1 38.5 24.5 31.5 0.7 192.7-0.5 250.7-9.9 15.6-2.5 27.9-12.7 33.9-25.9 0.5 1.3 1 2.6 1.5 3.8" fill="#6b3dc3"/>
       </g>
      </g>
     </g>
     <g transform="translate(1782.5 2115)">
      <path class="st6" d="m-946.2 48.3c-8.2 0-15.9 3.4-21.3 9.5-5.6 6.3-8.1 14.6-6.8 22.9 2.1 13.6 13.5 23.7 27.2 24 32.8 0.7 192-0.7 247.9-9.7 8.2-1.3 15.2-5.9 19.8-12.8 4.5-6.9 5.9-15.1 3.9-23.1-3.7-14.4-17.5-23.6-32.3-21.6-38.9 5.5-191.9 12.4-237.2 10.7-0.5 0.1-0.8 0.1-1.2 0.1m21.4 88.4c-10 0-17.9-0.1-23-0.2-29.2-0.6-53.5-22.1-57.9-51-2.7-17.7 2.6-35.5 14.5-48.8 12-13.4 29.3-20.8 47.2-20.1 44.3 1.6 193.7-5.1 231.7-10.4 30.8-4.3 59.7 15.1 67.4 45.2 4.2 16.5 1.3 34.1-8.1 48.3-9.4 14.3-24.4 24-41.3 26.7-49.9 8.1-173.5 10.3-230.5 10.3" fill="#310080"/>
     </g>
     <g transform="translate(1951.3 2046.2)">
      <path class="st2" d="m-801.8 244.7 351.7-32.8c20.1-1.9 35.1-19.9 33.2-40l-18.5-198.6c-1.9-20.1-19.9-35.1-40-33.2l-351.7 32.9c-20.1 1.9-35.1 19.9-33.2 40l18.5 198.6c1.9 20 19.9 35 40 33.1" fill="#fff"/>
     </g>
     <g transform="translate(2129 2209)">
      <path class="st3" d="m-649.7-220.2c-1.1 0-2.1 0.1-3.2 0.2l-351.7 32.8c-18.8 1.8-32.6 18.4-30.8 37.2l18.5 198.6c1.8 18.8 18.5 32.5 37.2 30.8l351.7-32.9c18.8-1.7 32.6-18.4 30.8-37.2l-18.5-198.6c-0.8-9-5.2-17.2-12.2-23.1-6.3-5-13.9-7.8-21.8-7.8m-329.8 302.1m-3.4 2.8c-20.1 0-37.2-15.3-39.1-35.7l-18.5-198.6c-2-21.6 13.9-40.8 35.5-42.8l351.7-32.8c10.4-1 20.6 2.2 28.7 8.9s13.1 16.2 14.1 26.6l18.5 198.6c2 21.6-13.9 40.8-35.5 42.8l-351.7 32.8c-1.3 0.1-2.5 0.2-3.7 0.2" fill="#390075"/>
     </g>
     <g transform="translate(2129 2201.8)">
      <path class="st6" d="m-649.7-199.7c-0.6 0-1.3 0-1.9 0.1l-351.7 32.8c-11.5 1.1-19.9 11.3-18.8 22.7l18.5 198.6c1.1 11.5 11.3 19.9 22.7 18.8l351.7-32.8c11.5-1.1 19.9-11.3 18.8-22.7l-18.5-198.6c-0.5-5.5-3.2-10.5-7.5-14.1-3.8-3.2-8.5-4.8-13.3-4.8m-329.8 288.8m-3.4 16c-26.8 0-49.8-20.5-52.4-47.7l-18.5-198.6c-2.7-28.9 18.6-54.6 47.5-57.3l351.7-32.8c13.9-1.3 27.6 2.9 38.5 11.9 10.8 9 17.5 21.6 18.8 35.6l18.5 198.6c2.7 28.9-18.6 54.6-47.5 57.3l-351.7 32.8c-1.6 0.1-3.3 0.2-4.9 0.2" fill="#310080"/>
     </g>
     <clipPath id="SVGID_30_">
      <rect x="1090.8" y="2022.4" width="443.7" height="268.6"/>
     </clipPath>
     <g class="st23" clip-path="url(#SVGID_30_)" opacity=".3">
      <clipPath id="SVGID_32_">
       <rect x="1090.8" y="2022.4" width="443.7" height="268.6"/>
      </clipPath>
      <g class="st24" clip-path="url(#SVGID_32_)" opacity=".3">
       <g transform="translate(2156.5 2108.5)">
        <path class="st5" d="m-626.1 66.7 4 42.9c1.9 20.1-13.1 38.1-33.2 40l-351.7 32.8c-20.1 1.9-38.1-13-40-33.2l-18.5-198.6c-1.5-15.8 7.5-30.4 21.1-36.8l14.5 155.7c1.9 20.1 19.9 35 40 33.2l351.7-32.7c4.3-0.4 8.4-1.6 12.1-3.3" fill="#6b3dc3"/>
       </g>
      </g>
     </g>
     <g transform="translate(1989.1 2048.5)">
      <path class="st2" d="m-769.3 238.1 351.7-32.8c20.1-1.9 35.1-19.9 33.2-40l-18.6-198.5c-1.9-20.1-19.9-35.1-40-33.2l-351.7 32.8c-20.1 1.9-35.1 19.9-33.2 40l18.5 198.6c1.9 20.1 19.9 35 40.1 33.1" fill="#fff"/>
     </g>
     <g transform="translate(2166.9 2211.3)">
      <path class="st3" d="m-617.3-226.8c-1.1 0-2.1 0.1-3.2 0.2l-351.7 32.8c-9 0.8-17.2 5.2-23.1 12.2-5.8 7-8.6 15.9-7.8 25l18.5 198.6c1.8 18.8 18.4 32.6 37.2 30.8l351.8-32.8c18.8-1.7 32.6-18.4 30.8-37.2l-18.5-198.6c-0.8-9-5.2-17.2-12.2-23.1-6.2-5.1-13.9-7.9-21.8-7.9m-329.7 302.1m-3.5 2.8c-20.1 0-37.2-15.3-39.1-35.7l-18.5-198.6c-1-10.4 2.2-20.6 8.9-28.7s16.2-13.1 26.6-14.1l351.7-32.8c10.4-1 20.6 2.2 28.7 8.9s13.1 16.2 14.1 26.6l18.5 198.6c2 21.6-13.9 40.8-35.5 42.8l-351.7 32.8c-1.2 0.1-2.5 0.2-3.7 0.2" fill="#390075"/>
     </g>
     <g transform="translate(2166.8 2204.1)">
      <path class="st6" d="m-617.3-206.3c-0.6 0-1.3 0-1.9 0.1l-351.7 32.8c-5.5 0.5-10.5 3.2-14.1 7.5s-5.3 9.7-4.8 15.2l18.5 198.6c1.1 11.5 11.2 20 22.7 18.8l351.7-32.8c11.5-1.1 19.9-11.3 18.8-22.7l-18.5-198.6c-0.5-5.5-3.2-10.5-7.5-14.1-3.7-3.1-8.4-4.8-13.2-4.8m-329.7 288.8m-3.5 16c-26.8 0-49.8-20.5-52.4-47.7l-18.5-198.6c-1.3-13.9 2.9-27.6 11.9-38.5 9-10.8 21.6-17.5 35.6-18.8l351.7-32.8c13.9-1.3 27.6 2.9 38.5 11.9 10.8 9 17.5 21.6 18.8 35.6l18.5 198.6c2.7 28.9-18.6 54.6-47.5 57.3l-351.7 32.8c-1.6 0.2-3.3 0.2-4.9 0.2" fill="#310080"/>
     </g>
     <g transform="translate(1783.9 2743.9)">
      <path class="st6" d="m-945-1747.7c-96.8 139.7-90.1 292.9-67.4 396.9 22.9 105.2 92.8 192.6 191.7 239.7 95.4 45.5 200.1 63.1 311.2 52.1 0.3 0 0.5-0.1 0.7-0.1 111.1-11.1 210.4-49 295.3-112.6 87.8-65.9 139.1-165.3 140.7-272.9 1.6-106.4-22.2-258-144.5-375.7-151.7-145.9-376.4-118.1-378.7-117.9-0.4 0.1-0.8 0.1-1.2 0.1-2.2 0.2-227.9 17.4-347.8 190.4zm372 728.1c-93 0-181.3-19.7-263.2-58.8-109.1-52-186.3-148.4-211.6-264.7-24.2-110.9-31.2-274.8 73-425.2 128.1-184.8 358.2-204.7 374.7-205.9 16.4-2.1 245.9-28.1 408 127.7 131.7 126.7 157.4 288.7 155.7 402.3-1.8 118.9-58.3 228.7-155.2 301.3-90.2 67.6-195.4 107.8-312.9 119.7-0.3 0-0.5 0.1-0.8 0.1-22.9 2.3-45.4 3.5-67.7 3.5" fill="#310080"/>
     </g>
     <g transform="translate(1695.3 2567.9)">
      <path class="st2" d="m-1020.8-1245c3.9 39.4 1.4 76.8-6.4 108.9-8.1 33.6-21.9 61.4-39.6 79.8-13.1 13.6-28.5 21.9-45.3 23.6-61.5 6.1-120.4-78.9-131.5-190s29.8-206.2 91.3-212.3c16.9-1.7 33.6 3.5 49.1 14.2 21.1 14.5 40 39 54.6 70.4 14 29.8 23.9 66 27.8 105.4" fill="#fff"/>
     </g>
     <g transform="translate(1627.9 2669.1)">
      <path class="st3" d="m-1078.5-1534c-2 0-4.1 0.1-6.1 0.3-28.8 2.9-53.9 26-70.8 65.2-17.1 39.7-23.5 90.9-18.2 144.2s21.8 102.2 46.4 137.8c24.3 35.1 53.5 52.8 82.3 49.9 15.9-1.6 30.6-9.3 43.7-22.8 17.4-17.9 30.9-45.1 39-78.6 7.9-32.8 10.1-70.2 6.3-108-3.8-37.9-13.3-74-27.6-104.6-14.5-31.2-33.1-55.2-53.7-69.4-13.6-9.3-27.4-14-41.3-14m27.5 403c-28.5 0-56.9-18.4-80.4-52.5-25.1-36.2-41.9-86-47.3-140.2s1.2-106.3 18.6-146.8c17.6-41 44.3-65.3 75-68.3 17.2-1.7 34.3 3.2 50.8 14.6 21.4 14.7 40.6 39.4 55.5 71.4 14.5 31.1 24.2 67.9 28 106.3s1.6 76.4-6.5 109.8c-8.3 34.4-22.2 62.4-40.3 81-14 14.5-29.7 22.7-46.9 24.4-2.1 0.2-4.3 0.3-6.5 0.3" fill="#390075"/>
     </g>
     <clipPath id="SVGID_34_">
      <rect x="449.9" y="1288.3" width="226.4" height="247.2"/>
     </clipPath>
     <g class="st25" clip-path="url(#SVGID_34_)" opacity=".3">
      <g transform="translate(1695.3 2567.9)">
       <path class="st5" d="m-1020.8-1245c3.9 39.4 1.4 76.8-6.4 108.9-8.1 33.6-21.9 61.4-39.6 79.8-13.1 13.6-28.5 21.9-45.3 23.6-61.5 6.1-120.4-78.9-131.5-190-1.2-11.9-1.8-23.7-1.8-35.2 15.6 65.6 66.4 111.7 121.4 106.2 16.9-1.7 32.4-8 45.9-18 18.3-13.5 32.8-33.5 41.9-57.4 6.1-16 9.7-33.7 10.4-52.4 2.1 11.1 3.8 22.6 5 34.5" fill="#6b3dc3"/>
      </g>
     </g>
     <g transform="translate(1746.2 2572.9)">
      <path class="st2" d="m-977.3-1259.5c11.1 111.1-29.8 206.1-91.3 212.3l-94.3 9.4c16.9-1.7 32.2-10 45.3-23.6 17.8-18.3 31.5-46.2 39.6-79.8 7.8-32.1 10.3-69.5 6.4-108.9s-13.9-75.5-27.8-105.5c-14.6-31.4-33.6-56-54.6-70.4-15.5-10.7-32.2-15.9-49.1-14.2l94.3-9.4c61.6-6.1 120.4 79 131.5 190.1" fill="#fff"/>
     </g>
     <g transform="translate(1638.5 2670.3)">
      <path class="st3" d="m-1069.4-1537.5c8.3 2.5 16.5 6.5 24.5 12.1 21.4 14.7 40.6 39.4 55.5 71.4 14.5 31.1 24.2 67.9 28 106.3s1.6 76.4-6.5 109.8c-8.3 34.4-22.2 62.4-40.3 81-6.8 7.1-14 12.6-21.7 16.7l68.6-6.8c60-6 100-99.9 89-209.4-10.9-109.5-68.7-193.7-128.7-187.8zm14.1 404.9c-1.3 0-2.4-1-2.6-2.3-0.1-1.4 0.9-2.7 2.3-2.8 15.9-1.6 30.6-9.3 43.7-22.8 17.4-17.9 30.9-45.1 39-78.6 7.9-32.8 10.1-70.2 6.3-108-3.8-37.9-13.3-74-27.6-104.6-14.5-31.2-33.1-55.2-53.7-69.4-15.5-10.7-31.4-15.3-47.3-13.8h-0.1c-1.4 0.1-2.7-0.9-2.8-2.3s0.9-2.7 2.3-2.8l94.3-9.4c62.9-6.1 123.1 80 134.3 192.4 11.2 112.3-30.8 208.8-93.7 215.1l-94.3 9.4c0.1-0.1 0-0.1-0.1-0.1" fill="#390075"/>
     </g>
     <clipPath id="SVGID_36_">
      <rect x="583.2" y="1315.5" width="187.5" height="219.6"/>
     </clipPath>
     <g class="st26" clip-path="url(#SVGID_36_)" opacity=".3">
      <g transform="translate(1746.5 2568.9)">
       <path class="st5" d="m-977-1248.1c8.6 107.9-31.8 198.9-92 204.9l-94.3 9.4c16.9-1.7 32.2-10 45.3-23.6 17.8-18.3 31.5-46.2 39.6-79.8 4.5-18.5 4.8-94.9 5.6-116.2l12.5 13.9c23.2 26 65.1 22.2 82.9-7.8 0.1-0.3 0.3-0.6 0.4-0.8" fill="#6b3dc3"/>
      </g>
     </g>
     <g transform="translate(1627.9 2660.7)">
      <path class="st6" d="m-1078.5-1510.1c-1.5 0-3 0.1-4.5 0.2-22.9 2.3-43.5 22.1-58 55.9-16.1 37.3-22.1 85.8-17 136.6 5.1 50.7 20.6 97.1 43.7 130.5 20.9 30.2 45 45.6 67.9 43.3 12.2-1.2 23.6-7.3 34.1-18.2 15.3-15.8 27.7-41.1 35.1-71.4 7.5-31.1 9.6-66.7 6-102.8s-12.7-70.6-26.2-99.6c-13.2-28.3-30.4-50.7-48.5-63.1-11-7.6-21.9-11.4-32.6-11.4m27.4 403c-33.7 0-66.5-20.7-93.1-59.2-26.6-38.4-44.3-90.8-50-147.5s1.4-111.6 19.8-154.5c20-46.4 51.1-74 87.7-77.7 20.7-2.1 41.8 3.9 61.2 17.3 23.6 16.2 44.7 43.1 60.8 77.7 15.2 32.7 25.4 71.2 29.4 111.3s1.7 79.9-6.8 114.9c-9 37.1-24.3 67.5-44.2 88.1-16.3 16.9-35.9 27-56.5 29-2.8 0.5-5.5 0.6-8.3 0.6" fill="#310080"/>
     </g>
     <g transform="translate(1664.3 2664.4)">
      <path class="st6" d="m-1047.4-1520.8c17.7 16.3 33.6 38.8 46.3 66.1 15.2 32.7 25.4 71.2 29.4 111.3s1.7 79.9-6.8 114.9c-7.1 29.3-18.1 54.5-32.3 73.9l22.3-2.2c50.6-5.1 85-93.2 75.1-192.4-9.9-99.3-61.1-178.9-111.7-173.8zm-33.7 409.6c-9.2 0-17.1-7-18-16.3-1-10 6.3-18.8 16.2-19.8 12.1-1.2 23.6-7.3 34-18.2 15.3-15.8 27.7-41.1 35.1-71.4 7.5-31.1 9.6-66.7 6-102.8s-12.7-70.6-26.2-99.6c-13.2-28.3-30.4-50.7-48.5-63.1-12.4-8.6-24.8-12.3-37-11.1-10 1-18.8-6.3-19.8-16.2-1-10 6.3-18.8 16.2-19.8l94.3-9.4c72.6-7.2 139.1 83.4 151.3 206.3 12.3 122.9-35 224.9-107.6 232.1l-94.3 9.4c-0.5-0.1-1.1-0.1-1.7-0.1" fill="#310080"/>
     </g>
     <g transform="translate(2142.9 2062.9)">
      <path class="st6" d="m-637.8 196.9c-6.7 0-12.5-5.1-13.1-11.9l-10.8-108.6c-0.4-3.7-4.6-6.5-9.7-6.2-19.2 1-35.6-12.4-37.3-30.2l-9.1-98.1c-0.7-7.3 4.7-13.7 11.9-14.4 7.3-0.6 13.7 4.7 14.4 11.9l9.1 98.1c0.3 3.7 4.6 6.5 9.7 6.2 19.2-0.9 35.5 12.3 37.3 30l10.8 108.6c0.7 7.3-4.6 13.7-11.9 14.5-0.4 0.1-0.8 0.1-1.3 0.1" fill="#310080"/>
     </g>
     <g transform="translate(2052 2124.9)">
      <path class="st2" d="m-715.6 19.9c0.6 5.8-3.1 53.6-3.1 53.6s-14.9 1.4-33.2 3.2c-22.8 2.2-43.6-19.7-46.4-48.9s13.5-54.6 36.3-56.8c15.4-1.5 33.2-3.2 33.2-3.2s12.3 42.6 13.2 52.1" fill="#fff"/>
     </g>
     <g transform="translate(2040.7 2146.9)">
      <path class="st6" d="m-725.3-42.7-24.4 2.3c-7.7 0.7-14.8 5.5-19.9 13.4-5.6 8.7-8 20-6.9 31.8s5.7 22.4 12.8 29.9c6.5 6.8 14.3 10.2 22.1 9.4l24.3-2.3c1.5-19.9 2.7-39.6 2.5-43-0.5-5.2-6-25.6-10.5-41.5m-18.5 108.2c-12.9 0-25.2-5.6-35.2-16.1-10.4-10.9-17-26-18.6-42.5s2-32.5 10.2-45.2c8.6-13.5 21.3-21.7 35.7-23.1l33.2-3.2c5-0.5 9.8 2.7 11.2 7.6 2.1 7.3 12.7 44 13.6 54 0.6 6.1-2 40.8-3.1 55.4-0.4 5.1-4.4 9.2-9.5 9.7l-33.2 3.2c-1.5 0.1-2.9 0.2-4.3 0.2" fill="#310080"/>
     </g>
     <g transform="translate(2069.9 2126.6)">
      <path class="st2" d="m-700.3 15c2.8 29.2-13.5 54.6-36.3 56.8s-43.6-19.7-46.4-48.9 13.5-54.6 36.3-56.8c22.9-2.2 43.6 19.7 46.4 48.9" fill="#fff"/>
     </g>
     <g transform="translate(2046.5 2147.4)">
      <path class="st6" d="m-720.2-44.2c-0.7 0-1.4 0-2.1 0.1-17 1.6-29 21.9-26.8 45.2s17.9 41 34.9 39.3c7.7-0.7 14.8-5.5 19.9-13.4 5.6-8.7 8.1-20 6.9-31.8-1.1-11.8-5.7-22.4-12.8-29.9-6-6.1-13-9.5-20-9.5m3.8 106c-27 0-50.7-25.3-53.8-58.6-3.3-34.9 17.2-65.6 45.8-68.3 14.3-1.4 28.4 4.3 39.4 15.9 10.4 10.9 17 26 18.6 42.5s-2 32.5-10.2 45.2c-8.6 13.5-21.3 21.7-35.7 23.1-1.3 0.1-2.7 0.2-4.1 0.2" fill="#310080"/>
     </g>
    </g>
   </g>
  </g>
 </g>
</svg>
