<?xml version="1.0" encoding="UTF-8" standalone="no"?>
<!-- Generator: Adobe Illustrator 19.0.0, SVG Export Plug-In . SVG Version: 6.00 Build 0)  -->

<svg
   xmlns:dc="http://purl.org/dc/elements/1.1/"
   xmlns:cc="http://creativecommons.org/ns#"
   xmlns:rdf="http://www.w3.org/1999/02/22-rdf-syntax-ns#"
   xmlns:svg="http://www.w3.org/2000/svg"
   xmlns="http://www.w3.org/2000/svg"
   xmlns:sodipodi="http://sodipodi.sourceforge.net/DTD/sodipodi-0.dtd"
   xmlns:inkscape="http://www.inkscape.org/namespaces/inkscape"
   version="1.1"
   id="Layer_1"
   x="0px"
   y="0px"
   viewBox="0 0 512 512"
   style="enable-background:new 0 0 512 512;"
   xml:space="preserve"
   sodipodi:docname="spaceship.svg"
   inkscape:version="0.92.5 (2060ec1f9f, 2020-04-08)"><metadata
   id="metadata55"><rdf:RDF><cc:Work
       rdf:about=""><dc:format>image/svg+xml</dc:format><dc:type
         rdf:resource="http://purl.org/dc/dcmitype/StillImage" /></cc:Work></rdf:RDF></metadata><defs
   id="defs53" /><sodipodi:namedview
   pagecolor="#ffffff"
   bordercolor="#666666"
   borderopacity="1"
   objecttolerance="10"
   gridtolerance="10"
   guidetolerance="10"
   inkscape:pageopacity="0"
   inkscape:pageshadow="2"
   inkscape:window-width="1848"
   inkscape:window-height="1017"
   id="namedview51"
   showgrid="false"
   inkscape:zoom="0.921875"
   inkscape:cx="78.197994"
   inkscape:cy="206.42594"
   inkscape:window-x="72"
   inkscape:window-y="27"
   inkscape:window-maximized="1"
   inkscape:current-layer="Layer_1" />
<polygon
   style="fill:#3C5D76;"
   points="97.882,289.882 97.882,382.173 52.706,427.35 52.706,466.824 263.529,466.824   263.529,165.647 "
   id="polygon2" />
<polygon
   style="fill:#3c5d76;fill-opacity:1"
   points="414.118,382.173 414.118,289.882 248.471,165.647 248.471,466.824 459.294,466.824   459.294,427.35 "
   id="polygon4" />
<path
   style="fill:#CCE9F9;"
   d="M338.824,512V120.471C338.824,45.176,256,0,256,0s-82.824,45.176-82.824,120.471V512H338.824z"
   id="path6" />
<path
   style="fill:#cce9f9;fill-opacity:1"
   d="M338.824,512V120.471C338.824,45.176,256,0,256,0v512H338.824z"
   id="path8" />
<g
   id="g14">
	<path
   style="fill:#1E2E3B;"
   d="M286.118,120.471c0-16.634-13.485-30.118-30.118-30.118l0,0c-16.632,0-30.118,13.484-30.118,30.118   H286.118z"
   id="path10" />
	<rect
   x="233.412"
   y="361.412"
   style="fill:#1E2E3B;"
   width="45.176"
   height="105.412"
   id="rect12" />
</g>
<rect
   x="173.176"
   y="466.824"
   style="fill:#78B9EB;"
   width="165.647"
   height="45.176"
   id="rect16" />
<rect
   x="256"
   y="466.824"
   style="fill:#78b9eb;fill-opacity:1"
   width="82.824"
   height="45.176"
   id="rect18" />
<g
   id="g20">
</g>
<g
   id="g22">
</g>
<g
   id="g24">
</g>
<g
   id="g26">
</g>
<g
   id="g28">
</g>
<g
   id="g30">
</g>
<g
   id="g32">
</g>
<g
   id="g34">
</g>
<g
   id="g36">
</g>
<g
   id="g38">
</g>
<g
   id="g40">
</g>
<g
   id="g42">
</g>
<g
   id="g44">
</g>
<g
   id="g46">
</g>
<g
   id="g48">
</g>
</svg>