<?xml version="1.0" encoding="UTF-8" standalone="no"?>
<svg
   version="1.1"
   id="Layer_1"
   x="0px"
   y="0px"
   viewBox="0 0 375.84525 181.78636"
   xml:space="preserve"
   sodipodi:docname="startButton.svg"
   inkscape:version="1.1 (c4e8f9e, 2021-05-24)"
   width="375.84525"
   height="181.78636"
   xmlns:inkscape="http://www.inkscape.org/namespaces/inkscape"
   xmlns:sodipodi="http://sodipodi.sourceforge.net/DTD/sodipodi-0.dtd"
   xmlns="http://www.w3.org/2000/svg"
   xmlns:svg="http://www.w3.org/2000/svg"
   xmlns:rdf="http://www.w3.org/1999/02/22-rdf-syntax-ns#"
   xmlns:cc="http://creativecommons.org/ns#"
   xmlns:dc="http://purl.org/dc/elements/1.1/"><metadata
   id="metadata55"><rdf:RDF><cc:Work
       rdf:about=""><dc:format>image/svg+xml</dc:format><dc:type
         rdf:resource="http://purl.org/dc/dcmitype/StillImage" /><dc:title /></cc:Work></rdf:RDF></metadata><defs
   id="defs53"><clipPath
     clipPathUnits="userSpaceOnUse"
     id="clipPath3944"><path
       d="M 654.076,60.4125 H 685.76 V 36.5898 h -31.684 z"
       id="path3942"
       inkscape:connector-curvature="0" /></clipPath><clipPath
     clipPathUnits="userSpaceOnUse"
     id="clipPath3912"><path
       d="m 656.56,68.3276 h 24.569 V 62.9675 H 656.56 Z"
       id="path3910"
       inkscape:connector-curvature="0" /></clipPath><clipPath
     clipPathUnits="userSpaceOnUse"
     id="clipPath3916"><path
       d="m 681.13,64.604 c -2.416,-0.737 -6.636,-1.709 -11.909,-1.632 -5.084,0.075 -9.757,0.485 -12.66,0.797 0.514,0.613 1.071,1.186 1.67,1.716 2.779,-0.633 6.052,-1.25 8.697,-1.351 5.777,-0.221 11.687,1.333 10.664,2.008 -1.022,0.676 -5.375,-0.275 -10.84,0 -2.466,0.125 -4.849,0.434 -6.724,0.735 0.811,0.547 1.678,1.021 2.581,1.416 0.011,0.005 0.022,0.008 0.033,0.014 0.018,0.007 0.034,0.015 0.052,0.02 2.104,-0.308 4.924,-0.522 8.59,-0.429 2.141,0.054 3.791,0.11 5.066,0.161 0.165,-0.078 0.328,-0.158 0.49,-0.244 0.003,-0.002 0.006,-0.004 0.008,-0.004 0.266,-0.142 0.531,-0.286 0.789,-0.443 0.009,-0.003 0.016,-0.008 0.024,-0.016 0.459,-0.269 0.903,-0.565 1.333,-0.88 0,0 0.003,0 0.003,-0.002 0.066,-0.048 0.13,-0.097 0.197,-0.147 h 0.002 c 0.038,-0.029 0.073,-0.056 0.11,-0.086 0.133,-0.103 0.266,-0.208 0.397,-0.317 0.072,-0.059 0.142,-0.117 0.211,-0.176 0.051,-0.042 0.099,-0.085 0.147,-0.128 0.325,-0.279 0.636,-0.573 0.938,-0.88 l 0.005,-0.005 c 0.04,-0.04 0.075,-0.075 0.115,-0.117 z"
       id="path3914"
       inkscape:connector-curvature="0" /></clipPath><linearGradient
     x1="0"
     y1="0"
     x2="1"
     y2="0"
     gradientUnits="userSpaceOnUse"
     gradientTransform="matrix(7.5890994,-11.326965,-11.326965,-7.5890994,664.86896,70.120377)"
     spreadMethod="pad"
     id="linearGradient3922"><stop
       style="stop-opacity:1;stop-color:#ffffff"
       offset="0"
       id="stop3918" /><stop
       style="stop-opacity:1;stop-color:#ffffff"
       offset="1"
       id="stop3920" /></linearGradient><clipPath
     clipPathUnits="userSpaceOnUse"
     id="clipPath3880"><path
       d="m 654.366,46.555 h 30.032 v -9.9652 h -30.032 z"
       id="path3878"
       inkscape:connector-curvature="0" /></clipPath><clipPath
     clipPathUnits="userSpaceOnUse"
     id="clipPath3884"><path
       d="m 660.373,42.526 c -1.547,0 -2.803,0.358 -2.803,0.798 0,0.44 1.256,0.797 2.803,0.797 1.546,0 2.802,-0.357 2.802,-0.797 0,-0.44 -1.256,-0.798 -2.802,-0.798 m 9.179,2.19 c -6.91,0.031 -12.611,0.749 -15.186,1.133 0.016,-0.036 0.035,-0.067 0.051,-0.102 0.021,-0.048 0.045,-0.093 0.072,-0.139 0.008,-0.012 0.013,-0.029 0.022,-0.042 0.026,-0.053 0.052,-0.104 0.082,-0.155 0.058,-0.117 0.125,-0.234 0.189,-0.351 0.216,-0.387 0.448,-0.763 0.694,-1.128 0.012,-0.019 0.026,-0.04 0.04,-0.059 0.228,-0.339 0.468,-0.666 0.721,-0.986 0.043,-0.059 0.091,-0.117 0.137,-0.173 0.469,-0.573 0.973,-1.117 1.512,-1.624 0.553,-0.523 1.145,-1.008 1.769,-1.453 h 0.006 c 0.093,-0.072 0.189,-0.139 0.285,-0.205 0.008,-0.005 0.016,-0.011 0.024,-0.016 0.203,-0.136 0.408,-0.27 0.616,-0.393 0.056,-0.037 0.109,-0.069 0.165,-0.1 h 0.003 c 0.021,-0.014 0.04,-0.025 0.061,-0.038 0.04,-0.027 0.081,-0.05 0.122,-0.072 0.147,-0.087 0.296,-0.17 0.449,-0.25 0.285,-0.155 0.576,-0.301 0.869,-0.438 3.546,0.227 6.683,0.345 7.563,0.145 1.016,-0.233 -1.117,-0.8 -3.826,-1.366 1.043,-0.205 2.122,-0.314 3.229,-0.314 1.554,0 3.057,0.213 4.484,0.616 0.122,0.034 0.248,0.068 0.37,0.109 0.153,0.045 0.304,0.096 0.456,0.147 0.176,0.059 0.352,0.122 0.529,0.188 0.938,0.356 1.834,0.792 2.681,1.304 h 0.003 c 0.674,0.405 1.317,0.859 1.925,1.352 0.103,0.086 0.208,0.173 0.311,0.264 -0.869,-0.093 -2.114,-0.216 -3.897,-0.376 -5.377,-0.482 -14.263,0.125 -14.042,0.782 0.222,0.658 5.511,1.698 12.13,1.503 3.099,-0.093 5.631,-0.203 7.449,-0.296 0.192,0.218 0.379,0.443 0.563,0.669 0.419,0.528 0.804,1.083 1.159,1.661 0.086,0.138 0.168,0.28 0.251,0.424 0.106,0.189 0.211,0.378 0.311,0.573 0.171,0.325 0.328,0.659 0.475,0.997 0.009,0.016 0.014,0.032 0.018,0.048 -2.66,-0.693 -8.168,-1.868 -14.845,-1.839"
       id="path3882"
       inkscape:connector-curvature="0" /></clipPath><linearGradient
     x1="0"
     y1="0"
     x2="1"
     y2="0"
     gradientUnits="userSpaceOnUse"
     gradientTransform="matrix(10.441856,-15.584793,-15.584793,-10.441856,664.83264,52.861103)"
     spreadMethod="pad"
     id="linearGradient3890"><stop
       style="stop-opacity:1;stop-color:#ffffff"
       offset="0"
       id="stop3886" /><stop
       style="stop-opacity:1;stop-color:#ffffff"
       offset="1"
       id="stop3888" /></linearGradient><clipPath
     clipPathUnits="userSpaceOnUse"
     id="clipPath3848"><path
       d="M 652.681,60.9243 H 685.76 V 47.2775 h -33.079 z"
       id="path3846"
       inkscape:connector-curvature="0" /></clipPath><clipPath
     clipPathUnits="userSpaceOnUse"
     id="clipPath3852"><path
       d="m 676.613,50.392 c -0.218,0 -0.397,0.178 -0.397,0.397 0,0.221 0.179,0.399 0.397,0.399 0.222,0 0.401,-0.178 0.401,-0.399 0,-0.219 -0.179,-0.397 -0.401,-0.397 m -1.666,1.94 c -0.442,0 -0.797,0.357 -0.797,0.797 0,0.44 0.355,0.798 0.797,0.798 0.44,0 0.794,-0.358 0.794,-0.798 0,-0.44 -0.354,-0.797 -0.794,-0.797 m -19.192,-3.034 c -0.578,0 -1.045,0.47 -1.045,1.046 0,0.575 0.467,1.045 1.045,1.045 0.576,0 1.043,-0.47 1.043,-1.045 0,-0.576 -0.467,-1.046 -1.043,-1.046 m 0.246,9.323 c 0.442,0 0.797,-0.357 0.797,-0.797 0,-0.44 -0.355,-0.798 -0.797,-0.798 -0.44,0 -0.795,0.358 -0.795,0.798 0,0.44 0.355,0.797 0.795,0.797 m 29.757,-5.276 c 0,0.115 -0.003,0.232 -0.008,0.346 v 0.054 c -0.006,0.12 -0.011,0.24 -0.02,0.359 -0.007,0.126 -0.015,0.251 -0.026,0.375 -0.014,0.157 -0.026,0.314 -0.045,0.471 -0.04,0.378 -0.096,0.754 -0.166,1.125 -2.199,0.085 -5.297,0.07 -8.256,-0.416 -5.42,-0.888 -8.218,-4.01 -14.441,-4.471 -6.22,-0.463 -7.952,3.127 -6.308,4.471 1.643,1.344 9.464,2.389 17.462,2.477 5.454,0.061 9.243,-0.107 11.104,-0.219 -0.147,0.49 -0.318,0.974 -0.509,1.445 -0.048,0.115 -0.097,0.232 -0.148,0.347 -0.031,0.074 -0.063,0.149 -0.098,0.224 -0.008,0.018 -0.019,0.04 -0.027,0.058 -0.074,0.168 -0.154,0.336 -0.237,0.499 -0.034,0.07 -0.069,0.141 -0.106,0.21 -0.037,0.075 -0.077,0.15 -0.115,0.224 -3.042,-0.674 -9.07,-1.754 -16.574,-1.778 -6.35,-0.021 -10.741,0.15 -13.308,0.296 -0.144,-0.343 -0.278,-0.699 -0.395,-1.055 -0.066,-0.193 -0.128,-0.387 -0.186,-0.581 -0.019,-0.07 -0.04,-0.139 -0.059,-0.208 -0.014,-0.043 -0.024,-0.088 -0.037,-0.134 v -0.003 c -0.067,-0.256 -0.131,-0.512 -0.187,-0.773 -0.024,-0.096 -0.046,-0.195 -0.064,-0.293 v -0.002 c -0.034,-0.168 -0.064,-0.336 -0.093,-0.507 -0.011,-0.064 -0.021,-0.125 -0.029,-0.19 -0.028,-0.154 -0.049,-0.311 -0.068,-0.468 v -0.003 c -0.021,-0.161 -0.04,-0.321 -0.052,-0.48 -0.014,-0.115 -0.025,-0.232 -0.033,-0.349 -0.021,-0.278 -0.035,-0.558 -0.04,-0.837 -0.002,-0.048 -0.004,-0.094 -0.004,-0.142 -0.003,-0.096 -0.003,-0.191 -0.003,-0.288 0,-0.168 0.003,-0.336 0.007,-0.501 0.003,-0.088 0.005,-0.176 0.014,-0.261 0,-0.069 0.002,-0.138 0.008,-0.208 0.013,-0.226 0.029,-0.451 0.053,-0.672 0.019,-0.195 0.04,-0.389 0.067,-0.581 0.168,-1.261 0.48,-2.474 0.914,-3.629 4.209,0.56 15.143,1.99 20.293,2.405 3.816,0.309 8.353,-0.05 11.274,-0.375 0.118,0.479 0.209,0.969 0.28,1.465 0.009,0.056 0.016,0.115 0.021,0.173 0.011,0.057 0.017,0.113 0.025,0.169 0.013,0.107 0.023,0.216 0.034,0.325 0.011,0.096 0.018,0.195 0.027,0.293 0.005,0.067 0.011,0.133 0.016,0.201 0.011,0.146 0.018,0.29 0.026,0.436 0.006,0.12 0.011,0.24 0.014,0.363 0.003,0.141 0.005,0.286 0.005,0.429 0,0.062 0,0.123 -0.002,0.184"
       id="path3850"
       inkscape:connector-curvature="0" /></clipPath><linearGradient
     x1="0"
     y1="0"
     x2="1"
     y2="0"
     gradientUnits="userSpaceOnUse"
     gradientTransform="matrix(14.409406,-21.506483,-21.506483,-14.409406,661.70953,64.653221)"
     spreadMethod="pad"
     id="linearGradient3858"><stop
       style="stop-opacity:1;stop-color:#ffffff"
       offset="0"
       id="stop3854" /><stop
       style="stop-opacity:1;stop-color:#ffffff"
       offset="1"
       id="stop3856" /></linearGradient><mask
     maskUnits="userSpaceOnUse"
     x="0"
     y="0"
     width="1"
     height="1"
     id="mask3692"><g
       id="g3720"><g
         clip-path="url(#clipPath3652)"
         id="g3718"><path
           d="m 678.234,58.662 h 1.459 v -1.367 h -1.459 z"
           style="fill:#000000;fill-opacity:1;fill-rule:nonzero;stroke:none"
           id="path3694"
           inkscape:connector-curvature="0" /><g
           id="g3716"><g
             id="g3696" /><g
             id="g3714"><g
               clip-path="url(#clipPath3656)"
               id="g3712"><g
                 id="g3710"><g
                   clip-path="url(#clipPath3660)"
                   id="g3708"><g
                     id="g3706"><g
                       id="g3698" /><g
                       mask="url(#mask3670)"
                       id="g3704"><g
                         id="g3702"><path
                           d="m 678.492,57.979 c 0,-0.245 0.211,-0.442 0.472,-0.442 0.26,0 0.471,0.197 0.471,0.442 0,0.244 -0.211,0.441 -0.471,0.441 -0.261,0 -0.472,-0.197 -0.472,-0.441"
                           style="fill:url(#radialGradient3690);stroke:none"
                           id="path3700"
                           inkscape:connector-curvature="0" /></g></g></g></g></g></g></g></g></g></g></mask><clipPath
     clipPathUnits="userSpaceOnUse"
     id="clipPath3652"><path
       d="m 678.492,58.4201 h 0.943 v -0.8829 h -0.943 z"
       id="path3650"
       inkscape:connector-curvature="0" /></clipPath><clipPath
     clipPathUnits="userSpaceOnUse"
     id="clipPath3656"><path
       d="m 678.234,58.6621 h 1.459 v -1.3672 h -1.459 z"
       id="path3654"
       inkscape:connector-curvature="0" /></clipPath><clipPath
     clipPathUnits="userSpaceOnUse"
     id="clipPath3660"><path
       d="m 678.492,57.979 c 0,-0.245 0.211,-0.442 0.472,-0.442 0.26,0 0.471,0.197 0.471,0.442 0,0.244 -0.211,0.441 -0.471,0.441 -0.261,0 -0.472,-0.197 -0.472,-0.441"
       id="path3658"
       inkscape:connector-curvature="0" /></clipPath><mask
     maskUnits="userSpaceOnUse"
     x="0"
     y="0"
     width="1"
     height="1"
     id="mask3670"><g
       id="g3682"><g
         clip-path="url(#clipPath3664)"
         id="g3680"><g
           id="g3678"><g
             id="g3672" /><g
             id="g3676"><g
               clip-path="url(#clipPath3668)"
               id="g3674" /></g></g></g></g></mask><clipPath
     clipPathUnits="userSpaceOnUse"
     id="clipPath3664"><path
       d="M -24199,24824 H 8567 V -7942 h -32766 z"
       id="path3662"
       inkscape:connector-curvature="0" /></clipPath><clipPath
     clipPathUnits="userSpaceOnUse"
     id="clipPath3668"><path
       d="M -24199,24824 H 8567 V -7942 h -32766 z"
       id="path3666"
       inkscape:connector-curvature="0" /></clipPath><radialGradient
     fx="0"
     fy="0"
     cx="0"
     cy="0"
     r="1"
     gradientUnits="userSpaceOnUse"
     gradientTransform="matrix(-0.4988578,0,0,-0.4673478,678.97266,57.951172)"
     spreadMethod="pad"
     id="radialGradient3690"><stop
       style="stop-opacity:1;stop-color:#ffffff"
       offset="0"
       id="stop3684" /><stop
       style="stop-opacity:1;stop-color:#1e120d"
       offset="0.782178"
       id="stop3686" /><stop
       style="stop-opacity:1;stop-color:#1e120d"
       offset="1"
       id="stop3688" /></radialGradient><clipPath
     clipPathUnits="userSpaceOnUse"
     id="clipPath3728"><path
       d="m 678.492,58.4201 h 0.943 v -0.8829 h -0.943 z"
       id="path3726"
       inkscape:connector-curvature="0" /></clipPath><mask
     maskUnits="userSpaceOnUse"
     x="0"
     y="0"
     width="1"
     height="1"
     id="mask3770"><g
       id="g3796"><g
         clip-path="url(#clipPath3732)"
         id="g3794"><g
           id="g3792"><g
             id="g3772" /><g
             id="g3790"><g
               clip-path="url(#clipPath3736)"
               id="g3788"><g
                 id="g3786"><g
                   clip-path="url(#clipPath3740)"
                   id="g3784"><g
                     id="g3782"><g
                       id="g3774" /><g
                       mask="url(#mask3750)"
                       id="g3780"><g
                         id="g3778"><path
                           d="m 678.618,58.302 c -0.384,-0.473 0.187,-1.007 0.691,-0.647 0.384,0.473 -0.186,1.007 -0.691,0.647"
                           style="fill:url(#radialGradient3768);stroke:none"
                           id="path3776"
                           inkscape:connector-curvature="0" /></g></g></g></g></g></g></g></g></g></g></mask><clipPath
     clipPathUnits="userSpaceOnUse"
     id="clipPath3732"><path
       d="m 678.492,58.4201 h 0.943 v -0.8829 h -0.943 z"
       id="path3730"
       inkscape:connector-curvature="0" /></clipPath><clipPath
     clipPathUnits="userSpaceOnUse"
     id="clipPath3736"><path
       d="m 678.234,58.6621 h 1.459 v -1.3672 h -1.459 z"
       id="path3734"
       inkscape:connector-curvature="0" /></clipPath><clipPath
     clipPathUnits="userSpaceOnUse"
     id="clipPath3740"><path
       d="m 678.618,58.302 c -0.384,-0.473 0.187,-1.007 0.691,-0.647 0.384,0.473 -0.186,1.007 -0.691,0.647"
       id="path3738"
       inkscape:connector-curvature="0" /></clipPath><mask
     maskUnits="userSpaceOnUse"
     x="0"
     y="0"
     width="1"
     height="1"
     id="mask3750"><g
       id="g3762"><g
         clip-path="url(#clipPath3744)"
         id="g3760"><g
           id="g3758"><g
             id="g3752" /><g
             id="g3756"><g
               clip-path="url(#clipPath3748)"
               id="g3754" /></g></g></g></g></mask><clipPath
     clipPathUnits="userSpaceOnUse"
     id="clipPath3744"><path
       d="M -24199,24824 H 8567 V -7942 h -32766 z"
       id="path3742"
       inkscape:connector-curvature="0" /></clipPath><clipPath
     clipPathUnits="userSpaceOnUse"
     id="clipPath3748"><path
       d="M -24199,24824 H 8567 V -7942 h -32766 z"
       id="path3746"
       inkscape:connector-curvature="0" /></clipPath><radialGradient
     fx="0"
     fy="0"
     cx="0"
     cy="0"
     r="1"
     gradientUnits="userSpaceOnUse"
     gradientTransform="matrix(-0.494057,0,0,-0.4628503,678.96777,57.966797)"
     spreadMethod="pad"
     id="radialGradient3768"><stop
       style="stop-opacity:1;stop-color:#ffffff"
       offset="0"
       id="stop3764" /><stop
       style="stop-opacity:1;stop-color:#1e120d"
       offset="1"
       id="stop3766" /></radialGradient><clipPath
     clipPathUnits="userSpaceOnUse"
     id="clipPath3800"><path
       d="m 678.492,58.4201 h 0.943 v -0.8829 h -0.943 z"
       id="path3798"
       inkscape:connector-curvature="0" /></clipPath><clipPath
     clipPathUnits="userSpaceOnUse"
     id="clipPath3804"><path
       d="m 678.618,58.302 c -0.384,-0.473 0.187,-1.007 0.691,-0.647 0.384,0.473 -0.186,1.007 -0.691,0.647"
       id="path3802"
       inkscape:connector-curvature="0" /></clipPath><radialGradient
     fx="0"
     fy="0"
     cx="0"
     cy="0"
     r="1"
     gradientUnits="userSpaceOnUse"
     gradientTransform="matrix(-0.494057,0,0,-0.4628503,678.96814,57.966949)"
     spreadMethod="pad"
     id="radialGradient3810"><stop
       style="stop-opacity:1;stop-color:#ffffff"
       offset="0"
       id="stop3806" /><stop
       style="stop-opacity:1;stop-color:#000000"
       offset="1"
       id="stop3808" /></radialGradient><mask
     maskUnits="userSpaceOnUse"
     x="0"
     y="0"
     width="1"
     height="1"
     id="mask3500"><g
       id="g3528"><g
         clip-path="url(#clipPath3460)"
         id="g3526"><path
           d="m 661.343,62.713 h 5.503 v -5.504 h -5.503 z"
           style="fill:#000000;fill-opacity:1;fill-rule:nonzero;stroke:none"
           id="path3502"
           inkscape:connector-curvature="0" /><g
           id="g3524"><g
             id="g3504" /><g
             id="g3522"><g
               clip-path="url(#clipPath3464)"
               id="g3520"><g
                 id="g3518"><g
                   clip-path="url(#clipPath3468)"
                   id="g3516"><g
                     id="g3514"><g
                       id="g3506" /><g
                       mask="url(#mask3478)"
                       id="g3512"><g
                         id="g3510"><path
                           d="m 665.872,59.961 c 0,-0.982 -0.796,-1.778 -1.777,-1.778 -0.983,0 -1.779,0.796 -1.779,1.778 0,0.982 0.796,1.778 1.779,1.778 0.981,0 1.777,-0.796 1.777,-1.778"
                           style="fill:url(#radialGradient3498);stroke:none"
                           id="path3508"
                           inkscape:connector-curvature="0" /></g></g></g></g></g></g></g></g></g></g></mask><clipPath
     clipPathUnits="userSpaceOnUse"
     id="clipPath3460"><path
       d="m 662.317,61.7388 h 3.555 v -3.5557 h -3.555 z"
       id="path3458"
       inkscape:connector-curvature="0" /></clipPath><clipPath
     clipPathUnits="userSpaceOnUse"
     id="clipPath3464"><path
       d="m 661.343,62.7129 h 5.503 V 57.209 h -5.503 z"
       id="path3462"
       inkscape:connector-curvature="0" /></clipPath><clipPath
     clipPathUnits="userSpaceOnUse"
     id="clipPath3468"><path
       d="m 665.872,59.961 c 0,-0.982 -0.796,-1.778 -1.777,-1.778 -0.983,0 -1.779,0.796 -1.779,1.778 0,0.982 0.796,1.778 1.779,1.778 0.981,0 1.777,-0.796 1.777,-1.778"
       id="path3466"
       inkscape:connector-curvature="0" /></clipPath><mask
     maskUnits="userSpaceOnUse"
     x="0"
     y="0"
     width="1"
     height="1"
     id="mask3478"><g
       id="g3490"><g
         clip-path="url(#clipPath3472)"
         id="g3488"><g
           id="g3486"><g
             id="g3480" /><g
             id="g3484"><g
               clip-path="url(#clipPath3476)"
               id="g3482" /></g></g></g></g></mask><clipPath
     clipPathUnits="userSpaceOnUse"
     id="clipPath3472"><path
       d="M -24199,24824 H 8567 V -7942 h -32766 z"
       id="path3470"
       inkscape:connector-curvature="0" /></clipPath><clipPath
     clipPathUnits="userSpaceOnUse"
     id="clipPath3476"><path
       d="M -24199,24824 H 8567 V -7942 h -32766 z"
       id="path3474"
       inkscape:connector-curvature="0" /></clipPath><radialGradient
     fx="0"
     fy="0"
     cx="0"
     cy="0"
     r="1"
     gradientUnits="userSpaceOnUse"
     gradientTransform="matrix(1.882315,0,0,-1.882315,664.05859,59.850586)"
     spreadMethod="pad"
     id="radialGradient3498"><stop
       style="stop-opacity:1;stop-color:#ffffff"
       offset="0"
       id="stop3492" /><stop
       style="stop-opacity:1;stop-color:#1e120d"
       offset="0.782178"
       id="stop3494" /><stop
       style="stop-opacity:1;stop-color:#1e120d"
       offset="1"
       id="stop3496" /></radialGradient><clipPath
     clipPathUnits="userSpaceOnUse"
     id="clipPath3536"><path
       d="m 662.317,61.7388 h 3.555 v -3.5557 h -3.555 z"
       id="path3534"
       inkscape:connector-curvature="0" /></clipPath><mask
     maskUnits="userSpaceOnUse"
     x="0"
     y="0"
     width="1"
     height="1"
     id="mask3578"><g
       id="g3604"><g
         clip-path="url(#clipPath3540)"
         id="g3602"><g
           id="g3600"><g
             id="g3580" /><g
             id="g3598"><g
               clip-path="url(#clipPath3544)"
               id="g3596"><g
                 id="g3594"><g
                   clip-path="url(#clipPath3548)"
                   id="g3592"><g
                     id="g3590"><g
                       id="g3582" /><g
                       mask="url(#mask3558)"
                       id="g3588"><g
                         id="g3586"><path
                           d="m 665.396,61.264 c 1.45,-1.904 -0.701,-4.055 -2.604,-2.606 -1.449,1.904 0.702,4.055 2.604,2.606"
                           style="fill:url(#radialGradient3576);stroke:none"
                           id="path3584"
                           inkscape:connector-curvature="0" /></g></g></g></g></g></g></g></g></g></g></mask><clipPath
     clipPathUnits="userSpaceOnUse"
     id="clipPath3540"><path
       d="m 662.317,61.7388 h 3.555 v -3.5557 h -3.555 z"
       id="path3538"
       inkscape:connector-curvature="0" /></clipPath><clipPath
     clipPathUnits="userSpaceOnUse"
     id="clipPath3544"><path
       d="m 661.343,62.7129 h 5.503 V 57.209 h -5.503 z"
       id="path3542"
       inkscape:connector-curvature="0" /></clipPath><clipPath
     clipPathUnits="userSpaceOnUse"
     id="clipPath3548"><path
       d="m 665.396,61.264 c 1.45,-1.904 -0.701,-4.055 -2.604,-2.606 -1.449,1.904 0.702,4.055 2.604,2.606"
       id="path3546"
       inkscape:connector-curvature="0" /></clipPath><mask
     maskUnits="userSpaceOnUse"
     x="0"
     y="0"
     width="1"
     height="1"
     id="mask3558"><g
       id="g3570"><g
         clip-path="url(#clipPath3552)"
         id="g3568"><g
           id="g3566"><g
             id="g3560" /><g
             id="g3564"><g
               clip-path="url(#clipPath3556)"
               id="g3562" /></g></g></g></g></mask><clipPath
     clipPathUnits="userSpaceOnUse"
     id="clipPath3552"><path
       d="M -24199,24824 H 8567 V -7942 h -32766 z"
       id="path3550"
       inkscape:connector-curvature="0" /></clipPath><clipPath
     clipPathUnits="userSpaceOnUse"
     id="clipPath3556"><path
       d="M -24199,24824 H 8567 V -7942 h -32766 z"
       id="path3554"
       inkscape:connector-curvature="0" /></clipPath><radialGradient
     fx="0"
     fy="0"
     cx="0"
     cy="0"
     r="1"
     gradientUnits="userSpaceOnUse"
     gradientTransform="matrix(1.8640594,0,0,-1.8640594,664.07715,59.914062)"
     spreadMethod="pad"
     id="radialGradient3576"><stop
       style="stop-opacity:1;stop-color:#ffffff"
       offset="0"
       id="stop3572" /><stop
       style="stop-opacity:1;stop-color:#1e120d"
       offset="1"
       id="stop3574" /></radialGradient><clipPath
     clipPathUnits="userSpaceOnUse"
     id="clipPath3608"><path
       d="m 662.317,61.7388 h 3.555 v -3.5557 h -3.555 z"
       id="path3606"
       inkscape:connector-curvature="0" /></clipPath><clipPath
     clipPathUnits="userSpaceOnUse"
     id="clipPath3612"><path
       d="m 665.396,61.264 c 1.45,-1.904 -0.701,-4.055 -2.604,-2.606 -1.449,1.904 0.702,4.055 2.604,2.606"
       id="path3610"
       inkscape:connector-curvature="0" /></clipPath><radialGradient
     fx="0"
     fy="0"
     cx="0"
     cy="0"
     r="1"
     gradientUnits="userSpaceOnUse"
     gradientTransform="matrix(1.8640594,0,0,-1.8640594,664.07697,59.913818)"
     spreadMethod="pad"
     id="radialGradient3618"><stop
       style="stop-opacity:1;stop-color:#ffffff"
       offset="0"
       id="stop3614" /><stop
       style="stop-opacity:1;stop-color:#000000"
       offset="1"
       id="stop3616" /></radialGradient><mask
     maskUnits="userSpaceOnUse"
     x="0"
     y="0"
     width="1"
     height="1"
     id="mask3308"><g
       id="g3336"><g
         clip-path="url(#clipPath3268)"
         id="g3334"><path
           d="m 664.814,62.199 h 8.44 v -8.44 h -8.44 z"
           style="fill:#000000;fill-opacity:1;fill-rule:nonzero;stroke:none"
           id="path3310"
           inkscape:connector-curvature="0" /><g
           id="g3332"><g
             id="g3312" /><g
             id="g3330"><g
               clip-path="url(#clipPath3272)"
               id="g3328"><g
                 id="g3326"><g
                   clip-path="url(#clipPath3276)"
                   id="g3324"><g
                     id="g3322"><g
                       id="g3314" /><g
                       mask="url(#mask3286)"
                       id="g3320"><g
                         id="g3318"><path
                           d="m 672.876,57.979 c 0,-2.123 -1.719,-3.842 -3.841,-3.842 -2.122,0 -3.843,1.719 -3.843,3.842 0,2.122 1.721,3.842 3.843,3.842 2.122,0 3.841,-1.72 3.841,-3.842"
                           style="fill:url(#radialGradient3306);stroke:none"
                           id="path3316"
                           inkscape:connector-curvature="0" /></g></g></g></g></g></g></g></g></g></g></mask><clipPath
     clipPathUnits="userSpaceOnUse"
     id="clipPath3268"><path
       d="m 665.192,61.821 h 7.684 v -7.6847 h -7.684 z"
       id="path3266"
       inkscape:connector-curvature="0" /></clipPath><clipPath
     clipPathUnits="userSpaceOnUse"
     id="clipPath3272"><path
       d="m 664.814,62.1992 h 8.44 v -8.4404 h -8.44 z"
       id="path3270"
       inkscape:connector-curvature="0" /></clipPath><clipPath
     clipPathUnits="userSpaceOnUse"
     id="clipPath3276"><path
       d="m 672.876,57.979 c 0,-2.123 -1.719,-3.842 -3.841,-3.842 -2.122,0 -3.843,1.719 -3.843,3.842 0,2.122 1.721,3.842 3.843,3.842 2.122,0 3.841,-1.72 3.841,-3.842"
       id="path3274"
       inkscape:connector-curvature="0" /></clipPath><mask
     maskUnits="userSpaceOnUse"
     x="0"
     y="0"
     width="1"
     height="1"
     id="mask3286"><g
       id="g3298"><g
         clip-path="url(#clipPath3280)"
         id="g3296"><g
           id="g3294"><g
             id="g3288" /><g
             id="g3292"><g
               clip-path="url(#clipPath3284)"
               id="g3290" /></g></g></g></g></mask><clipPath
     clipPathUnits="userSpaceOnUse"
     id="clipPath3280"><path
       d="M -24199,24824 H 8567 V -7942 h -32766 z"
       id="path3278"
       inkscape:connector-curvature="0" /></clipPath><clipPath
     clipPathUnits="userSpaceOnUse"
     id="clipPath3284"><path
       d="M -24199,24824 H 8567 V -7942 h -32766 z"
       id="path3282"
       inkscape:connector-curvature="0" /></clipPath><radialGradient
     fx="0"
     fy="0"
     cx="0"
     cy="0"
     r="1"
     gradientUnits="userSpaceOnUse"
     gradientTransform="matrix(4.0680614,0,0,-4.0680614,668.95752,57.740234)"
     spreadMethod="pad"
     id="radialGradient3306"><stop
       style="stop-opacity:1;stop-color:#ffffff"
       offset="0"
       id="stop3300" /><stop
       style="stop-opacity:1;stop-color:#1e120d"
       offset="0.782178"
       id="stop3302" /><stop
       style="stop-opacity:1;stop-color:#1e120d"
       offset="1"
       id="stop3304" /></radialGradient><clipPath
     clipPathUnits="userSpaceOnUse"
     id="clipPath3344"><path
       d="m 665.192,61.821 h 7.684 v -7.6847 h -7.684 z"
       id="path3342"
       inkscape:connector-curvature="0" /></clipPath><mask
     maskUnits="userSpaceOnUse"
     x="0"
     y="0"
     width="1"
     height="1"
     id="mask3386"><g
       id="g3412"><g
         clip-path="url(#clipPath3348)"
         id="g3410"><g
           id="g3408"><g
             id="g3388" /><g
             id="g3406"><g
               clip-path="url(#clipPath3352)"
               id="g3404"><g
                 id="g3402"><g
                   clip-path="url(#clipPath3356)"
                   id="g3400"><g
                     id="g3398"><g
                       id="g3390" /><g
                       mask="url(#mask3366)"
                       id="g3396"><g
                         id="g3394"><path
                           d="m 672.824,58.63 c 0.43,-2.63 -1.811,-4.871 -4.441,-4.441 -1.591,0.262 -2.876,1.546 -3.137,3.139 -0.432,2.63 1.809,4.871 4.439,4.44 1.593,-0.262 2.877,-1.546 3.139,-3.138"
                           style="fill:url(#radialGradient3384);stroke:none"
                           id="path3392"
                           inkscape:connector-curvature="0" /></g></g></g></g></g></g></g></g></g></g></mask><clipPath
     clipPathUnits="userSpaceOnUse"
     id="clipPath3348"><path
       d="m 665.192,61.821 h 7.684 v -7.6847 h -7.684 z"
       id="path3346"
       inkscape:connector-curvature="0" /></clipPath><clipPath
     clipPathUnits="userSpaceOnUse"
     id="clipPath3352"><path
       d="m 664.814,62.1992 h 8.44 v -8.4404 h -8.44 z"
       id="path3350"
       inkscape:connector-curvature="0" /></clipPath><clipPath
     clipPathUnits="userSpaceOnUse"
     id="clipPath3356"><path
       d="m 672.824,58.63 c 0.43,-2.63 -1.811,-4.871 -4.441,-4.441 -1.591,0.262 -2.876,1.546 -3.137,3.139 -0.432,2.63 1.809,4.871 4.439,4.44 1.593,-0.262 2.877,-1.546 3.139,-3.138"
       id="path3354"
       inkscape:connector-curvature="0" /></clipPath><mask
     maskUnits="userSpaceOnUse"
     x="0"
     y="0"
     width="1"
     height="1"
     id="mask3366"><g
       id="g3378"><g
         clip-path="url(#clipPath3360)"
         id="g3376"><g
           id="g3374"><g
             id="g3368" /><g
             id="g3372"><g
               clip-path="url(#clipPath3364)"
               id="g3370" /></g></g></g></g></mask><clipPath
     clipPathUnits="userSpaceOnUse"
     id="clipPath3360"><path
       d="M -24199,24824 H 8567 V -7942 h -32766 z"
       id="path3358"
       inkscape:connector-curvature="0" /></clipPath><clipPath
     clipPathUnits="userSpaceOnUse"
     id="clipPath3364"><path
       d="M -24199,24824 H 8567 V -7942 h -32766 z"
       id="path3362"
       inkscape:connector-curvature="0" /></clipPath><radialGradient
     fx="0"
     fy="0"
     cx="0"
     cy="0"
     r="1"
     gradientUnits="userSpaceOnUse"
     gradientTransform="matrix(4.0286312,0,0,-4.0286312,668.99658,57.876953)"
     spreadMethod="pad"
     id="radialGradient3384"><stop
       style="stop-opacity:1;stop-color:#ffffff"
       offset="0"
       id="stop3380" /><stop
       style="stop-opacity:1;stop-color:#1e120d"
       offset="1"
       id="stop3382" /></radialGradient><clipPath
     clipPathUnits="userSpaceOnUse"
     id="clipPath3416"><path
       d="m 665.192,61.821 h 7.684 v -7.6847 h -7.684 z"
       id="path3414"
       inkscape:connector-curvature="0" /></clipPath><clipPath
     clipPathUnits="userSpaceOnUse"
     id="clipPath3420"><path
       d="m 672.823,58.63 c 0.431,-2.63 -1.81,-4.871 -4.44,-4.441 -1.592,0.262 -2.876,1.546 -3.138,3.139 -0.432,2.63 1.81,4.871 4.44,4.44 1.592,-0.262 2.877,-1.546 3.138,-3.138"
       id="path3418"
       inkscape:connector-curvature="0" /></clipPath><radialGradient
     fx="0"
     fy="0"
     cx="0"
     cy="0"
     r="1"
     gradientUnits="userSpaceOnUse"
     gradientTransform="matrix(4.0286312,0,0,-4.0286312,668.9964,57.876789)"
     spreadMethod="pad"
     id="radialGradient3426"><stop
       style="stop-opacity:1;stop-color:#ffffff"
       offset="0"
       id="stop3422" /><stop
       style="stop-opacity:1;stop-color:#000000"
       offset="1"
       id="stop3424" /></radialGradient></defs><sodipodi:namedview
   pagecolor="#ffffff"
   bordercolor="#666666"
   borderopacity="1"
   objecttolerance="10"
   gridtolerance="10"
   guidetolerance="10"
   inkscape:pageopacity="0"
   inkscape:pageshadow="2"
   inkscape:window-width="3440"
   inkscape:window-height="1387"
   id="namedview51"
   showgrid="false"
   inkscape:zoom="0.92187499"
   inkscape:cx="183.86441"
   inkscape:cy="40.677967"
   inkscape:window-x="0"
   inkscape:window-y="25"
   inkscape:window-maximized="1"
   inkscape:current-layer="Layer_1"
   inkscape:snap-bbox="true"
   inkscape:snap-bbox-midpoints="true"
   inkscape:document-rotation="0"
   inkscape:pagecheckerboard="0" />







<g
   id="g20"
   transform="translate(-66.46851,-146.46649)">
</g>
<g
   id="g22"
   transform="translate(-66.46851,-146.46649)">
</g>
<g
   id="g24"
   transform="translate(-66.46851,-146.46649)">
</g>
<g
   id="g26"
   transform="translate(-66.46851,-146.46649)">
</g>
<g
   id="g28"
   transform="translate(-66.46851,-146.46649)">
</g>
<g
   id="g30"
   transform="translate(-66.46851,-146.46649)">
</g>
<g
   id="g32"
   transform="translate(-66.46851,-146.46649)">
</g>
<g
   id="g34"
   transform="translate(-66.46851,-146.46649)">
</g>
<g
   id="g36"
   transform="translate(-66.46851,-146.46649)">
</g>
<g
   id="g38"
   transform="translate(-66.46851,-146.46649)">
</g>
<g
   id="g40"
   transform="translate(-66.46851,-146.46649)">
</g>
<g
   id="g42"
   transform="translate(-66.46851,-146.46649)">
</g>
<g
   id="g44"
   transform="translate(-66.46851,-146.46649)">
</g>
<g
   id="g46"
   transform="translate(-66.46851,-146.46649)">
</g>
<g
   id="g48"
   transform="translate(-66.46851,-146.46649)">
</g>
<path
   inkscape:connector-curvature="0"
   id="path1764"
   style="opacity:0.699997;fill:#f6b9ff;fill-opacity:1;fill-rule:nonzero;stroke:none;stroke-width:1.49733"
   d="m 224.9149,21.340191 9.14256,-1.647456 -9.14256,-1.647444 2.33546,-3.297849 -3.40353,2.263404 -1.70102,-8.8532142 -1.70101,8.8532142 -3.40354,-2.263404 2.33547,3.297849 -9.14104,1.647444 9.14104,1.647456 -2.33547,3.29638 3.40354,-2.261934 1.70101,8.853214 1.70102,-8.853214 3.40353,2.261934 z" /><path
   inkscape:connector-curvature="0"
   id="path1764-6"
   style="opacity:0.699997;fill:#f6b9ff;fill-opacity:1;fill-rule:nonzero;stroke:none;stroke-width:1.49733"
   d="m 330.82197,121.41352 9.14256,-1.64746 -9.14256,-1.64744 2.33546,-3.29785 -3.40353,2.2634 -1.70101,-8.85322 -1.70101,8.85322 -3.40355,-2.2634 2.33548,3.29785 -9.14104,1.64744 9.14104,1.64746 -2.33548,3.29638 3.40355,-2.26194 1.70101,8.85321 1.70101,-8.85321 3.40353,2.26194 z" /><path
   inkscape:connector-curvature="0"
   id="path1764-7"
   style="opacity:0.699997;fill:#f6b9ff;fill-opacity:1;fill-rule:nonzero;stroke:none;stroke-width:1.49733"
   d="m 368.45837,93.43924 9.14256,-1.647461 -9.14256,-1.647439 2.33546,-3.29785 -3.40354,2.263404 -1.70101,-8.853212 -1.701,8.853212 -3.40355,-2.263404 2.33547,3.29785 -9.14104,1.647439 9.14104,1.647461 -2.33547,3.29638 3.40355,-2.26194 1.701,8.85321 1.70101,-8.85321 3.40354,2.26194 z" /><path
   inkscape:connector-curvature="0"
   id="path1764-5"
   style="opacity:0.699997;fill:#f6b9ff;fill-opacity:1;fill-rule:nonzero;stroke:none;stroke-width:1.49733"
   d="m 294.06083,88.353001 9.14256,-1.647456 -9.14256,-1.647448 2.33546,-3.29785 -3.40353,2.263403 -1.70101,-8.853211 -1.70101,8.853211 -3.40355,-2.263403 2.33547,3.29785 -9.14104,1.647448 9.14104,1.647456 -2.33547,3.296381 3.40355,-2.261934 1.70101,8.853212 1.70101,-8.853212 3.40353,2.261934 z" /><g
   id="g2448"
   transform="matrix(2.4021305,0,0,2.3264944,-653.83408,-784.34496)"><g
     id="g3262"
     transform="matrix(1.3333333,0,0,-1.3333333,-473.49554,412.97588)"><g
       id="g3264" /><g
       mask="url(#mask3308)"
       id="g3338"><g
         id="g3340" /><g
         id="g3452"><g
           id="g3450"
           clip-path="url(#clipPath3344)"><g
             id="g3448"><g
               id="g3428" /><g
               id="g3446"
               mask="url(#mask3386)"><g
                 id="g3430" /><g
                 id="g3444"><g
                   id="g3442"
                   clip-path="url(#clipPath3416)"><g
                     id="g3440"><g
                       id="g3438"
                       clip-path="url(#clipPath3420)"><g
                         id="g3436"><g
                           id="g3434"><path
                             inkscape:connector-curvature="0"
                             id="path3432"
                             style="fill:url(#radialGradient3426);stroke:none"
                             d="m 672.823,58.63 c 0.431,-2.63 -1.81,-4.871 -4.44,-4.441 -1.592,0.262 -2.876,1.546 -3.138,3.139 -0.432,2.63 1.81,4.871 4.44,4.44 1.592,-0.262 2.877,-1.546 3.138,-3.138" /></g></g></g></g></g></g></g></g></g></g></g></g><g
     id="g3454"
     transform="matrix(1.3333333,0,0,-1.3333333,-473.49554,412.97588)"><g
       id="g3456" /><g
       mask="url(#mask3500)"
       id="g3530"><g
         id="g3532" /><g
         id="g3644"><g
           id="g3642"
           clip-path="url(#clipPath3536)"><g
             id="g3640"><g
               id="g3620" /><g
               id="g3638"
               mask="url(#mask3578)"><g
                 id="g3622" /><g
                 id="g3636"><g
                   id="g3634"
                   clip-path="url(#clipPath3608)"><g
                     id="g3632"><g
                       id="g3630"
                       clip-path="url(#clipPath3612)"><g
                         id="g3628"><g
                           id="g3626"><path
                             inkscape:connector-curvature="0"
                             id="path3624"
                             style="fill:url(#radialGradient3618);stroke:none"
                             d="m 665.396,61.264 c 1.45,-1.904 -0.701,-4.055 -2.604,-2.606 -1.449,1.904 0.702,4.055 2.604,2.606" /></g></g></g></g></g></g></g></g></g></g></g></g><g
     id="g3646"
     transform="matrix(1.3333333,0,0,-1.3333333,-473.49554,412.97588)"><g
       id="g3648" /><g
       mask="url(#mask3692)"
       id="g3722"><g
         id="g3724" /><g
         id="g3836"><g
           id="g3834"
           clip-path="url(#clipPath3728)"><g
             id="g3832"><g
               id="g3812" /><g
               id="g3830"
               mask="url(#mask3770)"><g
                 id="g3814" /><g
                 id="g3828"><g
                   id="g3826"
                   clip-path="url(#clipPath3800)"><g
                     id="g3824"><g
                       id="g3822"
                       clip-path="url(#clipPath3804)"><g
                         id="g3820"><g
                           id="g3818"><path
                             inkscape:connector-curvature="0"
                             id="path3816"
                             style="fill:url(#radialGradient3810);stroke:none"
                             d="m 678.618,58.302 c -0.384,-0.473 0.187,-1.007 0.691,-0.647 0.384,0.473 -0.186,1.007 -0.691,0.647" /></g></g></g></g></g></g></g></g></g></g></g></g><g
     transform="matrix(1.3333333,0,0,-1.3333333,440.85084,342.09442)"
     id="g3838"><path
       inkscape:connector-curvature="0"
       id="path3840"
       style="fill:#f8316f;fill-opacity:1;fill-rule:nonzero;stroke:none"
       d="m 0,0 c 0,-0.144 -0.002,-0.288 -0.005,-0.429 -0.003,-0.123 -0.008,-0.243 -0.014,-0.363 -0.007,-0.146 -0.015,-0.29 -0.026,-0.437 -0.005,-0.067 -0.011,-0.133 -0.016,-0.2 -0.008,-0.098 -0.016,-0.197 -0.027,-0.293 -0.011,-0.109 -0.02,-0.218 -0.034,-0.325 -0.008,-0.057 -0.014,-0.112 -0.024,-0.169 -0.005,-0.058 -0.013,-0.117 -0.022,-0.173 -0.071,-0.496 -0.162,-0.986 -0.279,-1.465 -0.222,-0.953 -0.531,-1.873 -0.912,-2.752 h -0.003 c -0.005,-0.016 -0.01,-0.032 -0.019,-0.048 -0.146,-0.338 -0.304,-0.672 -0.474,-0.997 -0.101,-0.195 -0.206,-0.384 -0.312,-0.574 -0.083,-0.143 -0.165,-0.285 -0.251,-0.423 -0.354,-0.579 -0.74,-1.133 -1.159,-1.662 -0.184,-0.225 -0.371,-0.45 -0.563,-0.669 -0.032,-0.037 -0.061,-0.071 -0.093,-0.106 -0.483,-0.536 -0.999,-1.04 -1.546,-1.506 -0.104,-0.091 -0.208,-0.179 -0.312,-0.264 -0.608,-0.493 -1.251,-0.947 -1.925,-1.352 h -0.003 c -0.847,-0.512 -1.743,-0.948 -2.681,-1.304 -0.177,-0.066 -0.353,-0.13 -0.529,-0.188 -0.152,-0.051 -0.303,-0.102 -0.456,-0.147 -0.122,-0.041 -0.248,-0.075 -0.37,-0.109 -1.426,-0.403 -2.929,-0.616 -4.484,-0.616 -1.107,0 -2.186,0.109 -3.229,0.314 -0.671,0.134 -1.33,0.307 -1.966,0.52 -0.353,0.115 -0.7,0.243 -1.04,0.383 -0.248,0.1 -0.491,0.207 -0.731,0.318 -0.293,0.137 -0.584,0.283 -0.869,0.437 -0.152,0.08 -0.302,0.163 -0.448,0.251 -0.042,0.022 -0.082,0.045 -0.122,0.072 -0.022,0.013 -0.04,0.024 -0.062,0.038 h -0.003 c -0.055,0.031 -0.109,0.063 -0.165,0.1 -0.208,0.123 -0.413,0.257 -0.616,0.393 -0.008,0.005 -0.016,0.011 -0.023,0.016 -0.097,0.066 -0.193,0.133 -0.286,0.205 h -0.005 c -0.625,0.445 -1.216,0.93 -1.77,1.453 -0.539,0.507 -1.043,1.05 -1.512,1.624 -0.046,0.055 -0.093,0.114 -0.136,0.173 -0.253,0.32 -0.494,0.647 -0.722,0.986 -0.014,0.018 -0.027,0.04 -0.04,0.059 -0.245,0.365 -0.478,0.741 -0.694,1.127 -0.064,0.118 -0.13,0.235 -0.189,0.352 -0.029,0.051 -0.056,0.102 -0.082,0.155 -0.009,0.013 -0.014,0.03 -0.022,0.042 -0.027,0.046 -0.05,0.091 -0.072,0.139 -0.015,0.035 -0.035,0.066 -0.051,0.102 -0.101,0.205 -0.197,0.416 -0.291,0.626 -0.117,0.264 -0.226,0.531 -0.33,0.802 -0.434,1.155 -0.746,2.367 -0.914,3.629 -0.027,0.192 -0.048,0.386 -0.067,0.581 -0.024,0.221 -0.04,0.445 -0.053,0.672 -0.006,0.069 -0.008,0.139 -0.008,0.208 -0.008,0.085 -0.01,0.173 -0.013,0.261 -0.005,0.165 -0.008,0.333 -0.008,0.501 0,0.096 0,0.192 0.003,0.288 0,0.048 0.002,0.094 0.005,0.141 0.005,0.28 0.018,0.56 0.04,0.837 0.008,0.118 0.018,0.235 0.032,0.35 0.013,0.159 0.031,0.319 0.053,0.479 v 0.003 c 0.018,0.158 0.04,0.315 0.067,0.469 0.008,0.065 0.019,0.126 0.029,0.19 0.03,0.171 0.059,0.338 0.093,0.506 v 0.002 c 0.019,0.099 0.04,0.198 0.065,0.294 0.055,0.261 0.12,0.517 0.186,0.773 v 0.003 c 0.013,0.046 0.024,0.091 0.037,0.134 0.019,0.069 0.04,0.138 0.059,0.208 0.058,0.194 0.12,0.388 0.186,0.581 0.118,0.356 0.251,0.711 0.395,1.055 0.008,0.022 0.018,0.042 0.026,0.064 v 0.003 c 0.137,0.328 0.286,0.653 0.446,0.967 0.002,0.011 0.008,0.019 0.013,0.03 0.054,0.112 0.11,0.22 0.168,0.33 0.003,0.003 0.005,0.009 0.005,0.011 0.029,0.058 0.062,0.115 0.097,0.173 0.533,0.979 1.159,1.901 1.874,2.748 0.514,0.614 1.071,1.187 1.671,1.717 0.176,0.157 0.355,0.31 0.536,0.459 0.405,0.33 0.824,0.643 1.261,0.933 0.81,0.547 1.677,1.021 2.581,1.416 0.01,0.005 0.021,0.008 0.032,0.014 0.018,0.007 0.034,0.015 0.053,0.02 2.003,0.864 4.21,1.342 6.526,1.342 0.064,0 0.131,0 0.194,-0.003 2.483,-0.026 4.831,-0.6 6.935,-1.608 0.165,-0.077 0.328,-0.157 0.49,-0.243 0.003,-0.002 0.006,-0.005 0.008,-0.005 0.266,-0.141 0.531,-0.285 0.789,-0.442 0.009,-0.003 0.017,-0.008 0.024,-0.017 0.459,-0.268 0.904,-0.564 1.333,-0.879 0,0 0.003,0 0.003,-0.002 0.067,-0.048 0.13,-0.097 0.198,-0.147 h 0.002 c 0.038,-0.029 0.072,-0.057 0.109,-0.086 0.134,-0.103 0.267,-0.208 0.397,-0.317 0.073,-0.059 0.142,-0.117 0.211,-0.176 0.051,-0.042 0.099,-0.085 0.147,-0.128 0.325,-0.279 0.637,-0.573 0.938,-0.88 l 0.005,-0.005 c 0.04,-0.04 0.075,-0.075 0.115,-0.117 l 0.011,-0.011 c 0.037,-0.04 0.074,-0.077 0.111,-0.12 0.118,-0.123 0.236,-0.245 0.35,-0.373 l 0.261,-0.306 c 0.155,-0.179 0.304,-0.369 0.451,-0.558 0.051,-0.064 0.101,-0.131 0.151,-0.197 0.022,-0.03 0.046,-0.059 0.068,-0.088 0.031,-0.042 0.06,-0.082 0.09,-0.125 0.08,-0.11 0.16,-0.222 0.24,-0.336 0.026,-0.04 0.055,-0.08 0.083,-0.12 0.042,-0.065 0.085,-0.125 0.125,-0.19 0.003,0 0.003,-0.002 0.003,-0.002 0.037,-0.056 0.074,-0.112 0.109,-0.171 0.013,-0.018 0.024,-0.037 0.034,-0.056 0.142,-0.218 0.275,-0.443 0.403,-0.669 0.021,-0.04 0.046,-0.077 0.067,-0.117 0.045,-0.082 0.093,-0.165 0.139,-0.251 0.037,-0.075 0.077,-0.149 0.114,-0.224 0.037,-0.069 0.072,-0.141 0.106,-0.21 0.014,-0.027 0.028,-0.051 0.038,-0.078 0.069,-0.139 0.136,-0.279 0.2,-0.421 0.008,-0.018 0.018,-0.04 0.026,-0.059 0.035,-0.074 0.067,-0.149 0.099,-0.223 0.05,-0.115 0.099,-0.233 0.147,-0.347 0.192,-0.472 0.362,-0.955 0.509,-1.445 0.045,-0.15 0.091,-0.299 0.131,-0.45 0.042,-0.16 0.082,-0.321 0.12,-0.481 0.011,-0.039 0.018,-0.077 0.026,-0.117 0.027,-0.114 0.054,-0.231 0.077,-0.349 0.011,-0.053 0.022,-0.106 0.033,-0.16 0.01,-0.045 0.018,-0.094 0.026,-0.138 0.011,-0.048 0.019,-0.099 0.026,-0.147 0.071,-0.371 0.126,-0.747 0.166,-1.125 0.019,-0.157 0.032,-0.314 0.045,-0.472 0.011,-0.123 0.019,-0.248 0.027,-0.374 0.008,-0.119 0.013,-0.239 0.019,-0.359 V 0.53 C -0.005,0.416 -0.002,0.299 -0.002,0.184 0,0.123 0,0.062 0,0" /></g><g
     id="g3842"
     transform="matrix(1.3333333,0,0,-1.3333333,-473.49554,412.97588)"><g
       id="g3844" /><g
       id="g3872"><g
         style="opacity:0.130005"
         id="g3870"
         clip-path="url(#clipPath3848)"><g
           id="g3868"><g
             id="g3866"
             clip-path="url(#clipPath3852)"><g
               id="g3864"><g
                 id="g3862"><path
                   inkscape:connector-curvature="0"
                   id="path3860"
                   style="fill:url(#linearGradient3858);stroke:none"
                   d="m 676.613,50.392 c -0.218,0 -0.397,0.178 -0.397,0.397 0,0.221 0.179,0.399 0.397,0.399 0.222,0 0.401,-0.178 0.401,-0.399 0,-0.219 -0.179,-0.397 -0.401,-0.397 m -1.666,1.94 c -0.442,0 -0.797,0.357 -0.797,0.797 0,0.44 0.355,0.798 0.797,0.798 0.44,0 0.794,-0.358 0.794,-0.798 0,-0.44 -0.354,-0.797 -0.794,-0.797 m -19.192,-3.034 c -0.578,0 -1.045,0.47 -1.045,1.046 0,0.575 0.467,1.045 1.045,1.045 0.576,0 1.043,-0.47 1.043,-1.045 0,-0.576 -0.467,-1.046 -1.043,-1.046 m 0.246,9.323 c 0.442,0 0.797,-0.357 0.797,-0.797 0,-0.44 -0.355,-0.798 -0.797,-0.798 -0.44,0 -0.795,0.358 -0.795,0.798 0,0.44 0.355,0.797 0.795,0.797 m 29.757,-5.276 c 0,0.115 -0.003,0.232 -0.008,0.346 v 0.054 c -0.006,0.12 -0.011,0.24 -0.02,0.359 -0.007,0.126 -0.015,0.251 -0.026,0.375 -0.014,0.157 -0.026,0.314 -0.045,0.471 -0.04,0.378 -0.096,0.754 -0.166,1.125 -2.199,0.085 -5.297,0.07 -8.256,-0.416 -5.42,-0.888 -8.218,-4.01 -14.441,-4.471 -6.22,-0.463 -7.952,3.127 -6.308,4.471 1.643,1.344 9.464,2.389 17.462,2.477 5.454,0.061 9.243,-0.107 11.104,-0.219 -0.147,0.49 -0.318,0.974 -0.509,1.445 -0.048,0.115 -0.097,0.232 -0.148,0.347 -0.031,0.074 -0.063,0.149 -0.098,0.224 -0.008,0.018 -0.019,0.04 -0.027,0.058 -0.074,0.168 -0.154,0.336 -0.237,0.499 -0.034,0.07 -0.069,0.141 -0.106,0.21 -0.037,0.075 -0.077,0.15 -0.115,0.224 -3.042,-0.674 -9.07,-1.754 -16.574,-1.778 -6.35,-0.021 -10.741,0.15 -13.308,0.296 -0.144,-0.343 -0.278,-0.699 -0.395,-1.055 -0.066,-0.193 -0.128,-0.387 -0.186,-0.581 -0.019,-0.07 -0.04,-0.139 -0.059,-0.208 -0.014,-0.043 -0.024,-0.088 -0.037,-0.134 v -0.003 c -0.067,-0.256 -0.131,-0.512 -0.187,-0.773 -0.024,-0.096 -0.046,-0.195 -0.064,-0.293 v -0.002 c -0.034,-0.168 -0.064,-0.336 -0.093,-0.507 -0.011,-0.064 -0.021,-0.125 -0.029,-0.19 -0.028,-0.154 -0.049,-0.311 -0.068,-0.468 v -0.003 c -0.021,-0.161 -0.04,-0.321 -0.052,-0.48 -0.014,-0.115 -0.025,-0.232 -0.033,-0.349 -0.021,-0.278 -0.035,-0.558 -0.04,-0.837 -0.002,-0.048 -0.004,-0.094 -0.004,-0.142 -0.003,-0.096 -0.003,-0.191 -0.003,-0.288 0,-0.168 0.003,-0.336 0.007,-0.501 0.003,-0.088 0.005,-0.176 0.014,-0.261 0,-0.069 0.002,-0.138 0.008,-0.208 0.013,-0.226 0.029,-0.451 0.053,-0.672 0.019,-0.195 0.04,-0.389 0.067,-0.581 0.168,-1.261 0.48,-2.474 0.914,-3.629 4.209,0.56 15.143,1.99 20.293,2.405 3.816,0.309 8.353,-0.05 11.274,-0.375 0.118,0.479 0.209,0.969 0.28,1.465 0.009,0.056 0.016,0.115 0.021,0.173 0.011,0.057 0.017,0.113 0.025,0.169 0.013,0.107 0.023,0.216 0.034,0.325 0.011,0.096 0.018,0.195 0.027,0.293 0.005,0.067 0.011,0.133 0.016,0.201 0.011,0.146 0.018,0.29 0.026,0.436 0.006,0.12 0.011,0.24 0.014,0.363 0.003,0.141 0.005,0.286 0.005,0.429 0,0.062 0,0.123 -0.002,0.184" /></g></g></g></g></g></g></g><g
     id="g3874"
     transform="matrix(1.3333333,0,0,-1.3333333,-473.49554,412.97588)"><g
       id="g3876" /><g
       id="g3904"><g
         style="opacity:0.25"
         id="g3902"
         clip-path="url(#clipPath3880)"><g
           id="g3900"><g
             id="g3898"
             clip-path="url(#clipPath3884)"><g
               id="g3896"><g
                 id="g3894"><path
                   inkscape:connector-curvature="0"
                   id="path3892"
                   style="fill:url(#linearGradient3890);stroke:none"
                   d="m 660.373,42.526 c -1.547,0 -2.803,0.358 -2.803,0.798 0,0.44 1.256,0.797 2.803,0.797 1.546,0 2.802,-0.357 2.802,-0.797 0,-0.44 -1.256,-0.798 -2.802,-0.798 m 9.179,2.19 c -6.91,0.031 -12.611,0.749 -15.186,1.133 0.016,-0.036 0.035,-0.067 0.051,-0.102 0.021,-0.048 0.045,-0.093 0.072,-0.139 0.008,-0.012 0.013,-0.029 0.022,-0.042 0.026,-0.053 0.052,-0.104 0.082,-0.155 0.058,-0.117 0.125,-0.234 0.189,-0.351 0.216,-0.387 0.448,-0.763 0.694,-1.128 0.012,-0.019 0.026,-0.04 0.04,-0.059 0.228,-0.339 0.468,-0.666 0.721,-0.986 0.043,-0.059 0.091,-0.117 0.137,-0.173 0.469,-0.573 0.973,-1.117 1.512,-1.624 0.553,-0.523 1.145,-1.008 1.769,-1.453 h 0.006 c 0.093,-0.072 0.189,-0.139 0.285,-0.205 0.008,-0.005 0.016,-0.011 0.024,-0.016 0.203,-0.136 0.408,-0.27 0.616,-0.393 0.056,-0.037 0.109,-0.069 0.165,-0.1 h 0.003 c 0.021,-0.014 0.04,-0.025 0.061,-0.038 0.04,-0.027 0.081,-0.05 0.122,-0.072 0.147,-0.087 0.296,-0.17 0.449,-0.25 0.285,-0.155 0.576,-0.301 0.869,-0.438 3.546,0.227 6.683,0.345 7.563,0.145 1.016,-0.233 -1.117,-0.8 -3.826,-1.366 1.043,-0.205 2.122,-0.314 3.229,-0.314 1.554,0 3.057,0.213 4.484,0.616 0.122,0.034 0.248,0.068 0.37,0.109 0.153,0.045 0.304,0.096 0.456,0.147 0.176,0.059 0.352,0.122 0.529,0.188 0.938,0.356 1.834,0.792 2.681,1.304 h 0.003 c 0.674,0.405 1.317,0.859 1.925,1.352 0.103,0.086 0.208,0.173 0.311,0.264 -0.869,-0.093 -2.114,-0.216 -3.897,-0.376 -5.377,-0.482 -14.263,0.125 -14.042,0.782 0.222,0.658 5.511,1.698 12.13,1.503 3.099,-0.093 5.631,-0.203 7.449,-0.296 0.192,0.218 0.379,0.443 0.563,0.669 0.419,0.528 0.804,1.083 1.159,1.661 0.086,0.138 0.168,0.28 0.251,0.424 0.106,0.189 0.211,0.378 0.311,0.573 0.171,0.325 0.328,0.659 0.475,0.997 0.009,0.016 0.014,0.032 0.018,0.048 -2.66,-0.693 -8.168,-1.868 -14.845,-1.839" /></g></g></g></g></g></g></g><g
     id="g3906"
     transform="matrix(1.3333333,0,0,-1.3333333,-473.49554,412.97588)"><g
       id="g3908" /><g
       id="g3936"><g
         style="opacity:0.130005"
         id="g3934"
         clip-path="url(#clipPath3912)"><g
           id="g3932"><g
             id="g3930"
             clip-path="url(#clipPath3916)"><g
               id="g3928"><g
                 id="g3926"><path
                   inkscape:connector-curvature="0"
                   id="path3924"
                   style="fill:url(#linearGradient3922);stroke:none"
                   d="m 681.13,64.604 c -2.416,-0.737 -6.636,-1.709 -11.909,-1.632 -5.084,0.075 -9.757,0.485 -12.66,0.797 0.514,0.613 1.071,1.186 1.67,1.716 2.779,-0.633 6.052,-1.25 8.697,-1.351 5.777,-0.221 11.687,1.333 10.664,2.008 -1.022,0.676 -5.375,-0.275 -10.84,0 -2.466,0.125 -4.849,0.434 -6.724,0.735 0.811,0.547 1.678,1.021 2.581,1.416 0.011,0.005 0.022,0.008 0.033,0.014 0.018,0.007 0.034,0.015 0.052,0.02 2.104,-0.308 4.924,-0.522 8.59,-0.429 2.141,0.054 3.791,0.11 5.066,0.161 0.165,-0.078 0.328,-0.158 0.49,-0.244 0.003,-0.002 0.006,-0.004 0.008,-0.004 0.266,-0.142 0.531,-0.286 0.789,-0.443 0.009,-0.003 0.016,-0.008 0.024,-0.016 0.459,-0.269 0.903,-0.565 1.333,-0.88 0,0 0.003,0 0.003,-0.002 0.066,-0.048 0.13,-0.097 0.197,-0.147 h 0.002 c 0.038,-0.029 0.073,-0.056 0.11,-0.086 0.133,-0.103 0.266,-0.208 0.397,-0.317 0.072,-0.059 0.142,-0.117 0.211,-0.176 0.051,-0.042 0.099,-0.085 0.147,-0.128 0.325,-0.279 0.636,-0.573 0.938,-0.88 l 0.005,-0.005 c 0.04,-0.04 0.075,-0.075 0.115,-0.117 z" /></g></g></g></g></g></g></g><g
     id="g3938"
     transform="matrix(1.3333333,0,0,-1.3333333,-473.49554,412.97588)"><g
       id="g3940" /><g
       id="g3952"><g
         style="opacity:0.199997"
         id="g3950"
         clip-path="url(#clipPath3944)"><g
           id="g3948"
           transform="translate(685.7598,53.1611)"><path
             inkscape:connector-curvature="0"
             id="path3946"
             style="fill:#000084;fill-opacity:1;fill-rule:nonzero;stroke:none"
             d="m 0,0 c 0,-0.144 -0.002,-0.288 -0.005,-0.429 -0.003,-0.123 -0.008,-0.243 -0.014,-0.363 -0.007,-0.146 -0.015,-0.29 -0.026,-0.437 -0.005,-0.067 -0.011,-0.133 -0.016,-0.2 -0.008,-0.098 -0.016,-0.197 -0.027,-0.293 -0.011,-0.109 -0.02,-0.218 -0.034,-0.325 -0.008,-0.057 -0.014,-0.112 -0.024,-0.169 -0.005,-0.058 -0.013,-0.117 -0.022,-0.173 -0.071,-0.496 -0.162,-0.986 -0.279,-1.465 -0.222,-0.953 -0.531,-1.873 -0.912,-2.752 h -0.003 c -0.005,-0.016 -0.01,-0.032 -0.019,-0.048 -0.146,-0.338 -0.304,-0.672 -0.474,-0.997 -0.101,-0.195 -0.206,-0.384 -0.312,-0.574 -0.083,-0.143 -0.165,-0.285 -0.251,-0.423 -0.354,-0.579 -0.74,-1.133 -1.159,-1.662 -0.184,-0.225 -0.371,-0.45 -0.563,-0.669 -0.032,-0.037 -0.061,-0.071 -0.093,-0.106 -0.483,-0.536 -0.999,-1.04 -1.546,-1.506 -0.104,-0.091 -0.208,-0.179 -0.312,-0.264 -0.608,-0.493 -1.251,-0.947 -1.925,-1.352 h -0.003 c -0.847,-0.512 -1.743,-0.948 -2.681,-1.304 -0.177,-0.066 -0.353,-0.13 -0.529,-0.188 -0.152,-0.051 -0.303,-0.102 -0.456,-0.147 -0.122,-0.041 -0.248,-0.075 -0.37,-0.109 -1.426,-0.403 -2.929,-0.616 -4.484,-0.616 -1.107,0 -2.186,0.109 -3.229,0.314 -0.671,0.134 -1.33,0.307 -1.966,0.52 -0.353,0.115 -0.7,0.243 -1.04,0.383 -0.248,0.1 -0.491,0.207 -0.731,0.318 -0.293,0.137 -0.584,0.283 -0.869,0.437 -0.152,0.08 -0.302,0.163 -0.448,0.251 -0.042,0.022 -0.082,0.045 -0.122,0.072 -0.022,0.013 -0.04,0.024 -0.062,0.038 h -0.003 c -0.055,0.031 -0.109,0.063 -0.165,0.1 -0.208,0.123 -0.413,0.257 -0.616,0.393 -0.008,0.005 -0.016,0.011 -0.023,0.016 -0.097,0.066 -0.193,0.133 -0.286,0.205 h -0.005 c -0.625,0.445 -1.216,0.93 -1.77,1.453 -0.539,0.507 -1.043,1.05 -1.512,1.624 -0.046,0.055 -0.093,0.114 -0.136,0.173 -0.253,0.32 -0.494,0.647 -0.722,0.986 -0.014,0.018 -0.027,0.04 -0.04,0.059 -0.245,0.365 -0.478,0.741 -0.694,1.127 -0.064,0.118 -0.13,0.235 -0.189,0.352 -0.029,0.051 -0.056,0.102 -0.082,0.155 -0.009,0.013 -0.014,0.03 -0.022,0.042 -0.027,0.046 -0.05,0.091 -0.072,0.139 -0.015,0.035 -0.035,0.066 -0.051,0.102 -0.101,0.205 -0.197,0.416 -0.291,0.626 4.048,-0.08 11.187,0.4 18.297,3.916 6.521,3.226 9.954,7.196 11.701,10.021 0.069,-0.139 0.136,-0.279 0.2,-0.421 0.008,-0.018 0.018,-0.04 0.026,-0.059 0.035,-0.074 0.067,-0.149 0.099,-0.223 0.05,-0.115 0.099,-0.233 0.147,-0.347 0.192,-0.472 0.362,-0.955 0.509,-1.445 0.045,-0.15 0.091,-0.299 0.131,-0.45 0.042,-0.16 0.082,-0.321 0.12,-0.481 0.011,-0.039 0.018,-0.077 0.026,-0.117 0.027,-0.114 0.054,-0.231 0.077,-0.349 0.011,-0.053 0.022,-0.106 0.033,-0.16 0.01,-0.045 0.018,-0.094 0.026,-0.138 0.011,-0.048 0.019,-0.099 0.026,-0.147 0.071,-0.371 0.126,-0.747 0.166,-1.125 0.019,-0.157 0.032,-0.314 0.045,-0.472 0.011,-0.123 0.019,-0.248 0.027,-0.374 0.008,-0.119 0.013,-0.239 0.019,-0.359 V 0.53 C -0.005,0.416 -0.002,0.299 -0.002,0.184 0,0.123 0,0.062 0,0" /></g></g></g></g></g></svg>
