<svg xmlns="http://www.w3.org/2000/svg" viewBox="0 0 1920 333.6"><defs><style>.cls-1{fill:#0f172a;}</style></defs><title>Asset 5</title><g id="Layer_2" data-name="Layer 2"><g id="Layer_1-2" data-name="Layer 1"><path class="cls-1" d="M1920,142.68V333.6H0V0L3.58,1.94,59.7,61.17l38.57,61.61L83.09,206.29l.64,1.42L77.91,255l28.61,3.52L108,262l8,21.33,46.23-17.42,44.49-7.22,49.31-24h77v13.52l21.3-10.9,70-19.66,75.85,38.08,60.44-8.25L701.5,237.21l11.14,24.73,9.94-7.08,30.95-6.38,21.1-3,7.22-31.12,15.89-9.88,73-6.81L963,195.34l49.3,2.4,33.49,16.82,37.92,2.27,9.16-18.22,72.27-55.08,43.89,57.6,7.24,49.88,14.49.29,56.43-27.21,22.67-.4,26.4,11.09,17.31,8.56,21.4-19.57,17,.76,58,32.32,70.16,45.6,34.3,26.09,7.56-2.94v-29l12-12,63-21,81-21,44-8,33,8,46.36-7.89,1.71-2.27,37.48-33.19,32-51.86Z"/></g></g></svg>