<?xml version="1.0" standalone="no"?>
<!DOCTYPE svg PUBLIC "-//W3C//DTD SVG 20010904//EN"
 "http://www.w3.org/TR/2001/REC-SVG-20010904/DTD/svg10.dtd">
<svg version="1.0" xmlns="http://www.w3.org/2000/svg"
 width="700.000000pt" height="700.000000pt" viewBox="0 0 700.000000 700.000000"
 preserveAspectRatio="xMidYMid meet">
<metadata>
Created by potrace 1.14, written by Peter Selinger 2001-2017
</metadata>
<g transform="translate(0.000000,700.000000) scale(0.100000,-0.100000)"
fill="#000000" stroke="none">
<path d="M3280 6994 c-855 -62 -1616 -401 -2219 -989 -586 -572 -932 -1272
-1037 -2100 -25 -195 -25 -615 0 -810 118 -933 564 -1742 1274 -2313 160 -129
475 -342 504 -342 6 0 7 50 2 124 -3 68 -4 140 0 159 l7 35 77 7 c130 10 296
36 428 65 l126 27 -6 -51 c-3 -28 -11 -109 -17 -181 -6 -71 -13 -131 -14 -133
-2 -2 -54 1 -116 7 -134 13 -339 14 -357 3 -14 -9 -32 -65 -32 -97 0 -15 13
-28 45 -43 25 -12 48 -22 50 -22 3 0 5 19 5 41 l0 41 128 -7 c134 -7 261 -20
268 -28 3 -2 0 -16 -6 -31 -15 -41 -12 -111 7 -151 15 -31 25 -38 82 -55 185
-55 172 -54 486 -40 160 7 310 13 335 14 l45 1 7 -48 c12 -83 4 -81 248 -74
118 4 267 13 330 22 120 15 393 65 388 71 -2 1 -136 -10 -298 -25 -177 -17
-304 -25 -318 -20 -12 5 -27 19 -32 31 -10 24 -60 541 -60 619 0 31 6 51 18
62 13 12 94 22 347 46 182 17 344 31 361 31 l31 0 15 -157 c15 -155 15 -157
47 -185 19 -17 43 -28 60 -28 16 0 33 -6 39 -13 6 -6 16 -74 23 -150 l13 -139
30 6 c17 4 34 10 39 15 6 6 4 64 -3 145 -17 184 -20 188 -146 221 -15 4 -39
286 -25 295 6 3 76 12 155 19 151 13 179 9 190 -26 3 -10 17 -142 31 -293 14
-151 27 -275 28 -276 8 -7 327 158 437 225 272 167 438 298 666 526 296 295
489 562 670 925 408 823 475 1777 184 2651 -172 516 -435 948 -815 1338 -392
402 -845 691 -1357 866 -371 128 -693 184 -1088 189 -124 2 -250 2 -280 0z
m621 -1950 c381 -53 684 -194 932 -433 309 -298 495 -685 563 -1166 28 -194
26 -492 -4 -643 -58 -290 -206 -563 -403 -747 -457 -423 -1147 -609 -1784
-480 -453 91 -807 309 -1026 633 l-50 72 28 11 c44 16 109 75 144 129 l33 50
35 -67 c52 -98 95 -157 180 -247 104 -108 214 -188 356 -256 255 -123 509
-180 803 -180 317 0 588 60 862 191 381 183 638 459 734 791 41 142 49 222 43
415 -10 324 -79 576 -224 822 -279 472 -783 729 -1388 708 -458 -17 -905 -215
-1162 -516 -162 -189 -259 -384 -329 -657 -1 -7 -26 11 -54 38 -66 64 -138 98
-207 98 l-52 0 6 33 c75 404 281 772 563 1009 231 193 571 343 886 392 123 19
379 19 515 0z m-256 -719 c52 -26 62 -36 75 -72 10 -31 11 -50 4 -70 -9 -27
-14 -28 -91 -35 -44 -4 -134 -22 -199 -39 -184 -49 -223 -55 -274 -38 -24 8
-52 26 -62 40 -19 25 -19 28 -3 65 49 119 192 186 385 181 94 -2 111 -5 165
-32z m675 -111 c82 -21 249 -107 339 -174 127 -96 213 -196 271 -314 69 -139
93 -240 88 -371 -5 -145 -37 -184 -129 -156 -60 18 -101 61 -167 174 -124 213
-227 326 -406 446 -168 113 -249 216 -250 317 -1 56 18 89 58 97 30 7 132 -3
196 -19z m1149 -399 c78 -40 172 -199 213 -360 30 -119 32 -363 4 -465 -27
-97 -83 -198 -129 -231 -54 -39 -61 -37 -53 14 35 215 37 459 7 662 -19 121
-55 298 -77 373 -7 26 -3 27 35 7z m-3423 -331 c49 -23 129 -115 163 -187 65
-139 91 -258 91 -423 0 -184 -41 -335 -115 -423 -34 -39 -96 -70 -142 -71
l-31 0 34 68 c91 179 107 440 44 687 -27 103 -97 248 -149 307 -23 25 -41 49
-41 52 0 13 114 5 146 -10z m-287 -34 c87 -44 165 -164 217 -335 26 -84 28
-102 28 -270 0 -169 -1 -185 -27 -260 -14 -44 -42 -103 -61 -131 -148 -219
-376 -52 -462 337 -24 108 -22 311 5 411 58 220 171 314 300 248z m4333 -1240
c138 -39 174 -197 88 -387 -90 -198 -332 -443 -590 -597 -140 -83 -244 -106
-482 -106 l-157 0 -11 43 c-23 88 -93 327 -131 447 -21 69 -39 128 -39 132 0
3 17 17 39 31 30 20 63 29 157 41 243 32 392 83 542 183 176 118 309 183 426
208 76 17 111 18 158 5z m-4897 -405 c99 -21 182 -50 324 -113 148 -65 257
-90 436 -98 154 -8 325 6 524 42 l143 26 97 -45 c180 -85 402 -150 601 -178
139 -20 458 -17 605 5 226 33 437 96 649 195 49 22 90 41 92 41 15 0 214 -712
214 -764 0 -3 -9 3 -21 15 -45 45 -76 50 -236 38 -444 -33 -1214 -109 -1240
-122 -37 -20 -59 -45 -78 -90 -14 -33 -14 -53 -4 -143 6 -58 9 -107 7 -109 -7
-6 -340 -25 -561 -32 l-228 -6 6 99 c9 135 33 316 42 324 5 4 28 12 53 19 25
7 53 20 63 29 33 30 11 92 -33 92 -10 0 -74 -16 -142 -35 -272 -78 -498 -115
-704 -115 -124 0 -156 4 -255 29 -242 61 -401 144 -539 281 -97 97 -150 185
-176 296 -26 111 -2 227 58 281 56 52 170 66 303 38z m1236 -22 c22 -14 36
-30 32 -34 -10 -9 -210 -36 -323 -44 l-85 -6 35 20 c56 32 229 87 283 90 9 1
36 -11 58 -26z m1081 -1055 c-3 -48 53 -662 62 -676 16 -26 -73 -29 -103 -4
-20 16 -24 42 -52 347 l-31 329 27 23 c17 15 39 23 63 23 l37 0 -3 -42z m1616
-154 c14 -16 22 -38 22 -60 0 -51 -37 -81 -108 -89 -31 -4 -65 -9 -74 -11 -20
-6 -24 7 -33 108 l-6 66 63 10 c80 12 107 8 136 -24z m-1804 -210 c3 -26 6
-66 6 -89 0 -42 0 -42 -42 -48 -84 -12 -505 -29 -636 -25 -127 3 -135 4 -153
27 -27 33 -25 92 4 118 20 19 43 21 327 33 168 7 337 15 375 20 121 13 112 16
119 -36z"/>
<path d="M3941 609 c-86 -17 -135 -93 -129 -199 7 -129 83 -196 209 -184 91 8
124 21 158 59 77 88 59 245 -36 310 -31 20 -49 25 -98 24 -33 -1 -80 -5 -104
-10z m158 -64 c35 -18 61 -70 61 -125 0 -108 -85 -158 -148 -86 -70 79 -39
216 51 225 4 1 21 -6 36 -14z m-179 -39 c-18 -47 -12 -119 14 -169 26 -53 21
-59 -18 -21 -52 52 -58 143 -15 199 25 31 33 28 19 -9z"/>
</g>
</svg>
